<svg width="64" height="64" viewBox="0 0 64 64" fill="none" xmlns="http://www.w3.org/2000/svg">
<mask id="mask0_334_37" style="mask-type:alpha" maskUnits="userSpaceOnUse" x="0" y="0" width="64" height="64">
<rect width="64" height="64" fill="#D9D9D9"/>
</mask>
<g mask="url(#mask0_334_37)">
<path d="M10.6663 8L15.9997 18.6667H23.9997L18.6663 8H23.9997L29.333 18.6667H37.333L31.9997 8H37.333L42.6663 18.6667H50.6663L45.333 8H53.333C54.7997 8 56.0552 8.52222 57.0997 9.56667C58.1441 10.6111 58.6663 11.8667 58.6663 13.3333V50.6667C58.6663 52.1333 58.1441 53.3889 57.0997 54.4333C56.0552 55.4778 54.7997 56 53.333 56H10.6663C9.19967 56 7.94412 55.4778 6.89967 54.4333C5.85523 53.3889 5.33301 52.1333 5.33301 50.6667V13.3333C5.33301 11.8667 5.85523 10.6111 6.89967 9.56667C7.94412 8.52222 9.19967 8 10.6663 8ZM10.6663 24V50.6667H53.333V24H10.6663ZM21.333 48H42.6663V46.5333C42.6663 44.5778 41.6886 43 39.733 41.8C37.7775 40.6 35.1997 40 31.9997 40C28.7997 40 26.2219 40.6 24.2663 41.8C22.3108 43 21.333 44.5778 21.333 46.5333V48ZM31.9997 37.3333C33.4663 37.3333 34.7219 36.8111 35.7663 35.7667C36.8108 34.7222 37.333 33.4667 37.333 32C37.333 30.5333 36.8108 29.2778 35.7663 28.2333C34.7219 27.1889 33.4663 26.6667 31.9997 26.6667C30.533 26.6667 29.2775 27.1889 28.233 28.2333C27.1886 29.2778 26.6663 30.5333 26.6663 32C26.6663 33.4667 27.1886 34.7222 28.233 35.7667C29.2775 36.8111 30.533 37.3333 31.9997 37.3333Z" fill="#1C1B1F"/>
</g>
</svg>
