<svg width="54" height="60" viewBox="0 0 54 60" fill="none" xmlns="http://www.w3.org/2000/svg">
<path d="M13.6663 20.6667L18.9997 15.3334L13.6663 10.0001L8.33301 15.3334L13.6663 20.6667ZM5.66634 35.3334C4.19967 35.3334 2.94412 34.8112 1.89967 33.7668C0.85523 32.7223 0.333008 31.4667 0.333008 30.0001V6.00008C0.333008 4.53341 0.85523 3.27786 1.89967 2.23341C2.94412 1.18897 4.19967 0.666748 5.66634 0.666748H48.333C49.7997 0.666748 51.0552 1.18897 52.0997 2.23341C53.1441 3.27786 53.6663 4.53341 53.6663 6.00008V30.0001C53.6663 31.4667 53.1441 32.7223 52.0997 33.7668C51.0552 34.8112 49.7997 35.3334 48.333 35.3334H39.733C39.9997 34.4445 40.1775 33.5556 40.2663 32.6667C40.3552 31.7779 40.3552 30.889 40.2663 30.0001H48.333V6.00008H5.66634V30.0001H13.733C13.6441 30.889 13.6441 31.7779 13.733 32.6667C13.8219 33.5556 13.9997 34.4445 14.2663 35.3334H5.66634ZM38.9997 16.6667C40.1108 16.6667 41.0552 16.2779 41.833 15.5001C42.6108 14.7223 42.9997 13.7779 42.9997 12.6667C42.9997 11.5556 42.6108 10.6112 41.833 9.83342C41.0552 9.05564 40.1108 8.66675 38.9997 8.66675C37.8886 8.66675 36.9441 9.05564 36.1663 9.83342C35.3886 10.6112 34.9997 11.5556 34.9997 12.6667C34.9997 13.7779 35.3886 14.7223 36.1663 15.5001C36.9441 16.2779 37.8886 16.6667 38.9997 16.6667ZM8.33301 59.3334V53.7334C8.33301 52.1779 8.76634 50.7334 9.63301 49.4001C10.4997 48.0667 11.6441 47.0667 13.0663 46.4001C15.2441 45.3779 17.5108 44.6112 19.8663 44.1001C22.2219 43.589 24.5997 43.3334 26.9997 43.3334C29.3997 43.3334 31.7775 43.589 34.133 44.1001C36.4886 44.6112 38.7552 45.3779 40.933 46.4001C42.3552 47.0667 43.4997 48.0667 44.3663 49.4001C45.233 50.7334 45.6663 52.1779 45.6663 53.7334V59.3334H8.33301ZM13.6663 54.0001H40.333V53.7334C40.333 53.2001 40.1774 52.7112 39.8663 52.2668C39.5552 51.8223 39.1552 51.489 38.6663 51.2668C36.7997 50.4223 34.8886 49.7779 32.933 49.3334C30.9775 48.889 28.9997 48.6667 26.9997 48.6667C24.9997 48.6667 23.0219 48.889 21.0663 49.3334C19.1108 49.7779 17.1997 50.4223 15.333 51.2668C14.8441 51.489 14.4441 51.8223 14.133 52.2668C13.8219 52.7112 13.6663 53.2001 13.6663 53.7334V54.0001ZM26.9997 40.6667C24.4219 40.6667 22.2219 39.7556 20.3997 37.9334C18.5775 36.1112 17.6663 33.9112 17.6663 31.3334C17.6663 28.7556 18.5775 26.5556 20.3997 24.7334C22.2219 22.9112 24.4219 22.0001 26.9997 22.0001C29.5774 22.0001 31.7775 22.9112 33.5997 24.7334C35.4219 26.5556 36.333 28.7556 36.333 31.3334C36.333 33.9112 35.4219 36.1112 33.5997 37.9334C31.7775 39.7556 29.5774 40.6667 26.9997 40.6667ZM26.9997 35.3334C28.1108 35.3334 29.0552 34.9445 29.833 34.1667C30.6108 33.389 30.9997 32.4445 30.9997 31.3334C30.9997 30.2223 30.6108 29.2779 29.833 28.5001C29.0552 27.7223 28.1108 27.3334 26.9997 27.3334C25.8886 27.3334 24.9441 27.7223 24.1663 28.5001C23.3886 29.2779 22.9997 30.2223 22.9997 31.3334C22.9997 32.4445 23.3886 33.389 24.1663 34.1667C24.9441 34.9445 25.8886 35.3334 26.9997 35.3334Z" fill="#1C1B1F"/>
</svg>
