<svg width="64" height="64" viewBox="0 0 64 64" fill="none" xmlns="http://www.w3.org/2000/svg">
<mask id="mask0_334_244" style="mask-type:alpha" maskUnits="userSpaceOnUse" x="0" y="0" width="64" height="64">
<rect width="64" height="64" fill="#D9D9D9"/>
</mask>
<g mask="url(#mask0_334_244)">
<path d="M43.7333 55.9999L40 52.2666L44.2 47.9999L40 43.7999L43.7333 39.9999L48 44.2666L52.2 39.9999L56 43.7999L51.7333 47.9999L56 52.2666L52.2 55.9999L48 51.7999L43.7333 55.9999ZM16 50.6666C16.7556 50.6666 17.3889 50.411 17.9 49.8999C18.4111 49.3888 18.6667 48.7555 18.6667 47.9999C18.6667 47.2444 18.4111 46.611 17.9 46.0999C17.3889 45.5888 16.7556 45.3333 16 45.3333C15.2444 45.3333 14.6111 45.5888 14.1 46.0999C13.5889 46.611 13.3333 47.2444 13.3333 47.9999C13.3333 48.7555 13.5889 49.3888 14.1 49.8999C14.6111 50.411 15.2444 50.6666 16 50.6666ZM16 55.9999C13.7778 55.9999 11.8889 55.2221 10.3333 53.6666C8.77778 52.111 8 50.2221 8 47.9999C8 45.7777 8.77778 43.8888 10.3333 42.3333C11.8889 40.7777 13.7778 39.9999 16 39.9999C17.6444 39.9999 19.1444 40.4555 20.5 41.3666C21.8556 42.2777 22.8444 43.511 23.4667 45.0666C25.2 44.5777 26.6111 43.6221 27.7 42.1999C28.7889 40.7777 29.3333 39.1555 29.3333 37.3333V26.6666C29.3333 22.9777 30.6333 19.8333 33.2333 17.2333C35.8333 14.6333 38.9778 13.3333 42.6667 13.3333H45.7333L41.5333 9.13325L45.3333 5.33325L56 15.9999L45.3333 26.6666L41.5333 22.9333L45.7333 18.6666H42.6667C40.4444 18.6666 38.5556 19.4444 37 20.9999C35.4444 22.5555 34.6667 24.4444 34.6667 26.6666V37.3333C34.6667 40.5777 33.6222 43.4333 31.5333 45.8999C29.4444 48.3666 26.8 49.8888 23.6 50.4666C23.0667 52.111 22.1 53.4444 20.7 54.4666C19.3 55.4888 17.7333 55.9999 16 55.9999ZM11.7333 23.9999L8 20.2666L12.2 15.9999L8 11.7999L11.7333 7.99992L16 12.2666L20.2 7.99992L24 11.7999L19.7333 15.9999L24 20.2666L20.2 23.9999L16 19.7999L11.7333 23.9999Z" fill="#1C1B1F"/>
</g>
</svg>
