<svg width="60" height="54" viewBox="0 0 60 54" fill="none" xmlns="http://www.w3.org/2000/svg">
<path d="M27.3337 24.3333L6.00033 10.9999V37.6666H32.667V42.9999H6.00033C4.53366 42.9999 3.2781 42.4777 2.23366 41.4333C1.18921 40.3888 0.666992 39.1333 0.666992 37.6666V5.66658C0.666992 4.19992 1.18921 2.94436 2.23366 1.89992C3.2781 0.855474 4.53366 0.333252 6.00033 0.333252H48.667C50.1337 0.333252 51.3892 0.855474 52.4337 1.89992C53.4781 2.94436 54.0003 4.19992 54.0003 5.66658V18.9999H48.667V10.9999L27.3337 24.3333ZM27.3337 18.9999L48.667 5.66658H6.00033L27.3337 18.9999ZM48.667 53.6666C45.7337 53.6666 43.2225 52.6221 41.1337 50.5333C39.0448 48.4444 38.0003 45.9333 38.0003 42.9999V30.9999C38.0003 29.1333 38.6448 27.5555 39.9337 26.2666C41.2225 24.9777 42.8003 24.3333 44.667 24.3333C46.5337 24.3333 48.1114 24.9777 49.4003 26.2666C50.6892 27.5555 51.3337 29.1333 51.3337 30.9999V42.9999H46.0003V30.9999C46.0003 30.6444 45.867 30.3333 45.6003 30.0666C45.3337 29.7999 45.0225 29.6666 44.667 29.6666C44.3114 29.6666 44.0003 29.7999 43.7337 30.0666C43.467 30.3333 43.3337 30.6444 43.3337 30.9999V42.9999C43.3337 44.4666 43.8559 45.7221 44.9003 46.7666C45.9448 47.811 47.2003 48.3332 48.667 48.3332C50.1337 48.3332 51.3892 47.811 52.4337 46.7666C53.4781 45.7221 54.0003 44.4666 54.0003 42.9999V32.3333H59.3337V42.9999C59.3337 45.9333 58.2892 48.4444 56.2003 50.5333C54.1114 52.6221 51.6003 53.6666 48.667 53.6666ZM6.00033 10.9999V5.66658V37.6666V10.9999Z" fill="#1C1B1F"/>
</svg>
