<svg width="64" height="64" viewBox="0 0 64 64" fill="none" xmlns="http://www.w3.org/2000/svg">
<mask id="mask0_334_182" style="mask-type:alpha" maskUnits="userSpaceOnUse" x="0" y="0" width="64" height="64">
<rect width="64" height="64" fill="#D9D9D9"/>
</mask>
<g mask="url(#mask0_334_182)">
<path d="M16 58.6666V47.1999C13.4667 44.8888 11.5 42.1888 10.1 39.0999C8.7 36.011 8 32.7555 8 29.3333C8 22.6666 10.3333 16.9999 15 12.3333C19.6667 7.66659 25.3333 5.33325 32 5.33325C37.5556 5.33325 42.4778 6.96659 46.7667 10.2333C51.0556 13.4999 53.8444 17.7555 55.1333 22.9999L58.6 36.6666C58.8222 37.511 58.6667 38.2777 58.1333 38.9666C57.6 39.6555 56.8889 39.9999 56 39.9999H50.6667V47.9999C50.6667 49.4666 50.1444 50.7221 49.1 51.7666C48.0556 52.811 46.8 53.3332 45.3333 53.3332H40V58.6666H34.6667V47.9999H45.3333V34.6666H52.5333L50 24.3333C48.9778 20.2888 46.8 16.9999 43.4667 14.4666C40.1333 11.9333 36.3111 10.6666 32 10.6666C26.8444 10.6666 22.4444 12.4666 18.8 16.0666C15.1556 19.6666 13.3333 24.0444 13.3333 29.1999C13.3333 31.8666 13.8778 34.3999 14.9667 36.7999C16.0556 39.1999 17.6 41.3332 19.6 43.1999L21.3333 44.7999V58.6666H16ZM32 42.6666C32.7556 42.6666 33.3889 42.411 33.9 41.8999C34.4111 41.3888 34.6667 40.7555 34.6667 39.9999C34.6667 39.2444 34.4111 38.611 33.9 38.0999C33.3889 37.5888 32.7556 37.3333 32 37.3333C31.2444 37.3333 30.6111 37.5888 30.1 38.0999C29.5889 38.611 29.3333 39.2444 29.3333 39.9999C29.3333 40.7555 29.5889 41.3888 30.1 41.8999C30.6111 42.411 31.2444 42.6666 32 42.6666ZM30 34.1333H34.0667C34.0667 33.0221 34.2111 32.1221 34.5 31.4333C34.7889 30.7444 35.3778 29.911 36.2667 28.9333C37.0667 28.0444 37.8444 27.1444 38.6 26.2333C39.3556 25.3221 39.7333 24.1333 39.7333 22.6666C39.7333 20.7999 39.0111 19.2221 37.5667 17.9333C36.1222 16.6444 34.3333 15.9999 32.2 15.9999C30.4222 15.9999 28.8111 16.511 27.3667 17.5333C25.9222 18.5555 24.9111 19.8888 24.3333 21.5333L28 23.0666C28.3111 22.0888 28.8556 21.2999 29.6333 20.6999C30.4111 20.0999 31.2667 19.7999 32.2 19.7999C33.1778 19.7999 33.9889 20.0666 34.6333 20.5999C35.2778 21.1333 35.6 21.8221 35.6 22.6666C35.6 23.5999 35.3222 24.4333 34.7667 25.1666C34.2111 25.8999 33.5556 26.6444 32.8 27.3999C31.9111 28.3333 31.2222 29.2666 30.7333 30.1999C30.2444 31.1332 30 32.4444 30 34.1333Z" fill="#1C1B1F"/>
</g>
</svg>
