<svg width="654" height="466" viewBox="0 0 654 466" fill="none" xmlns="http://www.w3.org/2000/svg">
<path d="M184.756 421.654C184.529 421.779 184.23 421.842 183.859 421.842C182.809 421.842 182.283 421.256 182.283 420.084V416.533H181.252V415.713H182.283V414.248L183.244 413.938V415.713H184.756V416.533H183.244V419.914C183.244 420.316 183.312 420.604 183.449 420.775C183.586 420.947 183.812 421.033 184.129 421.033C184.371 421.033 184.58 420.967 184.756 420.834V421.654ZM188.822 421.654C188.596 421.779 188.297 421.842 187.926 421.842C186.875 421.842 186.35 421.256 186.35 420.084V416.533H185.318V415.713H186.35V414.248L187.311 413.938V415.713H188.822V416.533H187.311V419.914C187.311 420.316 187.379 420.604 187.516 420.775C187.652 420.947 187.879 421.033 188.195 421.033C188.438 421.033 188.646 420.967 188.822 420.834V421.654Z" fill="white"/>
<path opacity="0.44415" fill-rule="evenodd" clip-rule="evenodd" d="M576.85 57.9458C473.221 57.9458 365.715 23.5035 302.09 4.10604C238.466 -15.2914 173.935 36.2708 196.999 111.721C220.063 187.172 114.575 241.578 84.3734 295.097C54.1713 348.616 74.2442 451.325 200.875 439.272C327.507 427.219 373.995 407.158 426.85 448.691C479.704 490.225 558.929 450.549 576.85 397.871C594.771 345.194 680.479 57.9458 576.85 57.9458Z" fill="#45FF51" fill-opacity="0.2"/>
<path fill-rule="evenodd" clip-rule="evenodd" d="M571.5 417.707C614.302 417.707 649 383.033 649 340.261C649 297.489 614.302 262.815 571.5 262.815C528.698 262.815 494 297.489 494 340.261C494 383.033 528.698 417.707 571.5 417.707Z" stroke="#4BCA47" stroke-opacity="0.1" stroke-width="10"/>
<path fill-rule="evenodd" clip-rule="evenodd" d="M100.5 454.681C110.717 454.681 119 446.404 119 436.194C119 425.983 110.717 417.707 100.5 417.707C90.2827 417.707 82 425.983 82 436.194C82 446.404 90.2827 454.681 100.5 454.681Z" stroke="#4BCA47" stroke-opacity="0.1" stroke-width="5"/>
<path d="M463 142.9L596 77.9452" stroke="url(#paint0_linear_52_665)" stroke-width="5"/>
<path d="M82.25 66.2035L39.75 33.7263" stroke="#4BCA47" stroke-opacity="0.1" stroke-width="5"/>
<path fill-rule="evenodd" clip-rule="evenodd" d="M379.329 177.863C380.372 171.515 384.705 167.579 390.923 166.196C397.141 164.813 395.218 159.451 395.927 154.09C396.638 148.728 403.848 146.046 408.71 146.214C413.573 146.382 415.276 143.533 417.024 139.679C418.771 135.826 425.646 133.647 428.329 137.166C431.012 140.685 427.136 145.041 424.882 146.549C422.627 148.058 421.454 151.877 421.454 155.664C421.454 159.451 419.777 164.646 413.573 165.316C407.369 165.987 405.171 171.336 405.434 175.369C405.698 179.402 404.015 186.261 400.494 187.601C396.973 188.942 389.931 193.575 389.595 201.144C389.26 208.714 379.329 212.211 379.329 212.211V177.863Z" fill="#82F573"/>
<path fill-rule="evenodd" clip-rule="evenodd" d="M406.627 184.25C408.466 179.637 413.573 169.002 420.112 169.672C426.652 170.342 432.353 168.499 434.197 163.976C436.042 159.451 442.916 157.943 445.599 161.126C448.282 164.311 445.264 168.986 442.413 171.842C439.562 174.699 442.581 183.077 438.725 185.926C434.867 188.774 429.033 189.276 425.578 192.628C422.125 195.98 424.618 203.046 418.603 206.483C412.588 209.921 403.68 211.834 402.171 220.327C400.661 228.82 388.549 235.261 383.119 232.962L377.69 230.664V201.144C377.69 201.144 379.997 195.146 383.119 191.96C386.242 188.774 389.816 188.013 394.536 188.079C399.256 188.145 404.73 189.007 406.627 184.25Z" fill="#82F573"/>
<path fill-rule="evenodd" clip-rule="evenodd" d="M380.007 196.597L379.732 196.508C379.761 196.415 382.792 187.153 386.718 182.629C388.102 181.036 389.64 179.813 391.128 178.629C393.966 176.372 396.647 174.24 398.208 169.785C400.677 162.735 404.686 157.807 409.8 155.532C414.913 153.258 417.824 146.465 417.853 146.397L418.12 146.509C418.09 146.578 415.136 153.476 409.919 155.796C404.879 158.037 400.924 162.908 398.481 169.88C396.893 174.414 394.18 176.572 391.308 178.856C389.83 180.031 388.302 181.247 386.938 182.818C383.049 187.299 380.037 196.505 380.007 196.597Z" fill="#277A2D"/>
<path fill-rule="evenodd" clip-rule="evenodd" d="M378.571 219.026L378.325 218.873C378.396 218.76 385.435 207.561 391.858 203.781C393.866 202.6 396.493 201.538 399.274 200.414C405.51 197.895 412.577 195.038 415.685 189.697C420.334 181.707 427.424 176.859 432.084 175.135L432.184 175.406C427.57 177.113 420.545 181.919 415.936 189.842C412.778 195.27 405.661 198.145 399.383 200.682C396.612 201.802 393.994 202.86 392.005 204.03C385.641 207.775 378.641 218.914 378.571 219.026Z" fill="#277A2D"/>
<mask id="mask0_52_665" style="mask-type:luminance" maskUnits="userSpaceOnUse" x="0" y="279" width="93" height="70">
<path fill-rule="evenodd" clip-rule="evenodd" d="M0 279.597H92.8758V348.394H0V279.597Z" fill="white"/>
</mask>
<g mask="url(#mask0_52_665)">
<path fill-rule="evenodd" clip-rule="evenodd" d="M62.5402 299.55C62.5402 299.55 7.90293 271.553 0.509135 281.887C-6.88625 292.221 68.4166 361.407 87.9556 346.227C107.493 331.046 62.5402 299.55 62.5402 299.55Z" fill="#82F573"/>
</g>
<path fill-rule="evenodd" clip-rule="evenodd" d="M86.3705 341.035C79.6778 326.899 22.9984 295.776 22.4275 295.463L22.6165 295.119C23.1889 295.432 79.9795 326.617 86.7262 340.867L86.3705 341.035Z" fill="#5563FF"/>
<path fill-rule="evenodd" clip-rule="evenodd" d="M93.2544 324.214C81.7493 340.647 28.7231 292.457 16.3397 262.728C3.95559 232.999 10.3767 220.056 13.1296 217.59C15.8816 215.124 51.0656 232.931 66.9799 252.896C82.5568 272.438 102.968 310.34 93.2544 324.214Z" fill="#82F573"/>
<path fill-rule="evenodd" clip-rule="evenodd" d="M62.5402 205.037C69.9586 201.805 97.6909 238.393 99.3393 266.031C100.988 293.67 94.8222 303.497 83.5401 293.708C72.2573 283.919 66.9176 271.167 62.5402 252.895C58.1636 234.624 53.3655 209.036 62.5402 205.037Z" fill="#82F573"/>
<path fill-rule="evenodd" clip-rule="evenodd" d="M89.3604 318.815C65.776 275.668 34.7978 253.277 34.4882 253.056L34.7168 252.736C35.0265 252.957 66.0762 275.396 89.7066 318.627L89.3604 318.815Z" fill="#5563FF"/>
<path fill-rule="evenodd" clip-rule="evenodd" d="M360.379 383.804C365.615 386.825 372.308 385.032 375.331 379.801L414.97 311.193L396.012 300.255L356.372 368.863C353.35 374.094 355.143 380.784 360.379 383.804Z" fill="#82F573"/>
<path fill-rule="evenodd" clip-rule="evenodd" d="M489.768 383.804C484.533 386.825 477.839 385.032 474.816 379.801L435.177 311.193L454.136 300.255L493.775 368.863C496.798 374.094 495.004 380.784 489.768 383.804Z" fill="#82F573"/>
<path fill-rule="evenodd" clip-rule="evenodd" d="M345.765 283.988C345.765 327.758 381.273 363.24 425.074 363.24C468.874 363.24 504.382 327.758 504.382 283.988C504.382 240.218 468.874 204.735 425.074 204.735C381.273 204.735 345.765 240.218 345.765 283.988Z" fill="white"/>
<path fill-rule="evenodd" clip-rule="evenodd" d="M361.63 283.988C361.63 318.946 390.091 347.386 425.073 347.386C460.056 347.386 488.516 318.946 488.516 283.988C488.516 249.03 460.056 220.59 425.073 220.59C390.091 220.59 361.63 249.03 361.63 283.988ZM368.859 340.162C353.844 325.157 345.576 305.208 345.576 283.988C345.576 262.768 353.844 242.818 368.86 227.814C383.875 212.809 403.838 204.546 425.073 204.546C446.308 204.546 466.272 212.809 481.287 227.814C496.302 242.818 504.571 262.768 504.571 283.988C504.571 305.208 496.302 325.157 481.287 340.162C466.272 355.167 446.308 363.43 425.073 363.43C403.838 363.43 383.875 355.167 368.859 340.162Z" fill="#A2FF96"/>
<path fill-rule="evenodd" clip-rule="evenodd" d="M392.677 283.988C392.677 301.839 407.21 316.362 425.074 316.362C442.937 316.362 457.471 301.839 457.471 283.988C457.471 266.136 442.937 251.614 425.074 251.614C407.21 251.614 392.677 266.136 392.677 283.988ZM376.621 283.988C376.621 257.29 398.357 235.57 425.074 235.57C451.79 235.57 473.526 257.29 473.526 283.988C473.526 310.685 451.79 332.406 425.074 332.406C398.357 332.406 376.621 310.685 376.621 283.988Z" fill="#A2FF96"/>
<path fill-rule="evenodd" clip-rule="evenodd" d="M412.339 283.988C412.339 291.016 418.041 296.713 425.074 296.713C432.107 296.713 437.807 291.016 437.807 283.988C437.807 276.96 432.107 271.263 425.074 271.263C418.041 271.263 412.339 276.96 412.339 283.988Z" fill="#A2FF96"/>
<path fill-rule="evenodd" clip-rule="evenodd" d="M422.669 286.361C422.607 286.299 422.551 286.235 422.497 286.169C421.225 284.696 421.284 282.471 422.684 281.073L490.116 213.688L488.297 204.132L508.777 183.667L511.445 197.677L525.464 200.342L504.985 220.808L495.422 218.99L427.989 286.376C426.524 287.84 424.148 287.84 422.684 286.376C422.681 286.373 422.679 286.37 422.677 286.368C422.674 286.365 422.671 286.363 422.669 286.361Z" fill="#82F573"/>
<path fill-rule="evenodd" clip-rule="evenodd" d="M384.767 406.718H77.7996V117.21C77.7996 113.351 80.9303 110.222 84.7924 110.222H377.773C381.636 110.222 384.767 113.351 384.767 117.21V406.718Z" fill="#E0FFE2"/>
<path fill-rule="evenodd" clip-rule="evenodd" d="M350.549 184.412H112.017C103.07 184.412 95.8182 177.165 95.8182 168.225C95.8182 159.284 103.07 152.037 112.017 152.037H350.549C359.495 152.037 366.747 159.284 366.747 168.225C366.747 177.165 359.495 184.412 350.549 184.412Z" fill="white"/>
<path fill-rule="evenodd" clip-rule="evenodd" d="M350.236 178.631C344.485 178.631 339.823 173.972 339.823 168.225C339.823 162.478 344.485 157.819 350.236 157.819C355.987 157.819 360.649 162.478 360.649 168.225C360.649 173.972 355.987 178.631 350.236 178.631Z" fill="#277A2D"/>
<path fill-rule="evenodd" clip-rule="evenodd" d="M185.823 175.596H114.846C113.649 175.596 112.677 174.625 112.677 173.428C112.677 172.23 113.649 171.26 114.846 171.26H185.823C187.022 171.26 187.992 172.23 187.992 173.428C187.992 174.625 187.022 175.596 185.823 175.596Z" fill="#F1F3FF"/>
<path fill-rule="evenodd" clip-rule="evenodd" d="M349.339 163.832C348.411 163.832 347.539 164.188 346.868 164.859C346.001 165.725 345.659 166.923 345.931 168.147C346.213 169.421 347.259 170.467 348.534 170.749C349.761 171.02 350.959 170.679 351.826 169.814C352.693 168.947 353.033 167.748 352.762 166.525V166.524C352.479 165.251 351.434 164.206 350.159 163.923C349.884 163.862 349.609 163.832 349.339 163.832ZM349.337 172.425C348.957 172.425 348.573 172.383 348.19 172.298C346.296 171.879 344.8 170.384 344.38 168.491C343.995 166.753 344.505 164.975 345.745 163.737C346.984 162.497 348.764 161.989 350.503 162.373C352.397 162.793 353.892 164.287 354.313 166.18C354.698 167.919 354.188 169.696 352.949 170.936C351.981 171.902 350.686 172.425 349.337 172.425Z" fill="white"/>
<path fill-rule="evenodd" clip-rule="evenodd" d="M355.425 174.135C355.24 174.135 355.054 174.064 354.912 173.922L351.873 170.886C351.59 170.603 351.59 170.144 351.873 169.861C352.156 169.578 352.615 169.578 352.898 169.861L355.938 172.898C356.221 173.181 356.221 173.639 355.938 173.922C355.797 174.064 355.611 174.135 355.425 174.135Z" fill="white"/>
<path fill-rule="evenodd" clip-rule="evenodd" d="M243.118 260.909H209.816C206.487 260.909 203.789 258.213 203.789 254.887C203.789 251.56 206.487 248.864 209.816 248.864H243.118C246.446 248.864 249.144 251.56 249.144 254.887C249.144 258.213 246.446 260.909 243.118 260.909Z" fill="#82F573"/>
<path fill-rule="evenodd" clip-rule="evenodd" d="M77.7992 134.464H384.766V117.21C384.766 113.351 381.636 110.222 377.774 110.222H84.7928C80.93 110.222 77.7992 113.351 77.7992 117.21V134.464Z" fill="#277A2D"/>
<path fill-rule="evenodd" clip-rule="evenodd" d="M115.339 122.343C115.339 125.18 113.038 127.48 110.198 127.48C107.359 127.48 105.057 125.18 105.057 122.343C105.057 119.506 107.359 117.205 110.198 117.205C113.038 117.205 115.339 119.506 115.339 122.343Z" fill="#A2FF96"/>
<mask id="mask1_52_665" style="mask-type:luminance" maskUnits="userSpaceOnUse" x="0" y="19" width="526" height="423">
<path fill-rule="evenodd" clip-rule="evenodd" d="M0 441.331H525.465V19.7793H0V441.331Z" fill="white"/>
</mask>
<g mask="url(#mask1_52_665)">
<path fill-rule="evenodd" clip-rule="evenodd" d="M108.714 195.381H111.609V85.7119H108.714V195.381Z" fill="#82F573"/>
<path fill-rule="evenodd" clip-rule="evenodd" d="M94.2648 297.417L88.3153 283.246L74.6417 290.28L97.7132 226.936L117.336 234.073L94.2648 297.417Z" fill="#33DE24"/>
<path fill-rule="evenodd" clip-rule="evenodd" d="M126.058 297.417L132.008 283.246L145.681 290.28L122.609 226.936L102.987 234.073L126.058 297.417Z" fill="#33DE24"/>
<path fill-rule="evenodd" clip-rule="evenodd" d="M115.283 259.658C119.15 264.628 127.121 261.729 126.888 255.438C126.731 251.212 130.597 247.971 134.734 248.859C140.893 250.181 145.134 242.84 140.908 238.17C138.071 235.034 138.948 230.067 142.688 228.09C148.255 225.147 146.783 216.799 140.542 215.937C136.352 215.358 133.828 210.989 135.422 207.073C137.794 201.241 131.296 195.793 125.961 199.14C122.379 201.388 117.635 199.662 116.336 195.639C114.403 189.648 105.92 189.648 103.986 195.639C102.687 199.662 97.9447 201.388 94.3614 199.14C89.0264 195.793 82.5283 201.241 84.9008 207.073C86.4935 210.989 83.9702 215.358 79.7794 215.937C73.5393 216.799 72.0664 225.147 77.6348 228.09C81.3746 230.067 82.2512 235.034 79.4134 238.17C75.1885 242.84 79.43 250.181 85.5884 248.859H85.5892C89.7251 247.971 93.592 251.212 93.4347 255.438C93.2013 261.729 101.172 264.628 105.04 259.658C107.637 256.321 112.685 256.321 115.283 259.658Z" fill="#38F527"/>
<path fill-rule="evenodd" clip-rule="evenodd" d="M134.117 226.661C134.117 239.882 123.392 250.6 110.161 250.6C96.9314 250.6 86.2052 239.882 86.2052 226.661C86.2052 213.44 96.9314 202.723 110.161 202.723C123.392 202.723 134.117 213.44 134.117 226.661Z" fill="#33DE24"/>
<path fill-rule="evenodd" clip-rule="evenodd" d="M144.117 55.2957V50.1962C144.117 42.5355 137.904 36.3259 130.238 36.3259H116.065C104.112 36.3259 92.7023 41.3151 84.5907 50.0891L73.18 62.4296C70.8115 64.9925 69.4958 68.3535 69.4958 71.8423C69.4958 79.5023 75.7098 85.7118 83.3751 85.7118H130.238C137.904 85.7118 144.117 79.5023 144.117 71.8423V55.2957Z" fill="#82F573"/>
<path fill-rule="evenodd" clip-rule="evenodd" d="M144.117 70.9943H179.465V55.2959H144.117V70.9943Z" fill="#82F573"/>
<path fill-rule="evenodd" clip-rule="evenodd" d="M203.742 36.3262H190.651L172.323 61.0191H185.414L203.742 36.3262Z" fill="#82F573"/>
<path fill-rule="evenodd" clip-rule="evenodd" d="M196.945 76.5545L185.415 61.0188H172.322L183.854 76.5545H196.945Z" fill="#82F573"/>
<path fill-rule="evenodd" clip-rule="evenodd" d="M116.129 36.3261H119.786V25.782H116.129V36.3261Z" fill="#277A2D"/>
<path fill-rule="evenodd" clip-rule="evenodd" d="M92.3669 95.5158H96.0226V85.7119H92.3669V95.5158Z" fill="#277A2D"/>
<path fill-rule="evenodd" clip-rule="evenodd" d="M121.875 95.5158H125.53V85.7119H121.875V95.5158Z" fill="#277A2D"/>
<path fill-rule="evenodd" clip-rule="evenodd" d="M55.8679 23.6942C55.8679 22.6857 56.6857 21.8677 57.6957 21.8677H116.352V25.5215H57.6957C56.6857 25.5215 55.8679 24.7035 55.8679 23.6942Z" fill="#82F573"/>
<path fill-rule="evenodd" clip-rule="evenodd" d="M180.046 23.6942C180.046 22.6857 179.229 21.8677 178.218 21.8677H119.562V25.5215H178.218C179.229 25.5215 180.046 24.7035 180.046 23.6942Z" fill="#82F573"/>
<path fill-rule="evenodd" clip-rule="evenodd" d="M121.874 23.6942C121.874 25.8563 120.12 27.6091 117.957 27.6091C115.794 27.6091 114.04 25.8563 114.04 23.6942C114.04 21.532 115.794 19.7793 117.957 19.7793C120.12 19.7793 121.874 21.532 121.874 23.6942Z" fill="#82F573"/>
<path fill-rule="evenodd" clip-rule="evenodd" d="M149.337 97.3434H87.6137C80.8757 97.3434 74.3577 94.5361 69.7302 89.6421C69.0371 88.909 69.0696 87.7521 69.8033 87.0595C70.5377 86.3668 71.6946 86.3993 72.3878 87.1325C76.3276 91.2997 81.877 93.6895 87.6137 93.6895H149.337C150.347 93.6895 151.166 94.5076 151.166 95.5161C151.166 96.5253 150.347 97.3434 149.337 97.3434Z" fill="#5AD46C"/>
<path fill-rule="evenodd" clip-rule="evenodd" d="M98.852 64.3459C99.334 64.3459 99.7699 64.0595 99.9612 63.6175L107.602 45.9569C107.947 45.1595 107.362 44.27 106.492 44.27H91.2049C88.8245 45.964 86.606 47.9096 84.5908 50.0892L73.1802 62.4297C72.6283 63.0272 72.136 63.6699 71.7009 64.3459H98.852Z" fill="#277A2D"/>
<path fill-rule="evenodd" clip-rule="evenodd" d="M121.432 56.1142L125.826 45.9572C126.172 45.1598 125.586 44.2695 124.717 44.2695H113.808C113.326 44.2695 112.89 44.556 112.698 44.9987L108.304 55.1557C107.959 55.9531 108.545 56.8425 109.414 56.8425H120.323C120.804 56.8425 121.241 56.5561 121.432 56.1142Z" fill="#277A2D"/>
<path fill-rule="evenodd" clip-rule="evenodd" d="M371.636 270.982C371.636 270.982 372.561 269.744 371.917 267.694C371.273 265.644 371.918 263.311 371.58 263.109C371.24 262.907 370.489 263.13 369.712 265.75C368.934 268.37 366.485 264.041 366.104 263.283C365.722 262.526 363.348 261.109 362.808 262.6C362.269 264.091 363.648 268.517 364.356 269.789C365.063 271.06 368.862 272.95 368.862 272.95L371.636 270.982Z" fill="#FFFAAD"/>
<path fill-rule="evenodd" clip-rule="evenodd" d="M372.861 271.566L372.196 269.981C372.196 269.981 368.565 270.492 366.57 272.179L367.133 274.325L372.861 271.566Z" fill="#D4E9D5"/>
<path fill-rule="evenodd" clip-rule="evenodd" d="M395.187 275.318C389.443 273.993 383.385 282.29 380.558 282.715C377.731 283.14 373.155 271.109 373.155 271.109C373.155 271.109 368.04 272.538 365.885 274.006L372.481 292.422L387.135 294.977L395.187 275.318Z" fill="#38F527"/>
<path fill-rule="evenodd" clip-rule="evenodd" d="M387.563 273.705C387.563 273.705 388.539 275.33 388.756 277.389C388.972 279.447 396.534 277.487 396.534 277.487C396.534 277.487 395.235 271.214 395.79 270.239C396.344 269.264 387.563 273.705 387.563 273.705Z" fill="#FFFAAD"/>
<path fill-rule="evenodd" clip-rule="evenodd" d="M397.292 273.22C397.292 273.22 392.117 272.794 387.135 276.843L386.523 281.318L398.358 277.262L397.292 273.22Z" fill="#D4E9D5"/>
<path fill-rule="evenodd" clip-rule="evenodd" d="M390.631 254.987C395.558 255.635 399.094 255.117 399.228 264.095C399.362 273.075 385.631 275.155 384.021 274.352C382.412 273.548 383.082 266.31 383.216 262.156C383.35 258.001 386.708 254.47 390.631 254.987Z" fill="#FFFAAD"/>
<path fill-rule="evenodd" clip-rule="evenodd" d="M391.8 263.898C391.8 263.898 393.408 261.754 395.153 263.228C396.896 264.702 394.75 269.661 392.47 269.661L391.8 263.898Z" fill="#FFFAAD"/>
<path fill-rule="evenodd" clip-rule="evenodd" d="M400.613 258.104C400.613 258.104 401.445 253.948 396.87 253.428C392.294 252.909 388.863 250.103 385.224 251.662C381.585 253.22 381.623 258.496 383.631 259.858C385.64 261.221 391.097 260.909 391.097 260.909L391.799 263.898C391.799 263.898 392.414 269.376 395.473 271.949C395.473 271.949 398.513 272.249 400.176 267.573C401.84 262.898 400.613 258.104 400.613 258.104Z" fill="#30552C"/>
<path fill-rule="evenodd" clip-rule="evenodd" d="M366.779 355.998C366.779 355.998 367.688 360.407 366.779 363.001C366.779 363.001 362.379 364.345 359.974 364.499C357.568 364.655 350.974 367.057 349.034 367.057C347.095 367.057 345.466 365.198 350.742 362.639C356.016 360.081 358.267 355.998 358.267 355.998L359.353 354.262L366.779 355.998Z" fill="#277A2D"/>
<path fill-rule="evenodd" clip-rule="evenodd" d="M404.314 313.968C404.314 313.968 407.457 324.585 402.405 327.846C397.35 331.107 375.954 330.2 375.954 330.2L367.804 357.159C367.804 357.159 356.425 357.165 354.897 351.009C354.897 351.009 360.84 322.377 363.898 319.7C366.954 317.023 404.314 313.968 404.314 313.968Z" fill="#21B01C"/>
<path fill-rule="evenodd" clip-rule="evenodd" d="M397.78 275.071C397.78 275.071 386.097 274.392 382.793 289.094C379.487 303.797 377.142 314.557 380.554 320.097C383.965 325.637 385.031 327.518 390.576 326.045C396.119 324.573 407.527 318.712 407.634 314.984C407.74 311.255 404.009 303.051 404.116 297.085C404.222 291.119 405.165 275.375 397.78 275.071Z" fill="#38F527"/>
<path fill-rule="evenodd" clip-rule="evenodd" d="M360.891 275.966C360.891 275.966 361.435 274.334 360.036 272.393C358.637 270.452 358.504 267.759 358.074 267.664C357.645 267.569 356.929 268.068 357.025 271.109C357.12 274.15 353.016 270.43 352.347 269.763C351.679 269.095 348.673 268.427 348.626 270.192C348.577 271.957 351.584 276.153 352.777 277.251C353.97 278.347 358.648 279.016 358.648 279.016L360.891 275.966Z" fill="#FFFAAD"/>
<path fill-rule="evenodd" clip-rule="evenodd" d="M362.416 276.508L361.141 275.317C361.141 275.317 358.078 276.168 356.08 279.95L358.504 282.715L362.416 276.508Z" fill="#D4E9D5"/>
<path fill-rule="evenodd" clip-rule="evenodd" d="M396.45 277.916C404.6 284.725 387.421 303.385 381.142 303.77C374.862 304.157 355.566 283.278 355.566 283.278C355.566 283.278 359.239 278.263 362.331 275.966C362.331 275.966 374.969 288.686 378.882 288.891C382.793 289.094 389.132 271.804 396.45 277.916Z" fill="#38F527"/>
<path fill-rule="evenodd" clip-rule="evenodd" d="M356.451 401.091L360.773 386.287H385.381L381.059 401.091H356.451ZM401.296 331.769L396.771 347.269H372.164L376.689 331.769H401.296ZM371.249 350.406H395.856L391.535 365.209H366.926L371.249 350.406ZM386.297 383.15H361.689L366.011 368.347H390.619L386.297 383.15ZM349.112 420.629C349.259 420.671 349.407 420.691 349.553 420.691C350.232 420.691 350.859 420.247 351.059 419.561L355.535 404.228H380.143L375.922 418.683C375.68 419.515 376.157 420.386 376.989 420.629C377.822 420.871 378.694 420.394 378.936 419.561L393.972 368.061C394.377 367.778 394.643 367.31 394.643 366.778C394.643 366.565 394.599 366.361 394.522 366.177L399.277 349.889C399.531 349.61 399.689 349.244 399.689 348.837C399.689 348.746 399.677 348.657 399.662 348.57L404.897 330.64C405.035 330.166 404.942 329.654 404.646 329.259C404.349 328.865 403.884 328.632 403.39 328.632H375.513C374.815 328.632 374.2 329.091 374.005 329.761L348.045 418.683C347.802 419.515 348.28 420.386 349.112 420.629Z" fill="#277A2D"/>
<path fill-rule="evenodd" clip-rule="evenodd" d="M377.795 331.769H402.402L406.927 347.269H382.32L377.795 331.769ZM398.033 401.091L393.711 386.287H418.319L422.641 401.091H398.033ZM388.473 368.347H413.081L417.404 383.15H392.796L388.473 368.347ZM383.237 350.406H407.844L412.166 365.21H387.558L383.237 350.406ZM374.195 330.64L389.914 384.481C389.902 384.559 389.89 384.637 389.89 384.718C389.89 385.114 390.042 385.472 390.283 385.748L400.155 419.562C400.355 420.246 400.982 420.692 401.662 420.692C401.807 420.692 401.955 420.671 402.101 420.628C402.934 420.386 403.412 419.515 403.169 418.683L398.949 404.228H423.557L428.033 419.562C428.277 420.393 429.148 420.871 429.981 420.628C430.812 420.386 431.29 419.515 431.047 418.683L426.462 402.979C426.484 402.876 426.496 402.769 426.496 402.659C426.496 402.234 426.325 401.85 426.05 401.567L415.808 366.485C415.791 366.394 415.763 366.307 415.731 366.223L410.754 349.172C410.777 349.064 410.791 348.953 410.791 348.838C410.791 348.405 410.616 348.014 410.333 347.73L405.087 329.761C404.892 329.092 404.278 328.632 403.58 328.632H375.702C375.208 328.632 374.742 328.864 374.446 329.259C374.149 329.654 374.056 330.165 374.195 330.64Z" fill="#277A2D"/>
<path fill-rule="evenodd" clip-rule="evenodd" d="M223.293 239.688H160.671C157.341 239.688 154.643 236.992 154.643 233.666C154.643 230.339 157.341 227.643 160.671 227.643H223.293C226.62 227.643 229.319 230.339 229.319 233.666C229.319 236.992 226.62 239.688 223.293 239.688Z" fill="#82F573"/>
<path fill-rule="evenodd" clip-rule="evenodd" d="M193.973 260.909H160.671C157.342 260.909 154.644 258.213 154.644 254.887C154.644 251.56 157.342 248.864 160.671 248.864H193.973C197.301 248.864 200 251.56 200 254.887C200 258.213 197.301 260.909 193.973 260.909Z" fill="#82F573"/>
<path fill-rule="evenodd" clip-rule="evenodd" d="M97.495 122.343C97.495 125.18 95.194 127.48 92.3538 127.48C89.5145 127.48 87.2126 125.18 87.2126 122.343C87.2126 119.506 89.5145 117.205 92.3538 117.205C95.194 117.205 97.495 119.506 97.495 122.343Z" fill="#33DE24"/>
<path fill-rule="evenodd" clip-rule="evenodd" d="M133.985 122.343C133.985 125.18 131.683 127.48 128.843 127.48C126.004 127.48 123.703 125.18 123.703 122.343C123.703 119.506 126.004 117.205 128.843 117.205C131.683 117.205 133.985 119.506 133.985 122.343Z" fill="#BFF8C3"/>
<path fill-rule="evenodd" clip-rule="evenodd" d="M246.906 218.685H160.671C157.342 218.685 154.644 215.989 154.644 212.663C154.644 209.336 157.342 206.64 160.671 206.64H246.906C250.235 206.64 252.934 209.336 252.934 212.663C252.934 215.989 250.235 218.685 246.906 218.685Z" fill="#277A2D"/>
<path fill-rule="evenodd" clip-rule="evenodd" d="M243.118 358.759H209.816C206.487 358.759 203.789 356.063 203.789 352.736C203.789 349.41 206.487 346.713 209.816 346.713H243.118C246.446 346.713 249.144 349.41 249.144 352.736C249.144 356.063 246.446 358.759 243.118 358.759Z" fill="#82F573"/>
<path fill-rule="evenodd" clip-rule="evenodd" d="M223.293 337.537H160.671C157.341 337.537 154.643 334.841 154.643 331.514C154.643 328.188 157.341 325.492 160.671 325.492H223.293C226.62 325.492 229.319 328.188 229.319 331.514C229.319 334.841 226.62 337.537 223.293 337.537Z" fill="#82F573"/>
<path fill-rule="evenodd" clip-rule="evenodd" d="M193.973 358.759H160.671C157.342 358.759 154.644 356.063 154.644 352.736C154.644 349.41 157.342 346.713 160.671 346.713H193.973C197.301 346.713 200 349.41 200 352.736C200 356.063 197.301 358.759 193.973 358.759Z" fill="#82F573"/>
<path fill-rule="evenodd" clip-rule="evenodd" d="M246.906 316.535H160.671C157.342 316.535 154.644 313.838 154.644 310.512C154.644 307.185 157.342 304.489 160.671 304.489H246.906C250.235 304.489 252.934 307.185 252.934 310.512C252.934 313.838 250.235 316.535 246.906 316.535Z" fill="#277A2D"/>
<path fill-rule="evenodd" clip-rule="evenodd" d="M108.27 241.19V219.149L103.235 221.27L101.238 216.654L109.602 212.745H113.722V241.19H108.27Z" fill="white"/>
<path fill-rule="evenodd" clip-rule="evenodd" d="M133.777 322.384C133.777 334.306 124.105 343.971 112.174 343.971C100.244 343.971 90.5715 334.306 90.5715 322.384C90.5715 310.461 100.244 300.796 112.174 300.796C124.105 300.796 133.777 310.461 133.777 322.384Z" fill="#ABFFBD"/>
<path fill-rule="evenodd" clip-rule="evenodd" d="M106.142 331.723V328.55C107.191 327.52 108.161 326.559 109.05 325.671C109.425 325.298 109.806 324.916 110.197 324.525C110.589 324.134 110.954 323.769 111.291 323.431C111.63 323.094 111.931 322.787 112.199 322.512C112.466 322.236 112.671 322.018 112.812 321.859C113.097 321.522 113.349 321.218 113.572 320.952C113.796 320.685 113.973 320.423 114.105 320.166C114.24 319.909 114.341 319.651 114.413 319.393C114.484 319.136 114.52 318.855 114.52 318.553C114.52 317.966 114.288 317.456 113.827 317.02C113.364 316.585 112.733 316.367 111.931 316.367C111.131 316.367 110.509 316.593 110.064 317.047C109.619 317.5 109.317 318.011 109.158 318.58L105.983 317.273C106.126 316.793 106.356 316.301 106.676 315.794C106.996 315.287 107.406 314.834 107.904 314.434C108.401 314.035 108.993 313.705 109.677 313.447C110.362 313.19 111.131 313.061 111.985 313.061C112.91 313.061 113.746 313.199 114.493 313.474C115.24 313.75 115.87 314.127 116.387 314.607C116.903 315.087 117.304 315.652 117.587 316.301C117.872 316.949 118.015 317.646 118.015 318.393C118.015 319.531 117.735 320.575 117.174 321.526C116.614 322.477 115.934 323.361 115.134 324.178L112.84 326.47C112.234 327.076 111.549 327.75 110.784 328.497L110.891 328.657H118.282V331.723H106.142Z" fill="#F1F3FF"/>
<path fill-rule="evenodd" clip-rule="evenodd" d="M161.861 413.934L173.252 375.345L184.643 413.934H161.861ZM57.5687 413.934L68.9596 375.345L80.3512 413.934H57.5687ZM190.054 422.531L175.204 372.22H182.456C183.42 372.22 184.201 371.44 184.201 370.476H174.689L174.575 370.088C174.573 370.083 174.571 370.08 174.57 370.076C174.551 370.019 174.526 369.964 174.501 369.91C174.488 369.881 174.479 369.85 174.464 369.823C174.441 369.78 174.411 369.741 174.383 369.7C174.36 369.667 174.341 369.631 174.316 369.601C174.282 369.558 174.239 369.523 174.199 369.485C174.176 369.462 174.154 369.435 174.129 369.415C174.092 369.384 174.049 369.359 174.008 369.332C173.974 369.31 173.943 369.285 173.908 369.266C173.877 369.25 173.842 369.239 173.809 369.224C173.758 369.201 173.708 369.177 173.655 369.161C173.65 369.159 173.646 369.157 173.642 369.156C173.611 369.147 173.58 369.145 173.548 369.138C173.494 369.126 173.441 369.113 173.387 369.108C173.342 369.104 173.299 369.106 173.255 369.106C173.209 369.106 173.163 369.104 173.117 369.108C173.064 369.113 173.014 369.126 172.962 369.137C172.929 369.144 172.895 369.146 172.862 369.156C172.858 369.157 172.854 369.16 172.849 369.162C172.799 369.177 172.753 369.199 172.705 369.22C172.668 369.236 172.63 369.248 172.597 369.266C172.569 369.281 172.546 369.301 172.52 369.317C172.47 369.348 172.42 369.378 172.374 369.416C172.366 369.421 172.362 369.429 172.354 369.435C172.295 369.487 172.238 369.541 172.189 369.601C172.166 369.628 172.15 369.66 172.13 369.688C172.099 369.733 172.065 369.776 172.039 369.823C172.026 369.85 172.016 369.88 172.003 369.907C171.978 369.963 171.953 370.018 171.935 370.076C171.934 370.08 171.932 370.083 171.93 370.088L171.815 370.476H70.3976L70.2816 370.088C70.2808 370.083 70.2785 370.08 70.2769 370.076C70.2594 370.019 70.2348 369.965 70.2094 369.911C70.1967 369.881 70.1871 369.85 70.1721 369.823C70.149 369.779 70.1181 369.74 70.0903 369.7C70.068 369.666 70.0482 369.631 70.0236 369.601C69.9902 369.56 69.9497 369.525 69.9108 369.489C69.8854 369.465 69.864 369.436 69.837 369.415C69.8021 369.385 69.7608 369.362 69.7219 369.336C69.6861 369.313 69.6528 369.286 69.6147 369.266C69.5853 369.25 69.5527 369.239 69.5218 369.226C69.4694 369.202 69.417 369.177 69.3614 369.161C69.3574 369.159 69.3542 369.157 69.3495 369.156C69.3193 369.147 69.2891 369.145 69.2582 369.139C69.2042 369.127 69.1502 369.113 69.0946 369.108C69.0485 369.104 69.0049 369.105 68.9596 369.105C68.9144 369.105 68.8707 369.104 68.8254 369.108C68.7698 369.113 68.7151 369.127 68.6611 369.139C68.6309 369.146 68.6007 369.147 68.5698 369.156C68.5658 369.157 68.5626 369.159 68.5578 369.161C68.5031 369.177 68.4499 369.203 68.3975 369.226C68.3673 369.239 68.3339 369.25 68.3046 369.266C68.2672 369.286 68.2347 369.312 68.199 369.336C68.16 369.362 68.1188 369.385 68.083 369.415C68.0584 369.435 68.0386 369.46 68.0155 369.482C67.9742 369.521 67.9314 369.558 67.8956 369.601C67.8726 369.63 67.8544 369.663 67.8337 369.694C67.8035 369.736 67.7718 369.777 67.748 369.823C67.7329 369.85 67.7233 369.88 67.7114 369.908C67.686 369.964 67.6598 370.018 67.6424 370.076C67.6416 370.08 67.6392 370.083 67.6376 370.088L67.5233 370.476H56.261C56.261 371.44 57.0416 372.22 58.0055 372.22H67.0079L52.1576 422.531C51.9416 423.261 52.3593 424.027 53.0898 424.242C53.2192 424.28 53.351 424.299 53.4796 424.299C54.0751 424.299 54.6238 423.91 54.8009 423.311L56.7557 416.689H81.1635L83.1184 423.311C83.2954 423.91 83.8449 424.299 84.4396 424.299C84.569 424.299 84.7 424.28 84.8302 424.242C85.5599 424.027 85.9784 423.261 85.7624 422.531L70.9113 372.22H171.301L156.45 422.531C156.235 423.261 156.651 424.027 157.381 424.242C157.511 424.28 157.643 424.299 157.773 424.299C158.368 424.299 158.917 423.91 159.094 423.311L161.051 416.679C161.084 416.681 161.115 416.689 161.149 416.689H185.004C185.155 416.689 185.298 416.659 185.433 416.614L187.411 423.311C187.588 423.91 188.137 424.299 188.732 424.299C188.861 424.299 188.993 424.28 189.122 424.242C189.853 424.027 190.27 423.261 190.054 422.531Z" fill="#82F573"/>
<path fill-rule="evenodd" clip-rule="evenodd" d="M49.6747 370.477H190.787C191.836 370.477 192.687 369.627 192.687 368.578C192.687 367.53 191.836 366.68 190.787 366.68H49.6747C48.6258 366.68 47.7747 367.53 47.7747 368.578C47.7747 369.627 48.6258 370.477 49.6747 370.477Z" fill="#33DE24"/>
<path fill-rule="evenodd" clip-rule="evenodd" d="M119.911 360.198H164.591C165.49 360.198 166.221 359.468 166.221 358.568V332.786C166.221 331.886 165.49 331.156 164.591 331.156H119.911C119.01 331.156 118.28 331.886 118.28 332.786V358.568C118.28 359.468 119.01 360.198 119.911 360.198Z" fill="#277A2D"/>
<path fill-rule="evenodd" clip-rule="evenodd" d="M163.831 334.147C163.831 333.981 163.695 333.846 163.529 333.846H121.037C120.871 333.846 120.736 333.981 120.736 334.147V358.634C120.736 358.801 120.871 358.936 121.037 358.936H163.529C163.695 358.936 163.831 358.801 163.831 358.634V334.147Z" fill="#F0FEFF"/>
</g>
<mask id="mask2_52_665" style="mask-type:luminance" maskUnits="userSpaceOnUse" x="120" y="333" width="44" height="26">
<path fill-rule="evenodd" clip-rule="evenodd" d="M121.038 333.846C120.871 333.846 120.735 333.981 120.735 334.147V358.633C120.735 358.801 120.871 358.936 121.038 358.936H163.528C163.696 358.936 163.831 358.801 163.831 358.633V334.147C163.831 333.981 163.696 333.846 163.528 333.846" fill="white"/>
</mask>
<g mask="url(#mask2_52_665)">
<path fill-rule="evenodd" clip-rule="evenodd" d="M162.839 360.849H121.665C120.423 360.849 119.417 359.843 119.417 358.602V334.602C119.417 333.362 120.423 332.356 121.665 332.356H162.839C164.08 332.356 165.087 333.362 165.087 334.602V358.602C165.087 359.843 164.08 360.849 162.839 360.849Z" fill="#F1F3FF"/>
</g>
<mask id="mask3_52_665" style="mask-type:luminance" maskUnits="userSpaceOnUse" x="120" y="333" width="44" height="26">
<path fill-rule="evenodd" clip-rule="evenodd" d="M121.038 333.846C120.871 333.846 120.735 333.981 120.735 334.147V358.633C120.735 358.801 120.871 358.936 121.038 358.936H163.528C163.696 358.936 163.831 358.801 163.831 358.633V334.147C163.831 333.981 163.696 333.846 163.528 333.846H121.038Z" fill="white"/>
</mask>
<g mask="url(#mask3_52_665)">
<path fill-rule="evenodd" clip-rule="evenodd" d="M157.059 337.35L146.881 345.64L141.784 344.464L135.394 350.495L130.135 348.974L126.818 352.017V352.406H157.059V337.35Z" fill="#A2FF96"/>
</g>
<mask id="mask4_52_665" style="mask-type:luminance" maskUnits="userSpaceOnUse" x="120" y="333" width="44" height="26">
<path fill-rule="evenodd" clip-rule="evenodd" d="M121.038 333.846C120.871 333.846 120.735 333.981 120.735 334.147V358.633C120.735 358.801 120.871 358.936 121.038 358.936H163.528C163.696 358.936 163.831 358.801 163.831 358.633V334.147C163.831 333.981 163.696 333.846 163.528 333.846" fill="white"/>
</mask>
<g mask="url(#mask4_52_665)">
<path fill-rule="evenodd" clip-rule="evenodd" d="M156.994 336.593C156.576 336.593 156.237 336.931 156.237 337.349C156.237 337.462 156.263 337.568 156.308 337.664L147.304 344.998C147.185 344.923 147.047 344.878 146.896 344.878C146.617 344.878 146.375 345.031 146.244 345.256L142.492 344.391C142.444 344.018 142.13 343.73 141.745 343.73C141.326 343.73 140.987 344.068 140.987 344.487C140.987 344.608 141.018 344.721 141.068 344.822L135.766 349.827C135.652 349.759 135.521 349.718 135.378 349.718C135.11 349.718 134.877 349.857 134.742 350.067L130.884 348.951C130.88 348.538 130.544 348.204 130.128 348.204C129.71 348.204 129.371 348.543 129.371 348.961C129.371 349.08 129.4 349.19 129.45 349.29L126.662 351.847C126.568 351.933 126.562 352.079 126.648 352.173C126.694 352.223 126.756 352.247 126.818 352.247C126.874 352.247 126.93 352.227 126.974 352.187L129.769 349.623C129.877 349.682 129.997 349.718 130.128 349.718C130.386 349.718 130.612 349.588 130.749 349.392L134.625 350.514C134.646 350.913 134.973 351.232 135.378 351.232C135.797 351.232 136.136 350.893 136.136 350.475C136.136 350.367 136.113 350.264 136.072 350.172L141.391 345.152C141.496 345.209 141.616 345.244 141.745 345.244C142.032 345.244 142.281 345.081 142.409 344.844L146.146 345.707C146.183 346.091 146.502 346.392 146.896 346.392C147.315 346.392 147.654 346.053 147.654 345.635C147.654 345.535 147.633 345.44 147.598 345.353L156.621 338.004C156.731 338.068 156.857 338.106 156.994 338.106C157.412 338.106 157.751 337.768 157.751 337.349C157.751 336.931 157.412 336.593 156.994 336.593Z" fill="#38F527"/>
</g>
<mask id="mask5_52_665" style="mask-type:luminance" maskUnits="userSpaceOnUse" x="120" y="333" width="44" height="26">
<path fill-rule="evenodd" clip-rule="evenodd" d="M121.038 333.846C120.871 333.846 120.735 333.981 120.735 334.147V358.633C120.735 358.801 120.871 358.936 121.038 358.936H163.528C163.696 358.936 163.831 358.801 163.831 358.633V334.147C163.831 333.981 163.696 333.846 163.528 333.846" fill="white"/>
</mask>
<g mask="url(#mask5_52_665)">
<path fill-rule="evenodd" clip-rule="evenodd" d="M126.507 338.707H141.441C141.663 338.707 141.842 338.527 141.842 338.305C141.842 338.083 141.663 337.903 141.441 337.903H126.507C126.285 337.903 126.105 338.083 126.105 338.305C126.105 338.527 126.285 338.707 126.507 338.707Z" fill="#82F573"/>
</g>
<mask id="mask6_52_665" style="mask-type:luminance" maskUnits="userSpaceOnUse" x="120" y="333" width="44" height="26">
<path fill-rule="evenodd" clip-rule="evenodd" d="M121.038 333.846C120.871 333.846 120.735 333.981 120.735 334.147V358.633C120.735 358.801 120.871 358.936 121.038 358.936H163.528C163.696 358.936 163.831 358.801 163.831 358.633V334.147C163.831 333.981 163.696 333.846 163.528 333.846" fill="white"/>
</mask>
<g mask="url(#mask6_52_665)">
<path fill-rule="evenodd" clip-rule="evenodd" d="M126.507 340.338H134.169C134.393 340.338 134.572 340.158 134.572 339.936C134.572 339.714 134.393 339.534 134.169 339.534H126.507C126.285 339.534 126.105 339.714 126.105 339.936C126.105 340.158 126.285 340.338 126.507 340.338Z" fill="#82F573"/>
</g>
<path fill-rule="evenodd" clip-rule="evenodd" d="M166.248 355.655V358.568C166.248 359.468 165.491 360.249 164.59 360.249H119.911C119.01 360.249 118.319 359.468 118.319 358.568V355.655H166.248Z" fill="#277A2D"/>
<path fill-rule="evenodd" clip-rule="evenodd" d="M134.869 367.234H147.656C147.656 367.234 146.771 364.589 146.607 363.706C146.443 362.821 146.343 360.163 146.343 360.163H136.182C136.182 360.163 136.092 362.771 135.931 363.641C135.763 364.54 134.869 367.234 134.869 367.234Z" fill="#277A2D"/>
<path fill-rule="evenodd" clip-rule="evenodd" d="M140.203 357.763C140.203 358.25 140.598 358.646 141.086 358.646C141.575 358.646 141.97 358.25 141.97 357.763C141.97 357.275 141.575 356.88 141.086 356.88C140.598 356.88 140.203 357.275 140.203 357.763Z" fill="#1C2334"/>
<path fill-rule="evenodd" clip-rule="evenodd" d="M81.1552 434.1V439.931C81.1552 439.931 81.8221 441.344 84.7115 441.239C87.6017 441.134 89.8233 439.767 92.1879 437.242C94.5524 434.718 96.7574 432.089 96.0571 429.775C95.3568 427.46 93.7243 426.619 88.2075 428.828C82.69 431.037 81.1552 434.1 81.1552 434.1Z" fill="#51FF44"/>
<mask id="mask7_52_665" style="mask-type:luminance" maskUnits="userSpaceOnUse" x="64" y="427" width="17" height="15">
<path fill-rule="evenodd" clip-rule="evenodd" d="M64.1089 427.274H80.4684V441.331H64.1089V427.274Z" fill="white"/>
</mask>
<g mask="url(#mask7_52_665)">
<path fill-rule="evenodd" clip-rule="evenodd" d="M64.6345 433.035L64.1089 439.661C64.1089 439.661 64.6345 441.777 69.0135 441.245C73.3916 440.714 78.2954 434.298 80.047 431.668C81.7986 429.039 77.8571 425.041 72.5158 428.828C67.1738 432.615 64.6345 433.035 64.6345 433.035Z" fill="#51FF44"/>
</g>
<path fill-rule="evenodd" clip-rule="evenodd" d="M55.1895 322.882C55.1895 322.882 57.3309 321.365 58.0535 319.26C58.7768 317.155 59.8003 316.072 60.2822 315.651C60.7642 315.23 61.0048 313.787 58.8967 314.569C56.7894 315.35 56.6084 316.794 55.5841 316.794C54.5606 316.794 53.7444 312.584 52.5867 311.14C51.4291 309.697 50.7065 310.057 50.5858 311.441C50.5858 311.441 47.8155 314.629 48.2371 316.794C48.6588 318.96 50.5374 323.651 50.5374 323.651L52.5867 324.493L55.1895 322.882Z" fill="#FFFAAD"/>
<path fill-rule="evenodd" clip-rule="evenodd" d="M54.7754 324.903V322.883L50.379 323.651V325.307L49.9042 328.615L54.2537 327.862L54.7754 324.903Z" fill="#D4E9D5"/>
<path fill-rule="evenodd" clip-rule="evenodd" d="M65.8845 332.705C65.8845 332.705 63.373 332.402 61.6532 334.748C59.9342 337.095 57.8134 340.587 57.8134 340.587L55.9014 323.893C55.9014 323.893 53.1533 325.913 48.6124 326.925C48.6124 326.925 48.3734 347.99 52.3165 351.986C56.2603 355.981 68.0608 346.478 68.0608 346.478L65.8845 332.705Z" fill="#38F527"/>
<path fill-rule="evenodd" clip-rule="evenodd" d="M90.2219 375.152C90.2219 375.152 93.051 400.12 92.6826 406.326C92.3634 411.691 90.2966 428.877 89.7432 433.429C89.6606 434.112 89.235 434.658 88.6736 434.801C87.1555 435.189 84.1009 435.848 81.9142 435.512C81.1869 435.4 80.6613 434.624 80.7201 433.745C81.0178 429.308 81.9595 415.468 82.4724 410.167C83.0878 403.814 79.6434 394.063 78.0443 389.187C76.4451 384.313 72.8173 383.063 73.2469 376.645C73.6756 370.226 74.1076 365.105 74.1076 365.105L90.2219 375.152Z" fill="#277A2D"/>
<path fill-rule="evenodd" clip-rule="evenodd" d="M72.3823 433.972C70.9221 434.464 67.7779 435.251 64.9337 434.155C64.3216 433.918 63.9452 433.179 64.019 432.41C64.447 427.936 65.8667 412.644 65.8667 406.621C65.8667 399.53 63.8976 384.312 63.8976 384.312C63.8976 384.312 61.5608 376.925 61.5608 371.458L71.6479 368.208L74.8461 369.538C74.8461 369.538 79.3974 391.552 77.7982 402.632C76.4103 412.249 73.9767 428.543 73.3582 432.68C73.2653 433.301 72.8881 433.801 72.3823 433.972Z" fill="#277A2D"/>
<path fill-rule="evenodd" clip-rule="evenodd" d="M112.801 347.377C112.801 347.377 113.174 347.174 114.519 347.174C115.864 347.174 117.387 345.866 118.024 345.477C118.661 345.088 119.978 344.472 119.086 346.608C118.909 347.033 117.564 347.633 117.635 348.305C117.705 348.978 124.411 351.296 124.573 351.986C124.733 352.675 122.748 352.621 122.266 352.782C121.783 352.942 120.495 354.336 118.403 354.121C116.311 353.906 113.587 351.523 113.587 351.523L112.801 347.377Z" fill="#FFFAAD"/>
<path fill-rule="evenodd" clip-rule="evenodd" d="M111.255 347.61L112.801 347.377C112.801 347.377 114.193 348.681 113.587 351.522L110.835 351.986L111.255 347.61Z" fill="#D4E9D5"/>
<path fill-rule="evenodd" clip-rule="evenodd" d="M83.5209 324.214C83.5209 324.214 82.5737 326.656 83.0652 330.646C83.5567 334.637 73.5609 333.007 73.5609 333.007V323.893L83.5209 324.214Z" fill="#FFFAAD"/>
<path fill-rule="evenodd" clip-rule="evenodd" d="M76.1763 305.283C68.183 308.622 68.0671 326.082 76.1763 326.082C84.2855 326.082 86.3126 324.058 87.4179 323.137C88.5239 322.217 86.3126 301.05 76.1763 305.283Z" fill="#FFFAAD"/>
<path fill-rule="evenodd" clip-rule="evenodd" d="M70.1376 306.211C70.1376 306.211 70.1582 303.523 75.1335 302.953C80.1079 302.383 85.2451 301.731 86.3051 306.211C87.3651 310.691 83.9406 310.12 83.9406 310.12L81.8206 316.718C81.8206 316.718 82.4193 325.595 79.1837 327.06C75.9481 328.527 72.807 329.504 70.1376 323.559C67.4681 317.613 64.7764 315.007 65.1845 311.342C65.5919 307.677 70.1376 306.211 70.1376 306.211Z" fill="#1A7412"/>
<path fill-rule="evenodd" clip-rule="evenodd" d="M70.8315 328.614C70.8315 328.614 72.6681 326.51 77.1963 326.999C81.7245 327.488 84.7838 329.444 84.7838 329.444L86.0074 333.336C86.0074 333.336 80.8225 329.882 75.8258 330.131C71.639 330.339 70.1376 332.01 70.1376 332.01L70.8315 328.614Z" fill="#D4E9D5"/>
<path fill-rule="evenodd" clip-rule="evenodd" d="M89.9311 334.344C93.7757 336.538 100.915 348.468 100.915 348.468L111.625 347.234C111.625 347.234 112.964 348.639 112.785 353.006C112.785 353.006 102.251 356.038 98.7692 355.949C95.2875 355.861 87.4324 344.002 87.4324 344.002L89.9311 334.344Z" fill="#38F527"/>
<path fill-rule="evenodd" clip-rule="evenodd" d="M66.1775 332.561C66.1775 332.561 71.3314 329.27 75.8255 329.27C80.3204 329.27 88.0087 332.836 89.931 334.344C91.8533 335.852 89.931 367.117 91.0291 374.66C91.0291 374.66 77.9852 374.385 75.2395 374.66L73.7992 368.9C73.7992 368.9 72.6312 373.289 72.3565 374.66C72.3565 374.66 67.5503 375.071 60.6854 373.289C60.6854 373.289 60.0486 334.92 66.1775 332.561Z" fill="#38F527"/>
<path fill-rule="evenodd" clip-rule="evenodd" d="M82.8471 315.928C82.8471 315.928 81.2003 313.351 79.8314 314.279C78.4625 315.207 79.3423 321.252 81.7386 321.252H83.2044L82.8471 315.928Z" fill="#FFFAAD"/>
<path fill-rule="evenodd" clip-rule="evenodd" d="M289.425 126.603C289.425 126.603 285.575 129.928 283.133 131.147C280.692 132.368 275.059 134.807 275.715 135.839C276.374 136.871 280.036 136.308 285.669 135.276C291.303 134.243 292.761 134.15 293.112 132.086C293.462 130.022 293.932 127.301 293.932 127.301L289.425 126.603Z" fill="#30552C"/>
<path fill-rule="evenodd" clip-rule="evenodd" d="M281.376 131.998C282.297 132.541 283.915 133.338 285.575 133.4C288.109 133.493 292.214 130.205 293.448 130.113C293.704 128.617 293.932 127.301 293.932 127.301L289.425 126.602C289.425 126.602 285.575 129.928 283.134 131.147C282.65 131.389 282.038 131.68 281.376 131.998Z" fill="#FFFAAD"/>
<path fill-rule="evenodd" clip-rule="evenodd" d="M302.41 133.401C302.41 133.401 304.109 141.759 305.483 143.779C306.858 145.799 310.66 147.982 311.549 145.234C312.439 142.486 309.042 137.803 308.315 136.386C307.587 134.97 305.645 131.979 305.645 131.979L302.41 133.401Z" fill="#30552C"/>
<path fill-rule="evenodd" clip-rule="evenodd" d="M307.053 140.954C308.797 140.485 307.989 136.921 307.186 134.428C306.428 133.185 305.646 131.979 305.646 131.979L302.702 133.273C303.337 135.89 304.96 141.518 307.053 140.954Z" fill="#FFFAAD"/>
<path fill-rule="evenodd" clip-rule="evenodd" d="M311.006 97.7441H301.703H292.4C292.4 97.7441 288.204 101.592 288.204 106.002C288.204 110.411 290.903 112.724 301.703 112.724C312.504 112.724 315.203 110.411 315.203 106.002C315.203 101.592 311.006 97.7441 311.006 97.7441Z" fill="#4FE33C"/>
<path fill-rule="evenodd" clip-rule="evenodd" d="M277.946 56.6696C277.61 57.4567 277.274 58.2311 276.938 58.9056C276.501 57.2473 276.139 53.4522 274.708 52.1938C272.867 50.5751 268.599 53.8854 268.526 55.1811C268.452 56.4776 268.452 59.1071 269.482 61.7548C270.512 64.4026 272.5 66.4394 272.5 66.4394L273.752 66.1093C274.805 67.1479 277.357 65.392 277.357 65.392C277.357 65.392 279.491 62.711 279.565 61.0931C279.639 59.4753 279.785 57.5623 280.228 56.2388C280.669 54.9145 278.829 54.6003 277.946 56.6696Z" fill="#FFFAAD"/>
<path fill-rule="evenodd" clip-rule="evenodd" d="M323.062 108.184C323.062 108.184 322.822 112.25 326.277 112.25C329.733 112.25 330.935 111.176 331.986 111.176C333.037 111.176 334.09 112.25 335.817 112.25C337.134 112.25 338.577 111.991 337.751 111.321C336.926 110.651 335.488 110.79 334.457 110.171C333.426 109.553 331.86 108.641 330.55 108.641C329.24 108.641 326.041 106.424 326.041 106.424L323.062 108.184Z" fill="#FFFAAD"/>
<path fill-rule="evenodd" clip-rule="evenodd" d="M314.856 71.9678C314.856 71.9678 316.635 74.9178 319.924 84.1718C323.213 93.425 328.597 104.88 328.597 104.88C328.597 104.88 327.216 107.869 321.726 108.366C321.726 108.366 317.831 96.8123 316.436 93.625C315.04 90.4377 310.685 81.1742 310.685 81.1742L314.856 71.9678Z" fill="#38F527"/>
<path fill-rule="evenodd" clip-rule="evenodd" d="M287.559 71.9677L280.453 76.6919L278.259 64.9377C278.259 64.9377 274.073 65.2369 271.681 66.631C271.681 66.631 273.574 80.875 274.97 82.7674C276.365 84.6605 279.854 84.3614 282.845 82.7674C285.835 81.1741 290.62 78.3843 290.62 78.3843L287.559 71.9677Z" fill="#38F527"/>
<path fill-rule="evenodd" clip-rule="evenodd" d="M296.631 44.7627C296.631 44.7627 298.25 42.0856 302.05 42.3347C305.851 42.5839 311.47 45.3173 311.894 51.8593C312.197 56.5621 309.225 61.6862 310.083 63.0454C310.942 64.4053 308.796 65.3273 307.894 64.038C307.894 64.038 307.942 67.3609 301.261 67.3609C294.58 67.3609 294.792 64.038 294.792 64.038C294.792 64.038 292.14 65.3464 291.556 64.6045C290.973 63.8626 291.928 63.1969 292.193 62.1781C292.458 61.1593 291.716 59.0392 290.92 55.8051C290.124 52.5718 290.564 45.2753 296.631 44.7627Z" fill="#30552C"/>
<path fill-rule="evenodd" clip-rule="evenodd" d="M304.293 62.4113L301.261 62.178L298.228 62.4113C298.228 62.4113 298.741 64.5075 298.228 68.1876C298.228 68.1876 298.979 68.6065 301.261 68.6065C303.543 68.6065 304.293 68.1876 304.293 68.1876C303.78 64.5075 304.293 62.4113 304.293 62.4113Z" fill="#FFFAAD"/>
<path fill-rule="evenodd" clip-rule="evenodd" d="M304.206 67.3608H301.268H298.33C298.33 67.3608 296.651 68.501 294.757 68.9914C294.757 68.9914 295.5 75.162 301.268 75.162C307.035 75.162 307.779 68.9914 307.779 68.9914C305.885 68.501 304.206 67.3608 304.206 67.3608Z" fill="#FFFAAD"/>
<path fill-rule="evenodd" clip-rule="evenodd" d="M295.144 54.6316C295.144 54.6316 293.606 53.5137 292.813 54.6316C292.02 55.7496 292.457 59.3931 294.381 59.1964C295.75 59.0567 295.983 58.7314 295.983 58.7314L295.144 54.6316Z" fill="#FFFAAD"/>
<path fill-rule="evenodd" clip-rule="evenodd" d="M307.377 54.6316C307.377 54.6316 308.915 53.5137 309.709 54.6316C310.501 55.7496 310.064 59.3931 308.141 59.1964C306.772 59.0567 306.538 58.7314 306.538 58.7314L307.377 54.6316Z" fill="#FFFAAD"/>
<path fill-rule="evenodd" clip-rule="evenodd" d="M301.261 45.8142C296.101 45.8142 293.673 51.2168 294.432 56.1148C295.19 61.0127 298.226 64.0382 301.261 64.0382C304.296 64.0382 307.331 61.0127 308.09 56.1148C308.849 51.2168 306.421 45.8142 301.261 45.8142Z" fill="#FFFAAD"/>
<path fill-rule="evenodd" clip-rule="evenodd" d="M294.296 54.1346C294.296 54.1346 298.624 53.0428 300.057 49.0581C300.057 49.0581 301.068 53.8387 308.225 54.2187H309.204C309.204 54.2187 309.335 45.1694 300.148 45.1694C296.879 45.1694 292.833 50.6379 294.296 54.1346Z" fill="#30552C"/>
<path fill-rule="evenodd" clip-rule="evenodd" d="M296.945 68.1501C296.945 68.1501 297.114 73.0584 301.268 73.0584C305.422 73.0584 305.591 68.1501 305.591 68.1501L308.311 68.9214L307.247 87.2215L310.685 98.3005C310.685 98.3005 304.411 100.193 301.268 100.193C298.124 100.193 292.722 98.5107 292.722 98.5107L295.983 86.3106L293.073 69.2023L296.945 68.1501Z" fill="#BFF8C3"/>
<path fill-rule="evenodd" clip-rule="evenodd" d="M306.781 68.1501C306.781 68.1501 304.389 82.3299 304.536 88.952C304.682 95.5749 309.805 103.054 309.805 103.054C309.805 103.054 313.523 101.652 314.856 99.6263C314.856 99.6263 312.196 93.3152 312.158 89.4979C312.12 85.6798 314.927 72.9029 314.856 71.9682C314.786 71.0327 309.092 68.6635 306.781 68.1501Z" fill="#38F527"/>
<path fill-rule="evenodd" clip-rule="evenodd" d="M295.634 68.1501C295.634 68.1501 298.027 82.3299 297.88 88.952C297.734 95.5749 292.611 103.054 292.611 103.054C292.611 103.054 288.892 101.652 287.559 99.6263C287.559 99.6263 290.219 93.3152 290.258 89.4979C290.295 85.6798 287.489 72.9029 287.559 71.9682C287.63 71.0327 293.324 68.6635 295.634 68.1501Z" fill="#38F527"/>
<path fill-rule="evenodd" clip-rule="evenodd" d="M296.144 103.054C290.643 103.656 292.001 109.115 294.019 116.152C296.037 123.189 301.703 134.333 301.703 134.333C301.703 134.333 303.038 134.864 304.53 134.333C306.021 133.803 306.871 132.317 306.871 132.317C306.871 132.317 303.791 117.988 302.516 113.424C301.242 108.861 300.711 102.554 296.144 103.054Z" fill="#4FE33C"/>
<path fill-rule="evenodd" clip-rule="evenodd" d="M309.078 96.7108C314.856 99.626 312.005 106.725 307.779 112.936C303.554 119.147 294.757 128.907 294.757 128.907C294.757 128.907 290.743 129.114 288.586 126.602C288.586 126.602 297.314 109.64 299.736 105.585C302.158 101.529 306.536 95.4278 309.078 96.7108Z" fill="#51FF44"/>
<path fill-rule="evenodd" clip-rule="evenodd" d="M340.374 396.095L306.759 324.059C303.174 326.344 299.3 328.15 295.243 329.426L328.857 401.461C329.6 403.05 330.915 404.188 332.443 404.744C333.971 405.3 335.711 405.273 337.301 404.532C340.481 403.05 341.856 399.273 340.374 396.095Z" fill="#82F573"/>
<path fill-rule="evenodd" clip-rule="evenodd" d="M267.966 318.638C248.506 311.56 238.473 290.059 245.556 270.614C252.638 251.169 274.155 241.143 293.614 248.22C313.073 255.298 323.105 276.799 316.023 296.244C308.94 315.689 287.424 325.716 267.966 318.638ZM297.291 238.124C272.252 229.017 244.566 241.918 235.453 266.939C226.339 291.961 239.25 319.627 264.288 328.734C289.327 337.841 317.013 324.939 326.127 299.919C335.24 274.897 322.33 247.231 297.291 238.124Z" fill="#38F527"/>
<path fill-rule="evenodd" clip-rule="evenodd" d="M303.866 347.905L294.708 328.279L306.225 322.912L315.383 342.539L303.866 347.905Z" fill="#38F527"/>
<path fill-rule="evenodd" clip-rule="evenodd" d="M316.023 296.244C308.941 315.689 287.424 325.716 267.966 318.638C248.506 311.56 238.473 290.059 245.556 270.614C252.638 251.169 274.155 241.142 293.613 248.22C313.073 255.298 323.106 276.799 316.023 296.244Z" fill="#ABFFBD"/>
<path fill-rule="evenodd" clip-rule="evenodd" d="M341.714 395.212L328.675 367.27C328.341 366.555 327.491 366.245 326.775 366.579L314.972 372.079C314.257 372.413 313.946 373.263 314.281 373.977L327.419 402.134C328.346 404.12 329.99 405.543 331.901 406.238C333.81 406.932 335.984 406.899 337.972 405.973C341.932 404.128 343.561 399.17 341.714 395.212Z" fill="#277A2D"/>
<path fill-rule="evenodd" clip-rule="evenodd" d="M47.8255 377.845C45.4284 372.424 30.9703 379.112 32.6147 386.371C31.8255 387.011 31.1307 387.62 30.5463 388.159C30.5304 384.434 30.5265 380.077 30.5463 375.116C33.8542 374.887 38.3498 373.32 38.3498 363.966C38.3498 353.497 34.5092 339.537 29.5236 339.537C24.5397 339.537 21.586 350.879 21.4113 357.684C21.2477 364.064 22.0044 373.83 28.123 375.029C28.1103 378.026 28.1071 380.808 28.1095 383.36C27.5823 382.775 26.9566 382.131 26.2269 381.453C27.5958 374.152 11.9713 365.449 9.33044 371.934C6.68561 378.427 20.5601 388.799 25.1121 383.758C26.7946 385.402 27.7649 386.75 28.119 387.279C28.1238 388.539 28.1294 389.731 28.1365 390.855C28.1024 391.024 28.1024 391.197 28.1405 391.364C28.1961 399.7 28.3104 404.093 28.3128 404.179C28.3295 404.838 28.8686 405.358 29.5236 405.358C29.5348 405.358 29.5459 405.358 29.5562 405.358C30.2255 405.34 30.7536 404.784 30.7361 404.115C30.7337 404.029 30.6225 399.718 30.5662 391.535C31.1132 390.961 32.3106 389.76 33.9852 388.385C37.8163 389.772 50.0996 382.988 47.8255 377.845Z" fill="#82F573"/>
<path fill-rule="evenodd" clip-rule="evenodd" d="M37.6794 425.08H21.3689C20.6741 425.08 20.0635 424.619 19.8746 423.951L13.4804 401.39C13.2009 400.399 13.9449 399.416 14.9747 399.416H44.0735C45.1034 399.416 45.8473 400.399 45.5671 401.39L39.1729 423.951C38.9839 424.619 38.3733 425.08 37.6794 425.08Z" fill="#33DE24"/>
<path fill-rule="evenodd" clip-rule="evenodd" d="M494.649 146.425C494.706 149.81 492.005 152.6 488.618 152.656C485.231 152.712 482.439 150.014 482.383 146.629C482.326 143.244 485.027 140.454 488.414 140.398C491.802 140.342 494.594 143.04 494.649 146.425Z" fill="#A2FF96"/>
<path fill-rule="evenodd" clip-rule="evenodd" d="M59.9264 152.59C59.9637 154.83 58.1772 156.675 55.9357 156.713C53.6934 156.75 51.8458 154.965 51.8084 152.724C51.7711 150.485 53.5584 148.638 55.8007 148.601C58.0414 148.564 59.889 150.35 59.9264 152.59Z" fill="#A2FF96"/>
<path fill-rule="evenodd" clip-rule="evenodd" d="M404.49 81.8093L401.467 81.8592L401.417 78.8386C401.396 77.5825 400.36 76.5812 399.103 76.6026C397.846 76.6233 396.844 77.6579 396.864 78.9147L396.915 81.9354L393.892 81.9854C392.635 82.006 391.633 83.0415 391.654 84.2975C391.675 85.5535 392.711 86.5549 393.968 86.5342L396.991 86.4843L397.041 89.5049C397.062 90.761 398.097 91.7623 399.354 91.7417C400.612 91.7202 401.614 90.6856 401.593 89.4295L401.543 86.4081L404.566 86.3581C405.823 86.3375 406.824 85.302 406.804 84.046C406.783 82.79 405.747 81.7886 404.49 81.8093Z" fill="#E0FFE2"/>
<path fill-rule="evenodd" clip-rule="evenodd" d="M35.0617 189.147L31.8793 189.2L31.8269 186.021C31.8047 184.698 30.7145 183.645 29.3909 183.666C28.0681 183.688 27.0137 184.779 27.0359 186.1L27.0883 189.28L23.9067 189.332C22.5839 189.354 21.5286 190.444 21.5509 191.766C21.5731 193.088 22.6633 194.142 23.9869 194.121L27.1685 194.067L27.2209 197.247C27.2431 198.569 28.3333 199.623 29.6561 199.601C30.9789 199.58 32.0342 198.489 32.0119 197.167L31.9595 193.988L35.1411 193.935C36.4647 193.913 37.5192 192.823 37.4969 191.501C37.4747 190.18 36.3845 189.126 35.0617 189.147Z" fill="#E0FFE2"/>
<defs>
<linearGradient id="paint0_linear_52_665" x1="446.613" y1="206.088" x2="653.809" y2="59.9278" gradientUnits="userSpaceOnUse">
<stop stop-color="white" stop-opacity="0.01"/>
<stop offset="1" stop-color="#459EFF" stop-opacity="0.3"/>
</linearGradient>
</defs>
</svg>
