<svg width="49" height="48" viewBox="0 0 49 48" fill="none" xmlns="http://www.w3.org/2000/svg">
<mask id="mask0_171_33" style="mask-type:alpha" maskUnits="userSpaceOnUse" x="0" y="0" width="49" height="48">
<rect x="0.117645" width="48" height="48" fill="#D9D9D9"/>
</mask>
<g mask="url(#mask0_171_33)">
<path d="M10.0636 40.8615C9.2983 40.8615 8.63913 40.5849 8.08613 40.0316C7.5328 39.4785 7.25613 38.8194 7.25613 38.0541V9.94605C7.25613 9.18071 7.5328 8.52155 8.08613 7.96855C8.63913 7.41522 9.2983 7.13855 10.0636 7.13855H38.1716C38.937 7.13855 39.5961 7.41522 40.1491 7.96855C40.7025 8.52155 40.9791 9.18071 40.9791 9.94605V38.0541C40.9791 38.8194 40.7025 39.4785 40.1491 40.0316C39.5961 40.5849 38.937 40.8615 38.1716 40.8615H10.0636ZM34.0811 38.6691H38.1716C38.351 38.6691 38.4983 38.6114 38.6136 38.496C38.729 38.3807 38.7866 38.2334 38.7866 38.0541V33.929L34.0811 38.6691ZM10.8236 38.6691H15.7331L21.7331 32.6691H24.4831L18.4831 38.6691H23.5366L29.5366 32.6691H32.2866L26.2866 38.6691H31.3311L37.3311 32.6691H38.7866V9.94605C38.7866 9.76671 38.729 9.61938 38.6136 9.50405C38.4983 9.38872 38.351 9.33105 38.1716 9.33105H10.0636C9.8843 9.33105 9.73697 9.38872 9.62163 9.50405C9.5063 9.61938 9.44863 9.76671 9.44863 9.94605V37.2596L14.0736 32.6691H16.8236L10.8236 38.6691ZM14.5136 27.4405L13.0041 25.9305L21.2946 17.606L25.6601 21.971L33.7406 13.8905L35.2656 15.4345L25.6601 25.075L21.2946 20.7095L14.5136 27.4405Z" fill="white"/>
</g>
</svg>
