<svg width="49" height="48" viewBox="0 0 49 48" fill="none" xmlns="http://www.w3.org/2000/svg">
<mask id="mask0_171_174" style="mask-type:alpha" maskUnits="userSpaceOnUse" x="0" y="0" width="49" height="48">
<rect x="0.117676" width="48" height="48" fill="#D9D9D9"/>
</mask>
<g mask="url(#mask0_171_174)">
<path d="M10.2177 39.8845H38.0177V35.0195C38.0177 34.8399 37.96 34.6924 37.8447 34.577C37.729 34.4617 37.5815 34.404 37.4022 34.404H10.8332C10.6539 34.404 10.5064 34.4617 10.3907 34.577C10.2754 34.6924 10.2177 34.8399 10.2177 35.0195V39.8845ZM16.1352 32.2115H32.1252L30.8657 23.079H17.4062L16.1352 32.2115ZM8.0257 42.077V35.0195C8.0257 34.2565 8.30303 33.5979 8.8577 33.0435C9.41236 32.4889 10.0709 32.2115 10.8332 32.2115H13.9077L15.2332 23.079H10.3907V20.8865H37.8697V23.079H33.0022L34.3177 32.2115H37.3977C38.166 32.2115 38.8269 32.489 39.3802 33.044C39.9332 33.5987 40.2097 34.2572 40.2097 35.0195V42.077H8.0257ZM15.1217 20.8865L11.7947 5.89803C12.7744 6.75836 13.7809 7.36519 14.8142 7.71853C15.8475 8.07153 16.8947 8.24803 17.9557 8.24803C19.051 8.24803 20.1159 8.06186 21.1502 7.68953C22.1849 7.31719 23.174 6.71369 24.1177 5.87903C25.0614 6.71369 26.0475 7.31719 27.0762 7.68953C28.1052 8.06186 29.1735 8.24803 30.2812 8.24803C31.2709 8.24803 32.2824 8.07786 33.3157 7.73753C34.349 7.39719 35.397 6.78403 36.4597 5.89803L33.1137 20.8865H30.8407L33.2332 10.0345C32.6075 10.1832 32.0254 10.2949 31.4867 10.3695C30.9484 10.4439 30.4567 10.481 30.0117 10.481C28.9377 10.481 27.9107 10.3405 26.9307 10.0595C25.9504 9.77886 25.0129 9.35136 24.1182 8.77703C23.2229 9.35136 22.2747 9.77886 21.2737 10.0595C20.2727 10.3405 19.236 10.481 18.1637 10.481C17.7254 10.481 17.2485 10.4454 16.7332 10.374C16.2179 10.303 15.6537 10.2027 15.0407 10.073L17.3947 20.8865H15.1217Z" fill="white"/>
</g>
</svg>
