<svg width="49" height="48" viewBox="0 0 49 48" fill="none" xmlns="http://www.w3.org/2000/svg">
<mask id="mask0_171_65" style="mask-type:alpha" maskUnits="userSpaceOnUse" x="0" y="0" width="49" height="48">
<rect x="0.117676" width="48" height="48" fill="#D9D9D9"/>
</mask>
<g mask="url(#mask0_171_65)">
<path d="M5.67169 23.7075V21.5155H11.8792V23.7075H5.67169ZM11.2867 35.2115L9.82919 33.7385L14.1407 29.427L15.5947 30.8845L11.2867 35.2115ZM14.1407 15.6845L9.82919 11.3575L11.2867 9.90002L15.5947 14.2115L14.1407 15.6845ZM35.6717 38.346L26.6217 29.296L24.6637 35.3655L20.1367 19.8425L35.4367 24.623L29.3022 26.8115L38.2637 35.773L35.6717 38.346ZM21.5832 12.254V6.06152H23.7752V12.254H21.5832ZM31.2367 15.6845L29.7637 14.2115L34.0907 9.90002L35.5637 11.377L31.2367 15.6845Z" fill="white"/>
</g>
</svg>
