<svg width="49" height="48" viewBox="0 0 49 48" fill="none" xmlns="http://www.w3.org/2000/svg">
<mask id="mask0_171_104" style="mask-type:alpha" maskUnits="userSpaceOnUse" x="0" y="0" width="49" height="48">
<rect x="0.117676" width="48" height="48" fill="#D9D9D9"/>
</mask>
<g mask="url(#mask0_171_104)">
<path d="M23.2387 34.9055C20.3887 34.6852 17.9987 33.5353 16.0687 31.456C14.1387 29.3767 13.1737 26.8913 13.1737 24C13.1737 20.9203 14.2277 18.3207 16.3357 16.201C18.444 14.081 21.0365 13.021 24.1132 13.021C27.0059 13.021 29.488 13.9903 31.5597 15.929C33.6317 17.8673 34.7979 20.257 35.0582 23.098L32.7157 22.3885C32.331 20.3345 31.3427 18.6252 29.7507 17.2605C28.1587 15.8958 26.2829 15.2135 24.1232 15.2135C21.6712 15.2135 19.5985 16.0652 17.9052 17.7685C16.2122 19.4718 15.3657 21.5508 15.3657 24.0055C15.3657 26.1492 16.0425 28.0242 17.3962 29.6305C18.7499 31.2365 20.4532 32.2205 22.5062 32.5825L23.2387 34.9055ZM25.6387 42.8885C25.3804 42.9052 25.1262 42.9187 24.8762 42.929C24.6259 42.939 24.3757 42.944 24.1257 42.944C21.5134 42.944 19.0525 42.4482 16.7432 41.4565C14.4339 40.4648 12.4239 39.1148 10.7132 37.4065C9.00287 35.6978 7.65204 33.6903 6.66071 31.384C5.66937 29.0773 5.17371 26.6173 5.17371 24.004C5.17371 21.391 5.66904 18.9307 6.65971 16.623C7.65037 14.3153 9.00021 12.3058 10.7092 10.5945C12.4182 8.88283 14.4264 7.526 16.7337 6.524C19.0407 5.522 21.5012 5.021 24.1152 5.021C26.7289 5.021 29.1897 5.52216 31.4977 6.5245C33.806 7.5265 35.8149 8.88333 37.5242 10.595C39.2335 12.307 40.5897 14.3168 41.5927 16.6245C42.5954 18.9322 43.0967 21.3932 43.0967 24.0075C43.0967 24.2548 43.0857 24.502 43.0637 24.749C43.042 24.9957 43.0225 25.2352 43.0052 25.4675L40.9042 24.8385V24C40.9042 19.3323 39.2735 15.3677 36.0122 12.106C32.7505 8.84433 28.786 7.2135 24.1187 7.2135C19.4514 7.2135 15.4924 8.84416 12.2417 12.1055C8.99104 15.3672 7.36571 19.3317 7.36571 23.999C7.36571 28.6663 8.99154 32.6253 12.2432 35.876C15.4945 39.1267 19.4527 40.752 24.1177 40.752H24.9562L25.6387 42.8885ZM40.3982 43.2885L31.3292 34.2L29.1562 40.769L24.1177 24L40.8867 29.0385L34.3177 31.2115L43.4062 40.2805L40.3982 43.2885Z" fill="white"/>
</g>
</svg>
