<svg width="49" height="48" viewBox="0 0 49 48" fill="none" xmlns="http://www.w3.org/2000/svg">
<mask id="mask0_171_94" style="mask-type:alpha" maskUnits="userSpaceOnUse" x="0" y="0" width="49" height="48">
<rect x="0.117676" width="48" height="48" fill="#D9D9D9"/>
</mask>
<g mask="url(#mask0_171_94)">
<path d="M24.1257 42.8461C21.5184 42.8461 19.0661 42.3512 16.7687 41.3616C14.4714 40.3719 12.4731 39.0286 10.7737 37.3316C9.07439 35.6349 7.73256 33.6412 6.74823 31.3506C5.7639 29.0599 5.27173 26.6124 5.27173 24.0081C5.27173 21.4007 5.76673 18.9484 6.75673 16.6511C7.7464 14.3537 9.0899 12.3554 10.7872 10.6561C12.4842 8.95672 14.4787 7.61488 16.7707 6.63055C19.0627 5.64622 21.5117 5.15405 24.1177 5.15405H40.1602C40.8962 5.15405 41.5476 5.43722 42.1142 6.00355C42.6806 6.57022 42.9637 7.22172 42.9637 7.95805V24.0046C42.9637 26.6099 42.4689 29.0604 41.4792 31.3561C40.4896 33.6517 39.1462 35.6486 37.4492 37.3466C35.7526 39.0449 33.7589 40.3861 31.4682 41.3701C29.1776 42.3541 26.7301 42.8461 24.1257 42.8461ZM24.1152 40.6541C28.7652 40.6541 32.7037 39.0411 35.9307 35.8151C39.1581 32.5891 40.7717 28.6507 40.7717 24.0001V7.96155C40.7717 7.78222 40.7139 7.63489 40.5982 7.51955C40.4829 7.40389 40.3356 7.34605 40.1562 7.34605H24.1177C19.4671 7.34605 15.5287 8.95889 12.3027 12.1846C9.07673 15.4099 7.46373 19.3476 7.46373 23.9976C7.46373 28.6476 9.07656 32.5861 12.3022 35.8131C15.5276 39.0404 19.4652 40.6541 24.1152 40.6541ZM15.1217 29.2041H27.7752V24.9656L33.9677 29.2041V18.5346L27.7752 22.7731V18.5346H15.1217V29.2041Z" fill="white"/>
</g>
</svg>
