<svg xmlns="http://www.w3.org/2000/svg" xmlns:xlink="http://www.w3.org/1999/xlink" width="500" zoomAndPan="magnify" viewBox="0 0 375 374.999991" height="500" preserveAspectRatio="xMidYMid meet" version="1.0"><defs><clipPath id="1395952233"><path d="M 197.050781 157.488281 L 201.3125 157.488281 L 201.3125 161.171875 L 197.050781 161.171875 Z M 197.050781 157.488281 " clip-rule="nonzero"/></clipPath><clipPath id="1f66c8d722"><path d="M 201.300781 158.773438 C 199.425781 161.851562 197.625 161.25 197.25 160.648438 C 196.875 159.976562 197.175781 158.175781 197.773438 157.726562 C 198.375 157.199219 200.773438 157.875 200.773438 157.875 " clip-rule="nonzero"/></clipPath><clipPath id="14c04db01a"><path d="M 125.0625 122.941406 L 270.5625 122.941406 L 270.5625 260.191406 L 125.0625 260.191406 Z M 125.0625 122.941406 " clip-rule="nonzero"/></clipPath></defs><g clip-path="url(#1395952233)"><g clip-path="url(#1f66c8d722)"><path fill="#ffffff" d="M 194.25 154.726562 L 204.382812 154.726562 L 204.382812 164.550781 L 194.25 164.550781 Z M 194.25 154.726562 " fill-opacity="1" fill-rule="nonzero"/></g></g><g clip-path="url(#14c04db01a)"><path fill="#000000" d="M 147.792969 175.921875 C 147.410156 177.074219 146.164062 177.6875 145.019531 177.296875 C 143.875 176.90625 143.261719 175.65625 143.644531 174.515625 C 148.140625 161.269531 157.664062 150.160156 169.964844 143.660156 C 171.03125 143.089844 172.359375 143.5 172.914062 144.578125 C 173.484375 145.648438 173.074219 146.976562 172 147.546875 C 160.671875 153.535156 151.945312 163.71875 147.792969 175.921875 Z M 218.929688 147.542969 C 217.855469 146.976562 217.449219 145.644531 218.003906 144.574219 C 218.574219 143.496094 219.898438 143.085938 220.964844 143.65625 C 233.257812 150.15625 242.792969 161.261719 247.277344 174.511719 C 247.667969 175.65625 247.054688 176.902344 245.90625 177.292969 C 244.757812 177.6875 243.515625 177.070312 243.125 175.917969 C 238.996094 163.726562 230.238281 153.527344 218.929688 147.542969 Z M 239.03125 217.644531 C 239.636719 216.601562 240.976562 216.246094 242.015625 216.851562 C 243.0625 217.457031 243.417969 218.804688 242.8125 219.84375 C 240.175781 224.410156 236.84375 228.617188 233.023438 232.238281 C 232.140625 233.066406 230.757812 233.019531 229.933594 232.140625 C 229.097656 231.253906 229.144531 229.867188 230.019531 229.039062 C 233.535156 225.722656 236.609375 221.835938 239.03125 217.644531 Z M 160.433594 228.59375 C 161.292969 229.429688 161.3125 230.820312 160.46875 231.691406 C 159.632812 232.558594 158.246094 232.582031 157.378906 231.738281 C 153.78125 228.234375 150.628906 224.203125 148.105469 219.84375 C 147.5 218.800781 147.855469 217.457031 148.902344 216.851562 C 149.949219 216.246094 151.292969 216.601562 151.894531 217.644531 C 154.222656 221.683594 157.101562 225.347656 160.433594 228.59375 Z M 254.480469 183.417969 L 256.175781 177.054688 C 256.441406 176.074219 257.324219 175.421875 258.292969 175.421875 L 268.339844 175.421875 C 269.546875 175.421875 270.53125 176.414062 270.53125 177.625 C 270.53125 178.835938 269.546875 179.824219 268.339844 179.824219 L 259.980469 179.824219 L 254.332031 200.960938 C 256.523438 203.664062 256.417969 206.847656 254.097656 209.476562 C 256.824219 212.871094 254.410156 217.964844 250.046875 217.964844 C 246.351562 217.964844 243.855469 214.203125 245.222656 210.796875 L 240.691406 210.796875 C 242.066406 214.203125 239.5625 217.964844 235.867188 217.964844 C 232.046875 217.964844 229.554688 213.96875 231.160156 210.53125 C 229.179688 209.449219 229.9375 206.394531 232.207031 206.394531 L 250.980469 206.394531 C 251.699219 205.476562 251.699219 204.691406 250.980469 203.773438 L 231.382812 203.773438 C 230.328125 203.773438 229.4375 203.027344 229.234375 202.027344 L 225.007812 186.195312 C 224.632812 184.792969 225.691406 183.429688 227.121094 183.429688 L 227.121094 183.417969 Z M 250.214844 199.378906 L 253.300781 187.824219 L 229.980469 187.824219 L 233.0625 199.378906 Z M 236.449219 212.171875 C 235.691406 211.414062 234.546875 212.566406 235.300781 213.332031 C 236.054688 214.085938 237.203125 212.929688 236.449219 212.171875 Z M 250.625 212.171875 C 249.859375 211.414062 248.71875 212.566406 249.46875 213.332031 C 250.226562 214.085938 251.382812 212.929688 250.625 212.171875 Z M 131.480469 179.785156 L 143.78125 179.785156 C 145.046875 179.785156 146.179688 180.351562 146.933594 181.269531 L 160.625 173.910156 C 162.082031 173.125 163.832031 174.210938 163.832031 175.84375 L 163.839844 175.84375 L 163.839844 183.09375 C 172.5625 187.097656 172.5625 197.042969 163.839844 201.058594 L 163.839844 208.296875 C 163.839844 209.886719 162.132812 211.148438 160.445312 210.144531 L 146.933594 202.878906 C 146.171875 203.785156 145.042969 204.359375 143.78125 204.359375 L 143.003906 204.359375 L 143.003906 213.746094 C 143.003906 219.054688 136.570312 221.789062 132.785156 217.988281 C 131.703125 216.902344 131.027344 215.40625 131.027344 213.746094 L 131.027344 204.335938 C 127.726562 204.101562 125.121094 201.320312 125.121094 197.96875 L 125.121094 186.164062 C 125.121094 182.652344 127.980469 179.785156 131.480469 179.785156 Z M 147.886719 185.726562 L 147.886719 198.40625 L 159.457031 204.628906 L 159.457031 179.515625 Z M 138.613281 204.351562 L 135.414062 204.351562 L 135.414062 213.742188 C 135.414062 215.132812 137.121094 215.898438 138.140625 214.875 C 138.4375 214.578125 138.613281 214.179688 138.613281 213.742188 Z M 143.5 184.1875 L 131.480469 184.1875 C 130.394531 184.1875 129.507812 185.085938 129.507812 186.164062 L 129.507812 197.96875 C 129.507812 199.058594 130.402344 199.945312 131.480469 199.945312 L 143.5 199.945312 Z M 163.84375 188.171875 L 163.84375 195.972656 C 166.71875 193.726562 166.71875 190.40625 163.84375 188.171875 Z M 188.351562 148.757812 C 188.246094 147.542969 189.125 146.484375 190.332031 146.367188 C 191.535156 146.261719 192.597656 147.152344 192.707031 148.355469 C 192.847656 149.878906 195.847656 150.816406 197.574219 149.40625 C 197.972656 149.074219 198.210938 148.667969 198.210938 148.238281 C 198.210938 146.957031 196.628906 146.644531 195.050781 146.339844 C 191.683594 145.679688 188.316406 145.019531 188.316406 140.117188 C 188.316406 137.199219 190.507812 134.945312 193.234375 134.160156 L 193.234375 133.347656 C 193.234375 132.125 194.203125 131.144531 195.480469 131.144531 L 195.480469 131.15625 C 196.726562 131.164062 197.695312 132.171875 197.667969 133.390625 L 197.648438 134.148438 C 200.394531 134.925781 202.597656 137.191406 202.597656 140.113281 C 202.597656 141.324219 201.617188 142.3125 200.402344 142.3125 C 199.191406 142.3125 198.207031 141.324219 198.207031 140.113281 C 198.207031 138.507812 195.101562 137.5 193.347656 138.945312 C 192.945312 139.265625 192.699219 139.683594 192.699219 140.113281 C 192.699219 141.394531 194.28125 141.707031 195.871094 142.011719 C 199.226562 142.671875 202.597656 143.332031 202.597656 148.234375 C 202.597656 151.171875 200.382812 153.433594 197.636719 154.199219 L 197.621094 155 C 197.621094 156.210938 196.640625 157.203125 195.425781 157.203125 C 194.214844 157.203125 193.230469 156.210938 193.230469 155 L 193.230469 154.1875 C 190.695312 153.464844 188.601562 151.449219 188.351562 148.757812 Z M 195.460938 122.949219 C 207.144531 122.949219 216.621094 132.453125 216.621094 144.175781 C 216.621094 155.90625 207.140625 165.410156 195.460938 165.410156 C 183.78125 165.410156 174.308594 155.90625 174.308594 144.175781 C 174.308594 132.449219 183.777344 122.949219 195.460938 122.949219 Z M 207.320312 132.285156 C 200.773438 125.714844 190.15625 125.714844 183.609375 132.285156 C 177.0625 138.855469 177.0625 149.507812 183.609375 156.078125 C 190.15625 162.648438 200.773438 162.648438 207.320312 156.078125 C 213.867188 149.507812 213.867188 138.855469 207.320312 132.285156 Z M 177.191406 255.785156 L 177.191406 247.664062 C 177.191406 246.449219 178.171875 245.472656 179.386719 245.472656 C 180.597656 245.472656 181.582031 246.453125 181.582031 247.664062 L 181.582031 255.785156 L 209.09375 255.785156 L 209.09375 247.664062 C 209.09375 246.449219 210.070312 245.472656 211.285156 245.472656 C 212.496094 245.472656 213.480469 246.453125 213.480469 247.664062 L 213.480469 255.785156 L 223.402344 255.785156 L 223.402344 245.90625 C 223.402344 244.097656 222.859375 242.582031 221.660156 241.261719 C 217.9375 237.167969 211.390625 234.742188 205.4375 233.261719 C 200.214844 239.492188 190.835938 239.386719 185.257812 233.316406 C 179.695312 234.714844 167.515625 238.46875 167.515625 245.90625 L 167.515625 255.785156 Z M 205.738281 228.804688 C 212.878906 230.515625 220.382812 233.324219 224.898438 238.300781 C 226.824219 240.421875 227.792969 243.023438 227.792969 245.90625 L 227.792969 257.984375 C 227.792969 259.195312 226.804688 260.1875 225.597656 260.1875 L 165.324219 260.1875 C 164.117188 260.1875 163.132812 259.195312 163.132812 257.984375 L 163.132812 245.90625 C 163.132812 240.210938 167.207031 236.242188 172.210938 233.496094 C 176.660156 231.0625 181.8125 229.617188 185.1875 228.804688 C 185.429688 228.601562 185.6875 228.1875 185.953125 227.59375 C 186.316406 226.785156 186.644531 225.75 186.921875 224.484375 C 182.71875 220.304688 181.359375 214.484375 181.734375 208.117188 C 175.542969 203.117188 173.976562 196.410156 176.582031 188.734375 C 176.988281 187.519531 178.304688 186.917969 179.550781 187.433594 C 183.761719 189.128906 188.957031 190.402344 192.820312 189.214844 C 192.867188 189.195312 192.917969 189.179688 192.972656 189.171875 C 200.355469 187.460938 205.464844 188.28125 208.304688 191.640625 C 211.0625 194.90625 211.351562 200.316406 209.1875 207.894531 C 209.480469 212.40625 208.890625 216.28125 207.4375 219.519531 C 206.585938 221.410156 205.4375 223.066406 204.007812 224.492188 C 204.296875 225.820312 204.9375 228.09375 205.738281 228.804688 Z M 189.089844 230.953125 C 192.730469 234.332031 198.363281 234.421875 201.757812 230.820312 C 201.074219 229.800781 200.59375 228.589844 200.222656 227.332031 C 200.0625 227.421875 199.910156 227.503906 199.75 227.589844 C 197.039062 229.089844 193.851562 229.0625 191.140625 227.574219 C 190.992188 227.492188 190.847656 227.414062 190.707031 227.332031 C 190.316406 228.644531 189.808594 229.914062 189.089844 230.953125 Z M 186.058594 209.34375 C 185.878906 215.710938 187.710938 220.753906 193.28125 223.742188 C 194.65625 224.480469 196.273438 224.492188 197.636719 223.742188 C 200.363281 222.253906 202.234375 220.390625 203.445312 217.707031 C 204.511719 215.34375 204.976562 212.453125 204.847656 209.042969 C 202.453125 208.1875 200.390625 206.777344 198.738281 204.863281 C 195.621094 208.195312 190.929688 209.320312 186.058594 209.34375 Z M 203.550781 203.425781 C 204.15625 203.882812 204.816406 204.269531 205.523438 204.585938 C 206.6875 199.671875 206.5 196.304688 204.957031 194.484375 C 203.277344 192.488281 199.625 192.136719 194.003906 193.441406 C 191.835938 194.089844 189.410156 194.242188 186.683594 193.894531 C 184.667969 193.636719 182.488281 193.101562 180.117188 192.308594 C 179.59375 194.6875 179.628906 196.828125 180.203125 198.746094 C 180.90625 201.0625 182.441406 203.132812 184.769531 204.933594 C 187.941406 205.046875 190.535156 204.691406 192.550781 203.871094 C 194.460938 203.089844 195.855469 201.839844 196.734375 200.144531 C 197.570312 198.414062 199.808594 198.488281 200.644531 199.976562 C 201.457031 201.410156 202.425781 202.558594 203.550781 203.425781 Z M 203.550781 203.425781 " fill-opacity="1" fill-rule="nonzero"/></g></svg>