<svg xmlns="http://www.w3.org/2000/svg" xmlns:xlink="http://www.w3.org/1999/xlink" width="500" zoomAndPan="magnify" viewBox="0 0 375 374.999991" height="500" preserveAspectRatio="xMidYMid meet" version="1.2"><defs><clipPath id="fe760f6ad7"><path d="M 190 47.691406 L 260.421875 47.691406 L 260.421875 118 L 190 118 Z M 190 47.691406 "/></clipPath><clipPath id="59015b20b6"><path d="M 190 123 L 260.421875 123 L 260.421875 193.191406 L 190 193.191406 Z M 190 123 "/></clipPath><clipPath id="524e81f30c"><path d="M 114.921875 123 L 185 123 L 185 193.191406 L 114.921875 193.191406 Z M 114.921875 123 "/></clipPath><clipPath id="4a085c6762"><path d="M 114.921875 47.691406 L 185 47.691406 L 185 118 L 114.921875 118 Z M 114.921875 47.691406 "/></clipPath></defs><g id="4eadc33a43"><g style="fill:#000000;fill-opacity:1;"><g transform="translate(141.619972, 239.110383)"><path style="stroke:none" d="M 19.765625 0 L 18.6875 -3.578125 L 9.78125 -3.578125 L 8.71875 0 L 0.375 0 L 9.640625 -25.40625 L 19.140625 -25.40625 L 28.40625 0 Z M 11.484375 -9.265625 L 16.984375 -9.265625 L 14.328125 -18.328125 L 14.1875 -18.328125 Z M 11.484375 -9.265625 "/></g></g><g style="fill:#000000;fill-opacity:1;"><g transform="translate(171.096139, 239.110383)"><path style="stroke:none" d="M 20.90625 0 L 10.234375 -12.34375 L 10.234375 0 L 2.734375 0 L 2.734375 -25.40625 L 9.859375 -25.40625 L 20.53125 -12.890625 L 20.53125 -25.40625 L 28.03125 -25.40625 L 28.03125 0 Z M 20.90625 0 "/></g></g><g style="fill:#000000;fill-opacity:1;"><g transform="translate(202.603873, 239.110383)"><path style="stroke:none" d="M 19.953125 -25.40625 L 30.0625 -25.40625 L 20.9375 -14.953125 L 30.25 0 L 20.609375 0 L 15.328125 -9.3125 L 10.890625 -5.6875 L 10.890625 0 L 2.734375 0 L 2.734375 -25.40625 L 10.890625 -25.40625 L 10.890625 -14.546875 Z M 19.953125 -25.40625 "/></g></g><g style="fill:#000000;fill-opacity:1;"><g transform="translate(73.100445, 290.11038)"><path style="stroke:none" d="M 20.90625 0 L 10.234375 -12.34375 L 10.234375 0 L 2.734375 0 L 2.734375 -25.40625 L 9.859375 -25.40625 L 20.53125 -12.890625 L 20.53125 -25.40625 L 28.03125 -25.40625 L 28.03125 0 Z M 20.90625 0 "/></g></g><g style="fill:#000000;fill-opacity:1;"><g transform="translate(104.608179, 290.11038)"><path style="stroke:none" d="M 2.734375 -25.40625 L 24.71875 -25.40625 L 24.71875 -19.3125 L 10.890625 -19.3125 L 10.890625 -15.8125 L 22.71875 -15.8125 L 22.71875 -9.96875 L 10.890625 -9.96875 L 10.890625 -6.09375 L 24.96875 -6.09375 L 24.96875 0 L 2.734375 0 Z M 2.734375 -25.40625 "/></g></g><g style="fill:#000000;fill-opacity:1;"><g transform="translate(132.015862, 290.11038)"><path style="stroke:none" d="M 17.359375 -18.90625 L 17.359375 0 L 9.203125 0 L 9.203125 -18.90625 L 0.84375 -18.90625 L 0.84375 -25.40625 L 25.671875 -25.40625 L 25.671875 -18.90625 Z M 17.359375 -18.90625 "/></g></g><g style="fill:#000000;fill-opacity:1;"><g transform="translate(159.423544, 290.11038)"><path style="stroke:none" d="M 21.828125 0 L 18.546875 -15.484375 L 18.390625 -15.484375 L 15.109375 0 L 6.125 0 L 0.1875 -25.40625 L 8.6875 -25.40625 L 11.59375 -11 L 11.75 -11 L 14.625 -25.40625 L 22.671875 -25.40625 L 25.75 -11 L 25.890625 -11 L 28.625 -25.40625 L 36.75 -25.40625 L 30.8125 0 Z M 21.828125 0 "/></g></g><g style="fill:#000000;fill-opacity:1;"><g transform="translate(197.099826, 290.11038)"><path style="stroke:none" d="M 15.359375 -25.859375 C 19.742188 -25.859375 23.128906 -24.738281 25.515625 -22.5 C 27.910156 -20.257812 29.109375 -16.992188 29.109375 -12.703125 C 29.109375 -8.421875 27.910156 -5.160156 25.515625 -2.921875 C 23.128906 -0.679688 19.742188 0.4375 15.359375 0.4375 C 10.984375 0.4375 7.601562 -0.675781 5.21875 -2.90625 C 2.84375 -5.132812 1.65625 -8.398438 1.65625 -12.703125 C 1.65625 -17.015625 2.84375 -20.285156 5.21875 -22.515625 C 7.601562 -24.742188 10.984375 -25.859375 15.359375 -25.859375 Z M 15.359375 -19.765625 C 13.617188 -19.765625 12.289062 -19.234375 11.375 -18.171875 C 10.46875 -17.109375 10.015625 -15.679688 10.015625 -13.890625 L 10.015625 -11.53125 C 10.015625 -9.726562 10.46875 -8.296875 11.375 -7.234375 C 12.289062 -6.179688 13.617188 -5.65625 15.359375 -5.65625 C 17.109375 -5.65625 18.445312 -6.179688 19.375 -7.234375 C 20.300781 -8.296875 20.765625 -9.726562 20.765625 -11.53125 L 20.765625 -13.890625 C 20.765625 -15.679688 20.300781 -17.109375 19.375 -18.171875 C 18.445312 -19.234375 17.109375 -19.765625 15.359375 -19.765625 Z M 15.359375 -19.765625 "/></g></g><g style="fill:#000000;fill-opacity:1;"><g transform="translate(228.60756, 290.11038)"><path style="stroke:none" d="M 26.859375 -17.625 C 26.859375 -16.070312 26.4375 -14.664062 25.59375 -13.40625 C 24.757812 -12.15625 23.539062 -11.234375 21.9375 -10.640625 L 27.59375 0 L 18.4375 0 L 13.921875 -9.265625 L 10.890625 -9.265625 L 10.890625 0 L 2.734375 0 L 2.734375 -25.40625 L 18.28125 -25.40625 C 20.101562 -25.40625 21.660156 -25.054688 22.953125 -24.359375 C 24.242188 -23.660156 25.21875 -22.710938 25.875 -21.515625 C 26.53125 -20.316406 26.859375 -19.019531 26.859375 -17.625 Z M 18.546875 -17.28125 C 18.546875 -17.945312 18.320312 -18.5 17.875 -18.9375 C 17.4375 -19.382812 16.894531 -19.609375 16.25 -19.609375 L 10.890625 -19.609375 L 10.890625 -14.921875 L 16.25 -14.921875 C 16.894531 -14.921875 17.4375 -15.148438 17.875 -15.609375 C 18.320312 -16.066406 18.546875 -16.625 18.546875 -17.28125 Z M 18.546875 -17.28125 "/></g></g><g style="fill:#000000;fill-opacity:1;"><g transform="translate(258.083728, 290.11038)"><path style="stroke:none" d="M 19.953125 -25.40625 L 30.0625 -25.40625 L 20.9375 -14.953125 L 30.25 0 L 20.609375 0 L 15.328125 -9.3125 L 10.890625 -5.6875 L 10.890625 0 L 2.734375 0 L 2.734375 -25.40625 L 10.890625 -25.40625 L 10.890625 -14.546875 Z M 19.953125 -25.40625 "/></g></g><g style="fill:#000000;fill-opacity:1;"><g transform="translate(289.592622, 290.11038)"><path style="stroke:none" d=""/></g></g><g style="fill:#4462ee;fill-opacity:1;"><g transform="translate(92.05138, 324.386844)"><path style="stroke:none" d="M 9.140625 -2.90625 L 3.453125 -2.90625 L 2.40625 0 L 0.625 0 L 5.328125 -12.96875 L 7.296875 -12.96875 L 11.984375 0 L 10.1875 0 Z M 8.65625 -4.28125 L 6.296875 -10.859375 L 3.953125 -4.28125 Z M 8.65625 -4.28125 "/></g></g><g style="fill:#4462ee;fill-opacity:1;"><g transform="translate(105.584396, 324.386844)"><path style="stroke:none" d=""/></g></g><g style="fill:#4462ee;fill-opacity:1;"><g transform="translate(111.509997, 324.386844)"><path style="stroke:none" d="M 0.796875 -6.53125 C 0.796875 -7.800781 1.082031 -8.941406 1.65625 -9.953125 C 2.238281 -10.972656 3.023438 -11.769531 4.015625 -12.34375 C 5.003906 -12.914062 6.101562 -13.203125 7.3125 -13.203125 C 8.726562 -13.203125 9.96875 -12.859375 11.03125 -12.171875 C 12.09375 -11.484375 12.867188 -10.515625 13.359375 -9.265625 L 11.3125 -9.265625 C 10.945312 -10.046875 10.425781 -10.644531 9.75 -11.0625 C 9.070312 -11.488281 8.257812 -11.703125 7.3125 -11.703125 C 6.40625 -11.703125 5.585938 -11.488281 4.859375 -11.0625 C 4.140625 -10.644531 3.570312 -10.046875 3.15625 -9.265625 C 2.75 -8.484375 2.546875 -7.570312 2.546875 -6.53125 C 2.546875 -5.488281 2.75 -4.578125 3.15625 -3.796875 C 3.570312 -3.023438 4.140625 -2.425781 4.859375 -2 C 5.585938 -1.570312 6.40625 -1.359375 7.3125 -1.359375 C 8.257812 -1.359375 9.070312 -1.566406 9.75 -1.984375 C 10.425781 -2.410156 10.945312 -3.015625 11.3125 -3.796875 L 13.359375 -3.796875 C 12.867188 -2.546875 12.09375 -1.582031 11.03125 -0.90625 C 9.96875 -0.226562 8.726562 0.109375 7.3125 0.109375 C 6.101562 0.109375 5.003906 -0.171875 4.015625 -0.734375 C 3.023438 -1.304688 2.238281 -2.097656 1.65625 -3.109375 C 1.082031 -4.117188 0.796875 -5.257812 0.796875 -6.53125 Z M 0.796875 -6.53125 "/></g></g><g style="fill:#4462ee;fill-opacity:1;"><g transform="translate(126.874766, 324.386844)"><path style="stroke:none" d="M 0.796875 -5.15625 C 0.796875 -6.207031 1.007812 -7.128906 1.4375 -7.921875 C 1.863281 -8.710938 2.445312 -9.328125 3.1875 -9.765625 C 3.925781 -10.203125 4.753906 -10.421875 5.671875 -10.421875 C 6.566406 -10.421875 7.34375 -10.226562 8 -9.84375 C 8.664062 -9.457031 9.160156 -8.96875 9.484375 -8.375 L 9.484375 -10.25 L 11.203125 -10.25 L 11.203125 0 L 9.484375 0 L 9.484375 -1.90625 C 9.148438 -1.3125 8.644531 -0.816406 7.96875 -0.421875 C 7.300781 -0.0234375 6.523438 0.171875 5.640625 0.171875 C 4.734375 0.171875 3.910156 -0.0507812 3.171875 -0.5 C 2.441406 -0.945312 1.863281 -1.578125 1.4375 -2.390625 C 1.007812 -3.203125 0.796875 -4.125 0.796875 -5.15625 Z M 9.484375 -5.140625 C 9.484375 -5.910156 9.328125 -6.582031 9.015625 -7.15625 C 8.703125 -7.738281 8.28125 -8.179688 7.75 -8.484375 C 7.21875 -8.785156 6.632812 -8.9375 6 -8.9375 C 5.363281 -8.9375 4.785156 -8.785156 4.265625 -8.484375 C 3.742188 -8.191406 3.328125 -7.757812 3.015625 -7.1875 C 2.703125 -6.613281 2.546875 -5.9375 2.546875 -5.15625 C 2.546875 -4.375 2.703125 -3.691406 3.015625 -3.109375 C 3.328125 -2.535156 3.742188 -2.09375 4.265625 -1.78125 C 4.785156 -1.476562 5.363281 -1.328125 6 -1.328125 C 6.632812 -1.328125 7.21875 -1.476562 7.75 -1.78125 C 8.28125 -2.09375 8.703125 -2.535156 9.015625 -3.109375 C 9.328125 -3.691406 9.484375 -4.367188 9.484375 -5.140625 Z M 9.484375 -5.140625 "/></g></g><g style="fill:#4462ee;fill-opacity:1;"><g transform="translate(140.445158, 324.386844)"><path style="stroke:none" d="M 3.140625 -8.34375 C 3.492188 -8.957031 4.003906 -9.457031 4.671875 -9.84375 C 5.347656 -10.226562 6.113281 -10.421875 6.96875 -10.421875 C 7.894531 -10.421875 8.722656 -10.203125 9.453125 -9.765625 C 10.191406 -9.328125 10.773438 -8.710938 11.203125 -7.921875 C 11.628906 -7.128906 11.84375 -6.207031 11.84375 -5.15625 C 11.84375 -4.125 11.628906 -3.203125 11.203125 -2.390625 C 10.773438 -1.578125 10.191406 -0.945312 9.453125 -0.5 C 8.710938 -0.0507812 7.882812 0.171875 6.96875 0.171875 C 6.082031 0.171875 5.304688 -0.0195312 4.640625 -0.40625 C 3.972656 -0.789062 3.472656 -1.285156 3.140625 -1.890625 L 3.140625 0 L 1.4375 0 L 1.4375 -13.84375 L 3.140625 -13.84375 Z M 10.09375 -5.15625 C 10.09375 -5.9375 9.9375 -6.613281 9.625 -7.1875 C 9.320312 -7.757812 8.90625 -8.191406 8.375 -8.484375 C 7.84375 -8.785156 7.257812 -8.9375 6.625 -8.9375 C 6 -8.9375 5.421875 -8.785156 4.890625 -8.484375 C 4.359375 -8.179688 3.929688 -7.738281 3.609375 -7.15625 C 3.296875 -6.570312 3.140625 -5.898438 3.140625 -5.140625 C 3.140625 -4.367188 3.296875 -3.691406 3.609375 -3.109375 C 3.929688 -2.535156 4.359375 -2.09375 4.890625 -1.78125 C 5.421875 -1.476562 6 -1.328125 6.625 -1.328125 C 7.257812 -1.328125 7.84375 -1.476562 8.375 -1.78125 C 8.90625 -2.09375 9.320312 -2.535156 9.625 -3.109375 C 9.9375 -3.691406 10.09375 -4.375 10.09375 -5.15625 Z M 10.09375 -5.15625 "/></g></g><g style="fill:#4462ee;fill-opacity:1;"><g transform="translate(154.015549, 324.386844)"><path style="stroke:none" d="M 3.140625 -13.84375 L 3.140625 0 L 1.4375 0 L 1.4375 -13.84375 Z M 3.140625 -13.84375 "/></g></g><g style="fill:#4462ee;fill-opacity:1;"><g transform="translate(159.54863, 324.386844)"><path style="stroke:none" d="M 10.796875 -5.515625 C 10.796875 -5.191406 10.773438 -4.847656 10.734375 -4.484375 L 2.546875 -4.484375 C 2.609375 -3.472656 2.953125 -2.679688 3.578125 -2.109375 C 4.210938 -1.546875 4.976562 -1.265625 5.875 -1.265625 C 6.601562 -1.265625 7.210938 -1.4375 7.703125 -1.78125 C 8.203125 -2.125 8.550781 -2.582031 8.75 -3.15625 L 10.59375 -3.15625 C 10.3125 -2.175781 9.757812 -1.375 8.9375 -0.75 C 8.113281 -0.132812 7.09375 0.171875 5.875 0.171875 C 4.894531 0.171875 4.019531 -0.046875 3.25 -0.484375 C 2.488281 -0.921875 1.890625 -1.539062 1.453125 -2.34375 C 1.015625 -3.144531 0.796875 -4.078125 0.796875 -5.140625 C 0.796875 -6.203125 1.007812 -7.128906 1.4375 -7.921875 C 1.863281 -8.722656 2.457031 -9.335938 3.21875 -9.765625 C 3.988281 -10.203125 4.875 -10.421875 5.875 -10.421875 C 6.84375 -10.421875 7.703125 -10.207031 8.453125 -9.78125 C 9.203125 -9.351562 9.78125 -8.769531 10.1875 -8.03125 C 10.59375 -7.289062 10.796875 -6.453125 10.796875 -5.515625 Z M 9.03125 -5.875 C 9.03125 -6.519531 8.882812 -7.078125 8.59375 -7.546875 C 8.3125 -8.015625 7.925781 -8.367188 7.4375 -8.609375 C 6.945312 -8.859375 6.398438 -8.984375 5.796875 -8.984375 C 4.929688 -8.984375 4.195312 -8.707031 3.59375 -8.15625 C 2.988281 -7.601562 2.644531 -6.84375 2.5625 -5.875 Z M 9.03125 -5.875 "/></g></g><g style="fill:#4462ee;fill-opacity:1;"><g transform="translate(172.072299, 324.386844)"><path style="stroke:none" d=""/></g></g><g style="fill:#4462ee;fill-opacity:1;"><g transform="translate(177.997901, 324.386844)"><path style="stroke:none" d="M 0.796875 -6.53125 C 0.796875 -7.800781 1.082031 -8.941406 1.65625 -9.953125 C 2.238281 -10.972656 3.023438 -11.769531 4.015625 -12.34375 C 5.003906 -12.914062 6.101562 -13.203125 7.3125 -13.203125 C 8.726562 -13.203125 9.96875 -12.859375 11.03125 -12.171875 C 12.09375 -11.484375 12.867188 -10.515625 13.359375 -9.265625 L 11.3125 -9.265625 C 10.945312 -10.046875 10.425781 -10.644531 9.75 -11.0625 C 9.070312 -11.488281 8.257812 -11.703125 7.3125 -11.703125 C 6.40625 -11.703125 5.585938 -11.488281 4.859375 -11.0625 C 4.140625 -10.644531 3.570312 -10.046875 3.15625 -9.265625 C 2.75 -8.484375 2.546875 -7.570312 2.546875 -6.53125 C 2.546875 -5.488281 2.75 -4.578125 3.15625 -3.796875 C 3.570312 -3.023438 4.140625 -2.425781 4.859375 -2 C 5.585938 -1.570312 6.40625 -1.359375 7.3125 -1.359375 C 8.257812 -1.359375 9.070312 -1.566406 9.75 -1.984375 C 10.425781 -2.410156 10.945312 -3.015625 11.3125 -3.796875 L 13.359375 -3.796875 C 12.867188 -2.546875 12.09375 -1.582031 11.03125 -0.90625 C 9.96875 -0.226562 8.726562 0.109375 7.3125 0.109375 C 6.101562 0.109375 5.003906 -0.171875 4.015625 -0.734375 C 3.023438 -1.304688 2.238281 -2.097656 1.65625 -3.109375 C 1.082031 -4.117188 0.796875 -5.257812 0.796875 -6.53125 Z M 0.796875 -6.53125 "/></g></g><g style="fill:#4462ee;fill-opacity:1;"><g transform="translate(193.362669, 324.386844)"><path style="stroke:none" d="M 5.90625 0.171875 C 4.945312 0.171875 4.078125 -0.046875 3.296875 -0.484375 C 2.515625 -0.921875 1.898438 -1.539062 1.453125 -2.34375 C 1.015625 -3.144531 0.796875 -4.078125 0.796875 -5.140625 C 0.796875 -6.191406 1.023438 -7.117188 1.484375 -7.921875 C 1.941406 -8.722656 2.5625 -9.335938 3.34375 -9.765625 C 4.132812 -10.203125 5.015625 -10.421875 5.984375 -10.421875 C 6.953125 -10.421875 7.828125 -10.203125 8.609375 -9.765625 C 9.398438 -9.335938 10.023438 -8.722656 10.484375 -7.921875 C 10.941406 -7.128906 11.171875 -6.203125 11.171875 -5.140625 C 11.171875 -4.078125 10.9375 -3.144531 10.46875 -2.34375 C 10 -1.539062 9.363281 -0.921875 8.5625 -0.484375 C 7.769531 -0.046875 6.882812 0.171875 5.90625 0.171875 Z M 5.90625 -1.328125 C 6.519531 -1.328125 7.09375 -1.46875 7.625 -1.75 C 8.164062 -2.039062 8.597656 -2.472656 8.921875 -3.046875 C 9.253906 -3.617188 9.421875 -4.316406 9.421875 -5.140625 C 9.421875 -5.960938 9.257812 -6.660156 8.9375 -7.234375 C 8.613281 -7.804688 8.1875 -8.234375 7.65625 -8.515625 C 7.132812 -8.796875 6.570312 -8.9375 5.96875 -8.9375 C 5.34375 -8.9375 4.769531 -8.796875 4.25 -8.515625 C 3.738281 -8.234375 3.328125 -7.804688 3.015625 -7.234375 C 2.703125 -6.660156 2.546875 -5.960938 2.546875 -5.140625 C 2.546875 -4.304688 2.695312 -3.601562 3 -3.03125 C 3.300781 -2.457031 3.707031 -2.03125 4.21875 -1.75 C 4.738281 -1.46875 5.300781 -1.328125 5.90625 -1.328125 Z M 5.90625 -1.328125 "/></g></g><g style="fill:#4462ee;fill-opacity:1;"><g transform="translate(206.260172, 324.386844)"><path style="stroke:none" d="M 13.765625 -10.4375 C 14.566406 -10.4375 15.273438 -10.269531 15.890625 -9.9375 C 16.515625 -9.601562 17.007812 -9.109375 17.375 -8.453125 C 17.738281 -7.796875 17.921875 -6.992188 17.921875 -6.046875 L 17.921875 0 L 16.234375 0 L 16.234375 -5.796875 C 16.234375 -6.816406 15.976562 -7.597656 15.46875 -8.140625 C 14.96875 -8.679688 14.285156 -8.953125 13.421875 -8.953125 C 12.535156 -8.953125 11.832031 -8.664062 11.3125 -8.09375 C 10.789062 -7.53125 10.53125 -6.710938 10.53125 -5.640625 L 10.53125 0 L 8.84375 0 L 8.84375 -5.796875 C 8.84375 -6.816406 8.585938 -7.597656 8.078125 -8.140625 C 7.578125 -8.679688 6.898438 -8.953125 6.046875 -8.953125 C 5.160156 -8.953125 4.453125 -8.664062 3.921875 -8.09375 C 3.398438 -7.53125 3.140625 -6.710938 3.140625 -5.640625 L 3.140625 0 L 1.4375 0 L 1.4375 -10.25 L 3.140625 -10.25 L 3.140625 -8.765625 C 3.472656 -9.304688 3.921875 -9.71875 4.484375 -10 C 5.054688 -10.289062 5.6875 -10.4375 6.375 -10.4375 C 7.238281 -10.4375 8 -10.242188 8.65625 -9.859375 C 9.320312 -9.472656 9.816406 -8.90625 10.140625 -8.15625 C 10.421875 -8.875 10.890625 -9.429688 11.546875 -9.828125 C 12.210938 -10.234375 12.953125 -10.4375 13.765625 -10.4375 Z M 13.765625 -10.4375 "/></g></g><g style="fill:#4462ee;fill-opacity:1;"><g transform="translate(226.447331, 324.386844)"><path style="stroke:none" d="M 3.140625 -8.359375 C 3.472656 -8.941406 3.972656 -9.429688 4.640625 -9.828125 C 5.304688 -10.222656 6.082031 -10.421875 6.96875 -10.421875 C 7.882812 -10.421875 8.710938 -10.203125 9.453125 -9.765625 C 10.191406 -9.328125 10.773438 -8.710938 11.203125 -7.921875 C 11.628906 -7.128906 11.84375 -6.207031 11.84375 -5.15625 C 11.84375 -4.125 11.628906 -3.203125 11.203125 -2.390625 C 10.773438 -1.578125 10.191406 -0.945312 9.453125 -0.5 C 8.710938 -0.0507812 7.882812 0.171875 6.96875 0.171875 C 6.101562 0.171875 5.335938 -0.0234375 4.671875 -0.421875 C 4.003906 -0.816406 3.492188 -1.304688 3.140625 -1.890625 L 3.140625 4.859375 L 1.4375 4.859375 L 1.4375 -10.25 L 3.140625 -10.25 Z M 10.09375 -5.15625 C 10.09375 -5.9375 9.9375 -6.613281 9.625 -7.1875 C 9.320312 -7.757812 8.90625 -8.191406 8.375 -8.484375 C 7.84375 -8.785156 7.257812 -8.9375 6.625 -8.9375 C 6 -8.9375 5.421875 -8.785156 4.890625 -8.484375 C 4.359375 -8.179688 3.929688 -7.738281 3.609375 -7.15625 C 3.296875 -6.570312 3.140625 -5.898438 3.140625 -5.140625 C 3.140625 -4.367188 3.296875 -3.691406 3.609375 -3.109375 C 3.929688 -2.535156 4.359375 -2.09375 4.890625 -1.78125 C 5.421875 -1.476562 6 -1.328125 6.625 -1.328125 C 7.257812 -1.328125 7.84375 -1.476562 8.375 -1.78125 C 8.90625 -2.09375 9.320312 -2.535156 9.625 -3.109375 C 9.9375 -3.691406 10.09375 -4.375 10.09375 -5.15625 Z M 10.09375 -5.15625 "/></g></g><g style="fill:#4462ee;fill-opacity:1;"><g transform="translate(240.017723, 324.386844)"><path style="stroke:none" d="M 0.796875 -5.15625 C 0.796875 -6.207031 1.007812 -7.128906 1.4375 -7.921875 C 1.863281 -8.710938 2.445312 -9.328125 3.1875 -9.765625 C 3.925781 -10.203125 4.753906 -10.421875 5.671875 -10.421875 C 6.566406 -10.421875 7.34375 -10.226562 8 -9.84375 C 8.664062 -9.457031 9.160156 -8.96875 9.484375 -8.375 L 9.484375 -10.25 L 11.203125 -10.25 L 11.203125 0 L 9.484375 0 L 9.484375 -1.90625 C 9.148438 -1.3125 8.644531 -0.816406 7.96875 -0.421875 C 7.300781 -0.0234375 6.523438 0.171875 5.640625 0.171875 C 4.734375 0.171875 3.910156 -0.0507812 3.171875 -0.5 C 2.441406 -0.945312 1.863281 -1.578125 1.4375 -2.390625 C 1.007812 -3.203125 0.796875 -4.125 0.796875 -5.15625 Z M 9.484375 -5.140625 C 9.484375 -5.910156 9.328125 -6.582031 9.015625 -7.15625 C 8.703125 -7.738281 8.28125 -8.179688 7.75 -8.484375 C 7.21875 -8.785156 6.632812 -8.9375 6 -8.9375 C 5.363281 -8.9375 4.785156 -8.785156 4.265625 -8.484375 C 3.742188 -8.191406 3.328125 -7.757812 3.015625 -7.1875 C 2.703125 -6.613281 2.546875 -5.9375 2.546875 -5.15625 C 2.546875 -4.375 2.703125 -3.691406 3.015625 -3.109375 C 3.328125 -2.535156 3.742188 -2.09375 4.265625 -1.78125 C 4.785156 -1.476562 5.363281 -1.328125 6 -1.328125 C 6.632812 -1.328125 7.21875 -1.476562 7.75 -1.78125 C 8.28125 -2.09375 8.703125 -2.535156 9.015625 -3.109375 C 9.328125 -3.691406 9.484375 -4.367188 9.484375 -5.140625 Z M 9.484375 -5.140625 "/></g></g><g style="fill:#4462ee;fill-opacity:1;"><g transform="translate(253.588115, 324.386844)"><path style="stroke:none" d="M 6.4375 -10.4375 C 7.675781 -10.4375 8.679688 -10.054688 9.453125 -9.296875 C 10.234375 -8.546875 10.625 -7.460938 10.625 -6.046875 L 10.625 0 L 8.9375 0 L 8.9375 -5.796875 C 8.9375 -6.816406 8.679688 -7.597656 8.171875 -8.140625 C 7.660156 -8.679688 6.960938 -8.953125 6.078125 -8.953125 C 5.179688 -8.953125 4.46875 -8.671875 3.9375 -8.109375 C 3.40625 -7.554688 3.140625 -6.742188 3.140625 -5.671875 L 3.140625 0 L 1.4375 0 L 1.4375 -10.25 L 3.140625 -10.25 L 3.140625 -8.796875 C 3.472656 -9.316406 3.929688 -9.71875 4.515625 -10 C 5.097656 -10.289062 5.738281 -10.4375 6.4375 -10.4375 Z M 6.4375 -10.4375 "/></g></g><g style="fill:#4462ee;fill-opacity:1;"><g transform="translate(266.485617, 324.386844)"><path style="stroke:none" d="M 10.265625 -10.25 L 4.09375 4.828125 L 2.34375 4.828125 L 4.359375 -0.109375 L 0.21875 -10.25 L 2.109375 -10.25 L 5.328125 -1.9375 L 8.515625 -10.25 Z M 10.265625 -10.25 "/></g></g><g style="fill:#4462ee;fill-opacity:1;"><g transform="translate(277.945903, 324.386844)"><path style="stroke:none" d=""/></g></g><g clip-rule="nonzero" clip-path="url(#fe760f6ad7)"><path style=" stroke:none;fill-rule:evenodd;fill:#4462ee;fill-opacity:1;" d="M 224.1875 83.769531 L 223.878906 83.769531 C 217.332031 83.769531 210.414062 85.664062 205.015625 88.703125 C 201.851562 90.5 199.277344 92.671875 197.722656 95.09375 C 196.328125 97.265625 195.738281 99.621094 196.359375 102.042969 C 196.824219 103.902344 198.035156 105.859375 200.050781 107.875 C 202.097656 109.921875 204.054688 111.101562 205.882812 111.566406 C 208.304688 112.1875 210.660156 111.628906 212.832031 110.203125 C 215.253906 108.621094 217.425781 106.042969 219.222656 102.910156 C 222.296875 97.542969 224.15625 90.625 224.15625 84.078125 Z M 260.269531 114.761719 C 260.269531 116.25 259.058594 117.460938 257.570312 117.460938 C 256.078125 117.460938 254.871094 116.25 254.871094 114.761719 C 254.871094 106.199219 251.394531 98.445312 245.78125 92.828125 C 241.4375 88.484375 235.820312 85.445312 229.554688 84.265625 C 229.523438 91.648438 227.382812 99.46875 223.90625 105.546875 C 221.707031 109.425781 218.914062 112.652344 215.78125 114.699219 C 212.367188 116.902344 208.582031 117.800781 204.582031 116.746094 C 201.820312 116.035156 198.996094 114.390625 196.265625 111.660156 C 193.535156 108.929688 191.890625 106.136719 191.179688 103.34375 C 190.125 99.34375 191.023438 95.527344 193.226562 92.144531 C 195.273438 88.980469 198.5 86.21875 202.378906 84.019531 C 208.457031 80.542969 216.277344 78.402344 223.660156 78.371094 C 222.480469 72.105469 219.441406 66.488281 215.097656 62.144531 C 209.480469 56.53125 201.726562 53.054688 193.164062 53.054688 C 191.675781 53.054688 190.464844 51.847656 190.464844 50.359375 C 190.464844 48.867188 191.675781 47.660156 193.164062 47.660156 C 203.214844 47.660156 212.304688 51.722656 218.882812 58.332031 C 224.28125 63.730469 228.003906 70.832031 229.152344 78.742188 C 237.0625 79.890625 244.167969 83.613281 249.566406 89.011719 C 256.171875 95.621094 260.269531 104.710938 260.269531 114.761719 Z M 260.269531 114.761719 "/></g><g clip-rule="nonzero" clip-path="url(#59015b20b6)"><path style=" stroke:none;fill-rule:evenodd;fill:#4462ee;fill-opacity:1;" d="M 224.1875 156.953125 L 224.1875 156.644531 C 224.1875 150.097656 222.296875 143.179688 219.253906 137.78125 C 217.457031 134.617188 215.253906 132.042969 212.863281 130.492188 C 210.691406 129.09375 208.335938 128.503906 205.914062 129.125 C 204.054688 129.589844 202.097656 130.800781 200.082031 132.816406 C 198.035156 134.867188 196.855469 136.820312 196.390625 138.648438 C 195.769531 141.070312 196.328125 143.429688 197.753906 145.597656 C 199.304688 148.019531 201.914062 150.191406 205.046875 151.992188 C 210.414062 155.0625 217.332031 156.921875 223.90625 156.921875 Z M 193.195312 193.035156 C 191.707031 193.035156 190.496094 191.824219 190.496094 190.335938 C 190.496094 188.847656 191.707031 187.636719 193.195312 187.636719 C 201.757812 187.636719 209.511719 184.160156 215.128906 178.546875 C 219.472656 174.203125 222.511719 168.585938 223.691406 162.320312 C 216.308594 162.289062 208.488281 160.148438 202.410156 156.675781 C 198.53125 154.472656 195.304688 151.679688 193.257812 148.546875 C 191.054688 145.132812 190.15625 141.347656 191.210938 137.347656 C 191.921875 134.585938 193.566406 131.761719 196.296875 129.03125 C 199.027344 126.304688 201.820312 124.660156 204.613281 123.945312 C 208.613281 122.890625 212.429688 123.789062 215.8125 125.992188 C 218.976562 128.039062 221.738281 131.265625 223.9375 135.144531 C 227.414062 141.226562 229.554688 149.042969 229.617188 156.425781 C 235.882812 155.246094 241.5 152.207031 245.839844 147.863281 C 251.457031 142.25 254.929688 134.492188 254.929688 125.929688 C 254.929688 124.441406 256.140625 123.230469 257.628906 123.230469 C 259.121094 123.230469 260.328125 124.441406 260.328125 125.929688 C 260.328125 135.980469 256.265625 145.070312 249.65625 151.648438 C 244.257812 157.046875 237.15625 160.769531 229.246094 161.917969 C 228.097656 169.828125 224.375 176.933594 218.976562 182.332031 C 212.335938 188.9375 203.246094 193.035156 193.195312 193.035156 Z M 193.195312 193.035156 "/></g><path style=" stroke:none;fill-rule:evenodd;fill:#4462ee;fill-opacity:1;" d="M 253.378906 63.789062 C 253.378906 61.433594 252.480469 59.074219 250.679688 57.277344 C 248.882812 55.476562 246.523438 54.578125 244.167969 54.578125 C 241.808594 54.578125 239.449219 55.476562 237.652344 57.277344 C 235.851562 59.074219 234.953125 61.433594 234.953125 63.789062 C 234.953125 66.148438 235.851562 68.507812 237.652344 70.304688 C 239.449219 72.105469 241.808594 73.003906 244.167969 73.003906 C 246.523438 73.003906 248.882812 72.105469 250.679688 70.304688 C 252.480469 68.507812 253.378906 66.148438 253.378906 63.789062 M 254.496094 53.460938 C 257.351562 56.3125 258.777344 60.035156 258.777344 63.789062 C 258.777344 67.511719 257.351562 71.265625 254.496094 74.121094 C 251.644531 76.976562 247.921875 78.402344 244.167969 78.402344 C 240.445312 78.402344 236.691406 76.976562 233.835938 74.121094 C 230.980469 71.265625 229.554688 67.542969 229.554688 63.789062 C 229.554688 60.066406 230.980469 56.3125 233.835938 53.460938 C 236.691406 50.605469 240.414062 49.179688 244.167969 49.179688 C 247.890625 49.179688 251.644531 50.605469 254.496094 53.460938 Z M 254.496094 53.460938 "/><path style=" stroke:none;fill-rule:evenodd;fill:#4462ee;fill-opacity:1;" d="M 244.167969 186.148438 C 246.523438 186.148438 248.882812 185.246094 250.679688 183.449219 C 252.480469 181.648438 253.378906 179.289062 253.378906 176.933594 C 253.378906 174.574219 252.480469 172.21875 250.679688 170.417969 C 248.882812 168.617188 246.523438 167.71875 244.167969 167.71875 C 241.808594 167.71875 239.449219 168.617188 237.652344 170.417969 C 235.851562 172.21875 234.953125 174.574219 234.953125 176.933594 C 234.953125 179.289062 235.851562 181.648438 237.652344 183.449219 C 239.449219 185.246094 241.808594 186.148438 244.167969 186.148438 M 254.496094 187.265625 C 251.644531 190.117188 247.921875 191.546875 244.167969 191.546875 C 240.445312 191.546875 236.691406 190.117188 233.835938 187.265625 C 230.980469 184.410156 229.554688 180.6875 229.554688 176.933594 C 229.554688 173.210938 230.980469 169.457031 233.835938 166.601562 C 236.691406 163.75 240.414062 162.320312 244.167969 162.320312 C 247.890625 162.320312 251.644531 163.75 254.496094 166.601562 C 257.351562 169.457031 258.777344 173.179688 258.777344 176.933594 C 258.777344 180.65625 257.351562 184.410156 254.496094 187.265625 Z M 254.496094 187.265625 "/><g clip-rule="nonzero" clip-path="url(#524e81f30c)"><path style=" stroke:none;fill-rule:evenodd;fill:#4462ee;fill-opacity:1;" d="M 151.003906 156.953125 L 151.3125 156.953125 C 157.859375 156.953125 164.777344 155.0625 170.175781 152.019531 C 173.339844 150.222656 175.914062 148.050781 177.464844 145.628906 C 178.863281 143.457031 179.453125 141.101562 178.832031 138.679688 C 178.367188 136.820312 177.15625 134.867188 175.140625 132.847656 C 173.089844 130.800781 171.136719 129.621094 169.308594 129.15625 C 166.886719 128.535156 164.527344 129.09375 162.359375 130.523438 C 159.9375 132.105469 157.765625 134.679688 155.964844 137.8125 C 152.894531 143.179688 151.035156 150.097656 151.035156 156.675781 Z M 114.921875 125.960938 C 114.921875 124.472656 116.132812 123.261719 117.621094 123.261719 C 119.109375 123.261719 120.320312 124.472656 120.320312 125.960938 C 120.320312 134.523438 123.796875 142.28125 129.410156 147.894531 C 133.753906 152.238281 139.371094 155.277344 145.636719 156.457031 C 145.667969 149.074219 147.808594 141.257812 151.28125 135.175781 C 153.484375 131.296875 156.277344 128.070312 159.410156 126.023438 C 162.824219 123.820312 166.609375 122.921875 170.609375 123.976562 C 173.371094 124.691406 176.195312 126.332031 178.925781 129.0625 C 181.652344 131.792969 183.296875 134.585938 184.011719 137.378906 C 185.066406 141.378906 184.167969 145.195312 181.964844 148.578125 C 179.917969 151.742188 176.691406 154.503906 172.8125 156.707031 C 166.730469 160.179688 158.914062 162.320312 151.53125 162.351562 C 152.710938 168.617188 155.75 174.234375 160.09375 178.578125 C 165.707031 184.191406 173.464844 187.667969 182.027344 187.667969 C 183.515625 187.667969 184.726562 188.878906 184.726562 190.367188 C 184.726562 191.855469 183.515625 193.066406 182.027344 193.066406 C 171.976562 193.066406 162.886719 189 156.308594 182.394531 C 150.910156 176.996094 147.1875 169.890625 146.039062 161.980469 C 138.128906 160.832031 131.023438 157.109375 125.625 151.710938 C 118.988281 145.101562 114.921875 136.011719 114.921875 125.960938 Z M 114.921875 125.960938 "/></g><g clip-rule="nonzero" clip-path="url(#4a085c6762)"><path style=" stroke:none;fill-rule:evenodd;fill:#4462ee;fill-opacity:1;" d="M 151.003906 83.769531 L 151.003906 84.078125 C 151.003906 90.625 152.894531 97.542969 155.9375 102.910156 C 157.734375 106.074219 159.90625 108.652344 162.328125 110.203125 C 164.5 111.597656 166.855469 112.1875 169.277344 111.566406 C 171.136719 111.101562 173.089844 109.890625 175.109375 107.875 C 177.15625 105.828125 178.335938 103.871094 178.800781 102.042969 C 179.421875 99.621094 178.863281 97.265625 177.433594 95.09375 C 175.851562 92.671875 173.277344 90.5 170.144531 88.703125 C 164.777344 85.632812 157.859375 83.769531 151.28125 83.769531 Z M 181.996094 47.691406 C 183.484375 47.691406 184.695312 48.898438 184.695312 50.386719 C 184.695312 51.878906 183.484375 53.085938 181.996094 53.085938 C 173.433594 53.085938 165.675781 56.5625 160.0625 62.175781 C 155.71875 66.519531 152.679688 72.136719 151.5 78.402344 C 158.882812 78.433594 166.699219 80.574219 172.78125 84.050781 C 176.660156 86.25 179.886719 89.042969 181.933594 92.175781 C 184.136719 95.558594 185.035156 99.375 183.980469 103.375 C 183.265625 106.136719 181.625 108.960938 178.894531 111.691406 C 176.164062 114.421875 173.371094 116.066406 170.578125 116.777344 C 166.578125 117.832031 162.761719 116.933594 159.378906 114.730469 C 156.214844 112.683594 153.453125 109.457031 151.25 105.578125 C 147.777344 99.5 145.636719 91.679688 145.605469 84.296875 C 139.339844 85.476562 133.722656 88.515625 129.378906 92.859375 C 123.765625 98.476562 120.289062 106.230469 120.289062 114.792969 C 120.289062 116.28125 119.078125 117.492188 117.589844 117.492188 C 116.132812 117.460938 114.921875 116.25 114.921875 114.761719 C 114.921875 104.710938 118.988281 95.621094 125.59375 89.042969 C 130.992188 83.644531 138.097656 79.921875 146.007812 78.773438 C 147.15625 70.863281 150.878906 63.757812 156.277344 58.363281 C 162.855469 51.753906 171.945312 47.691406 181.996094 47.691406 Z M 181.996094 47.691406 "/></g><path style=" stroke:none;fill-rule:evenodd;fill:#4462ee;fill-opacity:1;" d="M 121.808594 176.933594 C 121.808594 179.289062 122.710938 181.648438 124.507812 183.449219 C 126.308594 185.246094 128.667969 186.148438 131.023438 186.148438 C 133.382812 186.148438 135.738281 185.246094 137.539062 183.449219 C 139.339844 181.648438 140.238281 179.289062 140.238281 176.933594 C 140.238281 174.574219 139.339844 172.21875 137.539062 170.417969 C 135.738281 168.617188 133.382812 167.71875 131.023438 167.71875 C 128.667969 167.71875 126.308594 168.617188 124.507812 170.417969 C 122.710938 172.21875 121.808594 174.574219 121.808594 176.933594 M 120.691406 187.265625 C 117.839844 184.410156 116.410156 180.6875 116.410156 176.933594 C 116.410156 173.210938 117.839844 169.457031 120.691406 166.601562 C 123.546875 163.75 127.269531 162.320312 131.023438 162.320312 C 134.746094 162.320312 138.5 163.75 141.355469 166.601562 C 144.207031 169.457031 145.636719 173.179688 145.636719 176.933594 C 145.636719 180.65625 144.207031 184.410156 141.355469 187.265625 C 138.5 190.117188 134.777344 191.546875 131.023438 191.546875 C 127.269531 191.546875 123.546875 190.117188 120.691406 187.265625 Z M 120.691406 187.265625 "/><path style=" stroke:none;fill-rule:evenodd;fill:#4462ee;fill-opacity:1;" d="M 131.023438 54.578125 C 128.667969 54.578125 126.308594 55.476562 124.507812 57.277344 C 122.710938 59.074219 121.808594 61.433594 121.808594 63.789062 C 121.808594 66.148438 122.710938 68.507812 124.507812 70.304688 C 126.308594 72.105469 128.667969 73.003906 131.023438 73.003906 C 133.382812 73.003906 135.738281 72.105469 137.539062 70.304688 C 139.339844 68.507812 140.238281 66.148438 140.238281 63.789062 C 140.238281 61.433594 139.339844 59.074219 137.539062 57.277344 C 135.738281 55.476562 133.382812 54.578125 131.023438 54.578125 M 120.691406 53.460938 C 123.546875 50.605469 127.269531 49.179688 131.023438 49.179688 C 134.746094 49.179688 138.5 50.605469 141.355469 53.460938 C 144.207031 56.3125 145.636719 60.035156 145.636719 63.789062 C 145.636719 67.511719 144.207031 71.265625 141.355469 74.121094 C 138.5 76.976562 134.746094 78.371094 131.023438 78.371094 C 127.300781 78.371094 123.546875 76.945312 120.691406 74.089844 C 117.839844 71.265625 116.410156 67.511719 116.410156 63.789062 C 116.410156 60.035156 117.839844 56.3125 120.691406 53.460938 Z M 120.691406 53.460938 "/></g></svg>