<svg xmlns="http://www.w3.org/2000/svg" xmlns:xlink="http://www.w3.org/1999/xlink" width="500" zoomAndPan="magnify" viewBox="0 0 375 374.999991" height="500" preserveAspectRatio="xMidYMid meet" version="1.2"><defs><clipPath id="a5d3367d9a"><path d="M 145 196 L 230 196 L 230 237.335938 L 145 237.335938 Z M 145 196 "/></clipPath><clipPath id="70ff4ea4e5"><path d="M 229 146 L 253.355469 146 L 253.355469 160 L 229 160 Z M 229 146 "/></clipPath><clipPath id="99bb85bbe0"><path d="M 121.355469 146 L 146 146 L 146 160 L 121.355469 160 Z M 121.355469 146 "/></clipPath><clipPath id="aae8134198"><path d="M 181 87.335938 L 194 87.335938 L 194 113 L 181 113 Z M 181 87.335938 "/></clipPath></defs><g id="f9732b9cf8"><g clip-rule="nonzero" clip-path="url(#a5d3367d9a)"><path style=" stroke:none;fill-rule:nonzero;fill:#000000;fill-opacity:1;" d="M 227.78125 207.640625 C 226.644531 206.085938 225.070312 204.957031 223.238281 204.378906 L 202.523438 197.820312 C 201.75 197.574219 200.914062 197.933594 200.554688 198.664062 L 193.367188 213.292969 L 192.136719 204.402344 L 195.921875 199.089844 C 196.28125 198.585938 196.328125 197.925781 196.046875 197.378906 C 195.765625 196.828125 195.203125 196.484375 194.585938 196.484375 L 180.046875 196.484375 C 179.429688 196.484375 178.867188 196.828125 178.585938 197.378906 C 178.300781 197.925781 178.351562 198.585938 178.707031 199.089844 L 182.507812 204.417969 L 181.269531 213.3125 L 174.078125 198.664062 C 173.71875 197.933594 172.882812 197.574219 172.109375 197.820312 L 151.425781 204.367188 C 149.582031 204.949219 148.003906 206.085938 146.863281 207.648438 C 145.722656 209.214844 145.125 211.0625 145.128906 213 L 145.171875 233.023438 C 145.179688 235.398438 147.109375 237.332031 149.480469 237.332031 L 225.261719 237.332031 C 226.417969 237.332031 227.5 236.882812 228.316406 236.0625 C 229.128906 235.242188 229.578125 234.15625 229.574219 233 L 229.53125 212.960938 C 229.527344 211.03125 228.921875 209.191406 227.78125 207.640625 Z M 225.988281 233.738281 C 225.792969 233.929688 225.539062 234.039062 225.261719 234.039062 L 214.832031 234.039062 L 214.777344 223.019531 C 214.773438 222.113281 214.039062 221.382812 213.132812 221.382812 C 213.128906 221.382812 213.128906 221.382812 213.125 221.382812 C 212.21875 221.386719 211.484375 222.128906 211.492188 223.035156 L 211.546875 234.039062 L 163.195312 234.039062 L 163.140625 223.019531 C 163.136719 222.113281 162.402344 221.382812 161.496094 221.382812 C 161.496094 221.382812 161.492188 221.382812 161.488281 221.382812 C 160.582031 221.386719 159.851562 222.128906 159.855469 223.035156 L 159.910156 234.039062 L 149.480469 234.039062 C 148.917969 234.039062 148.460938 233.578125 148.457031 233.015625 L 148.417969 212.992188 C 148.414062 211.761719 148.792969 210.585938 149.519531 209.59375 C 150.242188 208.597656 151.246094 207.878906 152.414062 207.507812 L 171.753906 201.386719 L 180.683594 219.574219 C 180.964844 220.144531 181.539062 220.496094 182.160156 220.496094 C 182.246094 220.496094 182.332031 220.488281 182.417969 220.472656 C 183.132812 220.359375 183.6875 219.792969 183.785156 219.074219 L 185.855469 204.222656 C 185.914062 203.804688 185.808594 203.382812 185.566406 203.039062 L 183.238281 199.777344 L 191.394531 199.777344 L 189.082031 203.019531 C 188.835938 203.363281 188.730469 203.789062 188.789062 204.203125 L 190.851562 219.0625 C 190.953125 219.78125 191.503906 220.347656 192.21875 220.460938 C 192.929688 220.578125 193.636719 220.210938 193.953125 219.5625 L 202.878906 201.386719 L 222.246094 207.515625 C 223.414062 207.886719 224.410156 208.601562 225.132812 209.589844 C 225.859375 210.574219 226.242188 211.746094 226.246094 212.96875 L 226.289062 233.007812 C 226.289062 233.285156 226.179688 233.542969 225.988281 233.738281 Z M 225.988281 233.738281 "/></g><path style=" stroke:none;fill-rule:nonzero;fill:#000000;fill-opacity:1;" d="M 162.316406 152.183594 C 162.324219 156.539062 163.460938 160.828125 165.609375 164.589844 C 167.6875 168.234375 170.675781 171.328125 174.25 173.527344 C 175.480469 174.289062 176.503906 175.363281 177.210938 176.636719 C 177.914062 177.90625 178.285156 179.347656 178.285156 180.804688 C 178.285156 182.757812 179.871094 184.34375 181.816406 184.34375 L 192.886719 184.34375 C 194.832031 184.34375 196.417969 182.757812 196.417969 180.804688 C 196.417969 179.347656 196.792969 177.902344 197.507812 176.628906 C 198.21875 175.355469 199.25 174.273438 200.492188 173.503906 C 204.058594 171.296875 207.042969 168.203125 209.117188 164.554688 C 211.257812 160.792969 212.386719 156.5 212.386719 152.148438 C 212.386719 148.761719 211.726562 145.476562 210.417969 142.378906 C 209.160156 139.394531 207.351562 136.710938 205.054688 134.40625 C 202.757812 132.101562 200.078125 130.292969 197.097656 129.03125 C 194.007812 127.722656 190.730469 127.058594 187.351562 127.058594 C 183.972656 127.058594 180.691406 127.722656 177.601562 129.035156 C 174.617188 130.300781 171.941406 132.113281 169.640625 134.421875 C 167.339844 136.730469 165.535156 139.417969 164.277344 142.410156 C 162.96875 145.507812 162.3125 148.796875 162.316406 152.183594 Z M 167.304688 143.691406 C 168.398438 141.089844 169.964844 138.757812 171.964844 136.75 C 173.964844 134.742188 176.292969 133.167969 178.882812 132.066406 C 181.566406 130.929688 184.414062 130.351562 187.351562 130.351562 C 190.289062 130.351562 193.136719 130.929688 195.816406 132.0625 C 198.40625 133.160156 200.730469 134.734375 202.730469 136.734375 C 204.726562 138.738281 206.296875 141.070312 207.390625 143.664062 C 208.527344 146.351562 209.101562 149.203125 209.101562 152.148438 C 209.101562 155.929688 208.117188 159.65625 206.261719 162.925781 C 204.457031 166.09375 201.867188 168.785156 198.765625 170.703125 C 197.050781 171.765625 195.621094 173.257812 194.636719 175.019531 C 193.652344 176.785156 193.132812 178.785156 193.132812 180.804688 C 193.132812 180.941406 193.019531 181.050781 192.886719 181.050781 L 181.816406 181.050781 C 181.683594 181.050781 181.574219 180.941406 181.574219 180.804688 C 181.574219 178.789062 181.058594 176.796875 180.082031 175.035156 C 179.105469 173.269531 177.683594 171.78125 175.972656 170.722656 C 172.867188 168.808594 170.269531 166.125 168.460938 162.953125 C 166.597656 159.691406 165.609375 155.964844 165.601562 152.179688 C 165.597656 149.234375 166.171875 146.378906 167.304688 143.691406 Z M 167.304688 143.691406 "/><path style=" stroke:none;fill-rule:nonzero;fill:#000000;fill-opacity:1;" d="M 195.609375 187.980469 C 195.609375 187.070312 194.875 186.335938 193.96875 186.335938 L 180.734375 186.335938 C 179.828125 186.335938 179.09375 187.070312 179.09375 187.980469 C 179.09375 188.890625 179.828125 189.628906 180.734375 189.628906 L 193.96875 189.628906 C 194.875 189.628906 195.609375 188.890625 195.609375 187.980469 Z M 195.609375 187.980469 "/><path style=" stroke:none;fill-rule:nonzero;fill:#000000;fill-opacity:1;" d="M 183.679688 191.375 C 182.769531 191.375 182.035156 192.113281 182.035156 193.019531 C 182.035156 193.929688 182.769531 194.667969 183.679688 194.667969 L 191.023438 194.667969 C 191.933594 194.667969 192.667969 193.929688 192.667969 193.019531 C 192.667969 192.113281 191.933594 191.375 191.023438 191.375 Z M 183.679688 191.375 "/><path style=" stroke:none;fill-rule:nonzero;fill:#000000;fill-opacity:1;" d="M 219.324219 151.410156 L 222.121094 151.410156 L 222.121094 154.558594 L 219.324219 154.558594 Z M 219.324219 151.410156 "/><path style=" stroke:none;fill-rule:nonzero;fill:#000000;fill-opacity:1;" d="M 223.59375 151.410156 L 228.179688 151.410156 L 228.179688 154.558594 L 223.59375 154.558594 Z M 223.59375 151.410156 "/><g clip-rule="nonzero" clip-path="url(#70ff4ea4e5)"><path style=" stroke:none;fill-rule:nonzero;fill:#000000;fill-opacity:1;" d="M 250.261719 149.890625 L 247.734375 147.359375 C 247.121094 146.742188 246.128906 146.742188 245.515625 147.359375 C 244.898438 147.972656 244.898438 148.96875 245.515625 149.585938 L 247.335938 151.410156 L 229.652344 151.410156 L 229.652344 154.558594 L 247.335938 154.558594 L 245.515625 156.386719 C 244.898438 157 244.898438 158 245.515625 158.613281 C 245.820312 158.921875 246.222656 159.074219 246.625 159.074219 C 247.027344 159.074219 247.429688 158.921875 247.734375 158.613281 L 249.710938 156.632812 L 250.261719 156.078125 L 253.351562 152.984375 Z M 248.878906 153.015625 L 248.878906 152.953125 L 248.90625 152.984375 Z M 248.878906 153.015625 "/></g><path style=" stroke:none;fill-rule:nonzero;fill:#000000;fill-opacity:1;" d="M 146.523438 151.410156 L 151.109375 151.410156 L 151.109375 154.558594 L 146.523438 154.558594 Z M 146.523438 151.410156 "/><path style=" stroke:none;fill-rule:nonzero;fill:#000000;fill-opacity:1;" d="M 152.582031 151.410156 L 155.378906 151.410156 L 155.378906 154.558594 L 152.582031 154.558594 Z M 152.582031 151.410156 "/><g clip-rule="nonzero" clip-path="url(#99bb85bbe0)"><path style=" stroke:none;fill-rule:nonzero;fill:#000000;fill-opacity:1;" d="M 127.367188 154.558594 L 145.050781 154.558594 L 145.050781 151.410156 L 127.367188 151.410156 L 129.1875 149.585938 C 129.804688 148.96875 129.804688 147.972656 129.1875 147.359375 C 128.574219 146.742188 127.582031 146.742188 126.96875 147.359375 L 124.4375 149.890625 L 122.460938 151.871094 L 121.351562 152.984375 L 122.460938 154.097656 L 124.992188 156.632812 L 126.96875 158.613281 C 127.273438 158.917969 127.675781 159.074219 128.078125 159.074219 C 128.480469 159.074219 128.882812 158.917969 129.1875 158.613281 C 129.800781 157.996094 129.800781 157 129.1875 156.386719 Z M 125.824219 153.015625 L 125.796875 152.984375 L 125.824219 152.957031 Z M 125.824219 153.015625 "/></g><path style=" stroke:none;fill-rule:nonzero;fill:#000000;fill-opacity:1;" d="M 208.847656 129.214844 L 210.824219 127.234375 L 213.046875 129.460938 L 211.070312 131.441406 Z M 208.847656 129.214844 "/><path style=" stroke:none;fill-rule:nonzero;fill:#000000;fill-opacity:1;" d="M 211.652344 126.40625 L 214.222656 123.828125 L 216.445312 126.054688 L 213.871094 128.632812 Z M 211.652344 126.40625 "/><path style=" stroke:none;fill-rule:nonzero;fill:#000000;fill-opacity:1;" d="M 219.25 123.246094 L 230.878906 111.59375 L 230.878906 114.175781 C 230.878906 115.042969 231.582031 115.75 232.449219 115.75 C 233.316406 115.75 234.019531 115.042969 234.019531 114.175781 L 234.019531 107.792969 C 234.019531 106.921875 233.316406 106.21875 232.449219 106.21875 L 226.078125 106.21875 C 225.210938 106.21875 224.507812 106.921875 224.507812 107.792969 C 224.507812 108.660156 225.210938 109.367188 226.078125 109.367188 L 228.65625 109.367188 L 217.027344 121.019531 L 215.050781 123 L 217.273438 125.226562 Z M 230.878906 109.367188 L 230.878906 109.410156 L 230.835938 109.367188 Z M 230.878906 109.367188 "/><path style=" stroke:none;fill-rule:nonzero;fill:#000000;fill-opacity:1;" d="M 156.429688 181.746094 L 160.382812 177.78125 L 162.605469 180.007812 L 158.652344 183.972656 Z M 156.429688 181.746094 "/><path style=" stroke:none;fill-rule:nonzero;fill:#000000;fill-opacity:1;" d="M 161.65625 176.507812 L 163.632812 174.527344 L 165.851562 176.753906 L 163.875 178.734375 Z M 161.65625 176.507812 "/><path style=" stroke:none;fill-rule:nonzero;fill:#000000;fill-opacity:1;" d="M 150.195312 198.179688 C 150.195312 197.308594 149.492188 196.605469 148.625 196.605469 L 146.046875 196.605469 L 155.40625 187.226562 L 157.382812 185.246094 L 155.160156 183.019531 L 153.183594 185 L 143.824219 194.378906 L 143.824219 191.796875 C 143.824219 190.925781 143.121094 190.222656 142.253906 190.222656 C 141.386719 190.222656 140.683594 190.925781 140.683594 191.796875 L 140.683594 198.179688 C 140.683594 199.046875 141.386719 199.753906 142.253906 199.753906 L 148.625 199.753906 C 149.492188 199.753906 150.195312 199.046875 150.195312 198.179688 Z M 143.824219 196.605469 L 143.824219 196.5625 L 143.867188 196.605469 Z M 143.824219 196.605469 "/><path style=" stroke:none;fill-rule:nonzero;fill:#000000;fill-opacity:1;" d="M 185.78125 118.144531 L 188.921875 118.144531 L 188.921875 120.945312 L 185.78125 120.945312 Z M 185.78125 118.144531 "/><path style=" stroke:none;fill-rule:nonzero;fill:#000000;fill-opacity:1;" d="M 185.78125 113.351562 L 188.921875 113.351562 L 188.921875 116.976562 L 185.78125 116.976562 Z M 185.78125 113.351562 "/><g clip-rule="nonzero" clip-path="url(#aae8134198)"><path style=" stroke:none;fill-rule:nonzero;fill:#000000;fill-opacity:1;" d="M 183.957031 94.699219 L 185.78125 92.871094 L 185.78125 112.1875 L 188.921875 112.1875 L 188.921875 92.871094 L 190.746094 94.699219 C 191.050781 95.007812 191.453125 95.160156 191.855469 95.160156 C 192.257812 95.160156 192.660156 95.007812 192.964844 94.699219 C 193.582031 94.085938 193.582031 93.085938 192.964844 92.472656 L 188.460938 87.957031 C 187.847656 87.34375 186.855469 87.34375 186.242188 87.957031 L 181.738281 92.472656 C 181.121094 93.085938 181.121094 94.085938 181.738281 94.699219 C 182.351562 95.3125 183.34375 95.3125 183.957031 94.699219 Z M 187.351562 91.296875 L 187.382812 91.328125 L 187.320312 91.328125 Z M 187.351562 91.296875 "/></g><path style=" stroke:none;fill-rule:nonzero;fill:#000000;fill-opacity:1;" d="M 161.65625 129.460938 L 163.875 127.234375 L 165.851562 129.214844 L 163.632812 131.441406 Z M 161.65625 129.460938 "/><path style=" stroke:none;fill-rule:nonzero;fill:#000000;fill-opacity:1;" d="M 158.253906 126.054688 L 160.476562 123.828125 L 163.050781 126.40625 L 160.828125 128.632812 Z M 158.253906 126.054688 "/><path style=" stroke:none;fill-rule:nonzero;fill:#000000;fill-opacity:1;" d="M 142.253906 115.75 C 143.121094 115.75 143.824219 115.046875 143.824219 114.175781 L 143.824219 111.59375 L 155.453125 123.246094 L 157.429688 125.226562 L 159.652344 123 L 157.675781 121.019531 L 146.046875 109.367188 L 148.625 109.367188 C 149.492188 109.367188 150.195312 108.660156 150.195312 107.792969 C 150.195312 106.921875 149.492188 106.21875 148.625 106.21875 L 142.253906 106.21875 C 141.386719 106.21875 140.683594 106.921875 140.683594 107.792969 L 140.683594 114.175781 C 140.683594 115.046875 141.386719 115.75 142.253906 115.75 Z M 143.824219 109.367188 L 143.867188 109.367188 L 143.824219 109.410156 Z M 143.824219 109.367188 "/><path style=" stroke:none;fill-rule:nonzero;fill:#000000;fill-opacity:1;" d="M 216.777344 184.703125 L 219 182.476562 L 220.976562 184.457031 L 218.753906 186.683594 Z M 216.777344 184.703125 "/><path style=" stroke:none;fill-rule:nonzero;fill:#000000;fill-opacity:1;" d="M 211.988281 179.902344 L 214.210938 177.675781 L 217.835938 181.308594 L 215.613281 183.535156 Z M 211.988281 179.902344 "/><path style=" stroke:none;fill-rule:nonzero;fill:#000000;fill-opacity:1;" d="M 208.847656 176.753906 L 211.070312 174.527344 L 213.046875 176.507812 L 210.824219 178.734375 Z M 208.847656 176.753906 "/><path style=" stroke:none;fill-rule:nonzero;fill:#000000;fill-opacity:1;" d="M 232.449219 190.222656 C 231.582031 190.222656 230.878906 190.925781 230.878906 191.796875 L 230.878906 194.378906 L 220.976562 184.457031 L 218.753906 186.683594 L 228.65625 196.605469 L 226.078125 196.605469 C 225.210938 196.605469 224.507812 197.308594 224.507812 198.179688 C 224.507812 199.050781 225.210938 199.753906 226.078125 199.753906 L 232.449219 199.753906 C 233.316406 199.753906 234.019531 199.050781 234.019531 198.179688 L 234.019531 191.796875 C 234.019531 190.925781 233.316406 190.222656 232.449219 190.222656 Z M 230.878906 196.605469 L 230.835938 196.605469 L 230.878906 196.5625 Z M 230.878906 196.605469 "/></g></svg>