<svg xmlns="http://www.w3.org/2000/svg" xmlns:xlink="http://www.w3.org/1999/xlink" width="500" zoomAndPan="magnify" viewBox="0 0 375 374.999991" height="500" preserveAspectRatio="xMidYMid meet" version="1.0"><defs><clipPath id="378a001713"><path d="M 197.050781 157.488281 L 201.3125 157.488281 L 201.3125 161.171875 L 197.050781 161.171875 Z M 197.050781 157.488281 " clip-rule="nonzero"/></clipPath><clipPath id="0ff6553ea2"><path d="M 201.300781 158.773438 C 199.425781 161.851562 197.625 161.25 197.25 160.648438 C 196.875 159.976562 197.175781 158.175781 197.773438 157.726562 C 198.375 157.199219 200.773438 157.875 200.773438 157.875 " clip-rule="nonzero"/></clipPath><clipPath id="c9d1e538ce"><path d="M 112.5 129.75 L 262.5 129.75 L 262.5 245.25 L 112.5 245.25 Z M 112.5 129.75 " clip-rule="nonzero"/></clipPath></defs><g clip-path="url(#378a001713)"><g clip-path="url(#0ff6553ea2)"><path fill="#ffffff" d="M 194.25 154.726562 L 204.382812 154.726562 L 204.382812 164.550781 L 194.25 164.550781 Z M 194.25 154.726562 " fill-opacity="1" fill-rule="nonzero"/></g></g><g clip-path="url(#c9d1e538ce)"><path fill="#000000" d="M 128.1875 179.949219 L 128.1875 141.304688 C 128.1875 134.941406 133.375 129.757812 139.734375 129.757812 L 225.054688 129.757812 C 231.417969 129.757812 236.605469 134.945312 236.605469 141.304688 L 236.605469 173.890625 L 239.628906 173.015625 C 241.257812 169.6875 245.699219 168.898438 248.359375 171.554688 C 249.339844 172.535156 249.957031 173.898438 249.957031 175.398438 L 249.957031 207.695312 C 249.957031 212.488281 244.109375 214.96875 240.679688 211.53125 C 240.257812 211.109375 239.898438 210.613281 239.628906 210.066406 L 236.605469 209.195312 L 236.605469 214.117188 C 236.605469 220.472656 231.414062 225.667969 225.054688 225.667969 L 162.792969 225.667969 L 162.792969 238.484375 C 162.792969 242.21875 159.742188 245.261719 156.007812 245.261719 L 119.332031 245.261719 C 115.597656 245.261719 112.554688 242.21875 112.554688 238.484375 L 112.554688 186.726562 C 112.554688 182.992188 115.597656 179.949219 119.332031 179.949219 Z M 172.386719 170.066406 L 175.351562 166.636719 C 177.65625 163.957031 175.660156 159.636719 171.957031 159.902344 C 170.917969 159.988281 169.894531 160.453125 169.167969 161.300781 L 166.207031 164.722656 Z M 162.003906 163.652344 L 166.234375 158.761719 C 170.832031 153.4375 179.679688 156.296875 180.195312 163.398438 C 180.339844 165.421875 179.714844 167.519531 178.28125 169.171875 L 162.789062 187.105469 L 162.789062 221.78125 L 225.054688 221.78125 C 229.265625 221.78125 232.714844 218.332031 232.714844 214.121094 L 232.714844 208.070312 L 216 203.242188 C 215.367188 203.8125 214.527344 204.152344 213.609375 204.152344 L 207.59375 204.152344 C 206.960938 204.152344 206.371094 203.988281 205.847656 203.691406 L 205.847656 210.140625 C 205.847656 214.339844 200.722656 216.511719 197.714844 213.507812 C 196.855469 212.644531 196.316406 211.445312 196.316406 210.140625 L 196.316406 201.375 C 192.261719 200.339844 189.320312 196.660156 189.320312 192.371094 L 189.320312 190.726562 C 189.320312 185.625 193.496094 181.449219 198.597656 181.449219 L 204.164062 181.449219 C 204.640625 179.976562 206.011719 178.949219 207.59375 178.949219 L 213.609375 178.949219 C 214.519531 178.949219 215.355469 179.296875 215.988281 179.867188 L 232.707031 175.027344 L 232.707031 153.976562 L 132.078125 153.976562 L 132.078125 179.957031 L 147.921875 179.957031 Z M 148.238281 203.945312 C 148.042969 204.195312 147.785156 204.398438 147.484375 204.527344 L 134.902344 209.871094 C 133.4375 210.496094 131.8125 209.179688 132.28125 207.515625 L 135.710938 194.417969 C 135.785156 194.121094 135.921875 193.835938 136.132812 193.589844 L 144.558594 183.839844 L 119.332031 183.839844 C 117.75 183.839844 116.445312 185.148438 116.445312 186.726562 L 116.445312 238.484375 C 116.445312 240.070312 117.753906 241.371094 119.332031 241.371094 L 156.011719 241.371094 C 157.59375 241.371094 158.898438 240.066406 158.898438 238.484375 L 158.898438 191.609375 Z M 138.691406 198.363281 L 137.015625 204.742188 L 143.097656 202.167969 Z M 168.226562 171.597656 L 156.558594 185.097656 C 155.859375 185.90625 154.636719 186 153.828125 185.292969 C 153.019531 184.597656 152.925781 183.375 153.625 182.5625 L 165.285156 169.0625 L 163.667969 167.664062 L 140.34375 194.65625 L 146.515625 200 L 169.84375 172.996094 Z M 123.976562 230.199219 C 122.898438 230.199219 122.023438 229.328125 122.023438 228.25 C 122.023438 227.183594 122.898438 226.308594 123.976562 226.308594 L 151.371094 226.308594 C 152.449219 226.308594 153.3125 227.183594 153.3125 228.25 C 153.3125 229.328125 152.449219 230.199219 151.371094 230.199219 Z M 123.976562 217.800781 C 122.898438 217.800781 122.023438 216.929688 122.023438 215.863281 C 122.023438 214.785156 122.898438 213.914062 123.976562 213.914062 L 141.625 213.914062 C 142.703125 213.914062 143.566406 214.785156 143.566406 215.863281 C 143.566406 216.929688 142.703125 217.800781 141.625 217.800781 Z M 253.050781 191.90625 C 251.972656 191.90625 251.109375 191.03125 251.109375 189.964844 C 251.109375 188.886719 251.972656 188.015625 253.050781 188.015625 L 260.488281 188.015625 C 261.566406 188.015625 262.4375 188.886719 262.4375 189.964844 C 262.4375 191.03125 261.566406 191.90625 260.488281 191.90625 Z M 254.300781 184.214844 C 253.472656 184.90625 252.25 184.796875 251.558594 183.976562 C 250.871094 183.148438 250.980469 181.925781 251.808594 181.234375 L 258.246094 175.828125 C 259.074219 175.136719 260.296875 175.246094 260.988281 176.078125 C 261.679688 176.894531 261.570312 178.117188 260.75 178.808594 Z M 251.808594 198.683594 C 250.984375 197.992188 250.871094 196.769531 251.558594 195.941406 C 252.25 195.125 253.472656 195.015625 254.300781 195.703125 L 260.75 201.109375 C 261.566406 201.800781 261.675781 203.023438 260.988281 203.851562 C 260.296875 204.667969 259.074219 204.78125 258.246094 204.089844 Z M 239.082031 177.21875 L 217.210938 183.546875 L 217.210938 199.546875 L 239.082031 205.871094 Z M 245.609375 174.300781 C 244.617188 173.320312 242.980469 174.050781 242.980469 175.394531 L 242.980469 207.691406 C 242.980469 209.035156 244.617188 209.761719 245.609375 208.777344 C 245.886719 208.492188 246.0625 208.113281 246.0625 207.691406 L 246.0625 175.398438 C 246.0625 174.972656 245.886719 174.585938 245.609375 174.300781 Z M 213.320312 182.828125 L 207.898438 182.828125 L 207.898438 200.257812 L 213.320312 200.257812 Z M 204.003906 197.753906 L 204.003906 185.328125 L 198.605469 185.328125 C 195.644531 185.328125 193.214844 187.757812 193.214844 190.71875 C 193.214844 192.8125 193.085938 194.453125 194.800781 196.171875 C 195.78125 197.144531 197.125 197.753906 198.609375 197.753906 Z M 201.089844 211 C 201.566406 211 201.964844 210.601562 201.964844 210.136719 L 201.964844 201.65625 L 200.214844 201.65625 L 200.214844 210.136719 C 200.214844 210.601562 200.609375 211 201.089844 211 Z M 191.265625 161.566406 C 190.191406 161.566406 189.328125 160.695312 189.328125 159.628906 C 189.328125 158.550781 190.191406 157.675781 191.265625 157.675781 L 214.910156 157.675781 C 215.988281 157.675781 216.863281 158.550781 216.863281 159.628906 C 216.863281 160.695312 215.988281 161.566406 214.910156 161.566406 Z M 191.265625 174.300781 C 190.191406 174.300781 189.328125 173.429688 189.328125 172.351562 C 189.328125 171.273438 190.191406 170.402344 191.265625 170.402344 L 207.378906 170.402344 C 208.457031 170.402344 209.328125 171.273438 209.328125 172.351562 C 209.328125 173.429688 208.457031 174.300781 207.378906 174.300781 Z M 141.304688 143.808594 C 140.226562 143.808594 139.351562 142.933594 139.351562 141.859375 C 139.351562 140.78125 140.226562 139.917969 141.304688 139.917969 L 148.449219 139.917969 C 149.527344 139.917969 150.402344 140.78125 150.402344 141.859375 C 150.402344 142.933594 149.527344 143.808594 148.449219 143.808594 Z M 171.457031 143.808594 C 170.378906 143.808594 169.507812 142.933594 169.507812 141.859375 C 169.507812 140.78125 170.378906 139.917969 171.457031 139.917969 L 178.605469 139.917969 C 179.679688 139.917969 180.542969 140.78125 180.542969 141.859375 C 180.542969 142.933594 179.679688 143.808594 178.605469 143.808594 Z M 156.375 143.808594 C 155.300781 143.808594 154.425781 142.933594 154.425781 141.859375 C 154.425781 140.78125 155.300781 139.917969 156.375 139.917969 L 163.523438 139.917969 C 164.601562 139.917969 165.472656 140.78125 165.472656 141.859375 C 165.472656 142.933594 164.601562 143.808594 163.523438 143.808594 Z M 232.71875 150.078125 L 232.71875 141.304688 C 232.71875 137.09375 229.269531 133.648438 225.058594 133.648438 L 139.738281 133.648438 C 135.527344 133.648438 132.078125 137.09375 132.078125 141.304688 L 132.078125 150.078125 Z M 232.71875 150.078125 " fill-opacity="1" fill-rule="nonzero"/></g></svg>