<svg xmlns="http://www.w3.org/2000/svg" xmlns:xlink="http://www.w3.org/1999/xlink" width="500" zoomAndPan="magnify" viewBox="0 0 375 374.999991" height="500" preserveAspectRatio="xMidYMid meet" version="1.0"><defs><clipPath id="be8da0ee6b"><path d="M 197.050781 157.488281 L 201.3125 157.488281 L 201.3125 161.171875 L 197.050781 161.171875 Z M 197.050781 157.488281 " clip-rule="nonzero"/></clipPath><clipPath id="3361693dbd"><path d="M 201.300781 158.773438 C 199.425781 161.851562 197.625 161.25 197.25 160.648438 C 196.875 159.976562 197.175781 158.175781 197.773438 157.726562 C 198.375 157.199219 200.773438 157.875 200.773438 157.875 " clip-rule="nonzero"/></clipPath><clipPath id="4c8ad05e08"><path d="M 132.375 89.550781 L 242.625 89.550781 L 242.625 239.550781 L 132.375 239.550781 Z M 132.375 89.550781 " clip-rule="nonzero"/></clipPath></defs><g clip-path="url(#be8da0ee6b)"><g clip-path="url(#3361693dbd)"><path fill="#ffffff" d="M 194.25 154.726562 L 204.382812 154.726562 L 204.382812 164.550781 L 194.25 164.550781 Z M 194.25 154.726562 " fill-opacity="1" fill-rule="nonzero"/></g></g><g clip-path="url(#4c8ad05e08)"><path fill="#000000" d="M 138.578125 91.941406 C 139.011719 90.429688 140.59375 89.550781 142.105469 89.964844 C 142.25 90 142.464844 90.019531 142.714844 90.070312 C 152.03125 91.546875 159.316406 96.4375 164.386719 104.640625 C 164.75 104.476562 165.144531 104.386719 165.558594 104.386719 C 167.140625 104.386719 168.433594 105.683594 168.433594 107.265625 L 168.433594 112.804688 C 168.433594 113.792969 167.929688 114.710938 167.105469 115.234375 C 166.636719 115.539062 166.097656 115.683594 165.558594 115.683594 C 165.144531 115.683594 164.710938 115.59375 164.335938 115.414062 L 159.191406 112.984375 C 157.75 112.300781 157.140625 110.59375 157.804688 109.15625 C 158.148438 108.417969 158.757812 107.914062 159.476562 107.660156 C 153.203125 97.589844 144.785156 96.222656 141.835938 95.753906 C 141.242188 95.664062 140.808594 95.574219 140.558594 95.503906 C 139.011719 95.070312 138.128906 93.472656 138.578125 91.941406 Z M 208.902344 115.25 C 209.371094 115.558594 209.910156 115.699219 210.449219 115.699219 C 210.863281 115.699219 211.296875 115.609375 211.671875 115.429688 L 216.816406 113.003906 C 218.253906 112.320312 218.867188 110.609375 218.203125 109.171875 C 217.859375 108.433594 217.25 107.929688 216.527344 107.679688 C 222.804688 97.609375 231.222656 96.242188 234.171875 95.773438 C 234.765625 95.683594 235.199219 95.59375 235.449219 95.519531 C 236.976562 95.070312 237.878906 93.472656 237.445312 91.941406 C 236.996094 90.414062 235.429688 89.53125 233.902344 89.964844 C 233.757812 90 233.542969 90.035156 233.273438 90.070312 C 223.957031 91.546875 216.671875 96.4375 211.601562 104.640625 C 211.242188 104.476562 210.84375 104.386719 210.429688 104.386719 C 208.847656 104.386719 207.554688 105.683594 207.554688 107.265625 L 207.554688 112.804688 C 207.570312 113.792969 208.074219 114.710938 208.902344 115.25 Z M 177.789062 105.503906 C 177.519531 105.59375 177.25 105.71875 176.996094 105.898438 C 175.71875 106.835938 175.433594 108.632812 176.367188 109.925781 L 179.710938 114.515625 C 180.25 115.269531 181.132812 115.699219 182.03125 115.699219 C 182.160156 115.699219 182.285156 115.699219 182.410156 115.683594 C 183.453125 115.539062 184.335938 114.855469 184.730469 113.867188 L 186.886719 108.328125 C 187.464844 106.851562 186.726562 105.179688 185.25 104.605469 C 184.660156 104.371094 184.046875 104.351562 183.472656 104.515625 C 181.0625 94.261719 178.164062 91.1875 177.554688 90.628906 C 176.367188 89.566406 174.515625 89.621094 173.453125 90.808594 C 172.390625 91.996094 172.445312 93.777344 173.613281 94.835938 C 173.632812 94.835938 175.792969 97.210938 177.789062 105.503906 Z M 191.1875 113.613281 C 191.476562 114.621094 192.285156 115.378906 193.292969 115.609375 C 193.507812 115.664062 193.722656 115.683594 193.9375 115.683594 C 194.730469 115.683594 195.523438 115.339844 196.0625 114.746094 L 199.910156 110.519531 C 200.988281 109.351562 200.898438 107.519531 199.730469 106.457031 C 199.261719 106.023438 198.6875 105.789062 198.113281 105.738281 C 199.980469 97.789062 202.410156 94.785156 202.519531 94.675781 C 203.5625 93.507812 203.488281 91.707031 202.320312 90.648438 C 201.152344 89.566406 199.335938 89.640625 198.253906 90.808594 C 197.859375 91.242188 194.765625 94.855469 192.519531 104.40625 C 192.195312 104.386719 191.871094 104.40625 191.546875 104.515625 C 190.019531 104.964844 189.136719 106.546875 189.585938 108.074219 Z M 170.933594 153.921875 C 174.910156 153.921875 178.128906 150.683594 178.128906 146.726562 C 178.128906 145.144531 176.835938 143.847656 175.25 143.847656 C 173.667969 143.847656 172.375 145.144531 172.375 146.726562 C 172.375 147.519531 171.726562 148.164062 170.933594 148.164062 C 170.144531 148.164062 169.496094 147.519531 169.496094 146.726562 L 169.496094 138.09375 C 169.496094 137.300781 170.144531 136.65625 170.933594 136.65625 C 171.726562 136.65625 172.375 137.300781 172.375 138.09375 C 172.375 139.675781 173.667969 140.972656 175.25 140.972656 C 176.835938 140.972656 178.128906 139.675781 178.128906 138.09375 C 178.128906 134.117188 174.890625 130.898438 170.933594 130.898438 C 166.960938 130.898438 163.742188 134.136719 163.742188 138.09375 L 163.742188 146.726562 C 163.742188 150.683594 166.976562 153.921875 170.933594 153.921875 Z M 198.292969 147.804688 L 198.292969 137.015625 C 198.292969 133.632812 201.042969 130.898438 204.40625 130.898438 L 206.566406 130.898438 C 209.945312 130.898438 212.679688 133.652344 212.679688 137.015625 L 212.679688 147.804688 C 212.679688 151.1875 209.929688 153.921875 206.566406 153.921875 L 204.40625 153.921875 C 201.042969 153.921875 198.292969 151.167969 198.292969 147.804688 Z M 204.066406 147.804688 C 204.066406 148.003906 204.226562 148.164062 204.425781 148.164062 L 206.582031 148.164062 C 206.78125 148.164062 206.941406 148.003906 206.941406 147.804688 L 206.941406 137.015625 C 206.941406 136.816406 206.78125 136.65625 206.582031 136.65625 L 204.425781 136.65625 C 204.226562 136.65625 204.066406 136.816406 204.066406 137.015625 Z M 181.023438 151.042969 L 181.023438 133.777344 C 181.023438 132.195312 182.320312 130.898438 183.902344 130.898438 L 188.578125 130.898438 C 192.355469 130.898438 195.414062 133.972656 195.414062 137.734375 L 195.414062 138.453125 C 195.414062 140.664062 194.335938 142.625 192.699219 143.867188 L 195.199219 149.964844 C 195.808594 151.4375 195.089844 153.109375 193.632812 153.722656 C 193.273438 153.867188 192.914062 153.9375 192.535156 153.9375 C 191.402344 153.9375 190.324219 153.253906 189.875 152.15625 L 187.066406 145.304688 L 186.78125 145.304688 L 186.78125 151.0625 C 186.78125 152.644531 185.484375 153.9375 183.902344 153.9375 C 182.300781 153.921875 181.023438 152.625 181.023438 151.042969 Z M 186.78125 139.515625 L 188.578125 139.515625 C 189.171875 139.515625 189.660156 139.027344 189.660156 138.433594 L 189.660156 137.714844 C 189.660156 137.121094 189.171875 136.636719 188.578125 136.636719 L 186.78125 136.636719 Z M 169.964844 188.183594 C 168.183594 191.4375 164.75 193.632812 160.792969 193.632812 C 155.035156 193.632812 150.339844 188.9375 150.339844 183.183594 C 150.339844 177.425781 155.035156 172.734375 160.792969 172.734375 C 161.476562 172.734375 162.121094 172.804688 162.769531 172.929688 C 163.976562 173.164062 165.109375 173.613281 166.132812 174.226562 C 168.417969 175.59375 170.125 177.789062 170.84375 180.394531 C 171.023438 181.0625 171.152344 181.746094 171.203125 182.464844 C 171.222656 182.699219 171.242188 182.949219 171.242188 183.183594 C 171.242188 183.921875 171.167969 184.640625 171.007812 185.339844 C 170.792969 186.367188 170.429688 187.300781 169.964844 188.183594 Z M 160.792969 187.878906 C 163.382812 187.878906 165.484375 185.773438 165.484375 183.183594 C 165.484375 180.59375 163.382812 178.488281 160.792969 178.488281 C 158.203125 178.488281 156.097656 180.59375 156.097656 183.183594 C 156.097656 185.773438 158.203125 187.878906 160.792969 187.878906 Z M 241.960938 194.53125 L 238.957031 199.785156 C 238.507812 200.558594 237.734375 201.078125 236.851562 201.203125 L 232.339844 201.816406 C 231.457031 201.941406 230.558594 201.636719 229.929688 201.007812 L 226.90625 198.003906 L 223.597656 199.925781 L 224.710938 204.027344 C 224.945312 204.890625 224.765625 205.808594 224.226562 206.527344 L 221.476562 210.160156 C 220.933594 210.882812 220.089844 211.292969 219.191406 211.292969 L 213.148438 211.332031 C 213.148438 211.332031 213.128906 211.332031 213.128906 211.332031 C 212.25 211.332031 211.402344 210.917969 210.84375 210.214844 L 208.058594 206.617188 C 207.519531 205.917969 207.320312 204.980469 207.554688 204.117188 L 208.632812 200 L 206.476562 198.757812 L 206.476562 209.695312 C 206.476562 211.023438 205.558594 212.195312 204.246094 212.5 L 201.90625 213.039062 C 203.867188 215.789062 205.035156 219.136719 205.035156 222.769531 C 205.035156 232.050781 197.5 239.585938 188.21875 239.585938 C 178.9375 239.585938 171.402344 232.050781 171.402344 222.769531 C 171.402344 221.652344 171.511719 220.574219 171.726562 219.515625 C 171.492188 219.40625 171.257812 219.316406 171.0625 219.152344 C 170.378906 218.613281 169.964844 217.769531 169.964844 216.886719 L 169.964844 209.296875 C 169.875 209.28125 169.785156 209.261719 169.695312 209.207031 L 165.484375 207.464844 C 164.660156 207.121094 164.046875 206.421875 163.8125 205.558594 L 162.714844 201.4375 L 158.886719 201.4375 L 157.789062 205.558594 C 157.554688 206.421875 156.941406 207.121094 156.113281 207.464844 L 151.90625 209.207031 C 151.078125 209.550781 150.144531 209.496094 149.371094 209.046875 L 144.136719 206.023438 C 143.363281 205.574219 142.839844 204.800781 142.714844 203.902344 L 142.121094 199.386719 C 141.996094 198.507812 142.300781 197.609375 142.949219 196.976562 L 145.953125 193.972656 L 144.046875 190.664062 L 139.929688 191.761719 C 139.066406 191.996094 138.148438 191.816406 137.429688 191.257812 L 133.8125 188.488281 C 133.113281 187.949219 132.679688 187.105469 132.679688 186.203125 L 132.679688 180.160156 C 132.679688 179.261719 133.09375 178.417969 133.8125 177.878906 L 137.429688 175.109375 C 138.148438 174.566406 139.066406 174.386719 139.929688 174.605469 L 144.046875 175.699219 L 145.953125 172.390625 L 142.949219 169.386719 C 142.320312 168.757812 142.015625 167.859375 142.121094 166.976562 L 142.714844 162.464844 C 142.824219 161.582031 143.363281 160.789062 144.136719 160.339844 L 149.371094 157.320312 C 150.144531 156.871094 151.078125 156.816406 151.90625 157.15625 L 156.113281 158.902344 C 156.941406 159.246094 157.570312 159.945312 157.789062 160.808594 L 158.886719 164.925781 L 160.46875 164.925781 L 148.453125 123.039062 C 148.203125 122.175781 148.382812 121.242188 148.921875 120.519531 C 149.460938 119.800781 150.324219 119.371094 151.222656 119.371094 L 225.234375 119.371094 C 226.132812 119.371094 226.996094 119.800781 227.535156 120.519531 C 228.074219 121.242188 228.253906 122.175781 228.003906 123.039062 L 218.8125 155.054688 L 218.9375 155.054688 C 218.9375 155.054688 218.957031 155.054688 218.957031 155.054688 C 219.855469 155.054688 220.683594 155.46875 221.242188 156.167969 L 224.027344 159.765625 C 224.570312 160.46875 224.765625 161.402344 224.53125 162.265625 L 223.453125 166.382812 L 226.78125 168.289062 L 229.765625 165.269531 C 230.394531 164.640625 231.296875 164.316406 232.175781 164.441406 L 236.707031 165.019531 C 237.589844 165.125 238.382812 165.648438 238.832031 166.421875 L 241.871094 171.636719 C 242.320312 172.410156 242.390625 173.34375 242.050781 174.171875 L 240.324219 178.398438 C 239.980469 179.226562 239.28125 179.855469 238.417969 180.089844 L 234.316406 181.203125 L 234.335938 185.035156 L 238.453125 186.113281 C 239.316406 186.347656 240.035156 186.960938 240.378906 187.789062 L 242.140625 191.996094 C 242.464844 192.804688 242.410156 193.742188 241.960938 194.53125 Z M 236.257812 192.894531 L 235.59375 191.3125 L 230.71875 190.035156 C 229.460938 189.710938 228.578125 188.5625 228.578125 187.265625 L 228.542969 179.011719 C 228.542969 177.714844 229.40625 176.5625 230.664062 176.222656 L 235.539062 174.890625 L 236.1875 173.308594 L 234.566406 170.539062 L 232.859375 170.324219 L 229.316406 173.902344 C 228.398438 174.820312 226.976562 175.019531 225.84375 174.371094 L 218.6875 170.289062 C 217.554688 169.640625 216.996094 168.308594 217.339844 167.050781 L 218.613281 162.175781 L 217.570312 160.808594 L 217.195312 160.808594 L 214.371094 160.828125 L 214.082031 161.203125 L 213.328125 162.195312 L 213.5625 163.039062 L 214.660156 167.066406 C 215 168.328125 214.460938 169.65625 213.328125 170.304688 L 211.097656 171.601562 L 207.5 173.703125 L 206.203125 174.460938 C 205.070312 175.125 203.652344 174.925781 202.734375 174.011719 L 199.15625 170.449219 L 197.445312 170.683594 L 195.863281 173.472656 L 196.527344 175.054688 L 201.402344 176.332031 C 202.660156 176.65625 203.542969 177.804688 203.542969 179.101562 L 203.542969 179.566406 L 203.5625 182.445312 L 203.578125 185.324219 L 203.597656 187.335938 C 203.597656 188.632812 202.734375 189.785156 201.476562 190.125 L 200.773438 190.324219 L 196.617188 191.457031 L 195.972656 193.039062 L 197.589844 195.808594 L 199.296875 196.023438 L 200.792969 194.515625 L 202.859375 192.425781 C 203.09375 192.175781 203.382812 191.996094 203.6875 191.851562 C 204.515625 191.457031 205.503906 191.472656 206.347656 191.941406 L 206.582031 192.066406 L 213.523438 196.023438 C 214.660156 196.671875 215.214844 198.003906 214.875 199.261719 L 213.597656 204.136719 L 214.640625 205.503906 L 217.839844 205.484375 L 218.886719 204.117188 L 217.554688 199.246094 C 217.210938 197.984375 217.75 196.65625 218.886719 196.007812 L 226.007812 191.851562 C 227.140625 191.1875 228.5625 191.382812 229.476562 192.300781 L 233.058594 195.84375 L 234.765625 195.609375 Z M 195.574219 214.550781 L 177.96875 218.667969 C 177.445312 219.945312 177.160156 221.332031 177.160156 222.789062 C 177.160156 228.882812 182.121094 233.847656 188.21875 233.847656 C 194.316406 233.847656 199.28125 228.882812 199.28125 222.789062 C 199.28125 219.515625 197.839844 216.582031 195.574219 214.550781 Z M 196.796875 208.34375 L 200.71875 207.425781 L 200.71875 201.941406 C 200.449219 201.976562 200.179688 201.996094 199.910156 201.960938 L 195.394531 201.382812 C 194.515625 201.277344 193.722656 200.753906 193.273438 199.980469 L 190.234375 194.765625 C 189.785156 193.992188 189.710938 193.058594 190.054688 192.230469 L 191.78125 188.019531 C 192.121094 187.195312 192.824219 186.5625 193.6875 186.332031 L 197.210938 185.378906 L 188.9375 185.378906 L 188.9375 186.242188 C 188.9375 187.140625 188.523438 187.984375 187.804688 188.523438 L 184.191406 191.292969 C 183.488281 191.835938 182.554688 192.03125 181.691406 191.796875 L 177.570312 190.699219 L 175.71875 193.902344 L 175.71875 194.082031 L 178.667969 197.03125 C 179.296875 197.660156 179.605469 198.5625 179.476562 199.441406 L 178.886719 203.957031 C 178.777344 204.835938 178.238281 205.628906 177.464844 206.078125 L 175.71875 207.085938 L 175.71875 213.308594 L 178.777344 212.589844 L 192.175781 209.460938 Z M 168.992188 202.714844 L 169.964844 203.109375 L 170.59375 203.363281 L 172.839844 202.066406 L 173.363281 201.761719 L 173.578125 200.054688 L 172.839844 199.316406 L 170.019531 196.492188 C 170 196.472656 169.980469 196.4375 169.964844 196.421875 C 169.101562 195.503906 168.921875 194.117188 169.566406 193.019531 L 169.964844 192.320312 L 172.839844 187.335938 L 173.6875 185.882812 C 173.796875 185.683594 173.9375 185.519531 174.082031 185.359375 C 174.800781 184.605469 175.882812 184.261719 176.925781 184.550781 L 179.964844 185.359375 L 181.796875 185.84375 L 182.429688 185.359375 L 183.148438 184.800781 L 183.148438 181.601562 L 181.78125 180.558594 L 176.90625 181.871094 C 175.648438 182.210938 174.316406 181.652344 173.667969 180.519531 L 173.148438 179.605469 L 169.550781 173.382812 C 168.902344 172.246094 169.082031 170.828125 170.019531 169.910156 L 173.578125 166.347656 L 173.363281 164.640625 L 170.59375 163.039062 L 169.011719 163.6875 L 167.699219 168.5625 C 167.660156 168.667969 167.625 168.777344 167.589844 168.867188 C 167.175781 169.890625 166.222656 170.59375 165.109375 170.683594 C 165.035156 170.683594 164.980469 170.699219 164.910156 170.699219 L 156.65625 170.699219 C 155.359375 170.699219 154.207031 169.820312 153.867188 168.5625 L 152.554688 163.6875 L 150.972656 163.019531 L 148.203125 164.621094 L 147.984375 166.332031 L 151.546875 169.890625 C 152.464844 170.808594 152.660156 172.230469 151.996094 173.363281 L 147.878906 180.503906 C 147.230469 181.636719 145.898438 182.175781 144.640625 181.851562 L 139.765625 180.539062 L 138.398438 181.582031 L 138.398438 184.785156 L 139.765625 185.828125 L 144.640625 184.515625 C 145.898438 184.171875 147.230469 184.730469 147.878906 185.863281 L 151.996094 193.003906 C 152.644531 194.136719 152.464844 195.558594 151.546875 196.472656 L 147.984375 200.035156 L 148.203125 201.746094 L 150.972656 203.34375 L 152.554688 202.679688 L 153.867188 197.804688 C 154.207031 196.546875 155.339844 195.664062 156.65625 195.664062 L 164.910156 195.664062 C 166.203125 195.664062 167.355469 196.546875 167.699219 197.804688 Z M 155.035156 125.125 L 164.839844 159.28125 C 165.035156 159.136719 165.25 158.992188 165.484375 158.902344 L 169.695312 157.15625 C 170.523438 156.816406 171.457031 156.871094 172.230469 157.320312 L 177.464844 160.339844 C 178.238281 160.789062 178.757812 161.5625 178.886719 162.464844 L 179.476562 166.976562 C 179.605469 167.859375 179.296875 168.757812 178.667969 169.386719 L 175.664062 172.390625 L 177.570312 175.699219 L 181.691406 174.605469 C 182.554688 174.371094 183.472656 174.550781 184.191406 175.109375 L 187.804688 177.878906 C 188.363281 178.308594 188.722656 178.921875 188.867188 179.585938 L 192.429688 179.585938 C 192.140625 179.316406 191.886719 178.992188 191.726562 178.597656 L 189.964844 174.386719 C 189.621094 173.5625 189.675781 172.625 190.125 171.851562 L 193.128906 166.601562 C 193.578125 165.828125 194.351562 165.304688 195.234375 165.179688 L 199.75 164.566406 C 200.628906 164.441406 201.527344 164.746094 202.160156 165.378906 L 205.179688 168.382812 L 208.488281 166.457031 L 207.375 162.355469 C 207.140625 161.492188 207.320312 160.574219 207.859375 159.855469 L 210.613281 156.222656 C 211.132812 155.539062 211.941406 155.125 212.804688 155.089844 L 221.402344 125.125 Z M 225.054688 177.929688 C 226.457031 180.339844 226.835938 183.148438 226.132812 185.84375 C 225.429688 188.542969 223.703125 190.808594 221.296875 192.210938 C 219.675781 193.164062 217.878906 193.632812 216.042969 193.632812 C 215.144531 193.632812 214.261719 193.523438 213.363281 193.289062 C 210.664062 192.589844 208.398438 190.863281 206.996094 188.453125 C 206.796875 188.109375 206.617188 187.75 206.457031 187.390625 C 206.167969 186.726562 205.953125 186.042969 205.808594 185.359375 C 205.613281 184.425781 205.539062 183.453125 205.613281 182.480469 C 205.648438 181.90625 205.738281 181.332031 205.882812 180.753906 C 205.898438 180.683594 205.898438 180.609375 205.917969 180.539062 C 206.566406 178.058594 208.09375 175.953125 210.214844 174.53125 C 210.394531 174.40625 210.574219 174.28125 210.753906 174.171875 C 211.671875 173.632812 212.644531 173.253906 213.632812 173.019531 C 215.269531 172.625 216.996094 172.644531 218.667969 173.09375 C 221.386719 173.8125 223.652344 175.519531 225.054688 177.929688 Z M 220.574219 184.386719 C 220.898438 183.183594 220.71875 181.90625 220.089844 180.828125 C 219.460938 179.746094 218.453125 178.972656 217.230469 178.652344 C 216.835938 178.542969 216.4375 178.488281 216.023438 178.488281 C 215.214844 178.488281 214.40625 178.703125 213.667969 179.136719 C 212.589844 179.765625 211.816406 180.773438 211.492188 181.996094 C 211.167969 183.199219 211.347656 184.476562 211.976562 185.558594 C 212.609375 186.636719 213.613281 187.410156 214.839844 187.734375 C 216.042969 188.058594 217.300781 187.878906 218.398438 187.246094 C 219.476562 186.617188 220.25 185.59375 220.574219 184.386719 Z M 220.574219 184.386719 " fill-opacity="1" fill-rule="nonzero"/></g></svg>