<svg width="44" height="44" viewBox="0 0 44 44" fill="none" xmlns="http://www.w3.org/2000/svg">
<path fill-rule="evenodd" clip-rule="evenodd" d="M40.6257 9.58382L38.4807 9.07782L32.6837 14.8418L29.4002 11.4978L35.0542 5.56607L34.5592 3.38807C33.3646 2.98749 32.1148 2.77594 30.855 2.76107C29.4804 2.73675 28.1158 2.99899 26.8482 3.53107C25.6225 4.08407 24.5151 4.86841 23.5867 5.84107C22.5498 6.81929 21.73 8.00448 21.1805 9.31982C20.118 11.9349 20.118 14.8613 21.1805 17.4763C15.4473 23.1165 9.78821 28.8315 4.2047 34.6198C3.6272 35.3761 3.3522 36.3193 3.4237 37.2681C3.45116 37.7734 3.578 38.2684 3.79694 38.7247C4.01589 39.181 4.32266 39.5897 4.6997 39.9273C5.04437 40.3032 5.44495 40.6038 5.90145 40.8293C6.36895 41.0356 6.8722 41.1538 7.38095 41.1786C8.24995 41.1621 9.0832 40.8321 9.72945 40.2518C13.9865 36.2451 22.143 28.0143 26.7767 23.1908C28.0335 23.7243 29.3837 23.9993 30.7477 23.9966C32.1206 23.9949 33.4793 23.7183 34.7437 23.1832C36.008 22.6481 37.1524 21.8652 38.1095 20.8808C40.0707 18.8743 41.1675 16.1791 41.1647 13.3733C41.197 12.089 41.0149 10.8082 40.6257 9.58382ZM8.0657 38.3021C7.96054 38.3971 7.83268 38.4633 7.69445 38.4946C7.55908 38.5202 7.42008 38.5202 7.2847 38.4946C7.14265 38.4725 7.00734 38.419 6.8887 38.3378C6.76184 38.2631 6.65443 38.1594 6.5752 38.0353C6.1902 37.6421 5.82995 36.8941 6.1902 36.4733C9.9577 32.4666 17.7155 24.6346 22.5665 19.8468C22.8415 20.2117 23.1421 20.5563 23.4685 20.8808C23.793 21.22 24.1413 21.5326 24.5135 21.8186C19.822 26.6311 12.1687 34.3696 8.0657 38.3021ZM38.6402 13.3733C38.6457 15.4771 37.8262 17.4983 36.3522 19.0053C34.8816 20.4489 32.9033 21.2576 30.8426 21.2576C28.7819 21.2576 26.8035 20.4489 25.333 19.0053C24.2543 17.8806 23.5175 16.4726 23.2084 14.9453C22.8992 13.4179 23.0304 11.8342 23.5867 10.3786C23.9569 9.38801 24.5306 8.48608 25.271 7.73104C26.0114 6.97599 26.9019 6.38461 27.885 5.99507C28.8194 5.60712 29.8212 5.40715 30.833 5.40657H31.5315L26.5347 10.5573V12.4713L31.746 17.6578H33.561L38.6402 12.6638V13.3733ZM8.90995 18.3921H13.1202L15.059 20.3638L16.9235 18.5103L15.0947 16.6458V16.5276L15.2515 11.9928L14.6465 10.7911L6.78145 5.61557L5.1562 5.79707L2.87095 8.13182L2.68945 9.77907L7.74395 17.8036L8.90995 18.3921ZM6.3112 8.40407L12.6747 12.5951L12.5675 15.6833H9.60845L5.50545 9.18782L6.3112 8.40407ZM25.85 27.5441L27.7035 25.6933L36.245 34.4521C36.9638 35.2085 37.3646 36.2122 37.3646 37.2557C37.3646 38.2992 36.9638 39.3029 36.245 40.0593C35.7048 40.616 35.0091 40.9966 34.249 41.1511C33.4889 41.3057 32.6999 41.2271 31.9852 40.9256C31.5285 40.7239 31.1192 40.4288 30.7835 40.0593L22.143 31.2511L24.0102 29.3866L32.6232 38.1701C32.7389 38.298 32.883 38.3969 33.044 38.4588C33.3606 38.5865 33.7145 38.5865 34.0312 38.4588C34.1922 38.3969 34.3363 38.298 34.452 38.1701C34.5749 38.0529 34.669 37.9089 34.727 37.7493C34.7916 37.5884 34.8252 37.4167 34.826 37.2433C34.8206 37.0707 34.7881 36.8999 34.7297 36.7373C34.6717 36.5777 34.5776 36.4337 34.4547 36.3166L25.85 27.5441Z" fill="black"/>
</svg>
