<svg width="44" height="44" viewBox="0 0 44 44" fill="none" xmlns="http://www.w3.org/2000/svg">
<g filter="url(#filter0_d_1_646)">
<path d="M5.5 30.25V24.75H0V0H33V5.5H38.5V16.5H35.75V8.25H8.25V27.5H24.75V30.25H5.5ZM5.5 22V5.5H30.25V2.75H2.75V22H5.5ZM11 24.75V19.25H13.75V24.75H11ZM16.5 24.75V13.75H19.25V24.75H16.5ZM22 24.75V16.5H24.75V24.75H22ZM35.75 19.25C36.8815 19.25 37.9486 19.4648 38.9512 19.8945C39.9538 20.3242 40.8275 20.9115 41.5723 21.6562C42.3171 22.401 42.9115 23.2819 43.3555 24.2988C43.7995 25.3158 44.0143 26.3828 44 27.5C44 28.6458 43.7852 29.7129 43.3555 30.7012C42.9258 31.6895 42.3385 32.5632 41.5938 33.3223C40.849 34.0814 39.9681 34.6758 38.9512 35.1055C37.9342 35.5352 36.8672 35.75 35.75 35.75C34.8906 35.75 34.0527 35.6211 33.2363 35.3633C32.4199 35.1055 31.668 34.7259 30.9805 34.2246L21.5918 43.5918C21.3197 43.8639 20.9974 44 20.625 44C20.2526 44 19.9303 43.8639 19.6582 43.5918C19.3861 43.3197 19.25 42.9974 19.25 42.625C19.25 42.2526 19.3861 41.9303 19.6582 41.6582L29.0254 32.2695C28.5241 31.582 28.1445 30.8301 27.8867 30.0137C27.6289 29.1973 27.5 28.3594 27.5 27.5C27.5 26.3685 27.7148 25.3014 28.1445 24.2988C28.5742 23.2962 29.1615 22.4225 29.9062 21.6777C30.651 20.9329 31.5247 20.3385 32.5273 19.8945C33.5299 19.4505 34.6042 19.2357 35.75 19.25ZM35.75 33C36.5091 33 37.2181 32.8568 37.877 32.5703C38.5358 32.2839 39.123 31.89 39.6387 31.3887C40.1543 30.8874 40.5482 30.3073 40.8203 29.6484C41.0924 28.9896 41.2357 28.2734 41.25 27.5C41.25 26.7409 41.1068 26.0319 40.8203 25.373C40.5339 24.7142 40.14 24.127 39.6387 23.6113C39.1374 23.0957 38.5573 22.7018 37.8984 22.4297C37.2396 22.1576 36.5234 22.0143 35.75 22C34.9909 22 34.2819 22.1432 33.623 22.4297C32.9642 22.7161 32.377 23.11 31.8613 23.6113C31.3457 24.1126 30.9518 24.6927 30.6797 25.3516C30.4076 26.0104 30.2643 26.7266 30.25 27.5C30.25 28.2591 30.3932 28.9681 30.6797 29.627C30.9661 30.2858 31.36 30.873 31.8613 31.3887C32.3626 31.9043 32.9427 32.2982 33.6016 32.5703C34.2604 32.8424 34.9766 32.9857 35.75 33Z" fill="black"/>
</g>
<defs>
<filter id="filter0_d_1_646" x="-4" y="0" width="52.0007" height="52" filterUnits="userSpaceOnUse" color-interpolation-filters="sRGB">
<feFlood flood-opacity="0" result="BackgroundImageFix"/>
<feColorMatrix in="SourceAlpha" type="matrix" values="0 0 0 0 0 0 0 0 0 0 0 0 0 0 0 0 0 0 127 0" result="hardAlpha"/>
<feOffset dy="4"/>
<feGaussianBlur stdDeviation="2"/>
<feComposite in2="hardAlpha" operator="out"/>
<feColorMatrix type="matrix" values="0 0 0 0 0 0 0 0 0 0 0 0 0 0 0 0 0 0 0.25 0"/>
<feBlend mode="normal" in2="BackgroundImageFix" result="effect1_dropShadow_1_646"/>
<feBlend mode="normal" in="SourceGraphic" in2="effect1_dropShadow_1_646" result="shape"/>
</filter>
</defs>
</svg>
