<svg xmlns="http://www.w3.org/2000/svg" xmlns:xlink="http://www.w3.org/1999/xlink" width="500" zoomAndPan="magnify" viewBox="0 0 375 374.999991" height="500" preserveAspectRatio="xMidYMid meet" version="1.0"><defs><clipPath id="60f4d2b9c9"><path d="M 197.050781 157.488281 L 201.3125 157.488281 L 201.3125 161.171875 L 197.050781 161.171875 Z M 197.050781 157.488281 " clip-rule="nonzero"/></clipPath><clipPath id="b83502305d"><path d="M 201.300781 158.773438 C 199.425781 161.851562 197.625 161.25 197.25 160.648438 C 196.875 159.976562 197.175781 158.175781 197.773438 157.726562 C 198.375 157.199219 200.773438 157.875 200.773438 157.875 " clip-rule="nonzero"/></clipPath><clipPath id="83e3e59405"><path d="M 114.375 112.5 L 260.625 112.5 L 260.625 262.5 L 114.375 262.5 Z M 114.375 112.5 " clip-rule="nonzero"/></clipPath></defs><g clip-path="url(#60f4d2b9c9)"><g clip-path="url(#b83502305d)"><path fill="#ffffff" d="M 194.25 154.726562 L 204.382812 154.726562 L 204.382812 164.550781 L 194.25 164.550781 Z M 194.25 154.726562 " fill-opacity="1" fill-rule="nonzero"/></g></g><g clip-path="url(#83e3e59405)"><path fill="#000000" d="M 248.796875 158.378906 C 248.449219 159.6875 247.265625 160.546875 245.976562 160.546875 C 245.726562 160.546875 245.46875 160.515625 245.21875 160.449219 L 236.03125 157.984375 C 234.46875 157.566406 233.546875 155.964844 233.964844 154.40625 C 234.378906 152.847656 235.984375 151.917969 237.542969 152.335938 L 246.730469 154.796875 C 248.292969 155.21875 249.214844 156.820312 248.796875 158.378906 Z M 227.644531 130.824219 C 226.503906 129.683594 226.503906 127.832031 227.644531 126.691406 L 234.371094 119.964844 C 235.511719 118.824219 237.363281 118.824219 238.503906 119.964844 C 239.648438 121.105469 239.648438 122.957031 238.503906 124.101562 L 231.777344 130.824219 C 231.207031 131.398438 230.460938 131.679688 229.710938 131.679688 C 228.960938 131.679688 228.21875 131.398438 227.644531 130.824219 Z M 238.257812 137.589844 L 246.96875 135.253906 C 248.53125 134.835938 250.132812 135.765625 250.550781 137.324219 C 250.96875 138.882812 250.042969 140.484375 248.480469 140.902344 L 239.773438 143.238281 C 239.519531 143.308594 239.265625 143.339844 239.015625 143.339844 C 237.726562 143.339844 236.542969 142.476562 236.191406 141.167969 C 235.773438 139.613281 236.699219 138.007812 238.257812 137.589844 Z M 126.109375 256.652344 C 126.101562 256.652344 126.101562 256.652344 126.09375 256.652344 L 170.542969 217.636719 L 185.742188 230.90625 C 186.292969 231.390625 186.976562 231.628906 187.664062 231.628906 C 188.34375 231.628906 189.023438 231.394531 189.574219 230.921875 L 205.003906 217.621094 L 249.933594 256.554688 C 249.597656 256.617188 249.246094 256.652344 248.890625 256.652344 Z M 120.894531 253.4375 L 166.097656 213.761719 L 120.886719 174.292969 C 120.492188 175.082031 120.261719 175.96875 120.261719 176.910156 L 120.261719 250.804688 C 120.261719 251.753906 120.492188 252.644531 120.894531 253.4375 Z M 146.316406 171.0625 L 126.109375 171.0625 C 126.097656 171.0625 126.085938 171.0625 126.078125 171.0625 L 187.675781 224.835938 L 249.949219 171.164062 C 249.605469 171.101562 249.253906 171.0625 248.890625 171.0625 L 230.472656 171.0625 C 230.859375 175.433594 228.066406 179.59375 223.683594 180.769531 C 222.886719 180.976562 222.085938 181.082031 221.300781 181.082031 C 217.941406 181.082031 214.816406 179.222656 213.207031 176.261719 C 204.105469 172.425781 191.714844 171.152344 178.683594 172.667969 L 185.0625 188.238281 C 186.171875 190.945312 185.042969 194 182.441406 195.335938 L 178.585938 197.320312 C 177.777344 197.734375 176.910156 197.945312 176.035156 197.945312 C 175.386719 197.945312 174.734375 197.828125 174.097656 197.597656 C 172.613281 197.050781 171.460938 195.945312 170.855469 194.484375 L 163.859375 177.542969 C 162.503906 177.894531 161.128906 178.070312 159.765625 178.070312 C 156.921875 178.070312 154.105469 177.316406 151.566406 175.851562 C 149.453125 174.632812 147.675781 172.996094 146.316406 171.0625 Z M 157.03125 151.441406 L 166 149.039062 L 171.472656 169.453125 L 162.5 171.855469 C 156.871094 173.367188 151.066406 170.011719 149.554688 164.386719 C 148.046875 158.757812 151.402344 152.949219 157.03125 151.441406 Z M 173.324219 175.011719 L 179.5625 190.242188 L 176.15625 191.996094 L 169.554688 176.019531 Z M 200.386719 129.417969 L 211.058594 169.253906 C 201.34375 166.167969 189.476562 165.375 176.867188 167 L 171.902344 148.464844 C 183.632812 143.566406 193.515625 136.949219 200.386719 129.417969 Z M 205.039062 120.355469 C 205.492188 119.574219 206.214844 119.011719 207.074219 118.78125 C 207.359375 118.707031 207.648438 118.667969 207.9375 118.667969 C 208.523438 118.667969 209.101562 118.824219 209.625 119.125 C 210.40625 119.578125 210.964844 120.300781 211.195312 121.160156 L 224.546875 170.996094 C 225.03125 172.789062 223.960938 174.636719 222.167969 175.121094 C 220.375 175.597656 218.527344 174.53125 218.050781 172.742188 L 204.695312 122.90625 C 204.464844 122.042969 204.585938 121.136719 205.039062 120.355469 Z M 224.410156 141.136719 C 223.800781 140.785156 223.128906 140.589844 222.445312 140.558594 L 224.59375 148.574219 C 225.167969 148.203125 225.652344 147.703125 226.003906 147.09375 C 226.585938 146.085938 226.742188 144.910156 226.441406 143.785156 C 226.136719 142.65625 225.417969 141.71875 224.410156 141.136719 Z M 254.738281 176.910156 C 254.738281 176.25 254.625 175.617188 254.421875 175.027344 L 209.480469 213.761719 L 254.417969 252.703125 C 254.621094 252.109375 254.738281 251.472656 254.738281 250.804688 Z M 248.890625 165.214844 L 229.054688 165.214844 L 226.136719 154.339844 C 228.207031 153.484375 229.929688 151.988281 231.066406 150.015625 C 232.429688 147.65625 232.792969 144.902344 232.085938 142.273438 C 230.75 137.273438 225.898438 134.136719 220.902344 134.792969 L 216.84375 119.648438 C 216.207031 117.28125 214.679688 115.292969 212.546875 114.0625 C 210.414062 112.832031 207.929688 112.5 205.5625 113.136719 C 203.191406 113.769531 201.207031 115.292969 199.972656 117.433594 C 199.109375 118.929688 198.691406 120.597656 198.738281 122.277344 C 192.617188 130.351562 182.160156 137.820312 169.714844 143.042969 C 169.035156 142.578125 168.167969 142.402344 167.3125 142.632812 L 155.515625 145.796875 C 147.003906 148.074219 141.84375 156.691406 143.746094 165.214844 L 126.109375 165.214844 C 119.660156 165.214844 114.414062 170.460938 114.414062 176.910156 L 114.414062 250.804688 C 114.414062 257.257812 119.660156 262.5 126.109375 262.5 L 248.890625 262.5 C 255.339844 262.5 260.585938 257.257812 260.585938 250.804688 L 260.585938 176.910156 C 260.585938 170.460938 255.339844 165.214844 248.890625 165.214844 Z M 248.890625 165.214844 " fill-opacity="1" fill-rule="evenodd"/></g></svg>