<?xml version="1.0" encoding="UTF-8"?>
<svg version="1.1" xmlns="http://www.w3.org/2000/svg" width="329" height="82">
<path d="M0 0 C3.50993177 4.61685636 7.04505666 9.52188344 6.9375 15.4375 C6.628125 16.613125 6.31875 17.78875 6 19 C5.93457543 21.31166821 5.91756459 23.62499208 5.9375 25.9375 C5.94652344 27.08089844 5.95554688 28.22429688 5.96484375 29.40234375 C5.97644531 30.25957031 5.98804688 31.11679688 6 32 C2.94436352 32.88918536 0.21296658 33.1286441 -2.96484375 33.1328125 C-3.92447021 33.13474609 -4.88409668 33.13667969 -5.87280273 33.13867188 C-6.88415283 33.13416016 -7.89550293 33.12964844 -8.9375 33.125 C-9.96625244 33.12306641 -10.99500488 33.12113281 -12.05493164 33.11914062 C-19.41275486 33.07743683 -26.68004408 32.78678989 -34 32 C-35.18371458 28.04510865 -34.99356814 24.42891245 -34.83984375 20.33984375 C-34.82421099 17.7257147 -34.82421099 17.7257147 -37 15 C-35.61710902 13.19832504 -34.21813511 11.40898713 -32.8125 9.625 C-32.03519531 8.62726562 -31.25789063 7.62953125 -30.45703125 6.6015625 C-27.95050323 3.94759165 -26.35268645 3.20584017 -23 2 C-22.34 1.01 -21.68 0.02 -21 -1 C-18.19438238 -1.28056176 -16.53421737 -1.26710868 -14 0 C-11.4693699 -0.46292014 -9.00193708 -1.09354124 -6.5078125 -1.72265625 C-3.4693671 -2.0586837 -2.45370285 -1.80904365 0 0 Z " fill="#C74847" transform="translate(121,35)"/>
<path d="M0 0 C4.29 0 8.58 0 13 0 C13.33 1.65 13.66 3.3 14 5 C11.03 4.67 8.06 4.34 5 4 C5 5.65 5 7.3 5 9 C6.43836751 8.88541307 7.87570966 8.75790884 9.3125 8.625 C10.11300781 8.55539063 10.91351563 8.48578125 11.73828125 8.4140625 C14.27224441 8.10435574 14.27224441 8.10435574 17 6 C20.81546222 5.6531398 23.13278796 5.46633105 26.4375 7.5 C26.953125 7.995 27.46875 8.49 28 9 C28.33 8.01 28.66 7.02 29 6 C38 6 47 6 56 6 C56.99 8.31 57.98 10.62 59 13 C59.99 10.69 60.98 8.38 62 6 C64.66666667 6 67.33333333 6 70 6 C71.134375 5.979375 72.26875 5.95875 73.4375 5.9375 C77 6 77 6 80 7 C80.33 6.67 80.66 6.34 81 6 C82.85287502 5.92773498 84.70833878 5.9161878 86.5625 5.9375 C87.57441406 5.94652344 88.58632813 5.95554687 89.62890625 5.96484375 C90.41136719 5.97644531 91.19382812 5.98804688 92 6 C92 7.65 92 9.3 92 11 C90.35 10.67 88.7 10.34 87 10 C87.01160156 10.78246094 87.02320313 11.56492187 87.03515625 12.37109375 C87.04417969 13.38300781 87.05320312 14.39492188 87.0625 15.4375 C87.07410156 16.44683594 87.08570313 17.45617187 87.09765625 18.49609375 C87 21 87 21 86 22 C84.33382885 22.04063832 82.66611905 22.042721 81 22 C80.505 21.01 80.505 21.01 80 20 C79.34 20.66 78.68 21.32 78 22 C74.6875 22.4375 74.6875 22.4375 71 22 C68.36983839 19.8272578 66.52663106 18.05326212 65 15 C63.68 17.31 62.36 19.62 61 22 C59.68 22 58.36 22 57 22 C56.01 19.69 55.02 17.38 54 15 C50.37 15 46.74 15 43 15 C43.495 15.99 43.495 15.99 44 17 C46.64 17 49.28 17 52 17 C51.625 18.9375 51.625 18.9375 51 21 C47.90826248 22.54586876 45.40570448 22.29359521 42 22 C39.625 20.4375 39.625 20.4375 38 18 C37.25 14.25 37.25 14.25 37 11 C36.34 11 35.68 11 35 11 C34.67 14.63 34.34 18.26 34 22 C32.35 22 30.7 22 29 22 C28.67 20.68 28.34 19.36 28 18 C27.484375 18.66 26.96875 19.32 26.4375 20 C24 22 24 22 20.5625 22.5625 C16.10902721 21.85932009 14.67737711 20.56983614 12 17 C12 15.68 12 14.36 12 13 C9.69 13 7.38 13 5 13 C5 15.97 5 18.94 5 22 C3.35 22 1.7 22 0 22 C0 14.74 0 7.48 0 0 Z M80 8 C81 10 81 10 81 10 Z M18 10 C16.98459888 14.10223585 16.98459888 14.10223585 18 18 C19.65 17.67 21.3 17.34 23 17 C23.67958603 14.60280568 23.67958603 14.60280568 24 12 C23.34 11.34 22.68 10.68 22 10 C20.68 10 19.36 10 18 10 Z M72 10 C76 11 76 11 76 11 Z M71 15 C71.33 15.99 71.66 16.98 72 18 C72.763125 18 73.52625 18 74.3125 18 C76.20833333 18 78.10416667 18 80 18 C80.33 17.01 80.66 16.02 81 15 C77.7 15 74.4 15 71 15 Z " fill="#030303" transform="translate(223,34)"/>
<path d="M0 0 C1.2065625 0.0309375 1.2065625 0.0309375 2.4375 0.0625 C2.4375 3.0325 2.4375 6.0025 2.4375 9.0625 C5.0775 9.0625 7.7175 9.0625 10.4375 9.0625 C10.251875 7.763125 10.06625 6.46375 9.875 5.125 C9.55859375 2.91015625 9.55859375 2.91015625 9.4375 1.0625 C9.7675 0.7325 10.0975 0.4025 10.4375 0.0625 C12.0875 0.0625 13.7375 0.0625 15.4375 0.0625 C15.7675 3.3625 16.0975 6.6625 16.4375 10.0625 C16.953125 9.4025 17.46875 8.7425 18 8.0625 C20.4375 6.0625 20.4375 6.0625 24 5.6875 C27.4375 6.0625 27.4375 6.0625 30.4375 8.0625 C30.7675 7.4025 31.0975 6.7425 31.4375 6.0625 C33.0875 6.0625 34.7375 6.0625 36.4375 6.0625 C36.9325 11.5075 36.9325 11.5075 37.4375 17.0625 C38.0975 17.0625 38.7575 17.0625 39.4375 17.0625 C39.7675 13.4325 40.0975 9.8025 40.4375 6.0625 C42.0875 6.0625 43.7375 6.0625 45.4375 6.0625 C45.9325 11.0125 45.9325 11.0125 46.4375 16.0625 C48.4175 16.7225 50.3975 17.3825 52.4375 18.0625 C52.4375 17.4025 52.4375 16.7425 52.4375 16.0625 C51.633125 15.753125 50.82875 15.44375 50 15.125 C47.4375 14.0625 47.4375 14.0625 46.4375 13.0625 C46.25 10.625 46.25 10.625 46.4375 8.0625 C48.4375 6.0625 48.4375 6.0625 51.9375 5.75 C53.0925 5.853125 54.2475 5.95625 55.4375 6.0625 C56.0975 7.0525 56.7575 8.0425 57.4375 9.0625 C57.953125 8.5675 58.46875 8.0725 59 7.5625 C62.34784349 5.50228862 64.57764247 5.57124541 68.4375 6.0625 C70.375 7.75 70.375 7.75 71.4375 10.0625 C71.625 12.8125 71.625 12.8125 71.4375 15.0625 C66.9825 15.5575 66.9825 15.5575 62.4375 16.0625 C65.590868 16.76324844 68.16474974 17.0625 71.4375 17.0625 C69.5625 20.9375 69.5625 20.9375 68.4375 22.0625 C63.88799584 22.32497139 60.55310195 22.05794337 56.4375 20.0625 C55.7775 20.7225 55.1175 21.3825 54.4375 22.0625 C51.14506396 22.51119661 47.81952257 22.38658242 44.5 22.375 C43.12038086 22.39916992 43.12038086 22.39916992 41.71289062 22.42382812 C40.38741211 22.42479492 40.38741211 22.42479492 39.03515625 22.42578125 C38.22570557 22.42876221 37.41625488 22.43174316 36.58227539 22.43481445 C33.97079702 21.9814844 33.0918619 21.07791048 31.4375 19.0625 C30.921875 19.5575 30.40625 20.0525 29.875 20.5625 C26.5136612 22.63101618 24.31790089 22.54755011 20.4375 22.0625 C18 20.0625 18 20.0625 16.4375 18.0625 C16.1075 19.3825 15.7775 20.7025 15.4375 22.0625 C13.4575 22.0625 11.4775 22.0625 9.4375 22.0625 C9.9325 17.6075 9.9325 17.6075 10.4375 13.0625 C7.7975 13.0625 5.1575 13.0625 2.4375 13.0625 C2.4375 16.0325 2.4375 19.0025 2.4375 22.0625 C0.4575 22.0625 -1.5225 22.0625 -3.5625 22.0625 C-3.59137814 18.58335059 -3.60925687 15.10423169 -3.625 11.625 C-3.63337891 10.63177734 -3.64175781 9.63855469 -3.65039062 8.61523438 C-3.65361328 7.67099609 -3.65683594 6.72675781 -3.66015625 5.75390625 C-3.66539307 4.87935791 -3.67062988 4.00480957 -3.67602539 3.10375977 C-3.50444536 0.01864008 -3.10895855 0.07582826 0 0 Z M22.4375 10.0625 C21.7775 10.7225 21.1175 11.3825 20.4375 12.0625 C20.75948966 15.16176819 20.75948966 15.16176819 21.4375 18.0625 C23.0875 18.0625 24.7375 18.0625 26.4375 18.0625 C27.45290112 13.96026415 27.45290112 13.96026415 26.4375 10.0625 C25.1175 10.0625 23.7975 10.0625 22.4375 10.0625 Z M50.4375 10.0625 C52.48983685 12.3102975 53.44417261 13.0647242 56.4375 14.0625 C56.4375 13.0725 56.4375 12.0825 56.4375 11.0625 C53.4675 10.5675 53.4675 10.5675 50.4375 10.0625 Z M62.4375 10.0625 C66.4375 11.0625 66.4375 11.0625 66.4375 11.0625 Z " fill="#020202" transform="translate(144.5625,33.9375)"/>
<path d="M0 0 C3.6607519 1.22025063 3.92339441 2.126491 5.6875 5.4375 C6.34298828 6.64212891 6.34298828 6.64212891 7.01171875 7.87109375 C8 10 8 10 8 12 C8.66 12 9.32 12 10 12 C9.67 16.62 9.34 21.24 9 26 C5.81226783 26.05428494 2.62547364 26.09381088 -0.5625 26.125 C-1.90538086 26.15013672 -1.90538086 26.15013672 -3.27539062 26.17578125 C-8.60089905 26.21479596 -12.96370689 25.75475782 -18 24 C-18 23.01 -18 22.02 -18 21 C-17.01 21 -16.02 21 -15 21 C-15 18.36 -15 15.72 -15 13 C-14.01 12.896875 -13.02 12.79375 -12 12.6875 C-6.02850085 11.08777324 -3.14950835 4.89196362 0 0 Z " fill="#EEDEC9" transform="translate(117,39)"/>
<path d="M0 0 C3.14038087 2.91606795 4.27371828 4.82360784 4.4765625 9.1796875 C4.22143669 12.42899818 3.85209795 15.60933399 3.3203125 18.82421875 C0.57024642 18.85123905 -2.17955296 18.87106758 -4.9296875 18.88671875 C-5.70699219 18.89509766 -6.48429687 18.90347656 -7.28515625 18.91210938 C-8.41630859 18.91694336 -8.41630859 18.91694336 -9.5703125 18.921875 C-10.60720215 18.92973022 -10.60720215 18.92973022 -11.66503906 18.93774414 C-13.77942648 18.81859846 -15.64610265 18.40040112 -17.6796875 17.82421875 C-17.8240625 16.93734375 -17.9684375 16.05046875 -18.1171875 15.13671875 C-18.54065433 11.90938904 -18.54065433 11.90938904 -19.6796875 9.38671875 C-19.6796875 6.11802506 -18.81982383 5.4797429 -16.6171875 3.13671875 C-11.63486031 -1.40977862 -6.07295781 -4.25107047 0 0 Z " fill="#7F756D" transform="translate(79.6796875,49.17578125)"/>
<path d="M0 0 C-2.31 0.33 -4.62 0.66 -7 1 C-7 3.64 -7 6.28 -7 9 C-7.99 9 -8.98 9 -10 9 C-9.67 9.99 -9.34 10.98 -9 12 C-3.36473035 13.20484722 2.14536115 13.1129643 7.875 13.0625 C8.84953125 13.05798828 9.8240625 13.05347656 10.828125 13.04882812 C13.21881434 13.03710906 15.6093744 13.02070219 18 13 C18 13.99 18 14.98 18 16 C14.94436352 16.88918536 12.21296658 17.1286441 9.03515625 17.1328125 C8.07552979 17.13474609 7.11590332 17.13667969 6.12719727 17.13867188 C5.11584717 17.13416016 4.10449707 17.12964844 3.0625 17.125 C2.03374756 17.12306641 1.00499512 17.12113281 -0.05493164 17.11914062 C-7.41275486 17.07743683 -14.68004408 16.78678989 -22 16 C-23.00109515 12.68929162 -23.10356134 9.69915231 -23.0625 6.25 C-23.05347656 5.26515625 -23.04445313 4.2803125 -23.03515625 3.265625 C-23.02355469 2.51796875 -23.01195313 1.7703125 -23 1 C-19.91792919 0.63421676 -16.83424623 0.28442175 -13.75 -0.0625 C-12.87730469 -0.16626953 -12.00460938 -0.27003906 -11.10546875 -0.37695312 C-10.26113281 -0.47041016 -9.41679688 -0.56386719 -8.546875 -0.66015625 C-7.77182617 -0.74918213 -6.99677734 -0.83820801 -6.19824219 -0.92993164 C-3.92884036 -1.00226819 -2.16317911 -0.65714106 0 0 Z " fill="#A48784" transform="translate(109,51)"/>
<path d="M0 0 C1.32 0.33 2.64 0.66 4 1 C1.6586815 4.72125761 -0.6911356 8.08135709 -4 11 C-6.7794617 11.21613233 -8.91594439 10.72056438 -11.625 10.109375 C-14.08173909 9.73907855 -14.08173909 9.73907855 -15.875 11.453125 C-16.99336548 12.76823996 -18.1041725 14.08982295 -19.20703125 15.41796875 C-21.51021387 17.45018871 -22.72803305 17.39112245 -25.75 17.25 C-26.48734375 17.15203125 -27.2246875 17.0540625 -27.984375 16.953125 C-30.09859142 16.7833811 -30.09859142 16.7833811 -31.5546875 18.3984375 C-32.27011719 19.19121094 -32.27011719 19.19121094 -33 20 C-34.11375 20.45375 -35.2275 20.9075 -36.375 21.375 C-40.27413232 23.1228869 -42.11353826 24.89705363 -45 28 C-48.7938784 31.56554312 -52.03473787 34.25544844 -57 36 C-58.36365283 36.95824253 -59.70794169 37.94721175 -61 39 C-60.34 39.37125 -59.68 39.7425 -59 40.125 C-57 42 -57 42 -56.75 45.1875 C-56.8325 46.115625 -56.915 47.04375 -57 48 C-60.3 48 -63.6 48 -67 48 C-68 43.125 -68 43.125 -68 42 C-68.66 42 -69.32 42 -70 42 C-69.8125 40.125 -69.8125 40.125 -69 38 C-66.6875 36.875 -66.6875 36.875 -64 36 C-61.77556044 35.01862961 -60.27217896 34.2969225 -58.625 32.5 C-57 31 -57 31 -54.125 30.125 C-50.33059392 28.75901381 -48.77454123 26.90666224 -46 24 C-41.87171846 20.5709988 -38.05229155 17.87656543 -33 16 C-32.566875 15.443125 -32.13375 14.88625 -31.6875 14.3125 C-31.130625 13.879375 -30.57375 13.44625 -30 13 C-28.783125 13.268125 -27.56625 13.53625 -26.3125 13.8125 C-24.17542056 14.30736423 -24.17542056 14.30736423 -22 14 C-19.92835075 12.26630978 -19.92835075 12.26630978 -18.0625 10 C-14.63909829 6.07976266 -14.63909829 6.07976266 -11.49609375 5.6875 C-9 6 -9 6 -5 7 C-3.35 4.69 -1.7 2.38 0 0 Z " fill="#AF514F" transform="translate(100,19)"/>
<path d="M0 0 C1.921875 2.6796875 1.921875 2.6796875 3.75 5.875 C4.36359375 6.92429687 4.9771875 7.97359375 5.609375 9.0546875 C7 12 7 12 7 16 C6.01 16 5.02 16 4 16 C2.02 12.37 0.04 8.74 -2 5 C-5.66161578 6.22053859 -6.16270474 7.36782304 -8.1875 10.5625 C-8.71730469 11.38878906 -9.24710938 12.21507812 -9.79296875 13.06640625 C-10.19128906 13.70449219 -10.58960937 14.34257813 -11 15 C-11.33 14.34 -11.66 13.68 -12 13 C-15.63 13.33 -19.26 13.66 -23 14 C-22.01 12.68 -21.02 11.36 -20 10 C-19.67 9.01 -19.34 8.02 -19 7 C-17.33333333 5.66666667 -15.66666667 4.33333333 -14 3 C-13.67 2.01 -13.34 1.02 -13 0 C-11.07421875 -0.80078125 -11.07421875 -0.80078125 -8.6875 -1.3125 C-7.90761719 -1.49425781 -7.12773438 -1.67601562 -6.32421875 -1.86328125 C-3.4328959 -2.03335906 -2.34644199 -1.70435726 0 0 Z " fill="#C94A49" transform="translate(121,35)"/>
<path d="M0 0 C3.6607519 1.22025063 3.92339441 2.126491 5.6875 5.4375 C6.34298828 6.64212891 6.34298828 6.64212891 7.01171875 7.87109375 C8 10 8 10 8 12 C8.66 12 9.32 12 10 12 C9.67 15.96 9.34 19.92 9 24 C8.67 24 8.34 24 8 24 C7.67 20.7 7.34 17.4 7 14 C5.35 14 3.7 14 2 14 C1.67 15.98 1.34 17.96 1 20 C0.67 20 0.34 20 0 20 C0 18.02 0 16.04 0 14 C-1.65 14 -3.3 14 -5 14 C-4.74438677 16.3431213 -4.40729228 18.67843403 -4 21 C-3.34 21.33 -2.68 21.66 -2 22 C-2 22.66 -2 23.32 -2 24 C-0.68 24.33 0.64 24.66 2 25 C-0.97 25 -3.94 25 -7 25 C-8.20596483 9.39902634 -8.20596483 9.39902634 -3.5 3.5 C-2.36976566 2.29800475 -1.21521232 1.11601131 0 0 Z " fill="#F3D9C3" transform="translate(117,39)"/>
<path d="M0 0 C4.14182881 0.862881 5.56226471 2.18349135 8 5.625 C8.40997788 8.43257007 8.24237846 10.76493414 8 13.625 C2.62374766 14.47388195 -1.65370398 14.6274305 -7 13.625 C-7.63072433 10.7624819 -8.11745427 8.51330721 -8 5.625 C-5.60540961 2.14195943 -4.14822958 0.8642145 0 0 Z " fill="#A54547" transform="translate(52,53.375)"/>
<path d="M0 0 C3.29148243 1.13499394 3.9959869 1.99283376 5.75 5.125 C6.1625 6.07375 6.575 7.0225 7 8 C5.35 8 3.7 8 2 8 C2 9.65 2 11.3 2 13 C1.67 13 1.34 13 1 13 C1 11.35 1 9.7 1 8 C-0.32 8 -1.64 8 -3 8 C-3 9.32 -3 10.64 -3 12 C-2.01 12.33 -1.02 12.66 0 13 C-4.67201205 14.20568053 -9.21496292 14.09382426 -14 14 C-14 11.36 -14 8.72 -14 6 C-11.03 6.33 -8.06 6.66 -5 7 C-4.34 5.68 -3.68 4.36 -3 3 C-1.375 1.25 -1.375 1.25 0 0 Z " fill="#D2B1AA" transform="translate(75,51)"/>
<path d="M0 0 C0.99 0 1.98 0 3 0 C3 2.31 3 4.62 3 7 C13.89 6.67 24.78 6.34 36 6 C36 6.99 36 7.98 36 9 C32.94436352 9.88918536 30.21296658 10.1286441 27.03515625 10.1328125 C26.07552979 10.13474609 25.11590332 10.13667969 24.12719727 10.13867188 C23.11584717 10.13416016 22.10449707 10.12964844 21.0625 10.125 C20.03374756 10.12306641 19.00499512 10.12113281 17.94506836 10.11914062 C10.58724514 10.07743683 3.31995592 9.78678989 -4 9 C-4.33 7.68 -4.66 6.36 -5 5 C-2.525 5.495 -2.525 5.495 0 6 C0 4.02 0 2.04 0 0 Z " fill="#483B34" transform="translate(91,58)"/>
<path d="M0 0 C2 1 2 1 3 3 C0.69 4.65 -1.62 6.3 -4 8 C-3.34 8.37125 -2.68 8.7425 -2 9.125 C0 11 0 11 0.25 14.1875 C0.1675 15.115625 0.085 16.04375 0 17 C-3.3 17 -6.6 17 -10 17 C-11 12.125 -11 12.125 -11 11 C-11.66 11 -12.32 11 -13 11 C-12.8125 9.125 -12.8125 9.125 -12 7 C-9.6875 5.875 -9.6875 5.875 -7 5 C-4.08525931 3.71408499 -2.14664439 2.36130883 0 0 Z " fill="#A84D50" transform="translate(43,50)"/>
<path d="M0 0 C2.09922711 1.87973687 3.38315635 3.62228874 5 6 C4.67 6.99 4.34 7.98 4 9 C2.35 7.35 0.7 5.7 -1 4 C-3.59411701 5.07342773 -4.81077002 5.69362765 -6.3125 8.125 C-8 10 -8 10 -11.5 10.375 C-15 10 -15 10 -18 8 C-13.11591746 2.59571931 -7.85369228 -3.2220276 0 0 Z " fill="#C2585A" transform="translate(78,48)"/>
<path d="M0 0 C1.47193312 2.94386623 0.84936173 5.37390036 0.5625 8.625 C0.46066406 9.81351563 0.35882813 11.00203125 0.25390625 12.2265625 C0.17011719 13.14179687 0.08632812 14.05703125 0 15 C-2.97 14.67 -5.94 14.34 -9 14 C-9.33 12.68 -9.66 11.36 -10 10 C-9.01 10 -8.02 10 -7 10 C-7 7.36 -7 4.72 -7 2 C-4.69 1.34 -2.38 0.68 0 0 Z " fill="#C7B9B2" transform="translate(109,50)"/>
<path d="M0 0 C1.921875 2.6796875 1.921875 2.6796875 3.75 5.875 C4.36359375 6.92429687 4.9771875 7.97359375 5.609375 9.0546875 C7 12 7 12 7 16 C6.01 16 5.02 16 4 16 C2.02 12.37 0.04 8.74 -2 5 C-2.99 5 -3.98 5 -5 5 C-5.33 4.01 -5.66 3.02 -6 2 C-8.31 1.67 -10.62 1.34 -13 1 C-13 0.67 -13 0.34 -13 0 C-11.58800422 -0.39222105 -10.17007236 -0.76311059 -8.75 -1.125 C-7.96109375 -1.33382812 -7.1721875 -1.54265625 -6.359375 -1.7578125 C-3.40977748 -2.06058576 -2.39000728 -1.75395695 0 0 Z " fill="#B8564F" transform="translate(121,35)"/>
<path d="M0 0 C3.6607519 1.22025063 3.92339441 2.126491 5.6875 5.4375 C6.34298828 6.64212891 6.34298828 6.64212891 7.01171875 7.87109375 C8 10 8 10 8 12 C8.66 12 9.32 12 10 12 C9.67 12.66 9.34 13.32 9 14 C8.01 13.34 7.02 12.68 6 12 C3.9507906 11.54860541 3.9507906 11.54860541 1.8125 11.375 C0.554375 11.25125 -0.70375 11.1275 -2 11 C-3.35384615 4.6 -3.35384615 4.6 -1.5625 1.5625 C-1.046875 1.046875 -0.53125 0.53125 0 0 Z " fill="#F4E1CE" transform="translate(117,39)"/>
<path d="M0 0 C1.32 0.33 2.64 0.66 4 1 C1.6586815 4.72125761 -0.6911356 8.08135709 -4 11 C-6.77004296 11.21539992 -8.8924989 10.72638742 -11.58984375 10.109375 C-14.10266269 9.75791237 -14.10266269 9.75791237 -16.19140625 11.453125 C-17.92355011 13.23075951 -19.50751697 15.01825929 -21 17 C-21.33 16.01 -21.66 15.02 -22 14 C-15.74618834 6.21255605 -15.74618834 6.21255605 -11.46484375 5.69140625 C-9 6 -9 6 -5 7 C-3.35 4.69 -1.7 2.38 0 0 Z " fill="#A64D4C" transform="translate(100,19)"/>
<path d="M0 0 C1.65 0 3.3 0 5 0 C4.67 1.98 4.34 3.96 4 6 C5.32 6 6.64 6 8 6 C8 6.66 8 7.32 8 8 C7.01 8 6.02 8 5 8 C5.33 8.99 5.66 9.98 6 11 C8.97 11.495 8.97 11.495 12 12 C12 12.33 12 12.66 12 13 C8.04 13 4.08 13 0 13 C0 8.71 0 4.42 0 0 Z " fill="#B09F9C" transform="translate(94,52)"/>
<path d="M0 0 C2.5 -0.375 2.5 -0.375 5 0 C5.66 0.99 6.32 1.98 7 3 C4.03 2.505 4.03 2.505 1 2 C0.01 3.485 0.01 3.485 -1 5 C-1.99 5.66 -2.98 6.32 -4 7 C-4.804375 8.010625 -5.60875 9.02125 -6.4375 10.0625 C-9.65627633 13.75231676 -9.65627633 13.75231676 -13 14 C-13 14.66 -13 15.32 -13 16 C-11.02 16.33 -9.04 16.66 -7 17 C-7 17.33 -7 17.66 -7 18 C-9.64 18 -12.28 18 -15 18 C-15.33 17.34 -15.66 16.68 -16 16 C-14.61710902 14.19832504 -13.21813511 12.40898713 -11.8125 10.625 C-11.03519531 9.62726562 -10.25789063 8.62953125 -9.45703125 7.6015625 C-6.95050323 4.94759165 -5.35268645 4.20584017 -2 3 C-1.34 2.01 -0.68 1.02 0 0 Z " fill="#B25557" transform="translate(100,34)"/>
<path d="M0 0 C0.99 0.66 1.98 1.32 3 2 C2.67 4.31 2.34 6.62 2 9 C-0.64 8.67 -3.28 8.34 -6 8 C-6 6.02 -6 4.04 -6 2 C-3.1875 0.875 -3.1875 0.875 0 0 Z " fill="#A29895" transform="translate(51,59)"/>
<path d="M0 0 C0.33 0 0.66 0 1 0 C1 1.98 1 3.96 1 6 C1.61488281 5.95359375 2.22976562 5.9071875 2.86328125 5.859375 C9.36303909 5.56911468 9.36303909 5.56911468 12.125 7.4375 C13.46783833 11.37009796 12.71489299 14.9690371 12 19 C11.67 19 11.34 19 11 19 C10.67 15.7 10.34 12.4 10 9 C8.35 9 6.7 9 5 9 C4.67 10.98 4.34 12.96 4 15 C3.67 15 3.34 15 3 15 C3 12.69 3 10.38 3 8 C1.35 8 -0.3 8 -2 8 C-1.34 7.67 -0.68 7.34 0 7 C0 4.69 0 2.38 0 0 Z " fill="#FAF5E2" transform="translate(114,44)"/>
<path d="M0 0 C3.29148243 1.13499394 3.9959869 1.99283376 5.75 5.125 C6.1625 6.07375 6.575 7.0225 7 8 C5.35 8 3.7 8 2 8 C2 9.65 2 11.3 2 13 C1.67 13 1.34 13 1 13 C1 11.35 1 9.7 1 8 C-0.32 7.67 -1.64 7.34 -3 7 C-2.34 6.01 -1.68 5.02 -1 4 C-1.66 3.67 -2.32 3.34 -3 3 C-2.01 2.01 -1.02 1.02 0 0 Z " fill="#B8A29A" transform="translate(75,51)"/>
<path d="M0 0 C0.99 0 1.98 0 3 0 C3 2.31 3 4.62 3 7 C4.32 7.33 5.64 7.66 7 8 C6 9 6 9 3.71484375 9.09765625 C2.34005859 9.08025391 2.34005859 9.08025391 0.9375 9.0625 C0.01839844 9.05347656 -0.90070313 9.04445313 -1.84765625 9.03515625 C-2.55792969 9.02355469 -3.26820312 9.01195313 -4 9 C-4.33 7.68 -4.66 6.36 -5 5 C-2.525 5.495 -2.525 5.495 0 6 C0 4.02 0 2.04 0 0 Z " fill="#362E2B" transform="translate(91,58)"/>
<path d="M0 0 C0 0.99 0 1.98 0 3 C-1.32 3.33 -2.64 3.66 -4 4 C-4.66 6.97 -5.32 9.94 -6 13 C-3.03 13.495 -3.03 13.495 0 14 C-3.93670488 15.31223496 -6.12488144 14.24296256 -10 13 C-10 12.01 -10 11.02 -10 10 C-9.01 10 -8.02 10 -7 10 C-7 7.36 -7 4.72 -7 2 C-4.69 1.34 -2.38 0.68 0 0 Z " fill="#BBABA5" transform="translate(109,50)"/>
<path d="M0 0 C0 0.66 0 1.32 0 2 C-2.9248633 2.84191782 -5.50741656 3.11819313 -8.546875 3.09765625 C-9.39121094 3.09443359 -10.23554687 3.09121094 -11.10546875 3.08789062 C-11.97816406 3.07951172 -12.85085937 3.07113281 -13.75 3.0625 C-15.08224609 3.05573242 -15.08224609 3.05573242 -16.44140625 3.04882812 C-18.62767329 3.037074 -20.81380179 3.02064249 -23 3 C-22.67 2.34 -22.34 1.68 -22 1 C-18.8671875 0.5859375 -18.8671875 0.5859375 -14.875 0.375 C-13.57304688 0.30023438 -12.27109375 0.22546875 -10.9296875 0.1484375 C-7.2814705 0.01063209 -3.65033262 -0.02844415 0 0 Z " fill="#923B3A" transform="translate(109,48)"/>
<path d="M0 0 C0.66 0.33 1.32 0.66 2 1 C2 3.64 2 6.28 2 9 C-0.31 9.33 -2.62 9.66 -5 10 C-4.67 7.69 -4.34 5.38 -4 3 C-2.68 3 -1.36 3 0 3 C0 2.01 0 1.02 0 0 Z " fill="#8D7374" transform="translate(58,58)"/>
<path d="M0 0 C0.556875 0.33 1.11375 0.66 1.6875 1 C4.30284522 2.1309601 6.1806646 2.15662974 9 2 C9.33 1.34 9.66 0.68 10 0 C10 1.98 10 3.96 10 6 C6.7 6 3.4 6 0 6 C-0.38218767 4.34385343 -0.71395102 2.67542976 -1 1 C-0.67 0.67 -0.34 0.34 0 0 Z " fill="#826766" transform="translate(33,61)"/>
<path d="M0 0 C0.99 0 1.98 0 3 0 C4.23825459 3.71476377 3.70587257 6.18828813 3 10 C2 11 2 11 -1.5625 11.0625 C-2.696875 11.041875 -3.83125 11.02125 -5 11 C-5 10.67 -5 10.34 -5 10 C-3.02 10 -1.04 10 1 10 C0.34 9.34 -0.32 8.68 -1 8 C-1.66 8 -2.32 8 -3 8 C-3 6.68 -3 5.36 -3 4 C-1.68 3.67 -0.36 3.34 1 3 C0.67 2.01 0.34 1.02 0 0 Z " fill="#9B8C83" transform="translate(80,55)"/>
<path d="M0 0 C2.31 0.66 4.62 1.32 7 2 C6.33333333 4 5.66666667 6 5 8 C3.35 8 1.7 8 0 8 C0 5.36 0 2.72 0 0 Z " fill="#A2908F" transform="translate(61,57)"/>
<path d="M0 0 C1.98 0.66 3.96 1.32 6 2 C6.33 1.34 6.66 0.68 7 0 C6.67 1.32 6.34 2.64 6 4 C5.34 4 4.68 4 4 4 C3.67 4.99 3.34 5.98 3 7 C1.68 7 0.36 7 -1 7 C-1.04254356 5.00045254 -1.04080783 2.99958364 -1 1 C-0.67 0.67 -0.34 0.34 0 0 Z " fill="#B93736" transform="translate(101,35)"/>
<path d="M0 0 C-0.66 0.433125 -1.32 0.86625 -2 1.3125 C-2.66 1.869375 -3.32 2.42625 -4 3 C-4 3.99 -4 4.98 -4 6 C-6.31 6.66 -8.62 7.32 -11 8 C-10.06320934 1.44246541 -6.2811206 -0.57101096 0 0 Z " fill="#A66161" transform="translate(55,54)"/>
<path d="M0 0 C1.65 0 3.3 0 5 0 C5 2.31 5 4.62 5 7 C3.35 7 1.7 7 0 7 C0 4.69 0 2.38 0 0 Z " fill="#B8B3A8" transform="translate(112,53)"/>
<path d="M0 0 C4.12357938 4.85993284 8 9.44005979 8 16 C7.01 15.67 6.02 15.34 5 15 C4.27954236 13.0187415 3.61998741 11.01495907 3 9 C2.46375 8.13375 1.9275 7.2675 1.375 6.375 C0 4 0 4 0 0 Z " fill="#C36860" transform="translate(120,35)"/>
<path d="M0 0 C2.65664779 0.15180845 4.45217862 0.52011425 6.48046875 2.296875 C7.875 3.875 7.875 3.875 10 7 C9.67 7.99 9.34 8.98 9 10 C7.82460004 9.07347299 6.65989423 8.13336613 5.5 7.1875 C4.52546875 6.40439453 4.52546875 6.40439453 3.53125 5.60546875 C2 4 2 4 2 1 C1.34 0.67 0.68 0.34 0 0 Z " fill="#9E6565" transform="translate(73,47)"/>
<path d="M0 0 C2.31 0 4.62 0 7 0 C7.33 1.32 7.66 2.64 8 4 C5.125 4.625 5.125 4.625 2 5 C1.34 4.34 0.68 3.68 0 3 C0 2.01 0 1.02 0 0 Z " fill="#A84747" transform="translate(34,59)"/>
<path d="M0 0 C0.66 0 1.32 0 2 0 C2.185625 1.2065625 2.185625 1.2065625 2.375 2.4375 C2.58125 3.283125 2.7875 4.12875 3 5 C3.66 5.33 4.32 5.66 5 6 C5 6.66 5 7.32 5 8 C6.32 8.33 7.64 8.66 9 9 C6.03 9 3.06 9 0 9 C0 6.03 0 3.06 0 0 Z " fill="#F6E2CB" transform="translate(110,55)"/>
<path d="M0 0 C1.32 0.33 2.64 0.66 4 1 C2.71580959 2.67243402 1.42242815 4.33781447 0.125 6 C-0.59429687 6.928125 -1.31359375 7.85625 -2.0546875 8.8125 C-2.69664063 9.534375 -3.33859375 10.25625 -4 11 C-4.66 11 -5.32 11 -6 11 C-6 9 -6 9 -4 7 C-3.26202257 5.80954006 -2.55521319 4.59938375 -1.875 3.375 C-1.25625 2.26125 -0.6375 1.1475 0 0 Z " fill="#9E4040" transform="translate(100,19)"/>
<path d="M0 0 C0.33 0.99 0.66 1.98 1 3 C-3.22102362 4.13673517 -6.52696509 3.79839993 -10.8125 3.0625 C-11.97394531 2.86785156 -13.13539062 2.67320313 -14.33203125 2.47265625 C-15.21246094 2.31667969 -16.09289062 2.16070312 -17 2 C-17 1.67 -17 1.34 -17 1 C-8.585 0.505 -8.585 0.505 0 0 Z " fill="#796657" transform="translate(126,64)"/>
<path d="M0 0 C0.99 0.66 1.98 1.32 3 2 C3.1875 4.625 3.1875 4.625 3 7 C0.36 7 -2.28 7 -5 7 C-5 6.34 -5 5.68 -5 5 C-4.01 5 -3.02 5 -2 5 C-1.67 4.01 -1.34 3.02 -1 2 C-1 2.99 -1 3.98 -1 5 C-0.34 5 0.32 5 1 5 C0.67 3.35 0.34 1.7 0 0 Z " fill="#C3B3AF" transform="translate(51,59)"/>
<path d="M0 0 C1.5 1.375 1.5 1.375 3 3 C3 3.66 3 4.32 3 5 C5.97 5.33 8.94 5.66 12 6 C12 6.33 12 6.66 12 7 C8.04 7 4.08 7 0 7 C0 4.69 0 2.38 0 0 Z " fill="#958784" transform="translate(94,58)"/>
<path d="M0 0 C0.66 0 1.32 0 2 0 C1.66009204 3.05917167 1.14301602 4.80401508 -0.6875 7.3125 C-3.62424881 9.45553291 -5.44517748 9.32316568 -9 9 C-8.01 8.34 -7.02 7.68 -6 7 C-3.90415791 5.40899579 -1.97273018 3.75353794 0 2 C0 1.34 0 0.68 0 0 Z " fill="#B44947" transform="translate(73,48)"/>
<path d="M0 0 C2.0625 0.4375 2.0625 0.4375 4 1 C4 2.65 4 4.3 4 6 C2.35 6 0.7 6 -1 6 C-1.042721 4.33388095 -1.04063832 2.66617115 -1 1 C-0.67 0.67 -0.34 0.34 0 0 Z " fill="#B3B4A5" transform="translate(116,43)"/>
<path d="M0 0 C1.32 0 2.64 0 4 0 C3.67 2.31 3.34 4.62 3 7 C2.01 7 1.02 7 0 7 C0 4.69 0 2.38 0 0 Z " fill="#B9B5A5" transform="translate(119,53)"/>
<path d="M0 0 C1.32 0 2.64 0 4 0 C4 1.65 4 3.3 4 5 C3.01 5 2.02 5 1 5 C1 6.98 1 8.96 1 11 C0.67 11 0.34 11 0 11 C0 7.37 0 3.74 0 0 Z " fill="#6E6560" transform="translate(90,53)"/>
<path d="M0 0 C-2.97 2.475 -2.97 2.475 -6 5 C-7.32 4.34 -8.64 3.68 -10 3 C-3.375 -1.125 -3.375 -1.125 0 0 Z " fill="#B1575B" transform="translate(54,48)"/>
<path d="M0 0 C0.61875 0.33 1.2375 0.66 1.875 1 C3.91018344 2.14193235 3.91018344 2.14193235 6 2 C6 2.99 6 3.98 6 5 C4.02 5.33 2.04 5.66 0 6 C-0.38218767 4.34385343 -0.71395102 2.67542976 -1 1 C-0.67 0.67 -0.34 0.34 0 0 Z " fill="#A17676" transform="translate(33,61)"/>
<path d="M0 0 C0.99 0.33 1.98 0.66 3 1 C3.6875 3.0625 3.6875 3.0625 4 5 C1.69 5 -0.62 5 -3 5 C-2.01 3.35 -1.02 1.7 0 0 Z " fill="#ECCDB8" transform="translate(117,39)"/>
<path d="M0 0 C0.33 0.99 0.66 1.98 1 3 C2.65 2.67 4.3 2.34 6 2 C6 2.99 6 3.98 6 5 C3.69 5.33 1.38 5.66 -1 6 C-0.67 4.02 -0.34 2.04 0 0 Z " fill="#59534F" transform="translate(54,62)"/>
<path d="M0 0 C1.32 0 2.64 0 4 0 C4 1.65 4 3.3 4 5 C2.68 5 1.36 5 0 5 C0 3.35 0 1.7 0 0 Z " fill="#6A5C5B" transform="translate(98,53)"/>
<path d="M0 0 C0.66 0 1.32 0 2 0 C1.67 1.98 1.34 3.96 1 6 C-0.32 6 -1.64 6 -3 6 C-2.67 4.68 -2.34 3.36 -2 2 C-1.34 2.33 -0.68 2.66 0 3 C0 2.01 0 1.02 0 0 Z " fill="#D5C4BE" transform="translate(69,59)"/>
<path d="M0 0 C0.99 0.33 1.98 0.66 3 1 C2.67 3.97 2.34 6.94 2 10 C1.67 10 1.34 10 1 10 C0.67 6.7 0.34 3.4 0 0 Z " fill="#C4ACAE" transform="translate(86,52)"/>
<path d="M0 0 C1.67542976 0.28604898 3.34385343 0.61781233 5 1 C4 3 4 3 0.9375 4.125 C-0.031875 4.41375 -1.00125 4.7025 -2 5 C-1.125 1.125 -1.125 1.125 0 0 Z " fill="#B0535E" transform="translate(32,56)"/>
<path d="M0 0 C2.31 0.33 4.62 0.66 7 1 C7.33 1.99 7.66 2.98 8 4 C5.125 3.6875 5.125 3.6875 2 3 C1.34 2.01 0.68 1.02 0 0 Z " fill="#AC5F58" transform="translate(70,32)"/>
</svg>
