<svg xmlns="http://www.w3.org/2000/svg" xmlns:xlink="http://www.w3.org/1999/xlink" width="500" zoomAndPan="magnify" viewBox="0 0 375 374.999991" height="500" preserveAspectRatio="xMidYMid meet" version="1.0"><defs><clipPath id="14b733e6cb"><path d="M 197.050781 157.488281 L 201.3125 157.488281 L 201.3125 161.171875 L 197.050781 161.171875 Z M 197.050781 157.488281 " clip-rule="nonzero"/></clipPath><clipPath id="c86810f7ee"><path d="M 201.300781 158.773438 C 199.425781 161.851562 197.625 161.25 197.25 160.648438 C 196.875 159.976562 197.175781 158.175781 197.773438 157.726562 C 198.375 157.199219 200.773438 157.875 200.773438 157.875 " clip-rule="nonzero"/></clipPath><clipPath id="1848bcf3a2"><path d="M 112.5 112.5 L 262.5 112.5 L 262.5 262.5 L 112.5 262.5 Z M 112.5 112.5 " clip-rule="nonzero"/></clipPath></defs><g clip-path="url(#14b733e6cb)"><g clip-path="url(#c86810f7ee)"><path fill="#ffffff" d="M 194.25 154.726562 L 204.382812 154.726562 L 204.382812 164.550781 L 194.25 164.550781 Z M 194.25 154.726562 " fill-opacity="1" fill-rule="nonzero"/></g></g><g clip-path="url(#1848bcf3a2)"><path fill="#040606" d="M 252.5 222.5 L 197.5 222.5 C 194.746094 222.5 192.5 220.253906 192.5 217.5 L 192.5 167.5 L 257.5 167.5 L 257.5 217.5 C 257.5 220.253906 255.253906 222.5 252.5 222.5 Z M 227.5 237.5 L 147.5 237.5 L 147.5 222.5 C 148.503906 222.5 149.511719 222.460938 150.507812 222.371094 C 152.136719 222.214844 153.535156 221.171875 154.167969 219.609375 L 155.800781 215.535156 C 157.761719 214.949219 159.648438 214.167969 161.445312 213.191406 L 165.496094 214.921875 C 167.019531 215.574219 168.769531 215.332031 170.027344 214.277344 C 170.800781 213.640625 171.53125 212.957031 172.246094 212.246094 C 172.957031 211.53125 173.640625 210.800781 174.285156 210.027344 C 175.332031 208.769531 175.574219 207.03125 174.921875 205.496094 L 173.191406 201.445312 C 174.167969 199.648438 174.949219 197.761719 175.535156 195.800781 L 179.609375 194.167969 C 179.617188 194.160156 179.617188 194.160156 179.617188 194.160156 C 181.171875 193.535156 182.214844 192.136719 182.371094 190.507812 C 182.460938 189.511719 182.5 188.503906 182.5 187.5 C 182.5 186.492188 182.460938 185.488281 182.371094 184.492188 C 182.214844 182.859375 181.171875 181.464844 179.609375 180.828125 L 175.535156 179.199219 C 174.949219 177.234375 174.167969 175.351562 173.191406 173.554688 L 174.921875 169.5 C 175.574219 167.96875 175.332031 166.230469 174.277344 164.96875 C 173.640625 164.199219 172.957031 163.464844 172.246094 162.753906 C 171.53125 162.039062 170.800781 161.355469 170.027344 160.710938 C 168.769531 159.667969 167.019531 159.421875 165.496094 160.078125 L 161.445312 161.804688 C 159.648438 160.828125 157.761719 160.046875 155.800781 159.460938 L 154.160156 155.378906 C 153.535156 153.828125 152.136719 152.78125 150.507812 152.625 C 149.511719 152.539062 148.503906 152.488281 147.5 152.488281 L 147.5 137.5 L 227.5 137.5 L 227.5 142.5 L 197.5 142.5 C 191.980469 142.5 187.5 146.980469 187.5 152.5 L 187.5 217.5 C 187.5 223.015625 191.980469 227.5 197.5 227.5 L 227.5 227.5 Z M 222.5 257.5 L 152.5 257.5 C 149.746094 257.5 147.5 255.253906 147.5 252.5 L 147.5 242.5 L 227.5 242.5 L 227.5 252.5 C 227.5 255.253906 225.253906 257.5 222.5 257.5 Z M 135.007812 208.261719 C 134.316406 207.839844 133.464844 207.773438 132.722656 208.09375 L 127.871094 210.183594 C 127.324219 209.714844 126.796875 209.226562 126.289062 208.710938 C 125.78125 208.203125 125.28125 207.675781 124.8125 207.128906 L 126.902344 202.265625 C 127.214844 201.523438 127.15625 200.683594 126.738281 199.988281 C 125.488281 197.917969 124.558594 195.683594 123.972656 193.339844 C 123.777344 192.558594 123.222656 191.921875 122.480469 191.621094 L 117.578125 189.65625 C 117.527344 188.945312 117.5 188.222656 117.5 187.5 C 117.5 186.777344 117.527344 186.054688 117.578125 185.339844 L 122.480469 183.378906 C 123.222656 183.074219 123.777344 182.441406 123.972656 181.660156 C 124.558594 179.316406 125.488281 177.078125 126.738281 175.007812 C 127.15625 174.316406 127.214844 173.464844 126.902344 172.722656 L 124.8125 167.871094 C 125.28125 167.324219 125.78125 166.796875 126.289062 166.289062 C 126.796875 165.769531 127.324219 165.28125 127.871094 164.8125 L 132.734375 166.902344 C 133.464844 167.214844 134.316406 167.15625 135.007812 166.738281 C 137.078125 165.488281 139.316406 164.558594 141.660156 163.972656 C 142.441406 163.777344 143.074219 163.222656 143.378906 162.480469 L 145.339844 157.578125 C 146.765625 157.46875 148.222656 157.46875 149.65625 157.578125 L 151.621094 162.480469 C 151.921875 163.222656 152.558594 163.777344 153.339844 163.972656 C 155.683594 164.558594 157.917969 165.488281 159.988281 166.738281 C 160.683594 167.15625 161.523438 167.214844 162.265625 166.902344 L 167.128906 164.8125 C 167.675781 165.28125 168.203125 165.769531 168.710938 166.289062 C 169.226562 166.796875 169.714844 167.324219 170.183594 167.871094 L 168.09375 172.722656 C 167.78125 173.464844 167.839844 174.316406 168.261719 175.007812 C 169.511719 177.078125 170.4375 179.316406 171.023438 181.660156 C 171.21875 182.441406 171.777344 183.074219 172.519531 183.378906 L 177.421875 185.339844 C 177.46875 186.054688 177.5 186.777344 177.5 187.5 C 177.5 188.222656 177.46875 188.945312 177.421875 189.65625 L 172.519531 191.621094 C 171.777344 191.921875 171.21875 192.558594 171.023438 193.339844 C 170.4375 195.683594 169.511719 197.917969 168.261719 199.988281 C 167.839844 200.683594 167.78125 201.523438 168.09375 202.265625 L 170.183594 207.128906 C 169.714844 207.675781 169.226562 208.203125 168.710938 208.710938 C 168.203125 209.226562 167.675781 209.714844 167.128906 210.183594 L 162.273438 208.09375 C 161.523438 207.773438 160.683594 207.839844 159.988281 208.261719 C 157.917969 209.511719 155.683594 210.4375 153.339844 211.023438 C 152.558594 211.21875 151.921875 211.777344 151.621094 212.519531 L 149.65625 217.421875 C 148.230469 217.527344 146.777344 217.527344 145.339844 217.421875 L 143.378906 212.519531 C 143.074219 211.777344 142.441406 211.21875 141.660156 211.023438 C 139.316406 210.4375 137.078125 209.511719 135.007812 208.261719 Z M 152.5 117.5 L 222.5 117.5 C 225.253906 117.5 227.5 119.746094 227.5 122.5 L 227.5 132.5 L 147.5 132.5 L 147.5 122.5 C 147.5 119.746094 149.746094 117.5 152.5 117.5 Z M 257.5 152.5 L 257.5 162.5 L 192.5 162.5 L 192.5 152.5 C 192.5 149.746094 194.746094 147.5 197.5 147.5 L 252.5 147.5 C 255.253906 147.5 257.5 149.746094 257.5 152.5 Z M 252.5 142.5 L 232.5 142.5 L 232.5 122.5 C 232.5 116.980469 228.015625 112.5 222.5 112.5 L 152.5 112.5 C 146.980469 112.5 142.5 116.980469 142.5 122.5 L 142.5 153.359375 C 141.777344 153.847656 141.179688 154.53125 140.828125 155.390625 L 139.199219 159.460938 C 137.234375 160.046875 135.339844 160.828125 133.554688 161.804688 L 129.5 160.078125 C 127.96875 159.421875 126.230469 159.667969 124.96875 160.722656 C 124.199219 161.355469 123.464844 162.039062 122.753906 162.753906 C 122.039062 163.464844 121.355469 164.199219 120.722656 164.96875 C 119.667969 166.230469 119.421875 167.96875 120.078125 169.5 L 121.816406 173.554688 C 120.828125 175.351562 120.046875 177.234375 119.460938 179.199219 L 115.378906 180.839844 C 113.828125 181.464844 112.78125 182.859375 112.636719 184.492188 C 112.539062 185.488281 112.5 186.492188 112.5 187.5 C 112.5 188.503906 112.539062 189.511719 112.636719 190.507812 C 112.78125 192.136719 113.828125 193.535156 115.390625 194.167969 L 119.460938 195.800781 C 120.046875 197.761719 120.828125 199.648438 121.816406 201.445312 L 120.078125 205.496094 C 119.421875 207.03125 119.667969 208.769531 120.722656 210.027344 C 121.355469 210.800781 122.039062 211.53125 122.753906 212.246094 C 123.464844 212.957031 124.199219 213.640625 124.96875 214.285156 C 126.230469 215.332031 127.96875 215.574219 129.5 214.921875 L 133.554688 213.191406 C 135.339844 214.167969 137.234375 214.949219 139.199219 215.535156 L 140.839844 219.617188 C 141.179688 220.476562 141.777344 221.152344 142.5 221.640625 L 142.5 252.5 C 142.5 258.015625 146.980469 262.5 152.5 262.5 L 222.5 262.5 C 228.015625 262.5 232.5 258.015625 232.5 252.5 L 232.5 227.5 L 252.5 227.5 C 258.015625 227.5 262.5 223.015625 262.5 217.5 L 262.5 152.5 C 262.5 146.980469 258.015625 142.5 252.5 142.5 " fill-opacity="1" fill-rule="nonzero"/></g><path fill="#040606" d="M 132.5 187.5 C 132.5 180.984375 136.6875 175.4375 142.5 173.367188 L 142.5 178.886719 C 139.519531 180.625 137.5 183.816406 137.5 187.5 C 137.5 191.179688 139.519531 194.375 142.5 196.113281 L 142.5 201.628906 C 136.6875 199.558594 132.5 194.011719 132.5 187.5 Z M 147.5 182.5 C 150.253906 182.5 152.5 184.746094 152.5 187.5 C 152.5 190.253906 150.253906 192.5 147.5 192.5 C 144.746094 192.5 142.5 190.253906 142.5 187.5 C 142.5 184.746094 144.746094 182.5 147.5 182.5 Z M 162.5 187.5 C 162.5 195.769531 155.769531 202.5 147.5 202.5 L 147.5 197.5 C 153.015625 197.5 157.5 193.015625 157.5 187.5 C 157.5 181.980469 153.015625 177.5 147.5 177.5 L 147.5 172.5 C 155.769531 172.5 162.5 179.226562 162.5 187.5 Z M 167.5 187.5 C 167.5 176.472656 158.523438 167.5 147.5 167.5 C 136.472656 167.5 127.5 176.472656 127.5 187.5 C 127.5 198.523438 136.472656 207.5 147.5 207.5 C 158.523438 207.5 167.5 198.523438 167.5 187.5 " fill-opacity="1" fill-rule="nonzero"/><path fill="#040606" d="M 202.5 187.5 L 202.5 177.5 L 247.5 177.5 L 247.507812 187.5 Z M 247.5 172.5 L 202.5 172.5 C 199.746094 172.5 197.5 174.746094 197.5 177.5 L 197.5 187.5 C 197.5 190.253906 199.746094 192.5 202.5 192.5 L 247.5 192.5 C 250.253906 192.5 252.5 190.253906 252.5 187.5 L 252.5 177.5 C 252.5 174.746094 250.253906 172.5 247.5 172.5 " fill-opacity="1" fill-rule="nonzero"/><path fill="#040606" d="M 177.5 127.5 L 180 127.5 C 181.375 127.5 182.5 126.375 182.5 125 C 182.5 123.621094 181.375 122.5 180 122.5 L 177.5 122.5 C 176.121094 122.5 175 123.621094 175 125 C 175 126.375 176.121094 127.5 177.5 127.5 " fill-opacity="1" fill-rule="nonzero"/><path fill="#040606" d="M 190 127.5 L 197.5 127.5 C 198.875 127.5 200 126.375 200 125 C 200 123.621094 198.875 122.5 197.5 122.5 L 190 122.5 C 188.621094 122.5 187.5 123.621094 187.5 125 C 187.5 126.375 188.621094 127.5 190 127.5 " fill-opacity="1" fill-rule="nonzero"/><path fill="#040606" d="M 192.5 247.5 L 182.5 247.5 C 181.121094 247.5 180 248.621094 180 250 C 180 251.375 181.121094 252.5 182.5 252.5 L 192.5 252.5 C 193.875 252.5 195 251.375 195 250 C 195 248.621094 193.875 247.5 192.5 247.5 " fill-opacity="1" fill-rule="nonzero"/><path fill="#040606" d="M 202.5 152.5 L 200 152.5 C 198.621094 152.5 197.5 153.621094 197.5 155 C 197.5 156.375 198.621094 157.5 200 157.5 L 202.5 157.5 C 203.875 157.5 205 156.375 205 155 C 205 153.621094 203.875 152.5 202.5 152.5 " fill-opacity="1" fill-rule="nonzero"/><path fill="#040606" d="M 215 152.5 L 212.5 152.5 C 211.121094 152.5 210 153.621094 210 155 C 210 156.375 211.121094 157.5 212.5 157.5 L 215 157.5 C 216.375 157.5 217.5 156.375 217.5 155 C 217.5 153.621094 216.375 152.5 215 152.5 " fill-opacity="1" fill-rule="nonzero"/><path fill="#040606" d="M 237.5 157.5 L 250 157.5 C 251.375 157.5 252.5 156.375 252.5 155 C 252.5 153.621094 251.375 152.5 250 152.5 L 237.5 152.5 C 236.121094 152.5 235 153.621094 235 155 C 235 156.375 236.121094 157.5 237.5 157.5 " fill-opacity="1" fill-rule="nonzero"/><path fill="#040606" d="M 227.5 197.5 L 205 197.5 C 203.621094 197.5 202.5 198.621094 202.5 200 C 202.5 201.375 203.621094 202.5 205 202.5 L 227.5 202.5 C 228.875 202.5 230 201.375 230 200 C 230 198.621094 228.875 197.5 227.5 197.5 " fill-opacity="1" fill-rule="nonzero"/><path fill="#040606" d="M 222.5 207.5 L 205 207.5 C 203.621094 207.5 202.5 208.621094 202.5 210 C 202.5 211.375 203.621094 212.5 205 212.5 L 222.5 212.5 C 223.875 212.5 225 211.375 225 210 C 225 208.621094 223.875 207.5 222.5 207.5 " fill-opacity="1" fill-rule="nonzero"/><path fill="#040606" d="M 245 197.5 L 237.5 197.5 C 236.121094 197.5 235 198.621094 235 200 C 235 201.375 236.121094 202.5 237.5 202.5 L 245 202.5 C 246.375 202.5 247.5 201.375 247.5 200 C 247.5 198.621094 246.375 197.5 245 197.5 " fill-opacity="1" fill-rule="nonzero"/><path fill="#040606" d="M 240 207.5 L 232.5 207.5 C 231.121094 207.5 230 208.621094 230 210 C 230 211.375 231.121094 212.5 232.5 212.5 L 240 212.5 C 241.375 212.5 242.5 211.375 242.5 210 C 242.5 208.621094 241.375 207.5 240 207.5 " fill-opacity="1" fill-rule="nonzero"/></svg>