<svg xmlns="http://www.w3.org/2000/svg" xmlns:xlink="http://www.w3.org/1999/xlink" width="500" zoomAndPan="magnify" viewBox="0 0 375 374.999991" height="500" preserveAspectRatio="xMidYMid meet" version="1.0"><defs><clipPath id="ec153c48ed"><path d="M 197.050781 157.488281 L 201.3125 157.488281 L 201.3125 161.171875 L 197.050781 161.171875 Z M 197.050781 157.488281 " clip-rule="nonzero"/></clipPath><clipPath id="0d5ef1c77f"><path d="M 201.300781 158.773438 C 199.425781 161.851562 197.625 161.25 197.25 160.648438 C 196.875 159.976562 197.175781 158.175781 197.773438 157.726562 C 198.375 157.199219 200.773438 157.875 200.773438 157.875 " clip-rule="nonzero"/></clipPath><clipPath id="8b8d593b3c"><path d="M 126.375 123.523438 L 264.375 123.523438 L 264.375 273.523438 L 126.375 273.523438 Z M 126.375 123.523438 " clip-rule="nonzero"/></clipPath></defs><g clip-path="url(#ec153c48ed)"><g clip-path="url(#0d5ef1c77f)"><path fill="#ffffff" d="M 194.25 154.726562 L 204.382812 154.726562 L 204.382812 164.550781 L 194.25 164.550781 Z M 194.25 154.726562 " fill-opacity="1" fill-rule="nonzero"/></g></g><g clip-path="url(#8b8d593b3c)"><path fill="#000000" d="M 255.046875 150.46875 L 240.34375 150.46875 L 240.34375 132.503906 C 240.34375 127.550781 236.308594 123.523438 231.351562 123.523438 L 159.398438 123.523438 C 154.441406 123.523438 150.40625 127.550781 150.40625 132.503906 L 150.40625 150.46875 L 135.703125 150.46875 C 130.585938 150.46875 126.421875 154.496094 126.421875 159.449219 L 126.421875 171.425781 C 126.421875 173.078125 127.765625 174.417969 129.421875 174.417969 C 131.074219 174.417969 132.417969 173.078125 132.417969 171.425781 L 132.417969 159.449219 C 132.417969 157.800781 133.890625 156.457031 135.703125 156.457031 L 150.40625 156.457031 L 150.40625 168.433594 C 150.40625 173.382812 154.441406 177.414062 159.398438 177.414062 L 165.394531 177.414062 C 167.050781 177.414062 168.394531 176.074219 168.394531 174.417969 C 168.394531 172.765625 167.050781 171.425781 165.394531 171.425781 L 159.398438 171.425781 C 157.746094 171.425781 156.402344 170.082031 156.402344 168.433594 L 156.402344 132.503906 C 156.402344 130.855469 157.746094 129.511719 159.398438 129.511719 L 231.351562 129.511719 C 233.003906 129.511719 234.347656 130.855469 234.347656 132.503906 L 234.347656 168.433594 C 234.347656 170.082031 233.003906 171.425781 231.351562 171.425781 L 177.386719 171.425781 C 175.730469 171.425781 174.390625 172.765625 174.390625 174.417969 C 174.390625 176.074219 175.730469 177.414062 177.386719 177.414062 L 231.351562 177.414062 C 236.308594 177.414062 240.34375 173.382812 240.34375 168.433594 L 240.34375 156.457031 L 255.046875 156.457031 C 256.859375 156.457031 258.332031 157.800781 258.332031 159.449219 L 258.332031 228.308594 L 132.417969 228.308594 L 132.417969 183.402344 C 132.417969 181.746094 131.074219 180.40625 129.421875 180.40625 C 127.765625 180.40625 126.421875 181.746094 126.421875 183.402344 L 126.421875 237.289062 C 126.421875 242.242188 130.585938 246.273438 135.703125 246.273438 L 183.125 246.273438 C 182.507812 250.125 180.71875 253.679688 177.90625 256.492188 L 174.835938 259.554688 C 169.390625 261.105469 164.394531 264 160.277344 268.105469 C 159.105469 269.277344 159.105469 271.171875 160.277344 272.339844 C 161.449219 273.507812 163.347656 273.507812 164.515625 272.339844 C 169.75 267.113281 176.710938 264.234375 184.109375 264.234375 L 206.640625 264.234375 C 214.042969 264.234375 220.996094 267.113281 226.234375 272.339844 C 227.347656 273.453125 229.289062 273.523438 230.472656 272.339844 C 231.644531 271.171875 231.644531 269.277344 230.472656 268.105469 C 226.359375 264 221.359375 261.105469 215.914062 259.554688 L 212.84375 256.492188 C 210.027344 253.679688 208.242188 250.125 207.625 246.273438 L 255.046875 246.273438 C 260.164062 246.273438 264.328125 242.242188 264.328125 237.289062 L 264.328125 159.449219 C 264.328125 154.496094 260.164062 150.46875 255.046875 150.46875 Z M 184.285156 258.246094 C 186.96875 254.753906 188.652344 250.652344 189.179688 246.273438 L 201.570312 246.273438 C 202.097656 250.652344 203.78125 254.753906 206.464844 258.246094 Z M 258.332031 237.289062 C 258.332031 238.941406 256.859375 240.285156 255.046875 240.285156 L 135.703125 240.285156 C 133.921875 240.285156 132.417969 238.914062 132.417969 237.289062 L 132.417969 234.296875 L 258.332031 234.296875 Z M 258.332031 237.289062 " fill-opacity="1" fill-rule="nonzero"/></g><path fill="#000000" d="M 180.386719 144.480469 C 180.386719 139.527344 176.351562 135.5 171.390625 135.5 L 165.394531 135.5 C 163.738281 135.5 162.398438 136.839844 162.398438 138.492188 L 162.398438 162.445312 C 162.398438 164.097656 163.738281 165.4375 165.394531 165.4375 C 167.050781 165.4375 168.394531 164.097656 168.394531 162.445312 L 168.394531 153.460938 L 171.390625 153.460938 C 176.351562 153.460938 180.386719 149.433594 180.386719 144.480469 Z M 168.394531 141.488281 L 171.390625 141.488281 C 173.042969 141.488281 174.390625 142.832031 174.390625 144.480469 C 174.390625 146.132812 173.042969 147.476562 171.390625 147.476562 L 168.394531 147.476562 Z M 168.394531 141.488281 " fill-opacity="1" fill-rule="nonzero"/><path fill="#000000" d="M 192.378906 162.445312 L 192.378906 153.460938 L 195.375 153.460938 C 200.335938 153.460938 204.367188 149.433594 204.367188 144.480469 C 204.367188 139.527344 200.335938 135.5 195.375 135.5 L 189.378906 135.5 C 187.722656 135.5 186.382812 136.839844 186.382812 138.492188 L 186.382812 162.445312 C 186.382812 164.097656 187.722656 165.4375 189.378906 165.4375 C 191.035156 165.4375 192.378906 164.097656 192.378906 162.445312 Z M 192.378906 141.488281 L 195.375 141.488281 C 197.027344 141.488281 198.371094 142.832031 198.371094 144.480469 C 198.371094 146.132812 197.027344 147.476562 195.375 147.476562 L 192.378906 147.476562 Z M 192.378906 141.488281 " fill-opacity="1" fill-rule="nonzero"/><path fill="#000000" d="M 219.359375 141.488281 L 225.355469 141.488281 C 227.011719 141.488281 228.351562 140.148438 228.351562 138.492188 C 228.351562 136.839844 227.011719 135.5 225.355469 135.5 L 219.359375 135.5 C 214.398438 135.5 210.363281 139.527344 210.363281 144.480469 L 210.363281 156.457031 C 210.363281 161.410156 214.398438 165.4375 219.359375 165.4375 L 225.355469 165.4375 C 227.011719 165.4375 228.351562 164.097656 228.351562 162.445312 C 228.351562 160.789062 227.011719 159.449219 225.355469 159.449219 L 219.359375 159.449219 C 217.703125 159.449219 216.359375 158.105469 216.359375 156.457031 L 216.359375 144.480469 C 216.359375 142.832031 217.703125 141.488281 219.359375 141.488281 Z M 219.359375 141.488281 " fill-opacity="1" fill-rule="nonzero"/><path fill="#000000" d="M 246.324219 187.667969 C 245.863281 186.546875 244.769531 185.820312 243.554688 185.820312 L 222.355469 185.820312 C 220.699219 185.820312 219.359375 187.160156 219.359375 188.8125 L 219.359375 209.984375 C 219.359375 211.195312 220.085938 212.289062 221.207031 212.75 C 222.332031 213.21875 223.617188 212.960938 224.476562 212.101562 L 228.714844 207.867188 L 239.316406 218.449219 C 239.902344 219.035156 240.667969 219.328125 241.4375 219.328125 C 242.203125 219.328125 242.96875 219.035156 243.554688 218.449219 L 252.035156 209.984375 C 253.207031 208.8125 253.207031 206.917969 252.035156 205.75 L 241.4375 195.164062 L 245.675781 190.929688 C 246.535156 190.074219 246.789062 188.785156 246.324219 187.667969 Z M 245.675781 207.867188 L 241.4375 212.101562 L 230.835938 201.515625 C 230.25 200.933594 229.484375 200.640625 228.714844 200.640625 C 227.949219 200.640625 227.179688 200.933594 226.597656 201.515625 L 225.355469 202.757812 L 225.355469 191.808594 L 236.320312 191.808594 L 235.078125 193.046875 C 233.90625 194.214844 233.90625 196.109375 235.078125 197.28125 Z M 245.675781 207.867188 " fill-opacity="1" fill-rule="nonzero"/><path fill="#000000" d="M 159.398438 204.359375 L 147.40625 204.359375 C 145.757812 204.359375 144.410156 205.707031 144.410156 207.351562 L 144.410156 216.332031 L 141.410156 216.332031 C 139.761719 216.332031 138.414062 217.679688 138.414062 219.328125 C 138.414062 220.972656 139.761719 222.320312 141.410156 222.320312 L 213.363281 222.320312 C 215.011719 222.320312 216.359375 220.972656 216.359375 219.328125 C 216.359375 217.679688 215.011719 216.332031 213.363281 216.332031 L 210.363281 216.332031 L 210.363281 186.394531 C 210.363281 184.75 209.015625 183.402344 207.367188 183.402344 L 195.375 183.402344 C 193.726562 183.402344 192.378906 184.75 192.378906 186.394531 L 192.378906 216.332031 L 186.382812 216.332031 L 186.382812 195.375 C 186.382812 193.730469 185.03125 192.382812 183.382812 192.382812 L 171.390625 192.382812 C 169.742188 192.382812 168.394531 193.730469 168.394531 195.375 L 168.394531 216.332031 L 162.398438 216.332031 L 162.398438 207.351562 C 162.398438 205.707031 161.046875 204.359375 159.398438 204.359375 Z M 156.402344 216.332031 L 150.40625 216.332031 L 150.40625 210.347656 L 156.402344 210.347656 Z M 198.371094 189.390625 L 204.367188 189.390625 L 204.367188 216.332031 L 198.371094 216.332031 Z M 174.390625 198.371094 L 180.386719 198.371094 L 180.386719 216.332031 L 174.390625 216.332031 Z M 174.390625 198.371094 " fill-opacity="1" fill-rule="nonzero"/></svg>