<?xml version="1.0" encoding="UTF-8"?>
<svg version="1.1" xmlns="http://www.w3.org/2000/svg" width="214" height="79">
<path d="M0 0 C70.62 0 141.24 0 214 0 C214 26.07 214 52.14 214 79 C143.38 79 72.76 79 0 79 C0 52.93 0 26.86 0 0 Z " fill="#1E1C17" transform="translate(0,0)"/>
<path d="M0 0 C70.62 0 141.24 0 214 0 C214 26.07 214 52.14 214 79 C143.38 79 72.76 79 0 79 C0 52.93 0 26.86 0 0 Z M18 6 C18 27.45 18 48.9 18 71 C77.07 71 136.14 71 197 71 C197 49.55 197 28.1 197 6 C137.93 6 78.86 6 18 6 Z " fill="#FFFFFF" transform="translate(0,0)"/>
<path d="M0 0 C2.12817383 1.00976562 2.12817383 1.00976562 4.20703125 2.40625 C4.95791016 2.90253906 5.70878906 3.39882813 6.48242188 3.91015625 C7.25134766 4.43480469 8.02027344 4.95945312 8.8125 5.5 C9.60076172 6.02464844 10.38902344 6.54929687 11.20117188 7.08984375 C13.14118305 8.38318453 15.07349525 9.68666167 17 11 C16.34 12.32 15.68 13.64 15 15 C16.32 15 17.64 15 19 15 C19.40234375 17.734375 19.40234375 17.734375 19 21 C16.80698992 22.76904847 15.01231596 23.96737384 12.5625 25.25 C8.08642546 27.38988131 8.08642546 27.38988131 5 31 C5.83144531 30.4946875 6.66289063 29.989375 7.51953125 29.46875 C8.60621094 28.8190625 9.69289062 28.169375 10.8125 27.5 C11.89144531 26.8503125 12.97039063 26.200625 14.08203125 25.53125 C17 24 17 24 20 24 C20.96145773 28.94260491 21.26085748 33.09384086 20 38 C16.09224314 42.58852628 10.33620072 45.38296694 5 48 C4.37883301 48.3192041 3.75766602 48.6384082 3.11767578 48.96728516 C0.55643258 50.1968763 -1.56410276 51 -4.421875 51 C-8.33797134 49.4810293 -11.7332654 47.2770224 -15.25 45 C-15.9821875 44.5359375 -16.714375 44.071875 -17.46875 43.59375 C-22.8067602 40.1932398 -22.8067602 40.1932398 -24 39 C-24.04063832 37.33382885 -24.042721 35.66611905 -24 34 C-20.2397015 34.58107632 -17.46964968 35.65199496 -14.1875 37.5625 C-13.39730469 38.01753906 -12.60710938 38.47257812 -11.79296875 38.94140625 C-11.20128906 39.29074219 -10.60960937 39.64007813 -10 40 C-12.28474831 37.55414765 -14.71370338 35.72324343 -17.5 33.875 C-18.2734375 33.35679688 -19.046875 32.83859375 -19.84375 32.3046875 C-22.05244085 30.85998542 -22.05244085 30.85998542 -25 30 C-25 24.72 -25 19.44 -25 14 C-24.01 14 -23.02 14 -22 14 C-22 12.68 -22 11.36 -22 10 C-20.51879883 8.62792969 -20.51879883 8.62792969 -18.45703125 7.421875 C-17.71259766 6.98359375 -16.96816406 6.5453125 -16.20117188 6.09375 C-15.41291016 5.6503125 -14.62464844 5.206875 -13.8125 4.75 C-13.04357422 4.29109375 -12.27464844 3.8321875 -11.48242188 3.359375 C-4.74308169 -0.52803839 -4.74308169 -0.52803839 0 0 Z " fill="#2D2C26" transform="translate(50,17)"/>
<path d="M0 0 C0.99 0 1.98 0 3 0 C3 0.66 3 1.32 3 2 C4.02673828 2.37898438 4.02673828 2.37898438 5.07421875 2.765625 C8.46756495 4.19726372 11.63826341 5.89570794 14.8125 7.75 C15.40998047 8.07226562 16.00746094 8.39453125 16.62304688 8.7265625 C18.33203125 9.734375 18.33203125 9.734375 21 12 C21.38671875 15.265625 21.38671875 15.265625 21 18 C17.30123909 16.62712658 14.0485524 14.93644547 10.6875 12.875 C9.80449219 12.33617187 8.92148437 11.79734375 8.01171875 11.2421875 C7.34785156 10.83226562 6.68398438 10.42234375 6 10 C8.97008376 13.30245027 11.77584708 14.90427578 15.75 16.8125 C18.69140625 18.5859375 18.69140625 18.5859375 21 21 C21.97331168 26.15908379 21.66021848 30.81828524 21 36 C18.10466777 35.39070822 15.88758993 34.50343224 13.36328125 32.96875 C12.70392578 32.57042969 12.04457031 32.17210937 11.36523438 31.76171875 C10.34913086 31.13716797 10.34913086 31.13716797 9.3125 30.5 C8.62349609 30.08363281 7.93449219 29.66726562 7.22460938 29.23828125 C2.16171288 26.16171288 2.16171288 26.16171288 1 25 C0.95936168 23.33382885 0.957279 21.66611905 1 20 C4.7602985 20.58107632 7.53035032 21.65199496 10.8125 23.5625 C11.60269531 24.01753906 12.39289062 24.47257812 13.20703125 24.94140625 C13.79871094 25.29074219 14.39039063 25.64007813 15 26 C12.71525169 23.55414765 10.28629662 21.72324343 7.5 19.875 C6.7265625 19.35679688 5.953125 18.83859375 5.15625 18.3046875 C2.94755915 16.85998542 2.94755915 16.85998542 0 16 C0 10.72 0 5.44 0 0 Z " fill="#BCBCB8" transform="translate(25,31)"/>
<path d="M0 0 C0.40234375 2.734375 0.40234375 2.734375 0 6 C-2.19301008 7.76904847 -3.98768404 8.96737384 -6.4375 10.25 C-10.91357454 12.38988131 -10.91357454 12.38988131 -14 16 C-13.16855469 15.4946875 -12.33710937 14.989375 -11.48046875 14.46875 C-10.39378906 13.8190625 -9.30710937 13.169375 -8.1875 12.5 C-7.10855469 11.8503125 -6.02960937 11.200625 -4.91796875 10.53125 C-2 9 -2 9 1 9 C1.96171971 13.9439517 2.26961417 18.09421083 1 23 C-3.96865552 28.75666685 -11.97146825 32.43424472 -19 35 C-19.3671875 32.2734375 -19.3671875 32.2734375 -19 29 C-16.4453125 26.6640625 -16.4453125 26.6640625 -13.125 24.625 C-12.03445312 23.93664062 -10.94390625 23.24828125 -9.8203125 22.5390625 C-7 21 -7 21 -5 21 C-5 20.01 -5 19.02 -5 18 C-5.84304687 18.5775 -6.68609375 19.155 -7.5546875 19.75 C-8.66129435 20.50024193 -9.76807419 21.25022874 -10.875 22 C-11.96554688 22.7425 -13.05609375 23.485 -14.1796875 24.25 C-17 26 -17 26 -19 26 C-19.94965418 20.68457454 -20.89183384 15.19292881 -19 10 C-14.65284323 5.03221931 -6.70181879 0 0 0 Z " fill="#BFBEBB" transform="translate(69,32)"/>
<path d="M0 0 C2.12817383 1.00976562 2.12817383 1.00976562 4.20703125 2.40625 C4.95791016 2.90253906 5.70878906 3.39882813 6.48242188 3.91015625 C7.25134766 4.43480469 8.02027344 4.95945312 8.8125 5.5 C9.60076172 6.02464844 10.38902344 6.54929687 11.20117188 7.08984375 C13.14118305 8.38318453 15.07349525 9.68666167 17 11 C16.34 11.99 15.68 12.98 15 14 C9.524568 13.315571 6.09662763 10.46736409 1.71875 7.30078125 C-0.89728709 5.69988351 -0.89728709 5.69988351 -3.5 6.58984375 C-7.13776658 8.64177146 -10.71952104 10.77206626 -14.28125 12.953125 C-17 14 -17 14 -19.84375 13.171875 C-20.5553125 12.78515625 -21.266875 12.3984375 -22 12 C-22 11.34 -22 10.68 -22 10 C-19.44989269 8.0286792 -16.59345975 6.49855295 -13.8125 4.875 C-13.04357422 4.40707031 -12.27464844 3.93914063 -11.48242188 3.45703125 C-10.73154297 3.01488281 -9.98066406 2.57273437 -9.20703125 2.1171875 C-8.5210083 1.71097168 -7.83498535 1.30475586 -7.12817383 0.88623047 C-4.52538917 -0.19764108 -2.79890434 -0.31651672 0 0 Z " fill="#B9B9B5" transform="translate(50,17)"/>
<path d="M0 0 C2.47949219 1.18334961 2.47949219 1.18334961 5.046875 2.65234375 C5.97371094 3.18150391 6.90054688 3.71066406 7.85546875 4.25585938 C8.81066406 4.81080078 9.76585937 5.36574219 10.75 5.9375 C12.20599609 6.76411133 12.20599609 6.76411133 13.69140625 7.60742188 C20.86921254 11.73842507 20.86921254 11.73842507 22 14 C15.3333658 13.5147703 10.70969906 9.97907337 5.27734375 6.41796875 C0.94646668 3.70601408 0.94646668 3.70601408 -4.015625 2.91015625 C-8.03630939 4.37844283 -11.58347079 6.36996925 -15.25 8.5625 C-22.76479514 13 -22.76479514 13 -25 13 C-25 13.66 -25 14.32 -25 15 C-26.32 14.67 -27.64 14.34 -29 14 C-27.0256223 11.88459533 -25.46400815 10.21211801 -22.8125 9 C-20.78597843 8.14390805 -20.78597843 8.14390805 -20.25 5.875 C-20.1675 5.25625 -20.085 4.6375 -20 4 C-17.23735711 3.40267181 -14.83967231 3 -12 3 C-10.28746731 1.95345225 -8.57518005 0.90371798 -6.9140625 -0.22265625 C-4.25200585 -1.30377722 -2.76114435 -0.73167075 0 0 Z " fill="#ABABA5" transform="translate(51,12)"/>
<path d="M0 0 C6.93 0.495 6.93 0.495 14 1 C12.68 1.33 11.36 1.66 10 2 C10.680625 2.5775 11.36125 3.155 12.0625 3.75 C13.0215625 4.86375 13.0215625 4.86375 14 6 C13.67 7.32 13.34 8.64 13 10 C8.71 10 4.42 10 0 10 C0 6.7 0 3.4 0 0 Z " fill="#2E2D27" transform="translate(176,30)"/>
<path d="M0 0 C3.63 0 7.26 0 11 0 C11.33 1.65 11.66 3.3 12 5 C10.7934375 4.9690625 10.7934375 4.9690625 9.5625 4.9375 C7.06645115 4.70366379 7.06645115 4.70366379 6 6 C7.65 6 9.3 6 11 6 C11.33 7.65 11.66 9.3 12 11 C8.04 11 4.08 11 0 11 C0 7.33333333 0 3.66666667 0 0 Z " fill="#3C3C39" transform="translate(42,27)"/>
<path d="M0 0 C2.03637695 0.93969727 2.03637695 0.93969727 3.98828125 2.06640625 C4.69404297 2.46923828 5.39980469 2.87207031 6.12695312 3.28710938 C6.84818359 3.70798828 7.56941406 4.12886719 8.3125 4.5625 C9.05306641 4.98724609 9.79363281 5.41199219 10.55664062 5.84960938 C12.37468118 6.89351653 14.18783748 7.94592192 16 9 C15.67 9.99 15.34 10.98 15 12 C10.02647296 10.21601747 6.04792957 7.44028861 1.71875 4.4609375 C-1.36902309 2.80170311 -2.56608948 2.35900337 -6 3 C-8.69073555 4.3062907 -11.17722316 5.87842447 -13.6875 7.5 C-20.77533784 12 -20.77533784 12 -23 12 C-23.33 12.66 -23.66 13.32 -24 14 C-24.33 12.68 -24.66 11.36 -25 10 C-21.78400516 8.12225235 -18.55040512 6.27716789 -15.3125 4.4375 C-14.40048828 3.90447266 -13.48847656 3.37144531 -12.54882812 2.82226562 C-11.66259766 2.32275391 -10.77636719 1.82324219 -9.86328125 1.30859375 C-9.05157471 0.84251709 -8.23986816 0.37644043 -7.40356445 -0.10375977 C-4.43606105 -1.21028135 -2.99377298 -0.94691222 0 0 Z " fill="#31312C" transform="translate(51,15)"/>
<path d="M0 0 C3.96 0 7.92 0 12 0 C12 3.3 12 6.6 12 10 C10.68 10 9.36 10 8 10 C8 7.69 8 5.38 8 3 C7.34 3 6.68 3 6 3 C6 5.31 6 7.62 6 10 C4.68 10 3.36 10 2 10 C2 7.69 2 5.38 2 3 C1.34 3 0.68 3 0 3 C0 2.01 0 1.02 0 0 Z " fill="#63615C" transform="translate(125,44)"/>
<path d="M0 0 C3.94120709 0.56302958 6.7508723 1.6791945 10 4 C10 4.66 10 5.32 10 6 C3.375 10 3.375 10 0 10 C-0.3403125 9.0409375 -0.3403125 9.0409375 -0.6875 8.0625 C-1.85250896 5.72806339 -1.85250896 5.72806339 -4.625 5.25 C-5.40875 5.1675 -6.1925 5.085 -7 5 C-6.67 4.34 -6.34 3.68 -6 3 C-4.35 3 -2.7 3 -1 3 C-0.67 2.01 -0.34 1.02 0 0 Z " fill="#181712" transform="translate(55,28)"/>
<path d="M0 0 C2.375 0.75 2.375 0.75 3.375 1.75 C3.5625 4.6875 3.5625 4.6875 3.375 7.75 C1.375 9.75 1.375 9.75 -1.125 10 C-3.625 9.75 -3.625 9.75 -5.625 7.75 C-5.99296448 4.87987704 -6.00009409 3.34225382 -4.4375 0.875 C-2.625 -0.25 -2.625 -0.25 0 0 Z " fill="#999993" transform="translate(158.625,30.25)"/>
<path d="M0 0 C2.875 -0.125 2.875 -0.125 6 0 C8 2 8 2 8.25 5 C8 8 8 8 6 10 C2.875 10.125 2.875 10.125 0 10 C0 6.7 0 3.4 0 0 Z " fill="#878580" transform="translate(108,30)"/>
<path d="M0 0 C1.32 0.33 2.64 0.66 4 1 C3.67 2.65 3.34 4.3 3 6 C4.32 5.67 5.64 5.34 7 5 C7 6.65 7 8.3 7 10 C4.36 10 1.72 10 -1 10 C-2.46726798 6.18510326 -1.43336419 3.70988378 0 0 Z " fill="#94948F" transform="translate(124,30)"/>
<path d="M0 0 C0.66 0 1.32 0 2 0 C2 3.3 2 6.6 2 10 C0.35 9.67 -1.3 9.34 -3 9 C-3.33 8.01 -3.66 7.02 -4 6 C-4.33 7.32 -4.66 8.64 -5 10 C-5.66 10 -6.32 10 -7 10 C-7 7.03 -7 4.06 -7 1 C-5.68 1.33 -4.36 1.66 -3 2 C-2.67 3.32 -2.34 4.64 -2 6 C-1.34 6 -0.68 6 0 6 C0 4.02 0 2.04 0 0 Z " fill="#979791" transform="translate(172,30)"/>
<path d="M0 0 C1.32 0 2.64 0 4 0 C4.66 1.98 5.32 3.96 6 6 C6.66 6 7.32 6 8 6 C8 4.02 8 2.04 8 0 C8.33 0 8.66 0 9 0 C9 2.97 9 5.94 9 9 C7.68 8.67 6.36 8.34 5 8 C4.67 7.34 4.34 6.68 4 6 C3.67 7.32 3.34 8.64 3 10 C2.01 10 1.02 10 0 10 C0 6.7 0 3.4 0 0 Z " fill="#999893" transform="translate(150,44)"/>
<path d="M0 0 C1.65 0.33 3.3 0.66 5 1 C5.66 3.97 6.32 6.94 7 10 C6.01 10 5.02 10 4 10 C4 9.34 4 8.68 4 8 C2.68 8 1.36 8 0 8 C0 8.66 0 9.32 0 10 C-0.66 10 -1.32 10 -2 10 C-1.34 6.7 -0.68 3.4 0 0 Z " fill="#ACACA7" transform="translate(88,30)"/>
<path d="M0 0 C1.32 0 2.64 0 4 0 C4.33 1.65 4.66 3.3 5 5 C5.66 5 6.32 5 7 5 C7 3.35 7 1.7 7 0 C7.66 0 8.32 0 9 0 C9 2.97 9 5.94 9 9 C5 8 5 8 3 5 C2.67 6.32 2.34 7.64 2 9 C1.34 9 0.68 9 0 9 C0 6.03 0 3.06 0 0 Z " fill="#A6A49F" transform="translate(97,31)"/>
<path d="M0 0 C1.98 0 3.96 0 6 0 C6 1.98 6 3.96 6 6 C5.01 6 4.02 6 3 6 C3 6.66 3 7.32 3 8 C3.99 8 4.98 8 6 8 C6 8.66 6 9.32 6 10 C4.02 10 2.04 10 0 10 C0 6.7 0 3.4 0 0 Z " fill="#92918C" transform="translate(176,30)"/>
<path d="M0 0 C2.5 0.25 2.5 0.25 4.5 2.25 C4.625 5.375 4.625 5.375 4.5 8.25 C3.84 8.25 3.18 8.25 2.5 8.25 C2.17 6.6 1.84 4.95 1.5 3.25 C0.51 2.92 -0.48 2.59 -1.5 2.25 C-1.5 4.23 -1.5 6.21 -1.5 8.25 C-0.51 8.58 0.48 8.91 1.5 9.25 C-3.375 8.375 -3.375 8.375 -4.5 7.25 C-4.6875 4.8125 -4.6875 4.8125 -4.5 2.25 C-2.5 0.25 -2.5 0.25 0 0 Z " fill="#A8A8A2" transform="translate(143.5,43.75)"/>
<path d="M0 0 C0.66 0 1.32 0 2 0 C2 2.64 2 5.28 2 8 C2.99 8 3.98 8 5 8 C5 5.36 5 2.72 5 0 C5.99 0 6.98 0 8 0 C8 2.64 8 5.28 8 8 C5.6739143 8.38063221 3.33944736 8.71269945 1 9 C0 8 0 8 -0.09765625 6.15234375 C-0.06510417 4.1015625 -0.03255208 2.05078125 0 0 Z " fill="#989792" transform="translate(116,44)"/>
<path d="M0 0 C3.16417672 1.53773074 6.2132349 3.22411398 9.25 5 C10.14203125 5.515625 11.0340625 6.03125 11.953125 6.5625 C12.96632813 7.2740625 12.96632813 7.2740625 14 8 C14 8.66 14 9.32 14 10 C9.0276578 8.50829734 4.58154261 6.39542583 0 4 C0 5.65 0 7.3 0 9 C-0.33 9 -0.66 9 -1 9 C-1 7.02 -1 5.04 -1 3 C-0.34 3 0.32 3 1 3 C0.67 2.01 0.34 1.02 0 0 Z " fill="#5E5D58" transform="translate(26,47)"/>
<path d="M0 0 C1.65 0 3.3 0 5 0 C5 0.66 5 1.32 5 2 C4.01 2.33 3.02 2.66 2 3 C2.99 3.66 3.98 4.32 5 5 C5.1875 7.625 5.1875 7.625 5 10 C3.02 10 1.04 10 -1 10 C-1 9.34 -1 8.68 -1 8 C0.32 8 1.64 8 3 8 C3 7.34 3 6.68 3 6 C1.68 5.67 0.36 5.34 -1 5 C-0.67 3.35 -0.34 1.7 0 0 Z " fill="#9C9B95" transform="translate(163,44)"/>
<path d="M0 0 C2.93788301 1.43478007 5.21136643 3.19009979 7.6875 5.3125 C7.0275 5.3125 6.3675 5.3125 5.6875 5.3125 C5.3575 6.3025 5.0275 7.2925 4.6875 8.3125 C4.3575 7.3225 4.0275 6.3325 3.6875 5.3125 C1.58165562 4.50686362 1.58165562 4.50686362 -0.875 4.125 C-1.70128906 3.96644531 -2.52757812 3.80789062 -3.37890625 3.64453125 C-4.01699219 3.53496094 -4.65507813 3.42539062 -5.3125 3.3125 C-4.9825 2.3225 -4.6525 1.3325 -4.3125 0.3125 C-2.3125 -0.6875 -2.3125 -0.6875 0 0 Z " fill="#2D2D27" transform="translate(49.3125,22.6875)"/>
<path d="M0 0 C2.4375 0.1875 2.4375 0.1875 3.4375 1.1875 C3.47830783 3.18708364 3.48004356 5.18795254 3.4375 7.1875 C3.169375 6.548125 2.90125 5.90875 2.625 5.25 C1.55082248 2.85618314 1.55082248 2.85618314 -1.5625 2.1875 C-1.5625 4.1675 -1.5625 6.1475 -1.5625 8.1875 C-0.5725 8.5175 0.4175 8.8475 1.4375 9.1875 C-3.4375 8.3125 -3.4375 8.3125 -4.5625 7.1875 C-4.75 4.75 -4.75 4.75 -4.5625 2.1875 C-2.5625 0.1875 -2.5625 0.1875 0 0 Z " fill="#A6A7A1" transform="translate(100.5625,43.8125)"/>
<path d="M0 0 C1.32 0 2.64 0 4 0 C4 0.66 4 1.32 4 2 C3.01 2 2.02 2 1 2 C1.515625 2.391875 2.03125 2.78375 2.5625 3.1875 C3.036875 3.785625 3.51125 4.38375 4 5 C3.6875 7.6875 3.6875 7.6875 3 10 C1.35 10 -0.3 10 -2 10 C-2 9.34 -2 8.68 -2 8 C-0.68 8 0.64 8 2 8 C2 7.34 2 6.68 2 6 C0.68 5.67 -0.64 5.34 -2 5 C-1.125 1.125 -1.125 1.125 0 0 Z " fill="#989792" transform="translate(80,30)"/>
<path d="M0 0 C0.928125 0.2784375 0.928125 0.2784375 1.875 0.5625 C4.04160178 1.23686176 4.04160178 1.23686176 6 0 C6.125 2.875 6.125 2.875 6 6 C4 8 4 8 1.375 8.125 C0.59125 8.08375 -0.1925 8.0425 -1 8 C-0.67 7.34 -0.34 6.68 0 6 C0.039992 4.00039988 0.04346799 1.99952758 0 0 Z " fill="#575852" transform="translate(99,46)"/>
<path d="M0 0 C1.65 0 3.3 0 5 0 C5 0.66 5 1.32 5 2 C3.68 2 2.36 2 1 2 C1.680625 2.5775 2.36125 3.155 3.0625 3.75 C3.701875 4.4925 4.34125 5.235 5 6 C4.75 8.25 4.75 8.25 4 10 C2.35 10 0.7 10 -1 10 C-1 9.34 -1 8.68 -1 8 C0.32 8 1.64 8 3 8 C3 7.34 3 6.68 3 6 C1.68 5.67 0.36 5.34 -1 5 C-0.67 3.35 -0.34 1.7 0 0 Z " fill="#969590" transform="translate(138,30)"/>
<path d="M0 0 C1.65 0 3.3 0 5 0 C5 0.66 5 1.32 5 2 C3.68 2 2.36 2 1 2 C1 2.66 1 3.32 1 4 C2.32 4.33 3.64 4.66 5 5 C4.67 6.32 4.34 7.64 4 9 C2.35 9.33 0.7 9.66 -1 10 C-1 9.34 -1 8.68 -1 8 C0.32 8 1.64 8 3 8 C3 7.34 3 6.68 3 6 C1.68 5.34 0.36 4.68 -1 4 C-0.67 2.68 -0.34 1.36 0 0 Z " fill="#95938E" transform="translate(89,44)"/>
<path d="M0 0 C-2.65665202 1.77110135 -5.33679906 3.46308514 -8.0625 5.125 C-8.94035156 5.66382813 -9.81820312 6.20265625 -10.72265625 6.7578125 C-13 8 -13 8 -15 8 C-13.813687 4.44106101 -12.78953229 3.82332335 -9.75 1.75 C-8.59757812 0.93789063 -8.59757812 0.93789063 -7.421875 0.109375 C-4.48109049 -1.23769404 -3.04102826 -0.92740578 0 0 Z " fill="#43433E" transform="translate(70,40)"/>
<path d="M0 0 C3.69876091 1.37287342 6.9514476 3.06355453 10.3125 5.125 C11.19550781 5.66382813 12.07851563 6.20265625 12.98828125 6.7578125 C13.65214844 7.16773438 14.31601562 7.57765625 15 8 C14.67 8.66 14.34 9.32 14 10 C10.42705968 8.67997942 7.36046508 7.10478612 4.1875 5 C3.39730469 4.484375 2.60710938 3.96875 1.79296875 3.4375 C1.20128906 2.963125 0.60960938 2.48875 0 2 C0 1.34 0 0.68 0 0 Z " fill="#4A4944" transform="translate(31,41)"/>
<path d="M0 0 C0.99 0.33 1.98 0.66 3 1 C3 2.32 3 3.64 3 5 C4.32 5.33 5.64 5.66 7 6 C7 6.66 7 7.32 7 8 C0.71428571 10.42857143 0.71428571 10.42857143 -3 9 C-2.01 9 -1.02 9 0 9 C0 6.03 0 3.06 0 0 Z " fill="#51504A" transform="translate(159,44)"/>
<path d="M0 0 C1.65 0 3.3 0 5 0 C3.68 0.33 2.36 0.66 1 1 C1.680625 1.5775 2.36125 2.155 3.0625 2.75 C3.701875 3.4925 4.34125 4.235 5 5 C4.75 7.25 4.75 7.25 4 9 C2.35 9 0.7 9 -1 9 C-1 8.34 -1 7.68 -1 7 C-0.01 7 0.98 7 2 7 C2 6.34 2 5.68 2 5 C1.01 4.67 0.02 4.34 -1 4 C-0.67 2.68 -0.34 1.36 0 0 Z " fill="#9B9995" transform="translate(185,31)"/>
<path d="M0 0 C1.98 0.495 1.98 0.495 4 1 C4.38133299 2.9914056 4.71325582 4.99279077 5 7 C4 8 4 8 1.4375 8.0625 C0.633125 8.041875 -0.17125 8.02125 -1 8 C-0.67 7.34 -0.34 6.68 0 6 C0.039992 4.00039988 0.04346799 1.99952758 0 0 Z " fill="#504F4A" transform="translate(142,46)"/>
<path d="M0 0 C0.66 0 1.32 0 2 0 C2 2.64 2 5.28 2 8 C3.65 8 5.3 8 7 8 C7 8.66 7 9.32 7 10 C4.69 10 2.38 10 0 10 C0 6.7 0 3.4 0 0 Z " fill="#888883" transform="translate(107,44)"/>
<path d="M0 0 C0 0.99 0 1.98 0 3 C-2.97 4.65 -5.94 6.3 -9 8 C-9.66 7.34 -10.32 6.68 -11 6 C-9.54550599 4.9944239 -8.08627557 3.99569565 -6.625 3 C-5.40683594 2.1646875 -5.40683594 2.1646875 -4.1640625 1.3125 C-2 0 -2 0 0 0 Z " fill="#50504B" transform="translate(64,50)"/>
<path d="M0 0 C1.98 0 3.96 0 6 0 C6 0.66 6 1.32 6 2 C5.34 2 4.68 2 4 2 C4 4.31 4 6.62 4 9 C3.34 9 2.68 9 2 9 C2 6.69 2 4.38 2 2 C1.34 2 0.68 2 0 2 C0 1.34 0 0.68 0 0 Z " fill="#AAA9A4" transform="translate(126,44)"/>
<path d="M0 0 C2.475 0.495 2.475 0.495 5 1 C5 2.32 5 3.64 5 5 C3.35 5 1.7 5 0 5 C0 3.35 0 1.7 0 0 Z " fill="#A3A39F" transform="translate(49,27)"/>
<path d="M0 0 C1.65 0 3.3 0 5 0 C5 1.65 5 3.3 5 5 C3.35 4.67 1.7 4.34 0 4 C0 2.68 0 1.36 0 0 Z " fill="#A7A7A4" transform="translate(42,27)"/>
<path d="M0 0 C0.66 0 1.32 0 2 0 C2 2.97 2 5.94 2 9 C0.68 8.67 -0.64 8.34 -2 8 C-2 7.34 -2 6.68 -2 6 C-1.34 6 -0.68 6 0 6 C0 4.02 0 2.04 0 0 Z " fill="#B2B2AC" transform="translate(104,31)"/>
<path d="M0 0 C2.475 0.495 2.475 0.495 5 1 C4.67 2.98 4.34 4.96 4 7 C3.01 7 2.02 7 1 7 C1.20625 6.21625 1.4125 5.4325 1.625 4.625 C1.74875 3.75875 1.8725 2.8925 2 2 C1.34 1.34 0.68 0.68 0 0 Z " fill="#84837E" transform="translate(88,30)"/>
<path d="M0 0 C5.53846154 -0.36923077 5.53846154 -0.36923077 7.875 1.5 C8.24625 1.995 8.6175 2.49 9 3 C8.67 3.66 8.34 4.32 8 5 C4.62496331 3.8141763 2.35277269 2.72426311 0 0 Z " fill="#35342F" transform="translate(58,22)"/>
<path d="M0 0 C1.65 0 3.3 0 5 0 C5 1.32 5 2.64 5 4 C3.35 4 1.7 4 0 4 C0 2.68 0 1.36 0 0 Z " fill="#B3B3AF" transform="translate(49,34)"/>
<path d="M0 0 C1.65 0 3.3 0 5 0 C5 1.32 5 2.64 5 4 C3.35 4 1.7 4 0 4 C0 2.68 0 1.36 0 0 Z " fill="#AEADAB" transform="translate(42,34)"/>
<path d="M0 0 C1.32 0 2.64 0 4 0 C3.67 1.65 3.34 3.3 3 5 C2.01 5 1.02 5 0 5 C0 3.35 0 1.7 0 0 Z " fill="#32322C" transform="translate(156,33)"/>
<path d="M0 0 C3.37462715 0.54723683 5.08235 1.0549 8 3 C8 3.66 8 4.32 8 5 C2.25 3.375 2.25 3.375 0 0 Z " fill="#393934" transform="translate(32,52)"/>
<path d="M0 0 C0.66 0 1.32 0 2 0 C2 1.65 2 3.3 2 5 C0.02 5 -1.96 5 -4 5 C-4 4.34 -4 3.68 -4 3 C-2.68 3 -1.36 3 0 3 C0 2.01 0 1.02 0 0 Z " fill="#94928D" transform="translate(166,49)"/>
<path d="M0 0 C0.99 0 1.98 0 3 0 C2.67 1.65 2.34 3.3 2 5 C0.35 5 -1.3 5 -3 5 C-3 4.34 -3 3.68 -3 3 C-1.68 3 -0.36 3 1 3 C0.67 2.01 0.34 1.02 0 0 Z " fill="#A5A59F" transform="translate(81,35)"/>
<path d="M0 0 C1.5 1.125 1.5 1.125 3 3 C3.1875 6.1875 3.1875 6.1875 3 9 C2.67 9 2.34 9 2 9 C2 7.35 2 5.7 2 4 C1.071875 4.309375 1.071875 4.309375 0.125 4.625 C-0.57625 4.74875 -1.2775 4.8725 -2 5 C-2.66 4.34 -3.32 3.68 -4 3 C-2.68 2.01 -1.36 1.02 0 0 Z " fill="#5E5D58" transform="translate(67,28)"/>
<path d="M0 0 C0.66 0.33 1.32 0.66 2 1 C1.34 1.5775 0.68 2.155 0 2.75 C-2.44290923 4.99653977 -2.44290923 4.99653977 -2 9 C-2.66 9 -3.32 9 -4 9 C-4.25 6.1875 -4.25 6.1875 -4 3 C-2 1.125 -2 1.125 0 0 Z " fill="#B3B2AE" transform="translate(54,58)"/>
<path d="M0 0 C2.475 0.495 2.475 0.495 5 1 C5 2.98 5 4.96 5 7 C4.34 7 3.68 7 3 7 C2.814375 5.824375 2.814375 5.824375 2.625 4.625 C2.20882007 1.85942178 2.20882007 1.85942178 0 0 Z " fill="#B0B0AC" transform="translate(157,31)"/>
</svg>
