<svg xmlns="http://www.w3.org/2000/svg" xmlns:xlink="http://www.w3.org/1999/xlink" width="500" zoomAndPan="magnify" viewBox="0 0 375 374.999991" height="500" preserveAspectRatio="xMidYMid meet" version="1.0"><defs><clipPath id="e2cf972c80"><path d="M 197.050781 157.488281 L 201.3125 157.488281 L 201.3125 161.171875 L 197.050781 161.171875 Z M 197.050781 157.488281 " clip-rule="nonzero"/></clipPath><clipPath id="fbec7923e8"><path d="M 201.300781 158.773438 C 199.425781 161.851562 197.625 161.25 197.25 160.648438 C 196.875 159.976562 197.175781 158.175781 197.773438 157.726562 C 198.375 157.199219 200.773438 157.875 200.773438 157.875 " clip-rule="nonzero"/></clipPath><clipPath id="22a263fcc5"><path d="M 122.34375 112.5 L 252.84375 112.5 L 252.84375 262.5 L 122.34375 262.5 Z M 122.34375 112.5 " clip-rule="nonzero"/></clipPath></defs><g clip-path="url(#e2cf972c80)"><g clip-path="url(#fbec7923e8)"><path fill="#ffffff" d="M 194.25 154.726562 L 204.382812 154.726562 L 204.382812 164.550781 L 194.25 164.550781 Z M 194.25 154.726562 " fill-opacity="1" fill-rule="nonzero"/></g></g><g clip-path="url(#22a263fcc5)"><path fill="#000000" d="M 241.75 112.554688 L 133.46875 112.554688 C 127.339844 112.554688 122.355469 117.53125 122.355469 123.648438 L 122.355469 223.621094 C 122.355469 229.738281 127.339844 234.714844 133.46875 234.714844 L 184.601562 234.714844 C 184.679688 234.902344 184.765625 235.085938 184.871094 235.261719 L 198.707031 259.191406 C 199.917969 261.277344 202.121094 262.445312 204.386719 262.445312 C 205.488281 262.445312 206.613281 262.164062 207.640625 261.578125 C 210.757812 259.773438 211.824219 255.773438 210.023438 252.664062 L 199.648438 234.710938 L 241.753906 234.710938 C 247.878906 234.710938 252.863281 229.734375 252.863281 223.617188 L 252.863281 123.648438 C 252.859375 117.53125 247.878906 112.554688 241.75 112.554688 Z M 133.46875 117.230469 L 241.753906 117.230469 C 245.292969 117.230469 248.175781 120.109375 248.175781 123.648438 L 248.175781 133.855469 L 127.042969 133.855469 L 127.042969 123.648438 C 127.042969 120.109375 129.921875 117.230469 133.46875 117.230469 Z M 171.429688 202.527344 C 171.871094 202.683594 172.324219 202.757812 172.769531 202.757812 C 173.929688 202.757812 175.042969 202.242188 175.8125 201.296875 L 186.839844 187.675781 L 190.9375 187.675781 C 191.242188 188.125 191.527344 188.582031 191.789062 189.035156 C 198.019531 199.816406 194.3125 213.648438 183.519531 219.875 C 172.726562 226.097656 158.871094 222.390625 152.640625 211.609375 C 146.410156 200.828125 150.117188 186.996094 160.90625 180.773438 C 163.34375 179.371094 166.039062 178.429688 168.804688 178.003906 L 168.804688 198.820312 C 168.804688 200.503906 169.832031 201.957031 171.429688 202.527344 Z M 186.804688 182.996094 C 185.382812 182.996094 184.109375 183.601562 183.214844 184.710938 L 173.492188 196.71875 L 173.492188 150.246094 C 173.492188 149.789062 173.882812 149.402344 174.347656 149.402344 L 224.761719 149.402344 C 225.226562 149.402344 225.617188 149.789062 225.617188 150.246094 L 225.617188 182.148438 C 225.617188 182.609375 225.226562 182.996094 224.761719 182.996094 Z M 205.292969 257.523438 C 204.410156 258.03125 203.277344 257.726562 202.765625 256.847656 L 188.929688 232.925781 C 188.867188 232.820312 188.878906 232.71875 188.894531 232.652344 C 188.914062 232.589844 188.953125 232.5 189.058594 232.441406 L 190.351562 231.695312 L 191.644531 230.953125 C 191.703125 230.921875 191.761719 230.90625 191.824219 230.90625 C 191.949219 230.90625 192.066406 230.96875 192.136719 231.082031 L 193.484375 233.414062 C 193.53125 233.511719 193.582031 233.605469 193.644531 233.695312 L 205.960938 255.011719 C 206.472656 255.886719 206.171875 257.019531 205.292969 257.523438 Z M 241.75 230.035156 L 196.945312 230.035156 L 196.191406 228.730469 C 196.1875 228.726562 196.1875 228.722656 196.183594 228.71875 C 194.933594 226.585938 192.335938 225.710938 190.078125 226.539062 L 187.84375 222.667969 C 199.03125 214.875 202.78125 199.835938 196.386719 187.671875 L 224.761719 187.671875 C 227.820312 187.671875 230.304688 185.191406 230.304688 182.144531 L 230.304688 150.246094 C 230.304688 147.199219 227.820312 144.71875 224.761719 144.71875 L 174.347656 144.71875 C 171.289062 144.71875 168.804688 147.199219 168.804688 150.246094 L 168.804688 173.28125 C 165.21875 173.738281 161.714844 174.90625 158.566406 176.71875 C 145.535156 184.234375 141.058594 200.9375 148.582031 213.953125 C 153.628906 222.6875 162.824219 227.574219 172.265625 227.574219 C 176.152344 227.574219 180.085938 226.738281 183.785156 225.011719 L 186.019531 228.878906 C 185.613281 229.210938 185.269531 229.597656 184.988281 230.035156 L 133.46875 230.035156 C 129.925781 230.035156 127.042969 227.160156 127.042969 223.621094 L 127.042969 138.535156 L 248.175781 138.535156 L 248.175781 223.621094 C 248.171875 227.15625 245.292969 230.035156 241.75 230.035156 Z M 141.113281 131.167969 C 144.214844 131.167969 146.742188 128.648438 146.742188 125.550781 C 146.742188 122.453125 144.214844 119.929688 141.113281 119.929688 C 138.011719 119.929688 135.488281 122.453125 135.488281 125.550781 C 135.488281 128.648438 138.007812 131.167969 141.113281 131.167969 Z M 141.113281 124.609375 C 141.625 124.609375 142.050781 125.039062 142.050781 125.546875 C 142.050781 126.054688 141.621094 126.484375 141.113281 126.484375 C 140.605469 126.484375 140.175781 126.054688 140.175781 125.546875 C 140.171875 125.03125 140.59375 124.609375 141.113281 124.609375 Z M 153.828125 131.167969 C 156.933594 131.167969 159.457031 128.648438 159.457031 125.550781 C 159.457031 122.453125 156.933594 119.929688 153.828125 119.929688 C 150.726562 119.929688 148.203125 122.453125 148.203125 125.550781 C 148.203125 128.648438 150.726562 131.167969 153.828125 131.167969 Z M 153.828125 124.609375 C 154.347656 124.609375 154.769531 125.03125 154.769531 125.546875 C 154.769531 126.054688 154.335938 126.484375 153.828125 126.484375 C 153.324219 126.484375 152.890625 126.054688 152.890625 125.546875 C 152.890625 125.039062 153.320312 124.609375 153.828125 124.609375 Z M 166.550781 131.167969 C 169.648438 131.167969 172.167969 128.648438 172.167969 125.550781 C 172.167969 122.453125 169.648438 119.929688 166.550781 119.929688 C 163.449219 119.929688 160.925781 122.453125 160.925781 125.550781 C 160.925781 128.648438 163.449219 131.167969 166.550781 131.167969 Z M 166.550781 124.609375 C 167.0625 124.609375 167.480469 125.03125 167.480469 125.546875 C 167.480469 126.054688 167.054688 126.484375 166.550781 126.484375 C 166.042969 126.484375 165.613281 126.054688 165.613281 125.546875 C 165.613281 125.03125 166.035156 124.609375 166.550781 124.609375 Z M 178.289062 125.550781 C 178.289062 124.253906 179.335938 123.210938 180.628906 123.210938 L 237.386719 123.210938 C 238.683594 123.210938 239.730469 124.257812 239.730469 125.550781 C 239.730469 126.839844 238.679688 127.890625 237.386719 127.890625 L 180.628906 127.890625 C 179.335938 127.890625 178.289062 126.839844 178.289062 125.550781 Z M 181.96875 162.371094 C 181.96875 163.191406 182.640625 163.855469 183.457031 163.855469 C 183.566406 163.855469 183.679688 163.867188 183.789062 163.882812 C 186.953125 164.144531 189.449219 166.796875 189.449219 170.023438 C 189.449219 173.421875 186.679688 176.1875 183.273438 176.1875 C 180.570312 176.1875 178.207031 174.460938 177.394531 171.890625 C 177.003906 170.65625 177.683594 169.34375 178.917969 168.949219 C 180.152344 168.5625 181.46875 169.238281 181.863281 170.472656 C 182.054688 171.078125 182.636719 171.503906 183.273438 171.503906 C 184.082031 171.503906 184.761719 170.824219 184.761719 170.019531 C 184.761719 169.214844 184.082031 168.535156 183.273438 168.535156 C 183.164062 168.535156 183.050781 168.523438 182.945312 168.507812 C 179.78125 168.246094 177.28125 165.59375 177.28125 162.367188 C 177.28125 158.96875 180.054688 156.203125 183.457031 156.203125 C 186.144531 156.203125 188.507812 157.925781 189.335938 160.488281 C 189.730469 161.71875 189.058594 163.039062 187.824219 163.433594 C 186.59375 163.828125 185.273438 163.15625 184.875 161.925781 C 184.675781 161.3125 184.097656 160.882812 183.457031 160.882812 C 182.652344 160.886719 181.96875 161.566406 181.96875 162.371094 Z M 196.78125 160.886719 L 196.78125 163.859375 L 199.863281 163.859375 C 201.160156 163.859375 202.207031 164.90625 202.207031 166.199219 C 202.207031 167.488281 201.15625 168.539062 199.863281 168.539062 L 196.78125 168.539062 L 196.78125 171.507812 L 201.375 171.507812 C 202.667969 171.507812 203.71875 172.558594 203.71875 173.847656 C 203.71875 175.140625 202.667969 176.1875 201.375 176.1875 L 194.4375 176.1875 C 193.144531 176.1875 192.09375 175.140625 192.09375 173.847656 L 192.09375 158.542969 C 192.09375 157.25 193.144531 156.207031 194.4375 156.207031 L 201.375 156.207031 C 202.667969 156.207031 203.71875 157.253906 203.71875 158.542969 C 203.71875 159.835938 202.667969 160.882812 201.375 160.882812 L 196.78125 160.882812 Z M 221.828125 158.542969 L 221.828125 173.847656 C 221.828125 175.140625 220.78125 176.1875 219.488281 176.1875 C 218.195312 176.1875 217.144531 175.140625 217.144531 173.847656 L 217.144531 167.277344 L 216.125 169.042969 C 215.703125 169.765625 214.929688 170.214844 214.09375 170.214844 C 213.257812 170.214844 212.484375 169.765625 212.066406 169.042969 L 211.054688 167.292969 L 211.054688 173.851562 C 211.054688 175.144531 210.003906 176.191406 208.710938 176.191406 C 207.417969 176.191406 206.371094 175.140625 206.371094 173.851562 L 206.371094 158.542969 C 206.371094 157.484375 207.082031 156.558594 208.109375 156.285156 C 209.132812 156.011719 210.214844 156.457031 210.746094 157.375 L 214.101562 163.191406 L 217.464844 157.375 C 217.996094 156.460938 219.078125 156.011719 220.101562 156.289062 C 221.117188 156.558594 221.828125 157.484375 221.828125 158.542969 Z M 221.828125 158.542969 " fill-opacity="1" fill-rule="nonzero"/></g></svg>