<svg xmlns="http://www.w3.org/2000/svg" xmlns:xlink="http://www.w3.org/1999/xlink" width="500" zoomAndPan="magnify" viewBox="0 0 375 374.999991" height="500" preserveAspectRatio="xMidYMid meet" version="1.0"><defs><clipPath id="c2022accdc"><path d="M 148 140 L 262.5 140 L 262.5 235 L 148 235 Z M 148 140 " clip-rule="nonzero"/></clipPath><clipPath id="4ace23f6ed"><path d="M 1.425781 5.402344 L 2.875 5.402344 L 2.875 6.59375 L 1.425781 6.59375 Z M 1.425781 5.402344 " clip-rule="nonzero"/></clipPath><clipPath id="9f4b87b85c"><path d="M 2.851562 5.851562 C 2.25 6.824219 1.648438 6.601562 1.5 6.449219 C 1.351562 6.226562 1.5 5.625 1.648438 5.476562 C 1.875 5.324219 2.699219 5.476562 2.699219 5.476562 " clip-rule="nonzero"/></clipPath></defs><g clip-path="url(#c2022accdc)"><path fill="#100f0d" d="M 214.964844 225.410156 L 195.953125 225.410156 C 194.480469 225.410156 193.289062 224.21875 193.289062 222.753906 C 193.289062 221.289062 194.480469 220.09375 195.953125 220.09375 L 214.964844 220.09375 C 216.433594 220.09375 217.628906 221.289062 217.628906 222.753906 C 217.628906 224.21875 216.433594 225.410156 214.964844 225.410156 Z M 258.847656 140.011719 L 152.066406 140.011719 C 150.050781 140.011719 148.414062 141.648438 148.414062 143.65625 L 148.414062 152.621094 C 150.492188 151.738281 152.660156 151.113281 154.875 150.722656 L 154.875 146.457031 L 256.042969 146.457031 L 256.042969 213.058594 L 154.875 213.058594 L 154.875 209.40625 C 152.636719 209.019531 150.476562 208.390625 148.414062 207.527344 L 148.414062 215.859375 C 148.414062 217.871094 150.050781 219.503906 152.066406 219.503906 L 188.761719 219.503906 L 184.046875 228.453125 L 172.8125 228.453125 C 169.246094 228.453125 166.351562 231.335938 166.351562 234.898438 L 244.5625 234.898438 C 244.5625 231.335938 241.667969 228.453125 238.101562 228.453125 L 226.867188 228.453125 L 222.152344 219.503906 L 258.847656 219.503906 C 260.863281 219.503906 262.5 217.871094 262.5 215.859375 L 262.5 143.65625 C 262.5 141.648438 260.863281 140.011719 258.847656 140.011719 " fill-opacity="1" fill-rule="nonzero"/></g><path fill="#100f0d" d="M 181.625 170.492188 C 183.039062 170.492188 184.136719 170.835938 184.921875 171.53125 C 185.707031 172.226562 186.097656 173.21875 186.097656 174.511719 L 191.140625 174.511719 L 191.175781 174.402344 C 191.238281 172.054688 190.390625 170.15625 188.636719 168.710938 C 186.882812 167.261719 184.570312 166.539062 181.695312 166.539062 C 178.984375 166.539062 176.753906 167.210938 175.011719 168.558594 C 173.265625 169.90625 172.390625 171.640625 172.390625 173.761719 C 172.390625 175.871094 173.164062 177.542969 174.714844 178.761719 C 176.265625 179.980469 178.539062 181.046875 181.535156 181.945312 C 183.28125 182.480469 184.5 183.046875 185.195312 183.652344 C 185.894531 184.257812 186.238281 185.0625 186.238281 186.054688 C 186.238281 187.027344 185.875 187.804688 185.140625 188.386719 C 184.410156 188.96875 183.355469 189.261719 181.960938 189.261719 C 180.417969 189.261719 179.195312 188.898438 178.292969 188.171875 C 177.386719 187.449219 176.933594 186.324219 176.933594 184.792969 L 171.890625 184.792969 L 171.855469 184.898438 C 171.792969 187.648438 172.765625 189.722656 174.769531 191.109375 C 176.769531 192.496094 179.171875 193.191406 181.960938 193.191406 C 184.816406 193.191406 187.109375 192.550781 188.84375 191.269531 C 190.578125 189.984375 191.445312 188.238281 191.445312 186.019531 C 191.445312 183.898438 190.699219 182.1875 189.199219 180.890625 C 187.699219 179.589844 185.527344 178.535156 182.671875 177.730469 C 180.8125 177.101562 179.496094 176.503906 178.734375 175.941406 C 177.976562 175.378906 177.59375 174.65625 177.59375 173.78125 C 177.59375 172.820312 177.945312 172.03125 178.644531 171.414062 C 179.347656 170.796875 180.339844 170.492188 181.625 170.492188 " fill-opacity="1" fill-rule="nonzero"/><path fill="#100f0d" d="M 213.132812 170.917969 L 213.132812 166.914062 L 196.519531 166.914062 L 196.519531 192.820312 L 213.167969 192.820312 L 213.167969 188.832031 L 201.726562 188.832031 L 201.726562 181.429688 L 211.347656 181.429688 L 211.347656 177.429688 L 201.726562 177.429688 L 201.726562 170.917969 L 213.132812 170.917969 " fill-opacity="1" fill-rule="nonzero"/><path fill="#100f0d" d="M 224.070312 187.210938 C 223.085938 185.917969 222.59375 184.246094 222.59375 182.195312 L 222.59375 177.5 C 222.59375 175.480469 223.082031 173.828125 224.0625 172.535156 C 225.042969 171.242188 226.410156 170.59375 228.171875 170.59375 C 229.953125 170.59375 231.347656 171.242188 232.359375 172.535156 C 233.371094 173.828125 233.875 175.480469 233.875 177.5 L 233.875 182.195312 C 233.875 184.246094 233.375 185.917969 232.378906 187.210938 C 231.378906 188.507812 229.992188 189.152344 228.207031 189.152344 C 226.4375 189.152344 225.058594 188.507812 224.070312 187.210938 Z M 236.050781 190.085938 C 238.058594 188.015625 239.0625 185.382812 239.0625 182.195312 L 239.0625 177.535156 C 239.0625 174.367188 238.050781 171.742188 236.035156 169.664062 C 234.011719 167.582031 231.390625 166.539062 228.171875 166.539062 C 224.976562 166.539062 222.382812 167.582031 220.390625 169.664062 C 218.402344 171.742188 217.40625 174.367188 217.40625 177.535156 L 217.40625 182.195312 C 217.40625 185.375 218.402344 188 220.398438 190.078125 C 222.398438 192.152344 225 193.191406 228.207031 193.191406 C 231.425781 193.191406 234.042969 192.15625 236.050781 190.085938 " fill-opacity="1" fill-rule="nonzero"/><path fill="#100f0d" d="M 171.878906 202.363281 C 174.441406 201.007812 176.679688 199.269531 178.546875 197.253906 C 177.125 196.90625 175.8125 196.371094 174.59375 195.640625 C 173.257812 196.902344 171.722656 197.992188 170.027344 198.886719 C 159.632812 204.390625 146.6875 200.421875 141.175781 190.042969 C 135.664062 179.667969 139.640625 166.75 150.035156 161.242188 C 158.183594 156.941406 167.871094 158.4375 174.347656 164.257812 C 175.554688 163.496094 176.859375 162.929688 178.261719 162.558594 C 170.632812 154.65625 158.378906 152.378906 148.1875 157.761719 C 136.40625 164.003906 131.589844 178.277344 136.914062 190.273438 L 130.359375 193.734375 C 128.902344 192.496094 126.761719 192.195312 124.957031 193.148438 L 115.769531 198.015625 C 113.40625 199.261719 112.507812 202.191406 113.765625 204.542969 C 115.011719 206.90625 117.949219 207.796875 120.304688 206.554688 L 129.5 201.691406 C 131.304688 200.738281 132.246094 198.808594 132.039062 196.902344 L 138.589844 193.4375 C 145.550781 204.566406 160.089844 208.605469 171.878906 202.363281 " fill-opacity="1" fill-rule="nonzero"/><g clip-path="url(#4ace23f6ed)"><g clip-path="url(#9f4b87b85c)"><path fill="#0571d3" d="M -1.5 2.476562 L 5.917969 2.476562 L 5.917969 9.75 L -1.5 9.75 Z M -1.5 2.476562 " fill-opacity="1" fill-rule="nonzero"/></g></g></svg>