<svg xmlns="http://www.w3.org/2000/svg" xmlns:xlink="http://www.w3.org/1999/xlink" width="500" zoomAndPan="magnify" viewBox="0 0 375 374.999991" height="500" preserveAspectRatio="xMidYMid meet" version="1.0"><defs><clipPath id="9aa775d19b"><path d="M 197.050781 157.488281 L 201.3125 157.488281 L 201.3125 161.171875 L 197.050781 161.171875 Z M 197.050781 157.488281 " clip-rule="nonzero"/></clipPath><clipPath id="89ba2f9da2"><path d="M 201.300781 158.773438 C 199.425781 161.851562 197.625 161.25 197.25 160.648438 C 196.875 159.976562 197.175781 158.175781 197.773438 157.726562 C 198.375 157.199219 200.773438 157.875 200.773438 157.875 " clip-rule="nonzero"/></clipPath><clipPath id="4e946a280d"><path d="M 112.5 122.0625 L 262.5 122.0625 L 262.5 253.3125 L 112.5 253.3125 Z M 112.5 122.0625 " clip-rule="nonzero"/></clipPath></defs><g clip-path="url(#9aa775d19b)"><g clip-path="url(#89ba2f9da2)"><path fill="#ffffff" d="M 194.25 154.726562 L 204.382812 154.726562 L 204.382812 164.550781 L 194.25 164.550781 Z M 194.25 154.726562 " fill-opacity="1" fill-rule="nonzero"/></g></g><g clip-path="url(#4e946a280d)"><path fill="#000000" d="M 175.476562 243.414062 C 175.476562 243.648438 175.433594 243.875 175.34375 244.09375 C 175.253906 244.3125 175.125 244.503906 174.960938 244.667969 C 174.792969 244.835938 174.601562 244.964844 174.386719 245.054688 C 174.167969 245.144531 173.945312 245.1875 173.710938 245.1875 L 162.011719 245.1875 C 161.777344 245.1875 161.550781 245.144531 161.335938 245.054688 C 161.117188 244.964844 160.925781 244.835938 160.761719 244.667969 C 160.59375 244.503906 160.46875 244.3125 160.378906 244.09375 C 160.289062 243.875 160.242188 243.648438 160.242188 243.414062 C 160.242188 243.179688 160.289062 242.953125 160.378906 242.734375 C 160.46875 242.519531 160.59375 242.328125 160.761719 242.160156 C 160.925781 241.992188 161.117188 241.867188 161.335938 241.777344 C 161.550781 241.6875 161.777344 241.640625 162.011719 241.640625 L 173.710938 241.640625 C 173.945312 241.640625 174.167969 241.6875 174.386719 241.777344 C 174.601562 241.867188 174.792969 241.992188 174.960938 242.160156 C 175.125 242.328125 175.253906 242.519531 175.34375 242.734375 C 175.433594 242.953125 175.476562 243.179688 175.476562 243.414062 Z M 239.898438 182.441406 C 242.324219 191.519531 243.285156 200.429688 242.609375 207.539062 C 241.878906 215.234375 239.238281 220.074219 235.171875 221.164062 C 234.605469 221.316406 234.027344 221.394531 233.441406 221.390625 C 230.648438 221.390625 227.632812 219.695312 224.644531 216.453125 C 217.695312 213.421875 210.964844 211.449219 204.109375 210.523438 L 204.109375 243.875 C 204.109375 244.492188 204.046875 245.105469 203.929688 245.710938 C 203.808594 246.316406 203.628906 246.90625 203.394531 247.476562 C 203.15625 248.046875 202.867188 248.589844 202.523438 249.101562 C 202.183594 249.617188 201.792969 250.09375 201.359375 250.527344 C 200.921875 250.964844 200.449219 251.355469 199.9375 251.699219 C 199.421875 252.042969 198.882812 252.335938 198.3125 252.570312 C 197.746094 252.808594 197.15625 252.988281 196.554688 253.109375 C 195.949219 253.230469 195.339844 253.289062 194.722656 253.292969 L 141 253.292969 C 140.382812 253.289062 139.773438 253.230469 139.167969 253.109375 C 138.5625 252.988281 137.976562 252.808594 137.40625 252.570312 C 136.839844 252.335938 136.296875 252.042969 135.785156 251.703125 C 135.273438 251.359375 134.800781 250.96875 134.363281 250.53125 C 133.925781 250.09375 133.539062 249.617188 133.195312 249.105469 C 132.851562 248.589844 132.5625 248.046875 132.328125 247.476562 C 132.09375 246.90625 131.914062 246.316406 131.792969 245.710938 C 131.671875 245.105469 131.609375 244.492188 131.609375 243.875 L 131.609375 232.675781 C 130.964844 232.621094 130.324219 232.539062 129.6875 232.421875 C 129.050781 232.308594 128.421875 232.164062 127.796875 231.992188 C 127.175781 231.820312 126.558594 231.617188 125.953125 231.386719 C 125.351562 231.15625 124.757812 230.898438 124.175781 230.613281 C 123.59375 230.328125 123.027344 230.015625 122.476562 229.679688 C 121.925781 229.339844 121.390625 228.976562 120.871094 228.589844 C 120.351562 228.199219 119.855469 227.789062 119.375 227.351562 C 118.894531 226.917969 118.433594 226.460938 117.996094 225.984375 C 117.558594 225.507812 117.144531 225.011719 116.753906 224.492188 C 116.359375 223.976562 115.992188 223.445312 115.652344 222.894531 C 115.308594 222.34375 114.992188 221.777344 114.703125 221.195312 C 114.414062 220.617188 114.152344 220.023438 113.914062 219.421875 C 113.679688 218.816406 113.472656 218.203125 113.296875 217.578125 C 113.117188 216.953125 112.96875 216.324219 112.851562 215.6875 C 112.730469 215.046875 112.640625 214.40625 112.582031 213.761719 C 112.519531 213.113281 112.492188 212.46875 112.492188 211.816406 C 112.492188 211.167969 112.519531 210.523438 112.582031 209.875 C 112.640625 209.230469 112.730469 208.589844 112.851562 207.949219 C 112.96875 207.3125 113.117188 206.683594 113.296875 206.058594 C 113.472656 205.433594 113.679688 204.820312 113.914062 204.214844 C 114.152344 203.609375 114.414062 203.019531 114.703125 202.4375 C 114.992188 201.859375 115.308594 201.292969 115.652344 200.742188 C 115.992188 200.191406 116.359375 199.660156 116.753906 199.144531 C 117.144531 198.625 117.558594 198.128906 117.996094 197.652344 C 118.433594 197.175781 118.894531 196.71875 119.375 196.28125 C 119.855469 195.847656 120.351562 195.4375 120.871094 195.046875 C 121.390625 194.660156 121.925781 194.296875 122.476562 193.957031 C 123.027344 193.621094 123.59375 193.308594 124.175781 193.023438 C 124.757812 192.738281 125.351562 192.480469 125.953125 192.25 C 126.558594 192.019531 127.175781 191.816406 127.796875 191.644531 C 128.421875 191.46875 129.050781 191.328125 129.6875 191.210938 C 130.324219 191.097656 130.964844 191.015625 131.609375 190.960938 L 131.609375 183.21875 L 114.421875 183.21875 C 114.1875 183.21875 113.960938 183.175781 113.746094 183.085938 C 113.527344 182.996094 113.335938 182.867188 113.171875 182.699219 C 113.003906 182.535156 112.875 182.34375 112.785156 182.125 C 112.699219 181.90625 112.652344 181.679688 112.652344 181.445312 L 112.652344 151.871094 C 112.652344 151.636719 112.699219 151.410156 112.785156 151.191406 C 112.875 150.976562 113.003906 150.78125 113.171875 150.617188 C 113.335938 150.449219 113.527344 150.320312 113.746094 150.230469 C 113.960938 150.140625 114.1875 150.097656 114.421875 150.097656 L 131.609375 150.097656 L 131.609375 146.308594 C 131.609375 145.6875 131.671875 145.078125 131.792969 144.46875 C 131.914062 143.863281 132.09375 143.277344 132.328125 142.707031 C 132.5625 142.132812 132.851562 141.59375 133.195312 141.078125 C 133.539062 140.5625 133.925781 140.089844 134.363281 139.652344 C 134.800781 139.214844 135.273438 138.824219 135.785156 138.480469 C 136.296875 138.136719 136.839844 137.847656 137.40625 137.609375 C 137.976562 137.375 138.5625 137.195312 139.167969 137.074219 C 139.773438 136.953125 140.382812 136.890625 141 136.890625 L 166.632812 136.890625 L 166.632812 123.859375 C 166.632812 123.621094 166.679688 123.394531 166.769531 123.179688 C 166.859375 122.960938 166.984375 122.769531 167.152344 122.601562 C 167.316406 122.4375 167.507812 122.308594 167.726562 122.21875 C 167.941406 122.128906 168.167969 122.082031 168.402344 122.082031 L 209.003906 122.082031 C 209.238281 122.082031 209.464844 122.128906 209.679688 122.21875 C 209.898438 122.308594 210.089844 122.4375 210.253906 122.601562 C 210.417969 122.769531 210.546875 122.960938 210.636719 123.179688 C 210.726562 123.394531 210.773438 123.621094 210.773438 123.859375 L 210.773438 151.871094 C 210.773438 152.105469 210.726562 152.332031 210.636719 152.550781 C 210.546875 152.765625 210.417969 152.960938 210.253906 153.125 C 210.089844 153.292969 209.898438 153.421875 209.679688 153.511719 C 209.464844 153.601562 209.238281 153.644531 209.003906 153.644531 L 204.109375 153.644531 L 204.109375 167.515625 C 206.101562 165.316406 207.972656 163.023438 209.730469 160.632812 C 210.90625 155.421875 213.25 152.148438 216.5 151.273438 C 220.5625 150.183594 225.265625 153.046875 229.734375 159.34375 C 233.863281 165.164062 237.472656 173.367188 239.898438 182.441406 Z M 216.761719 194.3125 L 222.914062 192.660156 C 223.257812 192.566406 223.589844 192.441406 223.910156 192.28125 C 224.230469 192.125 224.535156 191.9375 224.816406 191.71875 C 225.101562 191.5 225.359375 191.253906 225.597656 190.984375 C 225.832031 190.714844 226.039062 190.425781 226.21875 190.113281 C 226.394531 189.804688 226.542969 189.480469 226.65625 189.140625 C 226.773438 188.800781 226.855469 188.453125 226.898438 188.097656 C 226.945312 187.742188 226.957031 187.382812 226.933594 187.027344 C 226.910156 186.667969 226.855469 186.316406 226.761719 185.972656 C 226.667969 185.625 226.542969 185.289062 226.386719 184.96875 C 226.226562 184.648438 226.039062 184.34375 225.820312 184.058594 C 225.605469 183.773438 225.359375 183.515625 225.09375 183.277344 C 224.824219 183.042969 224.535156 182.832031 224.226562 182.65625 C 223.914062 182.476562 223.589844 182.328125 223.253906 182.210938 C 222.914062 182.097656 222.566406 182.015625 222.214844 181.96875 C 221.859375 181.921875 221.503906 181.910156 221.144531 181.933594 C 220.789062 181.957031 220.4375 182.011719 220.09375 182.105469 L 213.945312 183.757812 C 214.300781 185.515625 214.714844 187.292969 215.195312 189.078125 C 215.671875 190.867188 216.199219 192.613281 216.761719 194.3125 Z M 187.019531 185.414062 L 192.621094 206.378906 C 202.210938 206.089844 211.257812 207.617188 220.539062 210.992188 C 218.097656 207.117188 215.878906 202.417969 214.03125 197.238281 C 213.980469 197.136719 213.9375 197.027344 213.90625 196.917969 C 213.902344 196.898438 213.898438 196.878906 213.894531 196.859375 C 213.117188 194.648438 212.40625 192.351562 211.777344 189.996094 C 211.148438 187.640625 210.617188 185.296875 210.1875 182.988281 C 210.183594 182.972656 210.175781 182.953125 210.171875 182.933594 C 210.140625 182.816406 210.121094 182.695312 210.113281 182.570312 C 209.132812 177.167969 208.714844 171.992188 208.898438 167.417969 C 202.539062 175 195.46875 180.855469 187.019531 185.414062 Z M 186.246094 210.40625 C 182.828125 210.800781 179.445312 211.378906 176.09375 212.140625 L 186.316406 227.730469 L 194.050781 225.652344 L 188.730469 219.824219 C 187.6875 218.707031 187.082031 217.390625 186.914062 215.867188 Z M 172.902344 209.246094 C 178.199219 207.90625 183.566406 207.011719 189.007812 206.570312 L 183.796875 187.058594 C 178.070312 189.769531 172.144531 191.921875 166.015625 193.519531 C 165.484375 193.664062 164.96875 193.863281 164.472656 194.109375 C 163.980469 194.355469 163.511719 194.652344 163.074219 194.988281 C 162.636719 195.328125 162.238281 195.707031 161.871094 196.125 C 161.507812 196.542969 161.191406 196.992188 160.914062 197.476562 C 160.640625 197.957031 160.414062 198.460938 160.234375 198.984375 C 160.058594 199.511719 159.933594 200.046875 159.863281 200.597656 C 159.792969 201.148438 159.773438 201.699219 159.808594 202.253906 C 159.847656 202.808594 159.9375 203.351562 160.078125 203.886719 C 160.222656 204.425781 160.417969 204.941406 160.660156 205.4375 C 160.90625 205.9375 161.195312 206.40625 161.53125 206.847656 C 161.867188 207.285156 162.246094 207.691406 162.660156 208.058594 C 163.074219 208.421875 163.523438 208.746094 164 209.023438 C 164.480469 209.300781 164.980469 209.53125 165.503906 209.710938 C 166.027344 209.890625 166.5625 210.019531 167.109375 210.09375 C 167.660156 210.167969 168.207031 210.1875 168.761719 210.152344 C 169.3125 210.117188 169.855469 210.03125 170.390625 209.890625 C 171.171875 209.679688 171.949219 209.480469 172.71875 209.289062 C 172.78125 209.273438 172.839844 209.257812 172.902344 209.246094 Z M 170.171875 150.097656 L 175.863281 150.097656 C 176.179688 150.097656 176.476562 150.175781 176.75 150.335938 C 177.023438 150.492188 177.238281 150.710938 177.398438 150.984375 L 181.023438 157.285156 L 184.648438 150.984375 C 184.808594 150.710938 185.023438 150.492188 185.296875 150.335938 C 185.570312 150.175781 185.867188 150.097656 186.183594 150.097656 L 207.234375 150.097656 L 207.234375 125.632812 L 170.171875 125.632812 Z M 135.148438 146.308594 L 135.148438 150.097656 L 166.632812 150.097656 L 166.632812 140.4375 L 141 140.4375 C 140.617188 140.4375 140.234375 140.476562 139.859375 140.550781 C 139.480469 140.628906 139.117188 140.738281 138.761719 140.886719 C 138.40625 141.035156 138.070312 141.214844 137.75 141.429688 C 137.429688 141.644531 137.136719 141.886719 136.863281 142.160156 C 136.59375 142.433594 136.351562 142.726562 136.136719 143.046875 C 135.921875 143.367188 135.742188 143.707031 135.59375 144.0625 C 135.449219 144.417969 135.335938 144.785156 135.261719 145.164062 C 135.1875 145.539062 135.148438 145.921875 135.148438 146.308594 Z M 116.191406 179.671875 L 150.570312 179.671875 L 150.570312 153.644531 L 116.191406 153.644531 Z M 133.378906 229.210938 C 133.949219 229.210938 134.515625 229.179688 135.078125 229.125 C 135.644531 229.070312 136.207031 228.984375 136.761719 228.875 C 137.320312 228.765625 137.871094 228.625 138.414062 228.460938 C 138.957031 228.296875 139.492188 228.101562 140.015625 227.886719 C 140.539062 227.667969 141.054688 227.425781 141.554688 227.15625 C 142.054688 226.886719 142.542969 226.59375 143.015625 226.277344 C 143.484375 225.960938 143.941406 225.621094 144.382812 225.261719 C 144.820312 224.898438 145.238281 224.519531 145.640625 224.117188 C 146.042969 223.710938 146.425781 223.292969 146.785156 222.851562 C 147.144531 222.410156 147.484375 221.953125 147.796875 221.480469 C 148.113281 221.007812 148.40625 220.519531 148.671875 220.015625 C 148.941406 219.515625 149.183594 219 149.402344 218.472656 C 149.617188 217.945312 149.808594 217.410156 149.972656 216.867188 C 150.140625 216.320312 150.277344 215.769531 150.386719 215.210938 C 150.5 214.652344 150.582031 214.089844 150.636719 213.523438 C 150.691406 212.957031 150.722656 212.386719 150.722656 211.816406 C 150.722656 211.25 150.691406 210.679688 150.636719 210.113281 C 150.582031 209.546875 150.5 208.984375 150.386719 208.425781 C 150.277344 207.867188 150.140625 207.3125 149.972656 206.769531 C 149.808594 206.222656 149.617188 205.6875 149.402344 205.164062 C 149.183594 204.636719 148.941406 204.121094 148.671875 203.621094 C 148.40625 203.117188 148.113281 202.628906 147.796875 202.15625 C 147.484375 201.683594 147.144531 201.226562 146.785156 200.785156 C 146.425781 200.34375 146.042969 199.921875 145.640625 199.519531 C 145.242188 199.117188 144.820312 198.734375 144.382812 198.375 C 143.941406 198.011719 143.484375 197.671875 143.015625 197.355469 C 142.542969 197.039062 142.054688 196.75 141.554688 196.480469 C 141.054688 196.210938 140.539062 195.96875 140.015625 195.75 C 139.492188 195.53125 138.957031 195.339844 138.414062 195.175781 C 137.871094 195.011719 137.320312 194.871094 136.761719 194.761719 C 136.207031 194.648438 135.644531 194.566406 135.078125 194.511719 C 134.515625 194.453125 133.949219 194.425781 133.378906 194.425781 C 132.8125 194.425781 132.246094 194.453125 131.679688 194.511719 C 131.113281 194.566406 130.554688 194.648438 129.996094 194.761719 C 129.4375 194.871094 128.890625 195.011719 128.34375 195.175781 C 127.800781 195.339844 127.269531 195.53125 126.742188 195.75 C 126.21875 195.96875 125.707031 196.210938 125.203125 196.480469 C 124.703125 196.75 124.21875 197.042969 123.746094 197.359375 C 123.273438 197.675781 122.816406 198.011719 122.378906 198.375 C 121.9375 198.734375 121.519531 199.117188 121.117188 199.519531 C 120.714844 199.921875 120.335938 200.34375 119.972656 200.785156 C 119.613281 201.226562 119.277344 201.683594 118.960938 202.15625 C 118.644531 202.628906 118.351562 203.117188 118.085938 203.621094 C 117.816406 204.121094 117.574219 204.636719 117.359375 205.164062 C 117.140625 205.6875 116.949219 206.222656 116.785156 206.769531 C 116.621094 207.316406 116.480469 207.867188 116.371094 208.425781 C 116.261719 208.984375 116.175781 209.546875 116.121094 210.113281 C 116.066406 210.679688 116.039062 211.25 116.039062 211.816406 C 116.039062 212.386719 116.066406 212.957031 116.125 213.523438 C 116.179688 214.089844 116.261719 214.652344 116.375 215.210938 C 116.484375 215.769531 116.625 216.320312 116.789062 216.863281 C 116.953125 217.410156 117.144531 217.945312 117.363281 218.46875 C 117.582031 218.996094 117.824219 219.511719 118.089844 220.011719 C 118.359375 220.515625 118.652344 221.003906 118.964844 221.476562 C 119.28125 221.949219 119.621094 222.40625 119.980469 222.84375 C 120.339844 223.285156 120.722656 223.707031 121.121094 224.109375 C 121.523438 224.511719 121.945312 224.894531 122.382812 225.253906 C 122.820312 225.617188 123.277344 225.957031 123.75 226.273438 C 124.222656 226.589844 124.707031 226.882812 125.207031 227.148438 C 125.710938 227.417969 126.222656 227.660156 126.746094 227.878906 C 127.269531 228.097656 127.804688 228.289062 128.347656 228.457031 C 128.890625 228.621094 129.441406 228.761719 129.996094 228.871094 C 130.554688 228.984375 131.117188 229.066406 131.679688 229.125 C 132.246094 229.179688 132.8125 229.207031 133.378906 229.210938 Z M 200.574219 243.875 L 200.574219 237.90625 L 135.148438 237.90625 L 135.148438 243.875 C 135.148438 244.261719 135.1875 244.640625 135.261719 245.019531 C 135.335938 245.398438 135.449219 245.765625 135.59375 246.121094 C 135.742188 246.476562 135.921875 246.8125 136.136719 247.132812 C 136.351562 247.453125 136.59375 247.75 136.863281 248.023438 C 137.136719 248.296875 137.429688 248.539062 137.75 248.753906 C 138.070312 248.964844 138.40625 249.148438 138.761719 249.296875 C 139.117188 249.441406 139.480469 249.554688 139.859375 249.628906 C 140.234375 249.703125 140.617188 249.742188 141 249.742188 L 194.722656 249.742188 C 195.105469 249.742188 195.488281 249.703125 195.863281 249.628906 C 196.242188 249.554688 196.605469 249.441406 196.960938 249.292969 C 197.316406 249.148438 197.652344 248.964844 197.972656 248.75 C 198.289062 248.539062 198.585938 248.292969 198.855469 248.023438 C 199.128906 247.75 199.371094 247.453125 199.585938 247.132812 C 199.796875 246.8125 199.976562 246.476562 200.125 246.121094 C 200.273438 245.765625 200.382812 245.398438 200.460938 245.019531 C 200.535156 244.640625 200.570312 244.261719 200.574219 243.875 Z M 200.574219 210.140625 C 196.972656 209.851562 193.371094 209.832031 189.769531 210.085938 L 190.425781 215.4375 C 190.503906 216.203125 190.808594 216.867188 191.339844 217.429688 L 197.433594 224.109375 C 197.597656 224.289062 197.738281 224.488281 197.851562 224.703125 C 197.964844 224.917969 198.050781 225.148438 198.105469 225.386719 C 198.160156 225.625 198.1875 225.863281 198.179688 226.109375 C 198.171875 226.355469 198.136719 226.59375 198.066406 226.828125 C 198 227.0625 197.902344 227.285156 197.777344 227.496094 C 197.652344 227.707031 197.5 227.898438 197.328125 228.066406 C 197.152344 228.238281 196.960938 228.386719 196.746094 228.507812 C 196.535156 228.628906 196.3125 228.71875 196.074219 228.785156 L 186.746094 231.289062 C 186.457031 231.367188 186.164062 231.398438 185.863281 231.386719 C 185.566406 231.371094 185.277344 231.308594 185 231.203125 C 184.71875 231.097656 184.464844 230.949219 184.230469 230.761719 C 184 230.574219 183.800781 230.355469 183.636719 230.105469 L 172.4375 213.023438 C 172.0625 213.121094 171.6875 213.21875 171.308594 213.320312 C 170.546875 213.523438 169.773438 213.652344 168.988281 213.703125 C 168.203125 213.757812 167.417969 213.730469 166.636719 213.628906 C 165.859375 213.527344 165.09375 213.347656 164.347656 213.09375 C 163.601562 212.839844 162.890625 212.515625 162.207031 212.121094 C 161.523438 211.726562 160.886719 211.269531 160.296875 210.75 C 159.703125 210.230469 159.167969 209.65625 158.6875 209.027344 C 158.210938 208.402344 157.796875 207.734375 157.445312 207.027344 C 157.097656 206.320312 156.824219 205.582031 156.617188 204.820312 C 156.414062 204.058594 156.289062 203.28125 156.234375 202.496094 C 156.183594 201.707031 156.210938 200.921875 156.3125 200.136719 C 156.417969 199.355469 156.59375 198.589844 156.847656 197.84375 C 157.101562 197.09375 157.425781 196.378906 157.816406 195.695312 C 158.210938 195.011719 158.667969 194.375 159.1875 193.78125 C 159.707031 193.1875 160.28125 192.648438 160.90625 192.167969 C 161.53125 191.6875 162.195312 191.273438 162.902344 190.925781 C 163.609375 190.574219 164.339844 190.300781 165.101562 190.09375 C 172.210938 188.183594 178.480469 185.839844 184.113281 182.921875 C 184.132812 182.914062 184.148438 182.90625 184.164062 182.898438 C 190.207031 179.789062 195.675781 175.878906 200.574219 171.160156 L 200.574219 153.644531 L 187.203125 153.644531 L 182.554688 161.71875 C 182.398438 161.992188 182.179688 162.210938 181.90625 162.367188 C 181.632812 162.527344 181.339844 162.605469 181.023438 162.605469 C 180.707031 162.605469 180.414062 162.527344 180.136719 162.367188 C 179.863281 162.210938 179.648438 161.992188 179.492188 161.71875 L 174.84375 153.644531 L 154.105469 153.644531 L 154.105469 181.445312 C 154.105469 181.679688 154.0625 181.90625 153.972656 182.125 C 153.882812 182.34375 153.753906 182.535156 153.589844 182.699219 C 153.421875 182.867188 153.230469 182.996094 153.015625 183.085938 C 152.796875 183.175781 152.570312 183.21875 152.335938 183.21875 L 135.148438 183.21875 L 135.148438 190.960938 C 135.792969 191.015625 136.433594 191.097656 137.070312 191.210938 C 137.707031 191.328125 138.339844 191.46875 138.960938 191.644531 C 139.585938 191.816406 140.199219 192.019531 140.804688 192.25 C 141.410156 192.476562 142.003906 192.734375 142.582031 193.023438 C 143.164062 193.308594 143.730469 193.621094 144.285156 193.957031 C 144.835938 194.296875 145.371094 194.660156 145.890625 195.046875 C 146.40625 195.4375 146.90625 195.847656 147.386719 196.28125 C 147.867188 196.71875 148.324219 197.171875 148.761719 197.652344 C 149.203125 198.128906 149.617188 198.625 150.007812 199.140625 C 150.398438 199.660156 150.765625 200.191406 151.109375 200.742188 C 151.453125 201.292969 151.765625 201.859375 152.058594 202.4375 C 152.347656 203.019531 152.609375 203.609375 152.84375 204.214844 C 153.078125 204.820312 153.285156 205.433594 153.464844 206.058594 C 153.640625 206.679688 153.789062 207.3125 153.910156 207.949219 C 154.03125 208.585938 154.121094 209.230469 154.179688 209.875 C 154.238281 210.523438 154.269531 211.167969 154.269531 211.816406 C 154.269531 212.464844 154.238281 213.113281 154.179688 213.761719 C 154.121094 214.40625 154.03125 215.046875 153.910156 215.683594 C 153.789062 216.324219 153.640625 216.953125 153.464844 217.578125 C 153.285156 218.203125 153.078125 218.816406 152.84375 219.421875 C 152.609375 220.023438 152.347656 220.617188 152.058594 221.195312 C 151.765625 221.777344 151.453125 222.34375 151.109375 222.894531 C 150.765625 223.445312 150.398438 223.976562 150.007812 224.492188 C 149.617188 225.007812 149.203125 225.507812 148.761719 225.984375 C 148.324219 226.460938 147.867188 226.917969 147.386719 227.351562 C 146.90625 227.789062 146.40625 228.199219 145.890625 228.585938 C 145.371094 228.976562 144.835938 229.339844 144.285156 229.679688 C 143.730469 230.015625 143.164062 230.328125 142.582031 230.613281 C 142.003906 230.898438 141.410156 231.15625 140.804688 231.386719 C 140.199219 231.617188 139.585938 231.820312 138.960938 231.992188 C 138.339844 232.164062 137.707031 232.308594 137.070312 232.421875 C 136.433594 232.539062 135.792969 232.621094 135.148438 232.675781 L 135.148438 234.359375 L 200.574219 234.359375 Z M 236.480469 183.359375 C 234.164062 174.679688 230.742188 166.882812 226.851562 161.402344 C 223.769531 157.058594 220.621094 154.59375 218.230469 154.59375 C 217.957031 154.59375 217.683594 154.628906 217.414062 154.699219 C 214.953125 155.359375 213.148438 159.300781 212.585938 165.234375 C 212.167969 169.628906 212.425781 174.78125 213.304688 180.257812 L 219.175781 178.679688 C 219.746094 178.527344 220.328125 178.429688 220.914062 178.390625 C 221.503906 178.351562 222.089844 178.371094 222.675781 178.449219 C 223.261719 178.527344 223.832031 178.660156 224.390625 178.851562 C 224.949219 179.039062 225.484375 179.285156 225.996094 179.578125 C 226.507812 179.875 226.984375 180.21875 227.425781 180.609375 C 227.871094 181 228.273438 181.429688 228.632812 181.898438 C 228.988281 182.367188 229.300781 182.867188 229.5625 183.398438 C 229.820312 183.929688 230.027344 184.480469 230.179688 185.050781 C 230.335938 185.621094 230.429688 186.203125 230.46875 186.792969 C 230.507812 187.382812 230.488281 187.972656 230.410156 188.558594 C 230.332031 189.144531 230.199219 189.71875 230.011719 190.28125 C 229.820312 190.839844 229.578125 191.375 229.285156 191.886719 C 228.988281 192.402344 228.648438 192.878906 228.257812 193.324219 C 227.867188 193.769531 227.441406 194.171875 226.972656 194.53125 C 226.503906 194.890625 226.003906 195.203125 225.476562 195.464844 C 224.949219 195.726562 224.398438 195.933594 223.828125 196.085938 L 217.957031 197.664062 C 219.925781 202.847656 222.269531 207.441406 224.820312 211.035156 C 228.269531 215.890625 231.796875 218.398438 234.257812 217.738281 C 236.71875 217.074219 238.523438 213.136719 239.089844 207.203125 C 239.726562 200.503906 238.800781 192.035156 236.480469 183.359375 Z M 240.113281 153.316406 L 235.683594 157.765625 C 235.519531 157.933594 235.390625 158.125 235.300781 158.34375 C 235.210938 158.558594 235.167969 158.785156 235.167969 159.023438 C 235.167969 159.257812 235.210938 159.484375 235.300781 159.699219 C 235.390625 159.917969 235.519531 160.109375 235.683594 160.277344 C 235.851562 160.441406 236.042969 160.570312 236.257812 160.660156 C 236.476562 160.75 236.703125 160.792969 236.9375 160.792969 C 237.171875 160.792969 237.398438 160.75 237.613281 160.660156 C 237.828125 160.570312 238.019531 160.441406 238.1875 160.273438 L 242.617188 155.824219 C 242.785156 155.65625 242.914062 155.464844 243.007812 155.25 C 243.097656 155.03125 243.144531 154.804688 243.144531 154.566406 C 243.144531 154.328125 243.101562 154.101562 243.011719 153.882812 C 242.921875 153.664062 242.792969 153.472656 242.625 153.304688 C 242.460938 153.136719 242.265625 153.011719 242.046875 152.917969 C 241.832031 152.828125 241.601562 152.785156 241.367188 152.785156 C 241.132812 152.789062 240.90625 152.835938 240.6875 152.925781 C 240.472656 153.019531 240.28125 153.148438 240.113281 153.316406 Z M 262.140625 173.117188 C 262.058594 172.898438 261.933594 172.703125 261.769531 172.535156 C 261.609375 172.367188 261.417969 172.234375 261.203125 172.140625 C 260.988281 172.042969 260.765625 171.996094 260.53125 171.992188 C 260.296875 171.984375 260.070312 172.027344 259.851562 172.113281 L 246.136719 177.5 C 245.917969 177.585938 245.722656 177.710938 245.554688 177.871094 C 245.382812 178.035156 245.253906 178.226562 245.160156 178.441406 C 245.066406 178.65625 245.015625 178.882812 245.011719 179.117188 C 245.007812 179.351562 245.046875 179.578125 245.132812 179.800781 C 245.21875 180.019531 245.34375 180.210938 245.503906 180.382812 C 245.667969 180.550781 245.855469 180.683594 246.070312 180.777344 C 246.285156 180.871094 246.511719 180.921875 246.746094 180.925781 C 246.980469 180.929688 247.207031 180.890625 247.425781 180.804688 L 261.140625 175.417969 C 261.359375 175.332031 261.550781 175.207031 261.722656 175.042969 C 261.890625 174.878906 262.023438 174.691406 262.117188 174.476562 C 262.210938 174.257812 262.257812 174.035156 262.265625 173.800781 C 262.269531 173.5625 262.226562 173.335938 262.140625 173.117188 Z M 255.574219 202.226562 L 249.75 198.539062 C 249.550781 198.417969 249.339844 198.339844 249.109375 198.304688 C 248.878906 198.269531 248.652344 198.277344 248.425781 198.328125 C 248.199219 198.382812 247.992188 198.476562 247.804688 198.613281 C 247.613281 198.746094 247.457031 198.914062 247.335938 199.109375 C 247.210938 199.308594 247.128906 199.519531 247.089844 199.75 C 247.050781 199.976562 247.054688 200.207031 247.101562 200.433594 C 247.152344 200.660156 247.242188 200.871094 247.375 201.0625 C 247.507812 201.253906 247.667969 201.414062 247.863281 201.542969 L 253.6875 205.226562 C 253.886719 205.355469 254.101562 205.445312 254.335938 205.488281 C 254.570312 205.53125 254.800781 205.527344 255.035156 205.476562 C 255.265625 205.425781 255.476562 205.332031 255.671875 205.195312 C 255.867188 205.058594 256.027344 204.890625 256.152344 204.6875 C 256.28125 204.488281 256.363281 204.269531 256.402344 204.035156 C 256.441406 203.800781 256.433594 203.566406 256.378906 203.335938 C 256.324219 203.105469 256.226562 202.894531 256.089844 202.699219 C 255.949219 202.507812 255.777344 202.351562 255.574219 202.226562 Z M 140.777344 166.660156 C 140.777344 166.976562 140.699219 167.273438 140.539062 167.546875 C 140.382812 167.820312 140.167969 168.039062 139.894531 168.195312 L 128.632812 174.714844 C 128.359375 174.871094 128.066406 174.953125 127.75 174.953125 C 127.433594 174.953125 127.136719 174.871094 126.863281 174.714844 C 126.589844 174.554688 126.375 174.339844 126.21875 174.0625 C 126.058594 173.789062 125.980469 173.492188 125.980469 173.175781 L 125.980469 160.136719 C 125.980469 159.820312 126.058594 159.527344 126.21875 159.25 C 126.375 158.976562 126.589844 158.757812 126.863281 158.601562 C 127.136719 158.441406 127.433594 158.363281 127.75 158.363281 C 128.066406 158.363281 128.359375 158.441406 128.632812 158.601562 L 139.894531 165.121094 C 140.167969 165.277344 140.382812 165.496094 140.542969 165.769531 C 140.699219 166.046875 140.777344 166.339844 140.777344 166.660156 Z M 135.472656 166.660156 L 129.519531 163.210938 L 129.519531 170.105469 Z M 133.378906 221.070312 C 132.890625 221.070312 132.472656 220.898438 132.128906 220.550781 L 125.175781 213.578125 C 124.894531 213.296875 124.640625 212.988281 124.417969 212.660156 C 124.191406 212.332031 124 211.984375 123.839844 211.617188 C 123.679688 211.253906 123.554688 210.878906 123.460938 210.488281 C 123.371094 210.101562 123.316406 209.707031 123.300781 209.308594 C 123.28125 208.910156 123.300781 208.511719 123.355469 208.117188 C 123.410156 207.722656 123.5 207.335938 123.628906 206.957031 C 123.753906 206.578125 123.914062 206.214844 124.109375 205.867188 C 124.304688 205.519531 124.527344 205.191406 124.78125 204.882812 C 125.039062 204.578125 125.316406 204.296875 125.625 204.042969 C 125.929688 203.789062 126.257812 203.5625 126.605469 203.371094 C 126.953125 203.175781 127.316406 203.015625 127.695312 202.890625 C 128.070312 202.765625 128.457031 202.671875 128.851562 202.621094 C 129.246094 202.566406 129.640625 202.546875 130.039062 202.566406 C 130.4375 202.585938 130.828125 202.640625 131.21875 202.734375 C 131.605469 202.828125 131.980469 202.953125 132.34375 203.117188 C 132.707031 203.277344 133.050781 203.472656 133.378906 203.699219 C 133.707031 203.472656 134.054688 203.277344 134.417969 203.117188 C 134.78125 202.957031 135.15625 202.828125 135.542969 202.738281 C 135.929688 202.644531 136.324219 202.589844 136.71875 202.570312 C 137.117188 202.550781 137.511719 202.570312 137.90625 202.625 C 138.300781 202.679688 138.6875 202.769531 139.0625 202.894531 C 139.441406 203.019531 139.804688 203.179688 140.152344 203.375 C 140.5 203.570312 140.824219 203.792969 141.132812 204.046875 C 141.4375 204.300781 141.71875 204.582031 141.972656 204.886719 C 142.226562 205.195312 142.453125 205.523438 142.644531 205.871094 C 142.839844 206.21875 143 206.582031 143.128906 206.960938 C 143.253906 207.335938 143.34375 207.722656 143.402344 208.117188 C 143.457031 208.511719 143.476562 208.910156 143.457031 209.308594 C 143.4375 209.707031 143.386719 210.101562 143.292969 210.488281 C 143.203125 210.878906 143.078125 211.253906 142.917969 211.621094 C 142.757812 211.984375 142.566406 212.332031 142.34375 212.660156 C 142.117188 212.988281 141.863281 213.296875 141.585938 213.578125 L 134.628906 220.550781 C 134.285156 220.898438 133.867188 221.070312 133.378906 221.070312 Z M 133.378906 216.789062 L 139.078125 211.070312 C 139.34375 210.796875 139.542969 210.480469 139.683594 210.128906 C 139.820312 209.773438 139.890625 209.40625 139.886719 209.027344 C 139.882812 208.648438 139.804688 208.28125 139.660156 207.933594 C 139.511719 207.582031 139.304688 207.273438 139.035156 207.003906 C 138.769531 206.734375 138.460938 206.527344 138.109375 206.378906 C 137.761719 206.230469 137.398438 206.15625 137.019531 206.152344 C 136.640625 206.148438 136.273438 206.214844 135.921875 206.355469 C 135.570312 206.496094 135.253906 206.695312 134.980469 206.960938 L 134.628906 207.3125 C 134.28125 207.660156 133.867188 207.832031 133.378906 207.832031 C 132.890625 207.832031 132.472656 207.660156 132.125 207.3125 L 131.773438 206.960938 C 131.5 206.695312 131.1875 206.496094 130.835938 206.355469 C 130.484375 206.214844 130.117188 206.148438 129.738281 206.152344 C 129.359375 206.15625 128.996094 206.230469 128.644531 206.378906 C 128.296875 206.527344 127.988281 206.734375 127.71875 207.003906 C 127.453125 207.269531 127.246094 207.582031 127.097656 207.929688 C 126.949219 208.28125 126.875 208.648438 126.871094 209.027344 C 126.867188 209.40625 126.933594 209.773438 127.074219 210.128906 C 127.214844 210.480469 127.414062 210.792969 127.675781 211.070312 Z M 176.589844 134.765625 L 200.816406 134.765625 C 201.050781 134.765625 201.273438 134.71875 201.492188 134.628906 C 201.707031 134.539062 201.898438 134.410156 202.066406 134.246094 C 202.230469 134.078125 202.359375 133.886719 202.449219 133.671875 C 202.539062 133.453125 202.582031 133.226562 202.582031 132.992188 C 202.582031 132.757812 202.539062 132.53125 202.449219 132.3125 C 202.359375 132.09375 202.230469 131.902344 202.066406 131.738281 C 201.898438 131.570312 201.707031 131.441406 201.492188 131.351562 C 201.273438 131.261719 201.050781 131.21875 200.816406 131.21875 L 176.589844 131.21875 C 176.355469 131.21875 176.128906 131.261719 175.914062 131.351562 C 175.695312 131.441406 175.503906 131.570312 175.339844 131.738281 C 175.171875 131.902344 175.046875 132.09375 174.957031 132.3125 C 174.867188 132.53125 174.820312 132.757812 174.820312 132.992188 C 174.820312 133.226562 174.867188 133.453125 174.957031 133.671875 C 175.046875 133.886719 175.171875 134.078125 175.339844 134.246094 C 175.503906 134.410156 175.695312 134.539062 175.914062 134.628906 C 176.128906 134.71875 176.355469 134.765625 176.589844 134.765625 Z M 200.816406 143.203125 C 201.050781 143.203125 201.273438 143.160156 201.492188 143.070312 C 201.707031 142.980469 201.898438 142.851562 202.066406 142.683594 C 202.230469 142.519531 202.359375 142.328125 202.449219 142.109375 C 202.539062 141.890625 202.582031 141.664062 202.582031 141.429688 C 202.582031 141.195312 202.539062 140.96875 202.449219 140.75 C 202.359375 140.535156 202.230469 140.34375 202.066406 140.175781 C 201.898438 140.011719 201.707031 139.882812 201.492188 139.792969 C 201.273438 139.703125 201.050781 139.65625 200.816406 139.65625 L 176.589844 139.65625 C 176.355469 139.65625 176.128906 139.703125 175.914062 139.792969 C 175.695312 139.882812 175.503906 140.011719 175.339844 140.175781 C 175.171875 140.34375 175.046875 140.535156 174.957031 140.75 C 174.867188 140.96875 174.820312 141.195312 174.820312 141.429688 C 174.820312 141.664062 174.867188 141.890625 174.957031 142.109375 C 175.046875 142.328125 175.171875 142.519531 175.339844 142.683594 C 175.503906 142.851562 175.695312 142.980469 175.914062 143.070312 C 176.128906 143.160156 176.355469 143.203125 176.589844 143.203125 Z M 240.789062 225.054688 L 240.789062 245.105469 C 240.789062 245.339844 240.742188 245.566406 240.652344 245.78125 C 240.566406 246 240.4375 246.191406 240.269531 246.359375 C 240.105469 246.523438 239.914062 246.652344 239.695312 246.742188 C 239.480469 246.832031 239.253906 246.878906 239.019531 246.878906 L 223.707031 246.878906 L 220.523438 252.40625 C 220.449219 252.539062 220.355469 252.660156 220.246094 252.773438 C 220.132812 252.882812 220.011719 252.976562 219.878906 253.054688 C 219.742188 253.132812 219.601562 253.191406 219.453125 253.230469 C 219.300781 253.273438 219.148438 253.292969 218.992188 253.292969 C 218.839844 253.292969 218.6875 253.273438 218.535156 253.230469 C 218.386719 253.191406 218.242188 253.132812 218.109375 253.054688 C 217.976562 252.976562 217.851562 252.882812 217.742188 252.773438 C 217.632812 252.660156 217.539062 252.539062 217.460938 252.40625 L 214.28125 246.878906 L 209.960938 246.878906 C 209.726562 246.878906 209.5 246.832031 209.28125 246.742188 C 209.066406 246.652344 208.875 246.523438 208.710938 246.359375 C 208.542969 246.191406 208.414062 246 208.324219 245.78125 C 208.234375 245.566406 208.191406 245.339844 208.191406 245.105469 L 208.191406 225.054688 C 208.191406 224.816406 208.234375 224.589844 208.324219 224.375 C 208.414062 224.15625 208.542969 223.964844 208.710938 223.796875 C 208.875 223.632812 209.066406 223.503906 209.28125 223.414062 C 209.5 223.324219 209.726562 223.277344 209.960938 223.277344 L 239.019531 223.277344 C 239.253906 223.277344 239.480469 223.324219 239.695312 223.414062 C 239.914062 223.503906 240.105469 223.632812 240.269531 223.796875 C 240.4375 223.964844 240.566406 224.15625 240.652344 224.375 C 240.742188 224.589844 240.789062 224.816406 240.789062 225.054688 Z M 237.25 226.828125 L 211.730469 226.828125 L 211.730469 243.328125 L 215.300781 243.328125 C 215.617188 243.328125 215.910156 243.410156 216.1875 243.566406 C 216.460938 243.726562 216.675781 243.941406 216.832031 244.21875 L 218.996094 247.96875 L 221.15625 244.21875 C 221.3125 243.941406 221.527344 243.726562 221.804688 243.566406 C 222.078125 243.410156 222.371094 243.328125 222.6875 243.328125 L 237.253906 243.328125 Z M 215.820312 233.363281 L 233.160156 233.363281 C 233.394531 233.363281 233.621094 233.320312 233.835938 233.230469 C 234.054688 233.136719 234.246094 233.011719 234.410156 232.84375 C 234.574219 232.679688 234.703125 232.484375 234.792969 232.269531 C 234.882812 232.050781 234.929688 231.824219 234.929688 231.589844 C 234.929688 231.355469 234.882812 231.128906 234.792969 230.910156 C 234.703125 230.695312 234.574219 230.5 234.410156 230.335938 C 234.246094 230.167969 234.054688 230.039062 233.835938 229.949219 C 233.621094 229.859375 233.394531 229.816406 233.160156 229.816406 L 215.820312 229.816406 C 215.585938 229.816406 215.359375 229.859375 215.144531 229.949219 C 214.925781 230.039062 214.734375 230.167969 214.570312 230.335938 C 214.402344 230.5 214.277344 230.695312 214.1875 230.910156 C 214.097656 231.128906 214.050781 231.355469 214.050781 231.589844 C 214.050781 231.824219 214.097656 232.050781 214.1875 232.269531 C 214.277344 232.484375 214.402344 232.679688 214.570312 232.84375 C 214.734375 233.011719 214.925781 233.136719 215.144531 233.230469 C 215.359375 233.320312 215.585938 233.363281 215.820312 233.363281 Z M 215.820312 239.402344 L 233.160156 239.402344 C 233.394531 239.402344 233.621094 239.359375 233.835938 239.269531 C 234.054688 239.179688 234.246094 239.050781 234.410156 238.882812 C 234.574219 238.71875 234.703125 238.527344 234.792969 238.308594 C 234.882812 238.09375 234.929688 237.867188 234.929688 237.628906 C 234.929688 237.394531 234.882812 237.167969 234.792969 236.953125 C 234.703125 236.734375 234.574219 236.542969 234.410156 236.375 C 234.246094 236.210938 234.054688 236.082031 233.835938 235.992188 C 233.621094 235.902344 233.394531 235.855469 233.160156 235.855469 L 215.820312 235.855469 C 215.585938 235.855469 215.359375 235.902344 215.144531 235.992188 C 214.925781 236.082031 214.734375 236.210938 214.570312 236.375 C 214.402344 236.542969 214.277344 236.734375 214.1875 236.953125 C 214.097656 237.167969 214.050781 237.394531 214.050781 237.628906 C 214.050781 237.867188 214.097656 238.09375 214.1875 238.308594 C 214.277344 238.527344 214.402344 238.71875 214.570312 238.882812 C 214.734375 239.050781 214.925781 239.179688 215.144531 239.269531 C 215.359375 239.359375 215.585938 239.402344 215.820312 239.402344 Z M 215.820312 239.402344 " fill-opacity="1" fill-rule="nonzero"/></g></svg>