<svg xmlns="http://www.w3.org/2000/svg" xmlns:xlink="http://www.w3.org/1999/xlink" width="800" zoomAndPan="magnify" viewBox="0 0 600 599.999999" height="800" preserveAspectRatio="xMidYMid meet" version="1.2"><defs><clipPath id="601817947f"><path d="M 31.667969 242.328125 L 572.417969 242.328125 L 572.417969 369.828125 L 31.667969 369.828125 Z M 31.667969 242.328125 "/></clipPath><clipPath id="9e8c96d74d"><path d="M 251.199219 255.941406 L 560.949219 255.941406 L 560.949219 355.691406 L 251.199219 355.691406 Z M 251.199219 255.941406 "/></clipPath></defs><g id="bf017b0fe1"><g clip-rule="nonzero" clip-path="url(#601817947f)"><path style=" stroke:none;fill-rule:nonzero;fill:#fb4f14;fill-opacity:1;" d="M 31.667969 242.328125 L 572.417969 242.328125 L 572.417969 369.828125 L 31.667969 369.828125 Z M 31.667969 242.328125 "/></g><g clip-rule="nonzero" clip-path="url(#9e8c96d74d)"><path style=" stroke:none;fill-rule:nonzero;fill:#ffffff;fill-opacity:1;" d="M 251.199219 255.941406 L 560.949219 255.941406 L 560.949219 355.691406 L 251.199219 355.691406 Z M 251.199219 255.941406 "/></g><g style="fill:#fb4f14;fill-opacity:1;"><g transform="translate(271.457382, 325.770622)"><path style="stroke:none" d="M 10.515625 -43.34375 L 16.578125 -43.34375 C 19.140625 -43.34375 21.082031 -42.679688 22.40625 -41.359375 C 23.726562 -40.046875 24.390625 -38.109375 24.390625 -35.546875 L 24.390625 -29.796875 C 24.390625 -29.222656 24.097656 -28.9375 23.515625 -28.9375 L 17.875 -28.9375 C 17.300781 -28.9375 17.015625 -29.222656 17.015625 -29.796875 L 17.015625 -34.03125 C 17.015625 -35.476562 16.289062 -36.203125 14.84375 -36.203125 L 12.25 -36.203125 C 10.800781 -36.203125 10.078125 -35.476562 10.078125 -34.03125 L 10.078125 -26.546875 L 22.96875 -22.328125 C 23.914062 -21.929688 24.390625 -21.265625 24.390625 -20.328125 L 24.390625 -7.796875 C 24.390625 -5.273438 23.726562 -3.34375 22.40625 -2 C 21.082031 -0.664062 19.140625 0 16.578125 0 L 10.515625 0 C 7.984375 0 6.046875 -0.664062 4.703125 -2 C 3.367188 -3.34375 2.703125 -5.273438 2.703125 -7.796875 L 2.703125 -13.5 C 2.703125 -14.070312 2.992188 -14.359375 3.578125 -14.359375 L 9.21875 -14.359375 C 9.789062 -14.359375 10.078125 -14.070312 10.078125 -13.5 L 10.078125 -9.3125 C 10.078125 -7.875 10.800781 -7.15625 12.25 -7.15625 L 14.84375 -7.15625 C 16.289062 -7.15625 17.015625 -7.875 17.015625 -9.3125 L 17.015625 -16.53125 L 4.171875 -20.75 C 3.191406 -21.070312 2.703125 -21.742188 2.703125 -22.765625 L 2.703125 -35.546875 C 2.703125 -38.109375 3.367188 -40.046875 4.703125 -41.359375 C 6.046875 -42.679688 7.984375 -43.34375 10.515625 -43.34375 Z M 10.515625 -43.34375 "/></g></g><g style="fill:#fb4f14;fill-opacity:1;"><g transform="translate(298.551594, 325.770622)"><path style="stroke:none" d="M 2.703125 -0.859375 L 2.703125 -37.0625 C 2.703125 -37.644531 2.992188 -37.9375 3.578125 -37.9375 L 16.578125 -37.9375 C 19.140625 -37.9375 21.082031 -37.273438 22.40625 -35.953125 C 23.726562 -34.628906 24.390625 -32.6875 24.390625 -30.125 L 24.390625 -19.5 C 24.390625 -16.976562 23.726562 -15.054688 22.40625 -13.734375 C 21.082031 -12.421875 19.140625 -11.742188 16.578125 -11.703125 L 9.75 -11.65625 L 9.75 -0.8125 C 9.75 -0.238281 9.460938 0.046875 8.890625 0.046875 L 3.578125 0 C 2.992188 0 2.703125 -0.285156 2.703125 -0.859375 Z M 9.75 -18.640625 L 15.171875 -18.6875 C 16.617188 -18.6875 17.34375 -19.410156 17.34375 -20.859375 L 17.34375 -28.78125 C 17.34375 -30.21875 16.617188 -30.9375 15.171875 -30.9375 L 9.75 -30.890625 Z M 9.75 -18.640625 "/></g></g><g style="fill:#fb4f14;fill-opacity:1;"><g transform="translate(325.645805, 325.770622)"><path style="stroke:none" d="M 2.703125 -7.796875 L 2.703125 -30.125 C 2.703125 -32.6875 3.367188 -34.628906 4.703125 -35.953125 C 6.046875 -37.273438 7.984375 -37.9375 10.515625 -37.9375 L 16.578125 -37.9375 C 19.140625 -37.9375 21.082031 -37.273438 22.40625 -35.953125 C 23.726562 -34.628906 24.390625 -32.6875 24.390625 -30.125 L 24.390625 -7.796875 C 24.390625 -5.273438 23.726562 -3.34375 22.40625 -2 C 21.082031 -0.664062 19.140625 0 16.578125 0 L 10.515625 0 C 7.984375 0 6.046875 -0.664062 4.703125 -2 C 3.367188 -3.34375 2.703125 -5.273438 2.703125 -7.796875 Z M 11.921875 -6.984375 L 15.390625 -6.984375 C 16.835938 -6.984375 17.5625 -7.707031 17.5625 -9.15625 L 17.5625 -28.78125 C 17.5625 -30.21875 16.835938 -30.9375 15.390625 -30.9375 L 11.921875 -30.9375 C 10.472656 -30.9375 9.75 -30.21875 9.75 -28.78125 L 9.75 -9.15625 C 9.75 -7.707031 10.472656 -6.984375 11.921875 -6.984375 Z M 11.921875 -6.984375 "/></g></g><g style="fill:#fb4f14;fill-opacity:1;"><g transform="translate(352.740016, 325.770622)"><path style="stroke:none" d="M 24.390625 -30.125 L 24.390625 -19.234375 C 24.390625 -16.085938 23.375 -13.882812 21.34375 -12.625 L 24.171875 -0.96875 C 24.347656 -0.320312 24.09375 0 23.40625 0 L 18.09375 0 C 17.59375 0 17.285156 -0.253906 17.171875 -0.765625 L 14.578125 -11.4375 L 9.75 -11.4375 L 9.75 -0.859375 C 9.75 -0.285156 9.460938 0 8.890625 0 L 3.578125 0 C 2.992188 0 2.703125 -0.285156 2.703125 -0.859375 L 2.703125 -37.0625 C 2.703125 -37.644531 2.992188 -37.9375 3.578125 -37.9375 L 16.578125 -37.9375 C 19.140625 -37.9375 21.082031 -37.273438 22.40625 -35.953125 C 23.726562 -34.628906 24.390625 -32.6875 24.390625 -30.125 Z M 9.75 -18.421875 L 15.171875 -18.421875 C 16.617188 -18.421875 17.34375 -19.144531 17.34375 -20.59375 L 17.34375 -28.78125 C 17.34375 -30.21875 16.617188 -30.9375 15.171875 -30.9375 L 9.75 -30.9375 Z M 9.75 -18.421875 "/></g></g><g style="fill:#fb4f14;fill-opacity:1;"><g transform="translate(379.834228, 325.770622)"><path style="stroke:none" d="M 22.4375 -37.9375 L 2.5 -37.9375 C 1.914062 -37.9375 1.625 -37.644531 1.625 -37.0625 L 1.625 -31.640625 C 1.625 -31.066406 1.914062 -30.78125 2.5 -30.78125 L 8.78125 -30.78125 L 8.78125 -0.859375 C 8.78125 -0.285156 9.066406 0 9.640625 0 L 15.28125 0 C 15.851562 0 16.140625 -0.285156 16.140625 -0.859375 L 16.140625 -30.78125 L 22.4375 -30.78125 C 23.007812 -30.78125 23.296875 -31.066406 23.296875 -31.640625 L 23.296875 -37.0625 C 23.296875 -37.644531 23.007812 -37.9375 22.4375 -37.9375 Z M 22.4375 -37.9375 "/></g></g><g style="fill:#fb4f14;fill-opacity:1;"><g transform="translate(404.760886, 325.770622)"><path style="stroke:none" d="M 10.515625 -37.9375 L 16.578125 -37.9375 C 19.140625 -37.9375 21.082031 -37.273438 22.40625 -35.953125 C 23.726562 -34.628906 24.390625 -32.6875 24.390625 -30.125 L 24.390625 -26.546875 C 24.390625 -25.972656 24.097656 -25.6875 23.515625 -25.6875 L 18.046875 -25.6875 C 17.460938 -25.6875 17.171875 -25.972656 17.171875 -26.546875 L 17.171875 -28.828125 C 17.171875 -30.273438 16.453125 -31 15.015625 -31 L 12.03125 -31 C 10.582031 -31 9.859375 -30.273438 9.859375 -28.828125 L 9.859375 -24.21875 L 22.96875 -20 C 23.914062 -19.664062 24.390625 -18.992188 24.390625 -17.984375 L 24.390625 -7.796875 C 24.390625 -5.273438 23.726562 -3.34375 22.40625 -2 C 21.082031 -0.664062 19.140625 0 16.578125 0 L 10.515625 0 C 7.984375 0 6.046875 -0.664062 4.703125 -2 C 3.367188 -3.34375 2.703125 -5.273438 2.703125 -7.796875 L 2.703125 -11.328125 C 2.703125 -11.898438 2.992188 -12.1875 3.578125 -12.1875 L 9.046875 -12.1875 C 9.628906 -12.1875 9.921875 -11.898438 9.921875 -11.328125 L 9.921875 -9.046875 C 9.921875 -7.597656 10.640625 -6.875 12.078125 -6.875 L 15.015625 -6.875 C 16.453125 -6.875 17.171875 -7.597656 17.171875 -9.046875 L 17.171875 -14.515625 L 4.171875 -18.75 C 3.191406 -19.070312 2.703125 -19.738281 2.703125 -20.75 L 2.703125 -30.125 C 2.703125 -32.6875 3.367188 -34.628906 4.703125 -35.953125 C 6.046875 -37.273438 7.984375 -37.9375 10.515625 -37.9375 Z M 10.515625 -37.9375 "/></g></g><g style="fill:#fb4f14;fill-opacity:1;"><g transform="translate(431.855097, 325.770622)"><path style="stroke:none" d=""/></g></g><g style="fill:#fb4f14;fill-opacity:1;"><g transform="translate(445.402203, 325.770622)"><path style="stroke:none" d="M 10.078125 -7.15625 L 10.078125 -42.484375 C 10.078125 -43.054688 9.789062 -43.34375 9.21875 -43.34375 L 3.578125 -43.34375 C 2.992188 -43.34375 2.703125 -43.054688 2.703125 -42.484375 L 2.703125 -0.859375 C 2.703125 -0.285156 2.992188 0 3.578125 0 L 22.96875 0 C 23.550781 0 23.84375 -0.285156 23.84375 -0.859375 L 23.84375 -6.28125 C 23.84375 -6.863281 23.550781 -7.15625 22.96875 -7.15625 Z M 10.078125 -7.15625 "/></g></g><g style="fill:#fb4f14;fill-opacity:1;"><g transform="translate(471.954531, 325.770622)"><path style="stroke:none" d="M 3.578125 0 L 9.21875 0 C 9.789062 0 10.078125 -0.285156 10.078125 -0.859375 L 10.078125 -37.0625 C 10.078125 -37.644531 9.789062 -37.9375 9.21875 -37.9375 L 3.578125 -37.9375 C 2.992188 -37.9375 2.703125 -37.644531 2.703125 -37.0625 L 2.703125 -0.859375 C 2.703125 -0.285156 2.992188 0 3.578125 0 Z M 3.578125 0 "/></g></g><g style="fill:#fb4f14;fill-opacity:1;"><g transform="translate(484.742996, 325.770622)"><path style="stroke:none" d="M 19.890625 -37.9375 L 24.984375 -37.9375 C 25.554688 -37.9375 25.84375 -37.644531 25.84375 -37.0625 L 25.84375 -0.859375 C 25.84375 -0.285156 25.554688 0 24.984375 0 L 20.703125 0 C 20.265625 0 19.9375 -0.234375 19.71875 -0.703125 L 9.53125 -21.40625 L 9.53125 -0.859375 C 9.53125 -0.285156 9.242188 0 8.671875 0 L 3.578125 0 C 2.992188 0 2.703125 -0.285156 2.703125 -0.859375 L 2.703125 -37.0625 C 2.703125 -37.644531 2.992188 -37.9375 3.578125 -37.9375 L 7.859375 -37.9375 C 8.285156 -37.9375 8.609375 -37.703125 8.828125 -37.234375 L 19.015625 -16.53125 L 19.015625 -37.0625 C 19.015625 -37.644531 19.304688 -37.9375 19.890625 -37.9375 Z M 19.890625 -37.9375 "/></g></g><g style="fill:#fb4f14;fill-opacity:1;"><g transform="translate(513.300295, 325.770622)"><path style="stroke:none" d="M 24.328125 -37.0625 L 24.328125 -31.640625 C 24.328125 -31.023438 24.039062 -30.71875 23.46875 -30.71875 L 10.078125 -30.71875 L 10.078125 -22.375 L 20.265625 -22.375 C 20.847656 -22.375 21.140625 -22.066406 21.140625 -21.453125 L 21.140625 -16.09375 C 21.140625 -15.476562 20.847656 -15.171875 20.265625 -15.171875 L 10.078125 -15.171875 L 10.078125 -7.15625 L 23.46875 -7.15625 C 24.039062 -7.15625 24.328125 -6.863281 24.328125 -6.28125 L 24.328125 -0.859375 C 24.328125 -0.285156 24.039062 0 23.46875 0 L 3.515625 0 C 2.972656 0 2.703125 -0.285156 2.703125 -0.859375 L 2.703125 -37.0625 C 2.703125 -37.644531 2.972656 -37.9375 3.515625 -37.9375 L 23.46875 -37.9375 C 24.039062 -37.9375 24.328125 -37.644531 24.328125 -37.0625 Z M 24.328125 -37.0625 "/></g></g><g style="fill:#fb4f14;fill-opacity:1;"><g transform="translate(198.929216, 429.549907)"><path style="stroke:none" d="M 7.75 -9.953125 C 7.6875 -9.828125 7.613281 -9.738281 7.53125 -9.6875 C 7.445312 -9.644531 7.351562 -9.625 7.25 -9.625 C 7.132812 -9.625 7.003906 -9.664062 6.859375 -9.75 C 6.722656 -9.832031 6.554688 -9.925781 6.359375 -10.03125 C 6.171875 -10.144531 5.945312 -10.242188 5.6875 -10.328125 C 5.4375 -10.410156 5.140625 -10.453125 4.796875 -10.453125 C 4.484375 -10.453125 4.207031 -10.414062 3.96875 -10.34375 C 3.738281 -10.269531 3.539062 -10.164062 3.375 -10.03125 C 3.21875 -9.894531 3.097656 -9.734375 3.015625 -9.546875 C 2.941406 -9.359375 2.90625 -9.148438 2.90625 -8.921875 C 2.90625 -8.640625 2.984375 -8.398438 3.140625 -8.203125 C 3.304688 -8.015625 3.519531 -7.851562 3.78125 -7.71875 C 4.050781 -7.582031 4.351562 -7.460938 4.6875 -7.359375 C 5.019531 -7.253906 5.363281 -7.140625 5.71875 -7.015625 C 6.070312 -6.898438 6.414062 -6.757812 6.75 -6.59375 C 7.082031 -6.4375 7.378906 -6.234375 7.640625 -5.984375 C 7.910156 -5.742188 8.125 -5.445312 8.28125 -5.09375 C 8.4375 -4.738281 8.515625 -4.3125 8.515625 -3.8125 C 8.515625 -3.257812 8.421875 -2.742188 8.234375 -2.265625 C 8.046875 -1.785156 7.769531 -1.367188 7.40625 -1.015625 C 7.050781 -0.660156 6.613281 -0.378906 6.09375 -0.171875 C 5.570312 0.0351562 4.972656 0.140625 4.296875 0.140625 C 3.910156 0.140625 3.53125 0.0976562 3.15625 0.015625 C 2.78125 -0.0546875 2.421875 -0.160156 2.078125 -0.296875 C 1.734375 -0.441406 1.410156 -0.613281 1.109375 -0.8125 C 0.804688 -1.007812 0.535156 -1.226562 0.296875 -1.46875 L 0.953125 -2.546875 C 1.015625 -2.628906 1.085938 -2.695312 1.171875 -2.75 C 1.265625 -2.800781 1.363281 -2.828125 1.46875 -2.828125 C 1.613281 -2.828125 1.765625 -2.769531 1.921875 -2.65625 C 2.085938 -2.539062 2.28125 -2.410156 2.5 -2.265625 C 2.71875 -2.128906 2.976562 -2.003906 3.28125 -1.890625 C 3.582031 -1.773438 3.941406 -1.71875 4.359375 -1.71875 C 5.003906 -1.71875 5.503906 -1.867188 5.859375 -2.171875 C 6.210938 -2.484375 6.390625 -2.921875 6.390625 -3.484375 C 6.390625 -3.804688 6.3125 -4.066406 6.15625 -4.265625 C 6 -4.472656 5.785156 -4.644531 5.515625 -4.78125 C 5.253906 -4.914062 4.953125 -5.03125 4.609375 -5.125 C 4.273438 -5.226562 3.9375 -5.332031 3.59375 -5.4375 C 3.25 -5.550781 2.90625 -5.6875 2.5625 -5.84375 C 2.226562 -6 1.925781 -6.203125 1.65625 -6.453125 C 1.394531 -6.710938 1.1875 -7.03125 1.03125 -7.40625 C 0.875 -7.78125 0.796875 -8.25 0.796875 -8.8125 C 0.796875 -9.25 0.882812 -9.675781 1.0625 -10.09375 C 1.238281 -10.519531 1.492188 -10.894531 1.828125 -11.21875 C 2.171875 -11.550781 2.585938 -11.8125 3.078125 -12 C 3.566406 -12.195312 4.128906 -12.296875 4.765625 -12.296875 C 5.484375 -12.296875 6.144531 -12.179688 6.75 -11.953125 C 7.363281 -11.734375 7.878906 -11.421875 8.296875 -11.015625 Z M 7.75 -9.953125 "/></g></g><g style="fill:#fb4f14;fill-opacity:1;"><g transform="translate(217.885891, 429.549907)"><path style="stroke:none" d="M 3.5625 -4.28125 L 3.5625 0 L 1.296875 0 L 1.296875 -12.171875 L 5.265625 -12.171875 C 6.078125 -12.171875 6.78125 -12.070312 7.375 -11.875 C 7.96875 -11.6875 8.457031 -11.421875 8.84375 -11.078125 C 9.238281 -10.734375 9.523438 -10.320312 9.703125 -9.84375 C 9.890625 -9.375 9.984375 -8.851562 9.984375 -8.28125 C 9.984375 -7.695312 9.882812 -7.160156 9.6875 -6.671875 C 9.5 -6.179688 9.207031 -5.757812 8.8125 -5.40625 C 8.414062 -5.050781 7.921875 -4.773438 7.328125 -4.578125 C 6.742188 -4.378906 6.054688 -4.28125 5.265625 -4.28125 Z M 3.5625 -6.046875 L 5.265625 -6.046875 C 5.679688 -6.046875 6.039062 -6.097656 6.34375 -6.203125 C 6.65625 -6.304688 6.910156 -6.453125 7.109375 -6.640625 C 7.316406 -6.835938 7.46875 -7.078125 7.5625 -7.359375 C 7.664062 -7.640625 7.71875 -7.945312 7.71875 -8.28125 C 7.71875 -8.613281 7.664062 -8.910156 7.5625 -9.171875 C 7.46875 -9.429688 7.316406 -9.65625 7.109375 -9.84375 C 6.910156 -10.03125 6.65625 -10.171875 6.34375 -10.265625 C 6.039062 -10.367188 5.679688 -10.421875 5.265625 -10.421875 L 3.5625 -10.421875 Z M 3.5625 -6.046875 "/></g></g><g style="fill:#fb4f14;fill-opacity:1;"><g transform="translate(238.331446, 429.549907)"><path style="stroke:none" d="M 12.90625 -6.078125 C 12.90625 -5.191406 12.753906 -4.367188 12.453125 -3.609375 C 12.148438 -2.847656 11.726562 -2.1875 11.1875 -1.625 C 10.65625 -1.070312 10.007812 -0.640625 9.25 -0.328125 C 8.5 -0.015625 7.660156 0.140625 6.734375 0.140625 C 5.816406 0.140625 4.976562 -0.015625 4.21875 -0.328125 C 3.457031 -0.640625 2.804688 -1.070312 2.265625 -1.625 C 1.722656 -2.1875 1.300781 -2.847656 1 -3.609375 C 0.707031 -4.367188 0.5625 -5.191406 0.5625 -6.078125 C 0.5625 -6.972656 0.707031 -7.800781 1 -8.5625 C 1.300781 -9.320312 1.722656 -9.976562 2.265625 -10.53125 C 2.804688 -11.09375 3.457031 -11.523438 4.21875 -11.828125 C 4.976562 -12.140625 5.816406 -12.296875 6.734375 -12.296875 C 7.660156 -12.296875 8.5 -12.140625 9.25 -11.828125 C 10.007812 -11.515625 10.65625 -11.082031 11.1875 -10.53125 C 11.726562 -9.976562 12.148438 -9.320312 12.453125 -8.5625 C 12.753906 -7.800781 12.90625 -6.972656 12.90625 -6.078125 Z M 10.578125 -6.078125 C 10.578125 -6.742188 10.488281 -7.34375 10.3125 -7.875 C 10.132812 -8.40625 9.878906 -8.851562 9.546875 -9.21875 C 9.210938 -9.59375 8.804688 -9.878906 8.328125 -10.078125 C 7.859375 -10.273438 7.328125 -10.375 6.734375 -10.375 C 6.140625 -10.375 5.601562 -10.273438 5.125 -10.078125 C 4.65625 -9.878906 4.253906 -9.59375 3.921875 -9.21875 C 3.585938 -8.851562 3.328125 -8.40625 3.140625 -7.875 C 2.960938 -7.34375 2.875 -6.742188 2.875 -6.078125 C 2.875 -5.410156 2.960938 -4.8125 3.140625 -4.28125 C 3.328125 -3.75 3.585938 -3.300781 3.921875 -2.9375 C 4.253906 -2.570312 4.65625 -2.289062 5.125 -2.09375 C 5.601562 -1.894531 6.140625 -1.796875 6.734375 -1.796875 C 7.328125 -1.796875 7.859375 -1.894531 8.328125 -2.09375 C 8.804688 -2.289062 9.210938 -2.570312 9.546875 -2.9375 C 9.878906 -3.300781 10.132812 -3.75 10.3125 -4.28125 C 10.488281 -4.8125 10.578125 -5.410156 10.578125 -6.078125 Z M 10.578125 -6.078125 "/></g></g><g style="fill:#fb4f14;fill-opacity:1;"><g transform="translate(261.712675, 429.549907)"><path style="stroke:none" d="M 3.5625 -4.75 L 3.5625 0 L 1.296875 0 L 1.296875 -12.171875 L 5.015625 -12.171875 C 5.847656 -12.171875 6.554688 -12.082031 7.140625 -11.90625 C 7.734375 -11.738281 8.21875 -11.5 8.59375 -11.1875 C 8.976562 -10.882812 9.257812 -10.515625 9.4375 -10.078125 C 9.613281 -9.648438 9.703125 -9.179688 9.703125 -8.671875 C 9.703125 -8.253906 9.640625 -7.863281 9.515625 -7.5 C 9.398438 -7.132812 9.226562 -6.800781 9 -6.5 C 8.769531 -6.207031 8.488281 -5.945312 8.15625 -5.71875 C 7.820312 -5.5 7.441406 -5.320312 7.015625 -5.1875 C 7.304688 -5.03125 7.550781 -4.800781 7.75 -4.5 L 10.796875 0 L 8.765625 0 C 8.566406 0 8.398438 -0.0351562 8.265625 -0.109375 C 8.128906 -0.191406 8.015625 -0.304688 7.921875 -0.453125 L 5.359375 -4.34375 C 5.265625 -4.488281 5.160156 -4.59375 5.046875 -4.65625 C 4.929688 -4.71875 4.757812 -4.75 4.53125 -4.75 Z M 3.5625 -6.375 L 4.984375 -6.375 C 5.410156 -6.375 5.78125 -6.425781 6.09375 -6.53125 C 6.414062 -6.644531 6.675781 -6.796875 6.875 -6.984375 C 7.082031 -7.171875 7.234375 -7.390625 7.328125 -7.640625 C 7.429688 -7.898438 7.484375 -8.1875 7.484375 -8.5 C 7.484375 -9.113281 7.28125 -9.585938 6.875 -9.921875 C 6.46875 -10.253906 5.847656 -10.421875 5.015625 -10.421875 L 3.5625 -10.421875 Z M 3.5625 -6.375 "/></g></g><g style="fill:#fb4f14;fill-opacity:1;"><g transform="translate(282.662918, 429.549907)"><path style="stroke:none" d="M 9.796875 -12.171875 L 9.796875 -10.3125 L 6.140625 -10.3125 L 6.140625 0 L 3.875 0 L 3.875 -10.3125 L 0.203125 -10.3125 L 0.203125 -12.171875 Z M 9.796875 -12.171875 "/></g></g><g style="fill:#fb4f14;fill-opacity:1;"><g transform="translate(302.603765, 429.549907)"><path style="stroke:none" d="M 7.75 -9.953125 C 7.6875 -9.828125 7.613281 -9.738281 7.53125 -9.6875 C 7.445312 -9.644531 7.351562 -9.625 7.25 -9.625 C 7.132812 -9.625 7.003906 -9.664062 6.859375 -9.75 C 6.722656 -9.832031 6.554688 -9.925781 6.359375 -10.03125 C 6.171875 -10.144531 5.945312 -10.242188 5.6875 -10.328125 C 5.4375 -10.410156 5.140625 -10.453125 4.796875 -10.453125 C 4.484375 -10.453125 4.207031 -10.414062 3.96875 -10.34375 C 3.738281 -10.269531 3.539062 -10.164062 3.375 -10.03125 C 3.21875 -9.894531 3.097656 -9.734375 3.015625 -9.546875 C 2.941406 -9.359375 2.90625 -9.148438 2.90625 -8.921875 C 2.90625 -8.640625 2.984375 -8.398438 3.140625 -8.203125 C 3.304688 -8.015625 3.519531 -7.851562 3.78125 -7.71875 C 4.050781 -7.582031 4.351562 -7.460938 4.6875 -7.359375 C 5.019531 -7.253906 5.363281 -7.140625 5.71875 -7.015625 C 6.070312 -6.898438 6.414062 -6.757812 6.75 -6.59375 C 7.082031 -6.4375 7.378906 -6.234375 7.640625 -5.984375 C 7.910156 -5.742188 8.125 -5.445312 8.28125 -5.09375 C 8.4375 -4.738281 8.515625 -4.3125 8.515625 -3.8125 C 8.515625 -3.257812 8.421875 -2.742188 8.234375 -2.265625 C 8.046875 -1.785156 7.769531 -1.367188 7.40625 -1.015625 C 7.050781 -0.660156 6.613281 -0.378906 6.09375 -0.171875 C 5.570312 0.0351562 4.972656 0.140625 4.296875 0.140625 C 3.910156 0.140625 3.53125 0.0976562 3.15625 0.015625 C 2.78125 -0.0546875 2.421875 -0.160156 2.078125 -0.296875 C 1.734375 -0.441406 1.410156 -0.613281 1.109375 -0.8125 C 0.804688 -1.007812 0.535156 -1.226562 0.296875 -1.46875 L 0.953125 -2.546875 C 1.015625 -2.628906 1.085938 -2.695312 1.171875 -2.75 C 1.265625 -2.800781 1.363281 -2.828125 1.46875 -2.828125 C 1.613281 -2.828125 1.765625 -2.769531 1.921875 -2.65625 C 2.085938 -2.539062 2.28125 -2.410156 2.5 -2.265625 C 2.71875 -2.128906 2.976562 -2.003906 3.28125 -1.890625 C 3.582031 -1.773438 3.941406 -1.71875 4.359375 -1.71875 C 5.003906 -1.71875 5.503906 -1.867188 5.859375 -2.171875 C 6.210938 -2.484375 6.390625 -2.921875 6.390625 -3.484375 C 6.390625 -3.804688 6.3125 -4.066406 6.15625 -4.265625 C 6 -4.472656 5.785156 -4.644531 5.515625 -4.78125 C 5.253906 -4.914062 4.953125 -5.03125 4.609375 -5.125 C 4.273438 -5.226562 3.9375 -5.332031 3.59375 -5.4375 C 3.25 -5.550781 2.90625 -5.6875 2.5625 -5.84375 C 2.226562 -6 1.925781 -6.203125 1.65625 -6.453125 C 1.394531 -6.710938 1.1875 -7.03125 1.03125 -7.40625 C 0.875 -7.78125 0.796875 -8.25 0.796875 -8.8125 C 0.796875 -9.25 0.882812 -9.675781 1.0625 -10.09375 C 1.238281 -10.519531 1.492188 -10.894531 1.828125 -11.21875 C 2.171875 -11.550781 2.585938 -11.8125 3.078125 -12 C 3.566406 -12.195312 4.128906 -12.296875 4.765625 -12.296875 C 5.484375 -12.296875 6.144531 -12.179688 6.75 -11.953125 C 7.363281 -11.734375 7.878906 -11.421875 8.296875 -11.015625 Z M 7.75 -9.953125 "/></g></g><g style="fill:#fb4f14;fill-opacity:1;"><g transform="translate(321.560441, 429.549907)"><path style="stroke:none" d=""/></g></g><g style="fill:#fb4f14;fill-opacity:1;"><g transform="translate(334.738256, 429.549907)"><path style="stroke:none" d="M 3.78125 0 L 1.5 0 L 1.5 -12.171875 L 3.78125 -12.171875 Z M 3.78125 0 "/></g></g><g style="fill:#fb4f14;fill-opacity:1;"><g transform="translate(349.951702, 429.549907)"><path style="stroke:none" d="M 2.421875 -12.171875 C 2.515625 -12.171875 2.59375 -12.164062 2.65625 -12.15625 C 2.726562 -12.144531 2.789062 -12.125 2.84375 -12.09375 C 2.894531 -12.070312 2.945312 -12.035156 3 -11.984375 C 3.050781 -11.941406 3.109375 -11.882812 3.171875 -11.8125 L 9.5625 -3.671875 C 9.539062 -3.867188 9.523438 -4.0625 9.515625 -4.25 C 9.503906 -4.4375 9.5 -4.609375 9.5 -4.765625 L 9.5 -12.171875 L 11.5 -12.171875 L 11.5 0 L 10.328125 0 C 10.148438 0 10 -0.0234375 9.875 -0.078125 C 9.757812 -0.140625 9.644531 -0.242188 9.53125 -0.390625 L 3.171875 -8.484375 C 3.191406 -8.304688 3.203125 -8.128906 3.203125 -7.953125 C 3.210938 -7.773438 3.21875 -7.613281 3.21875 -7.46875 L 3.21875 0 L 1.234375 0 L 1.234375 -12.171875 Z M 2.421875 -12.171875 "/></g></g><g style="fill:#fb4f14;fill-opacity:1;"><g transform="translate(372.601122, 429.549907)"><path style="stroke:none" d="M 8.90625 -12.171875 L 8.90625 -10.359375 L 3.515625 -10.359375 L 3.515625 -6.765625 L 8.0625 -6.765625 L 8.0625 -4.953125 L 3.515625 -4.953125 L 3.515625 0 L 1.234375 0 L 1.234375 -12.171875 Z M 8.90625 -12.171875 "/></g></g><g style="fill:#fb4f14;fill-opacity:1;"><g transform="translate(391.978377, 429.549907)"><path style="stroke:none" d="M 12.90625 -6.078125 C 12.90625 -5.191406 12.753906 -4.367188 12.453125 -3.609375 C 12.148438 -2.847656 11.726562 -2.1875 11.1875 -1.625 C 10.65625 -1.070312 10.007812 -0.640625 9.25 -0.328125 C 8.5 -0.015625 7.660156 0.140625 6.734375 0.140625 C 5.816406 0.140625 4.976562 -0.015625 4.21875 -0.328125 C 3.457031 -0.640625 2.804688 -1.070312 2.265625 -1.625 C 1.722656 -2.1875 1.300781 -2.847656 1 -3.609375 C 0.707031 -4.367188 0.5625 -5.191406 0.5625 -6.078125 C 0.5625 -6.972656 0.707031 -7.800781 1 -8.5625 C 1.300781 -9.320312 1.722656 -9.976562 2.265625 -10.53125 C 2.804688 -11.09375 3.457031 -11.523438 4.21875 -11.828125 C 4.976562 -12.140625 5.816406 -12.296875 6.734375 -12.296875 C 7.660156 -12.296875 8.5 -12.140625 9.25 -11.828125 C 10.007812 -11.515625 10.65625 -11.082031 11.1875 -10.53125 C 11.726562 -9.976562 12.148438 -9.320312 12.453125 -8.5625 C 12.753906 -7.800781 12.90625 -6.972656 12.90625 -6.078125 Z M 10.578125 -6.078125 C 10.578125 -6.742188 10.488281 -7.34375 10.3125 -7.875 C 10.132812 -8.40625 9.878906 -8.851562 9.546875 -9.21875 C 9.210938 -9.59375 8.804688 -9.878906 8.328125 -10.078125 C 7.859375 -10.273438 7.328125 -10.375 6.734375 -10.375 C 6.140625 -10.375 5.601562 -10.273438 5.125 -10.078125 C 4.65625 -9.878906 4.253906 -9.59375 3.921875 -9.21875 C 3.585938 -8.851562 3.328125 -8.40625 3.140625 -7.875 C 2.960938 -7.34375 2.875 -6.742188 2.875 -6.078125 C 2.875 -5.410156 2.960938 -4.8125 3.140625 -4.28125 C 3.328125 -3.75 3.585938 -3.300781 3.921875 -2.9375 C 4.253906 -2.570312 4.65625 -2.289062 5.125 -2.09375 C 5.601562 -1.894531 6.140625 -1.796875 6.734375 -1.796875 C 7.328125 -1.796875 7.859375 -1.894531 8.328125 -2.09375 C 8.804688 -2.289062 9.210938 -2.570312 9.546875 -2.9375 C 9.878906 -3.300781 10.132812 -3.75 10.3125 -4.28125 C 10.488281 -4.8125 10.578125 -5.410156 10.578125 -6.078125 Z M 10.578125 -6.078125 "/></g></g><g style="fill:#ffffff;fill-opacity:1;"><g transform="translate(131.584642, 383.421306)"><path style="stroke:none" d="M -36.78125 -131.015625 C -31.632812 -135.191406 -25.988281 -138.535156 -19.84375 -141.046875 C -13.707031 -143.554688 -8.851562 -145.046875 -5.28125 -145.515625 L 0.046875 -146.03125 L 5.34375 -121.578125 C 4.28125 -121.484375 2.835938 -121.300781 1.015625 -121.03125 C -0.804688 -120.757812 -3.90625 -119.863281 -8.28125 -118.34375 C -12.664062 -116.820312 -16.320312 -114.875 -19.25 -112.5 C -22.851562 -109.5625 -25.015625 -106.523438 -25.734375 -103.390625 C -26.453125 -100.265625 -25.742188 -97.394531 -23.609375 -94.78125 C -22.554688 -93.476562 -21.113281 -92.644531 -19.28125 -92.28125 C -17.457031 -91.914062 -14.910156 -92.003906 -11.640625 -92.546875 C -8.378906 -93.085938 -5.585938 -93.660156 -3.265625 -94.265625 C -0.941406 -94.878906 2.609375 -95.847656 7.390625 -97.171875 C 15.648438 -99.566406 23.78125 -100.28125 31.78125 -99.3125 C 39.789062 -98.34375 46.109375 -95.015625 50.734375 -89.328125 C 55.171875 -83.859375 58.066406 -78.289062 59.421875 -72.625 C 60.773438 -66.957031 60.679688 -61.582031 59.140625 -56.5 C 57.597656 -51.414062 55.203125 -46.625 51.953125 -42.125 C 48.703125 -37.632812 44.65625 -33.421875 39.8125 -29.484375 C 35.65625 -26.109375 31.234375 -23.21875 26.546875 -20.8125 C 21.867188 -18.414062 17.664062 -16.757812 13.9375 -15.84375 C 10.21875 -14.925781 6.78125 -14.207031 3.625 -13.6875 C 0.476562 -13.164062 -1.941406 -12.921875 -3.640625 -12.953125 L -6.15625 -13 L -10.125 -40.03125 C -8.582031 -40.007812 -6.519531 -40.054688 -3.9375 -40.171875 C -1.351562 -40.296875 2.804688 -41.035156 8.546875 -42.390625 C 14.285156 -43.742188 18.734375 -45.703125 21.890625 -48.265625 C 31.035156 -55.703125 33.078125 -62.53125 28.015625 -68.75 C 26.953125 -70.0625 25.640625 -71.003906 24.078125 -71.578125 C 22.523438 -72.160156 20.460938 -72.335938 17.890625 -72.109375 C 15.328125 -71.878906 13.148438 -71.570312 11.359375 -71.1875 C 9.566406 -70.8125 6.679688 -70.128906 2.703125 -69.140625 C -1.273438 -68.148438 -4.238281 -67.429688 -6.1875 -66.984375 C -14.257812 -65.148438 -21.609375 -65.082031 -28.234375 -66.78125 C -34.867188 -68.488281 -40.1875 -71.804688 -44.1875 -76.734375 C -51.125 -85.265625 -53.640625 -94.800781 -51.734375 -105.34375 C -49.835938 -115.882812 -44.851562 -124.441406 -36.78125 -131.015625 Z M -36.78125 -131.015625 "/></g></g></g></svg>