<?xml version="1.0" encoding="UTF-8"?>
<svg version="1.1" xmlns="http://www.w3.org/2000/svg" width="150" height="150">
<path d="M0 0 C49.5 0 99 0 150 0 C150 17.49 150 34.98 150 53 C100.5 53 51 53 0 53 C0 35.51 0 18.02 0 0 Z " fill="#FEF8F6" transform="translate(0,48)"/>
<path d="M0 0 C33.66 0 67.32 0 102 0 C102 9.57 102 19.14 102 29 C69.66 29 37.32 29 4 29 C5.65 27.68 7.3 26.36 9 25 C11.69937289 21.73233808 13.02146401 20.09466464 12.9375 15.8125 C11.8015747 12.23213456 11.8015747 12.23213456 9 10 C4.34608843 9.61972727 4.34608843 9.61972727 0 11 C-1.99960012 11.039992 -4.00047242 11.04346799 -6 11 C-6 9.68 -6 8.36 -6 7 C-2.78571429 4 -2.78571429 4 0 4 C0 2.68 0 1.36 0 0 Z " fill="#FEF8F6" transform="translate(39,54)"/>
<path d="M0 0 C33.66 0 67.32 0 102 0 C102 9.57 102 19.14 102 29 C69.66 29 37.32 29 4 29 C5.65 27.68 7.3 26.36 9 25 C11.69937289 21.73233808 13.02146401 20.09466464 12.9375 15.8125 C11.8015747 12.23213456 11.8015747 12.23213456 9 10 C4.34608843 9.61972727 4.34608843 9.61972727 0 11 C-1.99960012 11.039992 -4.00047242 11.04346799 -6 11 C-6 9.68 -6 8.36 -6 7 C-2.78571429 4 -2.78571429 4 0 4 C0 2.68 0 1.36 0 0 Z M28 3 C28 10.59 28 18.18 28 26 C51.76 26 75.52 26 100 26 C100 18.41 100 10.82 100 3 C76.24 3 52.48 3 28 3 Z " fill="#FB5922" transform="translate(39,54)"/>
<path d="M0 0 C5.61 0 11.22 0 17 0 C15.35 1.98 13.7 3.96 12 6 C11.46472055 9.34549655 11.57598581 11.12675144 13.05078125 14.1640625 C15.51061314 16.48093823 17.29680698 16.41530929 20.59570312 16.3515625 C21.28599609 16.31804687 21.97628906 16.28453125 22.6875 16.25 C23.38939453 16.23195313 24.09128906 16.21390625 24.81445312 16.1953125 C26.54355436 16.14826213 28.27195205 16.07651873 30 16 C29.61328125 18.41796875 29.61328125 18.41796875 29 21 C26.10189884 23.09862498 24.71621139 23 21 23 C21 24.98 21 26.96 21 29 C14.07 29 7.14 29 0 29 C0 19.43 0 9.86 0 0 Z " fill="#FB5117" transform="translate(15,54)"/>
<path d="M0 0 C24.42 0 48.84 0 74 0 C74 9.57 74 19.14 74 29 C73.67 29 73.34 29 73 29 C72.505 16.13 72.505 16.13 72 3 C48.24 2.67 24.48 2.34 0 2 C0 1.34 0 0.68 0 0 Z " fill="#FB4B0F" transform="translate(67,54)"/>
<path d="M0 0 C1.81242052 -0.02687279 3.62495233 -0.04633715 5.4375 -0.0625 C6.44683594 -0.07410156 7.45617187 -0.08570313 8.49609375 -0.09765625 C11 0 11 0 12 1 C12.04092937 3.33297433 12.04241723 5.66705225 12 8 C10.35 8.33 8.7 8.66 7 9 C6.34 8.01 5.68 7.02 5 6 C4.01 6 3.02 6 2 6 C2 6.99 2 7.98 2 9 C1.34 9 0.68 9 0 9 C0 6.03 0 3.06 0 0 Z " fill="#FC936F" transform="translate(78,64)"/>
<path d="M0 0 C0 0.66 0 1.32 0 2 C-1.32 2 -2.64 2 -4 2 C-4 2.66 -4 3.32 -4 4 C-3.01 4 -2.02 4 -1 4 C-0.67 5.65 -0.34 7.3 0 9 C-2.64 9 -5.28 9 -8 9 C-8.33 8.01 -8.66 7.02 -9 6 C-9.66 6 -10.32 6 -11 6 C-11.33 6.99 -11.66 7.98 -12 9 C-12 6.36 -12 3.72 -12 1 C-8.0186217 -0.3271261 -4.14954773 -0.06915913 0 0 Z " fill="#FC855C" transform="translate(134,64)"/>
<path d="M0 0 C3.63 0 7.26 0 11 0 C11 0.99 11 1.98 11 3 C10.67 3.33 10.34 3.66 10 4 C10.28604898 5.67542976 10.61781233 7.34385343 11 9 C8 9 5 9 2 9 C2 6.69 2 4.38 2 2 C1.34 2 0.68 2 0 2 C0 1.34 0 0.68 0 0 Z " fill="#FED5C7" transform="translate(97,64)"/>
<path d="M0 0 C0.66 0 1.32 0 2 0 C2 2.64 2 5.28 2 8 C2.99 8 3.98 8 5 8 C5 5.69 5 3.38 5 1 C5.99 1 6.98 1 8 1 C8 3.97 8 6.94 8 10 C5.36 10 2.72 10 0 10 C0 6.7 0 3.4 0 0 Z " fill="#FC8F69" transform="translate(113,63)"/>
<path d="M0 0 C2.475 0.495 2.475 0.495 5 1 C5 3.64 5 6.28 5 9 C3.35 9 1.7 9 0 9 C0 6.03 0 3.06 0 0 Z " fill="#FC855C" transform="translate(91,64)"/>
<path d="M0 0 C2.475 0.495 2.475 0.495 5 1 C5 1.66 5 2.32 5 3 C4.67 3.33 4.34 3.66 4 4 C4.33 4.33 4.66 4.66 5 5 C5.04063832 6.66617115 5.042721 8.33388095 5 10 C3.35 10 1.7 10 0 10 C0 7 0 7 1 6 C0.67 5.67 0.34 5.34 0 5 C-0.04063832 3.33382885 -0.042721 1.66611905 0 0 Z " fill="#FC7040" transform="translate(72,63)"/>
<path d="M0 0 C1.65 0 3.3 0 5 0 C5 1.98 5 3.96 5 6 C4.01 6 3.02 6 2 6 C2 6.99 2 7.98 2 9 C1.34 9 0.68 9 0 9 C0 6.03 0 3.06 0 0 Z " fill="#FC7E54" transform="translate(78,64)"/>
<path d="M0 0 C1.65 0 3.3 0 5 0 C5 2.64 5 5.28 5 8 C4.34 7.67 3.68 7.34 3 7 C3 6.34 3 5.68 3 5 C2.34 5 1.68 5 1 5 C0.67 5.99 0.34 6.98 0 8 C0 5.36 0 2.72 0 0 Z " fill="#FB6B39" transform="translate(122,65)"/>
<path d="M0 0 C1.32 0 2.64 0 4 0 C4 0.99 4 1.98 4 3 C3.67 3.33 3.34 3.66 3 4 C3.28604898 5.67542976 3.61781233 7.34385343 4 9 C2.35 9 0.7 9 -1 9 C-1 8.34 -1 7.68 -1 7 C-0.01 6.67 0.98 6.34 2 6 C1.01 5.67 0.02 5.34 -1 5 C-0.67 3.35 -0.34 1.7 0 0 Z " fill="#FC6F3F" transform="translate(104,64)"/>
<path d="M0 0 C0.33 0.99 0.66 1.98 1 3 C1.66 3 2.32 3 3 3 C2.67 3.99 2.34 4.98 2 6 C1.01 6.33 0.02 6.66 -1 7 C-1.04254356 5.00045254 -1.04080783 2.99958364 -1 1 C-0.67 0.67 -0.34 0.34 0 0 Z " fill="#FB6C3B" transform="translate(92,66)"/>
<path d="M0 0 C1.65 0 3.3 0 5 0 C5 0.66 5 1.32 5 2 C4.34 2 3.68 2 3 2 C3 4.31 3 6.62 3 9 C2.67 9 2.34 9 2 9 C2 6.69 2 4.38 2 2 C1.34 2 0.68 2 0 2 C0 1.34 0 0.68 0 0 Z " fill="#FB6633" transform="translate(97,64)"/>
</svg>
