<svg width="81" height="80" viewBox="0 0 81 80" fill="none" xmlns="http://www.w3.org/2000/svg">
<path d="M25.5 22.5H35.5M25.5 40H55.5M25.5 50H55.5M25.5 60H35.5M20.5 72.5H60.5C61.8261 72.5 63.0979 71.9732 64.0355 71.0355C64.9732 70.0979 65.5 68.8261 65.5 67.5V12.5C65.5 11.1739 64.9732 9.90215 64.0355 8.96447C63.0979 8.02678 61.8261 7.5 60.5 7.5H20.5C19.1739 7.5 17.9021 8.02678 16.9645 8.96447C16.0268 9.90215 15.5 11.1739 15.5 12.5V67.5C15.5 68.8261 16.0268 70.0979 16.9645 71.0355C17.9021 71.9732 19.1739 72.5 20.5 72.5Z" stroke="#FFF5FA" stroke-width="2" stroke-linecap="round" stroke-linejoin="round"/>
<path d="M55.5 23.75C56.1904 23.75 56.75 23.1904 56.75 22.5C56.75 21.8096 56.1904 21.25 55.5 21.25C54.8096 21.25 54.25 21.8096 54.25 22.5C54.25 23.1904 54.8096 23.75 55.5 23.75Z" fill="#FFF5FA" stroke="#FFF5FA"/>
</svg>
