<svg width="70" height="59" viewBox="0 0 70 59" fill="none" xmlns="http://www.w3.org/2000/svg">
<path d="M31.875 29.5C31.875 29.9973 31.6775 30.4742 31.3258 30.8258C30.9742 31.1775 30.4973 31.375 30 31.375H15C14.5027 31.375 14.0258 31.1775 13.6742 30.8258C13.3225 30.4742 13.125 29.9973 13.125 29.5C13.125 29.0027 13.3225 28.5258 13.6742 28.1742C14.0258 27.8225 14.5027 27.625 15 27.625H30C30.4973 27.625 30.9742 27.8225 31.3258 28.1742C31.6775 28.5258 31.875 29.0027 31.875 29.5ZM30 17.625H15C14.5027 17.625 14.0258 17.8225 13.6742 18.1742C13.3225 18.5258 13.125 19.0027 13.125 19.5C13.125 19.9973 13.3225 20.4742 13.6742 20.8258C14.0258 21.1775 14.5027 21.375 15 21.375H30C30.4973 21.375 30.9742 21.1775 31.3258 20.8258C31.6775 20.4742 31.875 19.9973 31.875 19.5C31.875 19.0027 31.6775 18.5258 31.3258 18.1742C30.9742 17.8225 30.4973 17.625 30 17.625ZM64.375 37.1937V57C64.3758 57.3295 64.2897 57.6534 64.1254 57.939C63.9612 58.2247 63.7245 58.462 63.4394 58.627C63.1542 58.7921 62.8306 58.8791 62.5011 58.8793C62.1716 58.8795 61.8479 58.7929 61.5625 58.6281L53.75 54.1594L45.9375 58.6281C45.6521 58.7929 45.3284 58.8795 44.9989 58.8793C44.6694 58.8791 44.3458 58.7921 44.0606 58.627C43.7755 58.462 43.5388 58.2247 43.3746 57.939C43.2103 57.6534 43.1242 57.3295 43.125 57V48.875H5C3.83968 48.875 2.72688 48.4141 1.90641 47.5936C1.08594 46.7731 0.625 45.6603 0.625 44.5V4.5C0.625 3.33968 1.08594 2.22688 1.90641 1.40641C2.72688 0.585936 3.83968 0.125 5 0.125H60C61.1603 0.125 62.2731 0.585936 63.0936 1.40641C63.9141 2.22688 64.375 3.33968 64.375 4.5V14.3062C65.9518 15.7664 67.2098 17.5366 68.0701 19.5059C68.9305 21.4752 69.3746 23.601 69.3746 25.75C69.3746 27.899 68.9305 30.0248 68.0701 31.9941C67.2098 33.9634 65.9518 35.7336 64.375 37.1937ZM53.75 13.875C51.4014 13.875 49.1054 14.5715 47.1526 15.8763C45.1998 17.1811 43.6777 19.0358 42.7789 21.2056C41.8801 23.3755 41.645 25.7632 42.1032 28.0667C42.5614 30.3702 43.6924 32.4861 45.3531 34.1469C47.0139 35.8076 49.1298 36.9386 51.4333 37.3968C53.7368 37.855 56.1245 37.6199 58.2944 36.7211C60.4642 35.8223 62.3189 34.3002 63.6237 32.3474C64.9286 30.3946 65.625 28.0987 65.625 25.75C65.625 22.6006 64.3739 19.5801 62.1469 17.3531C59.9199 15.1261 56.8995 13.875 53.75 13.875ZM43.125 45.125V37.1937C40.3891 34.6404 38.6604 31.19 38.2534 27.4698C37.8464 23.7497 38.7881 20.0071 40.9072 16.9226C43.0264 13.8381 46.1822 11.6167 49.8008 10.6622C53.4193 9.7078 57.2602 10.0838 60.625 11.7219V4.5C60.625 4.33424 60.5592 4.17527 60.4419 4.05806C60.3247 3.94085 60.1658 3.875 60 3.875H5C4.83424 3.875 4.67527 3.94085 4.55806 4.05806C4.44085 4.17527 4.375 4.33424 4.375 4.5V44.5C4.375 44.6658 4.44085 44.8247 4.55806 44.9419C4.67527 45.0592 4.83424 45.125 5 45.125H43.125ZM60.625 39.7781C58.4855 40.8288 56.1336 41.3751 53.75 41.3751C51.3664 41.3751 49.0145 40.8288 46.875 39.7781V53.7688L52.8125 50.3719C53.0975 50.2073 53.4209 50.1207 53.75 50.1207C54.0791 50.1207 54.4025 50.2073 54.6875 50.3719L60.625 53.7688V39.7781Z" fill="#FFF5FA"/>
</svg>
