<svg width="81" height="80" viewBox="0 0 81 80" fill="none" xmlns="http://www.w3.org/2000/svg">
<path d="M16.3855 62.5H73V2.5H16.2292C13.7177 2.50808 11.3113 3.50937 9.53532 5.28532C7.75937 7.06127 6.75808 9.46766 6.75 11.9792V67.2266H6.75172C6.75172 67.2502 6.75 67.2734 6.75 67.2973C6.75 72.8286 11.0909 77.5005 16.2292 77.5005H73V72.5H16.2292C13.885 72.5 11.75 70.0202 11.75 67.2969C11.75 64.6969 13.8727 62.5 16.3855 62.5ZM56.75 7.55203V34.5545L49.1875 27.9155L41.75 34.5156V7.55203H56.75ZM36.75 7.5V41.25H41.6939L49.2056 34.5845L56.7977 41.25H61.75V7.5H68V57.5H21.7625L21.75 7.5H36.75ZM16.2292 7.5H16.75L16.7619 57.5H16.3848C14.759 57.5004 13.1615 57.9249 11.75 58.7317V12.0183C11.7462 10.8255 12.2156 9.68 13.0553 8.83295C13.8951 7.9859 15.0365 7.50653 16.2292 7.5Z" fill="#FFF5FA"/>
</svg>
