<svg width="83" height="86" viewBox="0 0 83 86" fill="none" xmlns="http://www.w3.org/2000/svg">
<g filter="url(#filter0_d_1_567)">
<mask id="path-1-inside-1_1_567" fill="white">
<path d="M12.2038 37.07H19.235C20.2038 37.07 20.9925 37.8588 20.9925 38.8275V43.515C20.9925 44.4838 20.2038 45.2725 19.235 45.2725H12.2038C11.235 45.2725 10.4463 44.4838 10.4463 43.515V38.8275C10.4463 37.8588 11.235 37.07 12.2038 37.07Z"/>
<path d="M12.2038 49.375H19.235C20.2038 49.375 20.9925 50.1638 20.9925 51.1325V55.82C20.9925 56.7888 20.2038 57.5775 19.235 57.5775H12.2038C11.235 57.5775 10.4463 56.7888 10.4463 55.82V51.1325C10.4463 50.1638 11.235 49.375 12.2038 49.375Z"/>
<path d="M12.2038 61.0938H19.235C20.2038 61.0938 20.9925 61.8825 20.9925 62.8513V67.5388C20.9925 68.5075 20.2038 69.2963 19.235 69.2963H12.2038C11.235 69.2963 10.4463 68.5075 10.4463 67.5388V62.8513C10.4463 61.8825 11.235 61.0938 12.2038 61.0938Z"/>
<path d="M62.0075 43.5163V38.8288C62.0079 38.3627 62.1931 37.9159 62.5227 37.5864C62.8522 37.2569 63.299 37.0716 63.765 37.0713H70.7963C71.765 37.0713 72.5538 37.86 72.5538 38.8288V43.5163C72.5538 44.485 71.765 45.2738 70.7963 45.2738H63.765C62.7963 45.2738 62.0075 44.485 62.0075 43.5163Z"/>
<path d="M63.7663 49.375H70.7975C71.7663 49.375 72.555 50.1638 72.555 51.1325V55.82C72.555 56.7888 71.7663 57.5775 70.7975 57.5775H63.7663C62.7975 57.5775 62.0088 56.7888 62.0088 55.82V51.1325C62.0088 50.1638 62.7975 49.375 63.7663 49.375Z"/>
<path d="M63.7663 61.0938H70.7975C71.7663 61.0938 72.555 61.8825 72.555 62.8513V67.5388C72.555 68.5075 71.7663 69.2963 70.7975 69.2963H63.7663C62.7975 69.2963 62.0088 68.5075 62.0088 67.5388V62.8513C62.0088 61.8825 62.7975 61.0938 63.7663 61.0938Z"/>
<path d="M47.301 27.1678C48.8395 28.7063 49.7038 30.793 49.7038 32.9688C49.7038 35.1445 48.8395 37.2312 47.301 38.7697C45.7625 40.3082 43.6758 41.1725 41.5 41.1725C39.3243 41.1725 37.2376 40.3082 35.6991 38.7697C34.1606 37.2312 33.2963 35.1445 33.2963 32.9688C33.2963 30.793 34.1606 28.7063 35.6991 27.1678C37.2376 25.6293 39.3243 24.765 41.5 24.765C43.6758 24.765 45.7625 25.6293 47.301 27.1678Z"/>
</mask>
<path d="M12.2038 37.07H19.235C20.2038 37.07 20.9925 37.8588 20.9925 38.8275V43.515C20.9925 44.4838 20.2038 45.2725 19.235 45.2725H12.2038C11.235 45.2725 10.4463 44.4838 10.4463 43.515V38.8275C10.4463 37.8588 11.235 37.07 12.2038 37.07Z" stroke="#FFF5FA" stroke-width="0.4" mask="url(#path-1-inside-1_1_567)"/>
<path d="M12.2038 49.375H19.235C20.2038 49.375 20.9925 50.1638 20.9925 51.1325V55.82C20.9925 56.7888 20.2038 57.5775 19.235 57.5775H12.2038C11.235 57.5775 10.4463 56.7888 10.4463 55.82V51.1325C10.4463 50.1638 11.235 49.375 12.2038 49.375Z" stroke="#FFF5FA" stroke-width="0.4" mask="url(#path-1-inside-1_1_567)"/>
<path d="M12.2038 61.0938H19.235C20.2038 61.0938 20.9925 61.8825 20.9925 62.8513V67.5388C20.9925 68.5075 20.2038 69.2963 19.235 69.2963H12.2038C11.235 69.2963 10.4463 68.5075 10.4463 67.5388V62.8513C10.4463 61.8825 11.235 61.0938 12.2038 61.0938Z" stroke="#FFF5FA" stroke-width="0.4" mask="url(#path-1-inside-1_1_567)"/>
<path d="M62.0075 43.5163V38.8288C62.0079 38.3627 62.1931 37.9159 62.5227 37.5864C62.8522 37.2569 63.299 37.0716 63.765 37.0713H70.7963C71.765 37.0713 72.5538 37.86 72.5538 38.8288V43.5163C72.5538 44.485 71.765 45.2738 70.7963 45.2738H63.765C62.7963 45.2738 62.0075 44.485 62.0075 43.5163Z" stroke="#FFF5FA" stroke-width="0.4" mask="url(#path-1-inside-1_1_567)"/>
<path d="M63.7663 49.375H70.7975C71.7663 49.375 72.555 50.1638 72.555 51.1325V55.82C72.555 56.7888 71.7663 57.5775 70.7975 57.5775H63.7663C62.7975 57.5775 62.0088 56.7888 62.0088 55.82V51.1325C62.0088 50.1638 62.7975 49.375 63.7663 49.375Z" stroke="#FFF5FA" stroke-width="0.4" mask="url(#path-1-inside-1_1_567)"/>
<path d="M63.7663 61.0938H70.7975C71.7663 61.0938 72.555 61.8825 72.555 62.8513V67.5388C72.555 68.5075 71.7663 69.2963 70.7975 69.2963H63.7663C62.7975 69.2963 62.0088 68.5075 62.0088 67.5388V62.8513C62.0088 61.8825 62.7975 61.0938 63.7663 61.0938Z" stroke="#FFF5FA" stroke-width="0.4" mask="url(#path-1-inside-1_1_567)"/>
<path d="M47.301 27.1678C48.8395 28.7063 49.7038 30.793 49.7038 32.9688C49.7038 35.1445 48.8395 37.2312 47.301 38.7697C45.7625 40.3082 43.6758 41.1725 41.5 41.1725C39.3243 41.1725 37.2376 40.3082 35.6991 38.7697C34.1606 37.2312 33.2963 35.1445 33.2963 32.9688C33.2963 30.793 34.1606 28.7063 35.6991 27.1678C37.2376 25.6293 39.3243 24.765 41.5 24.765C43.6758 24.765 45.7625 25.6293 47.301 27.1678Z" stroke="#FFF5FA" stroke-width="0.4" mask="url(#path-1-inside-1_1_567)"/>
<path d="M42.6725 34.1412V29.4537C42.6725 28.8087 42.145 28.2812 41.5 28.2812C40.855 28.2812 40.3275 28.8087 40.3275 29.4537V32.97H39.155C38.51 32.97 37.9825 33.4975 37.9825 34.1425C37.9825 34.7875 38.51 35.315 39.155 35.315H41.5C41.8107 35.3134 42.1082 35.1891 42.3278 34.9693C42.5473 34.7495 42.6712 34.4519 42.6725 34.1412Z" fill="#FFF5FA"/>
<path d="M77.8288 72.8125H76.6562V35.3125H77.4487C78.7675 35.3125 79.3613 34.3687 78.7725 33.2162L74.9263 25.69C74.3363 24.5375 72.775 23.5938 71.4575 23.5938H51.6337L42.6712 16.3387V13.4762C47.3587 17.2163 52.0462 5.41875 56.7337 9.16C52.0462 2.5425 47.3587 11.4613 42.6712 4.84375V3.6725C42.6725 3.0275 42.145 2.5 41.5 2.5C40.855 2.5 40.3275 3.0275 40.3275 3.6725V16.34L31.365 23.595H11.5437C10.225 23.595 8.66375 24.5387 8.075 25.6912L4.22875 33.2175C3.63875 34.37 4.23375 35.3138 5.5525 35.3138H6.345V72.8138H5.1725C4.86195 72.8144 4.56429 72.938 4.34459 73.1575C4.12488 73.3769 4.00099 73.6745 4 73.985V76.3288C4.00099 76.6393 4.12488 76.9368 4.34459 77.1563C4.56429 77.3758 4.86195 77.4993 5.1725 77.5H77.8288C78.1391 77.499 78.4364 77.3753 78.6559 77.1559C78.8753 76.9364 78.999 76.6391 79 76.3288V73.985C78.9993 73.6745 78.8758 73.3768 78.6563 73.1571C78.4368 72.9374 78.1393 72.8135 77.8288 72.8125ZM22.75 72.8125H8.6875V35.3125H19.8588C19.8804 35.5175 19.9221 35.7087 19.9837 35.8862C20.29 36.7425 21.18 37.6562 22.7512 37.6562L22.75 72.8125ZM54 76.055H29V74.18H54V76.055ZM34.4688 72.8125V58.75H40.9137V72.8125H34.4688ZM42.0863 72.8125V58.75H48.5312V72.8125H42.0863ZM57.9062 72.8125H50.875V58.75H53.2188V56.3988C53.2188 56.3988 45.165 51.5325 42.61 49.7137C42.2821 49.4931 41.8958 49.3753 41.5006 49.3753C41.1054 49.3753 40.7192 49.4931 40.3913 49.7137C37.8363 51.5325 29.7825 56.3988 29.7825 56.3988V58.75H32.125V72.8125H25.0938V35.3125H22.75C22.105 35.3125 21.9862 34.9762 22.4825 34.5675L40.595 19.65C40.8438 19.4463 41.1725 19.3438 41.5 19.3438C41.8275 19.3438 42.155 19.4463 42.405 19.65L60.5175 34.5675C61.0138 34.9762 60.895 35.3125 60.25 35.3125H57.9062V72.8125ZM74.3125 72.8125H60.25V37.6562C61.8213 37.6562 62.7113 36.7425 63.0175 35.8862C63.0792 35.7087 63.1208 35.5175 63.1425 35.3125H74.3138L74.3125 72.8125Z" fill="#FFF5FA"/>
<path d="M38.0575 65.1949H39.7425V66.0462H38.0575V65.1949ZM43.2575 65.1949H44.9425V66.0462H43.2575V65.1949Z" fill="#FFF5FA"/>
</g>
<defs>
<filter id="filter0_d_1_567" x="-2.5" y="0" width="88" height="88" filterUnits="userSpaceOnUse" color-interpolation-filters="sRGB">
<feFlood flood-opacity="0" result="BackgroundImageFix"/>
<feColorMatrix in="SourceAlpha" type="matrix" values="0 0 0 0 0 0 0 0 0 0 0 0 0 0 0 0 0 0 127 0" result="hardAlpha"/>
<feOffset dy="4"/>
<feGaussianBlur stdDeviation="2"/>
<feComposite in2="hardAlpha" operator="out"/>
<feColorMatrix type="matrix" values="0 0 0 0 0 0 0 0 0 0 0 0 0 0 0 0 0 0 0.25 0"/>
<feBlend mode="normal" in2="BackgroundImageFix" result="effect1_dropShadow_1_567"/>
<feBlend mode="normal" in="SourceGraphic" in2="effect1_dropShadow_1_567" result="shape"/>
</filter>
</defs>
</svg>
