<svg xmlns="http://www.w3.org/2000/svg" xmlns:xlink="http://www.w3.org/1999/xlink" width="500" zoomAndPan="magnify" viewBox="0 0 375 374.999991" height="500" preserveAspectRatio="xMidYMid meet" version="1.0"><defs><clipPath id="60ff2370e8"><path d="M 154 236 L 244 236 L 244 257.34375 L 154 257.34375 Z M 154 236 " clip-rule="nonzero"/></clipPath><clipPath id="5aded3c689"><path d="M 124.3125 152 L 274.3125 152 L 274.3125 239 L 124.3125 239 Z M 124.3125 152 " clip-rule="nonzero"/></clipPath><clipPath id="4f675c4707"><path d="M 162 117.84375 L 237 117.84375 L 237 192 L 162 192 Z M 162 117.84375 " clip-rule="nonzero"/></clipPath><clipPath id="ad56403d42"><path d="M 197.050781 157.488281 L 201.3125 157.488281 L 201.3125 161.171875 L 197.050781 161.171875 Z M 197.050781 157.488281 " clip-rule="nonzero"/></clipPath><clipPath id="39584e7d7e"><path d="M 201.300781 158.773438 C 199.425781 161.851562 197.625 161.25 197.25 160.648438 C 196.875 159.976562 197.175781 158.175781 197.773438 157.726562 C 198.375 157.199219 200.773438 157.875 200.773438 157.875 " clip-rule="nonzero"/></clipPath></defs><g clip-path="url(#60ff2370e8)"><path fill="#000000" d="M 241.335938 252.371094 L 217.925781 252.371094 L 217.925781 236.394531 L 180.699219 236.394531 L 180.699219 252.371094 L 157.289062 252.371094 C 155.917969 252.371094 154.804688 253.484375 154.804688 254.859375 C 154.804688 256.234375 155.917969 257.351562 157.289062 257.351562 L 241.335938 257.351562 C 242.707031 257.351562 243.820312 256.238281 243.820312 254.859375 C 243.820312 253.484375 242.707031 252.371094 241.335938 252.371094 Z M 241.335938 252.371094 " fill-opacity="1" fill-rule="nonzero"/></g><g clip-path="url(#5aded3c689)"><path fill="#000000" d="M 258.972656 152.890625 L 242.078125 152.890625 L 242.078125 157.867188 L 258.972656 157.867188 C 264.671875 157.867188 269.308594 162.507812 269.308594 168.21875 L 269.308594 223.550781 C 269.308594 229.257812 264.671875 233.902344 258.972656 233.902344 L 139.652344 233.902344 C 133.953125 233.902344 129.316406 229.257812 129.316406 223.550781 L 129.316406 168.21875 C 129.316406 162.507812 133.953125 157.867188 139.652344 157.867188 L 156.546875 157.867188 L 156.546875 152.890625 L 139.652344 152.890625 C 131.210938 152.890625 124.347656 159.765625 124.347656 168.21875 L 124.347656 223.550781 C 124.347656 232.003906 131.210938 238.878906 139.652344 238.878906 L 258.972656 238.878906 C 267.414062 238.878906 274.277344 232.003906 274.277344 223.550781 L 274.277344 168.21875 C 274.277344 159.765625 267.414062 152.890625 258.972656 152.890625 Z M 258.972656 152.890625 " fill-opacity="1" fill-rule="nonzero"/></g><g clip-path="url(#4f675c4707)"><path fill="#000000" d="M 233.035156 147.140625 L 228.296875 147.140625 C 228.289062 147.105469 228.28125 147.078125 228.269531 147.042969 C 228.261719 147.023438 228.253906 146.996094 228.246094 146.964844 C 228.191406 146.746094 228.125 146.527344 228.058594 146.304688 C 228.007812 146.136719 227.960938 145.964844 227.902344 145.792969 C 227.859375 145.644531 227.808594 145.496094 227.765625 145.351562 C 227.738281 145.28125 227.710938 145.203125 227.6875 145.128906 C 227.617188 144.929688 227.550781 144.726562 227.472656 144.535156 C 227.386719 144.300781 227.304688 144.074219 227.210938 143.847656 C 227.125 143.617188 227.03125 143.394531 226.9375 143.167969 C 226.84375 142.941406 226.742188 142.722656 226.644531 142.5 C 226.558594 142.3125 226.472656 142.125 226.382812 141.941406 C 226.269531 141.6875 226.148438 141.4375 226.015625 141.191406 C 225.910156 140.988281 225.808594 140.785156 225.699219 140.585938 C 225.6875 140.558594 225.671875 140.527344 225.652344 140.492188 C 225.542969 140.3125 225.449219 140.125 225.339844 139.9375 C 225.3125 139.886719 225.285156 139.839844 225.253906 139.789062 L 228.605469 136.433594 C 229.871094 135.164062 229.871094 133.105469 228.605469 131.839844 L 222.292969 125.519531 C 222.25 125.476562 222.207031 125.433594 222.15625 125.398438 C 220.882812 124.253906 218.929688 124.296875 217.710938 125.519531 L 214.359375 128.875 C 214.308594 128.839844 214.257812 128.816406 214.207031 128.789062 C 214.027344 128.679688 213.839844 128.585938 213.65625 128.476562 C 213.621094 128.457031 213.589844 128.441406 213.5625 128.429688 C 213.363281 128.320312 213.164062 128.21875 212.960938 128.113281 C 212.710938 127.980469 212.460938 127.859375 212.210938 127.742188 C 212.027344 127.65625 211.839844 127.566406 211.652344 127.484375 C 211.429688 127.382812 211.210938 127.285156 210.980469 127.191406 C 210.753906 127.097656 210.535156 127 210.304688 126.914062 C 210.078125 126.820312 209.851562 126.734375 209.621094 126.65625 C 209.425781 126.578125 209.222656 126.511719 209.023438 126.4375 C 208.953125 126.417969 208.875 126.390625 208.800781 126.359375 C 208.660156 126.316406 208.507812 126.265625 208.363281 126.222656 C 208.191406 126.167969 208.019531 126.117188 207.851562 126.066406 C 207.628906 126 207.410156 125.933594 207.191406 125.878906 C 207.167969 125.871094 207.144531 125.867188 207.128906 125.863281 C 207.125 125.855469 207.117188 125.855469 207.117188 125.855469 C 207.082031 125.84375 207.054688 125.835938 207.023438 125.828125 L 207.023438 121.085938 C 207.023438 120.3125 206.746094 119.59375 206.292969 119.042969 C 205.703125 118.308594 204.796875 117.839844 203.777344 117.839844 L 194.855469 117.839844 C 193.839844 117.839844 192.933594 118.308594 192.339844 119.042969 C 191.886719 119.59375 191.613281 120.316406 191.613281 121.085938 L 191.613281 125.832031 C 191.578125 125.839844 191.554688 125.847656 191.519531 125.859375 C 191.496094 125.867188 191.46875 125.871094 191.441406 125.882812 C 191.21875 125.9375 191 126.003906 190.777344 126.070312 C 190.613281 126.121094 190.441406 126.171875 190.269531 126.226562 C 190.121094 126.269531 189.972656 126.320312 189.828125 126.363281 C 189.757812 126.390625 189.679688 126.421875 189.609375 126.441406 C 189.40625 126.515625 189.203125 126.578125 189.011719 126.65625 C 188.78125 126.742188 188.550781 126.824219 188.328125 126.917969 C 188.09375 127.003906 187.875 127.097656 187.648438 127.191406 C 187.425781 127.285156 187.203125 127.386719 186.980469 127.488281 C 186.792969 127.570312 186.605469 127.660156 186.421875 127.746094 C 186.167969 127.863281 185.917969 127.984375 185.671875 128.117188 C 185.46875 128.222656 185.269531 128.324219 185.070312 128.429688 C 185.039062 128.445312 185.007812 128.460938 184.976562 128.480469 C 184.792969 128.585938 184.605469 128.683594 184.421875 128.792969 C 184.371094 128.820312 184.324219 128.847656 184.273438 128.878906 L 180.914062 125.523438 C 179.691406 124.300781 177.738281 124.253906 176.46875 125.402344 C 176.417969 125.433594 176.375 125.480469 176.332031 125.523438 L 170.019531 131.84375 C 168.753906 133.109375 168.753906 135.167969 170.019531 136.433594 L 173.371094 139.792969 C 173.335938 139.839844 173.3125 139.890625 173.285156 139.941406 C 173.175781 140.125 173.082031 140.3125 172.972656 140.496094 C 172.953125 140.53125 172.9375 140.5625 172.925781 140.589844 C 172.816406 140.789062 172.714844 140.988281 172.609375 141.191406 C 172.476562 141.441406 172.355469 141.691406 172.242188 141.945312 C 172.152344 142.125 172.0625 142.3125 171.980469 142.503906 C 171.882812 142.726562 171.78125 142.945312 171.6875 143.171875 C 171.59375 143.398438 171.5 143.621094 171.414062 143.851562 C 171.320312 144.078125 171.234375 144.304688 171.152344 144.535156 C 171.074219 144.730469 171.007812 144.933594 170.9375 145.132812 C 170.914062 145.207031 170.886719 145.285156 170.859375 145.355469 C 170.816406 145.5 170.765625 145.648438 170.722656 145.796875 C 170.664062 145.96875 170.617188 146.140625 170.566406 146.308594 C 170.5 146.527344 170.433594 146.746094 170.378906 146.96875 C 170.367188 146.996094 170.363281 147.027344 170.355469 147.046875 C 170.34375 147.082031 170.335938 147.109375 170.328125 147.140625 L 165.589844 147.140625 C 163.800781 147.140625 162.347656 148.597656 162.347656 150.386719 L 162.347656 159.324219 C 162.347656 161.117188 163.800781 162.570312 165.589844 162.570312 L 170.328125 162.570312 C 170.335938 162.605469 170.34375 162.628906 170.355469 162.664062 C 170.363281 162.6875 170.371094 162.714844 170.378906 162.742188 C 170.433594 162.964844 170.5 163.183594 170.566406 163.40625 C 170.617188 163.570312 170.664062 163.746094 170.722656 163.917969 C 170.765625 164.066406 170.816406 164.214844 170.859375 164.355469 C 170.886719 164.429688 170.914062 164.507812 170.9375 164.578125 C 171.007812 164.78125 171.074219 164.984375 171.152344 165.175781 C 171.238281 165.410156 171.320312 165.636719 171.414062 165.863281 C 171.5 166.09375 171.59375 166.316406 171.6875 166.539062 C 171.78125 166.769531 171.882812 166.988281 171.980469 167.210938 C 172.066406 167.398438 172.152344 167.585938 172.242188 167.769531 C 172.355469 168.023438 172.476562 168.273438 172.609375 168.519531 C 172.714844 168.722656 172.816406 168.925781 172.925781 169.125 C 172.9375 169.152344 172.953125 169.183594 172.972656 169.21875 C 173.082031 169.398438 173.175781 169.585938 173.285156 169.773438 C 173.3125 169.820312 173.339844 169.871094 173.371094 169.921875 L 170.019531 173.277344 C 168.753906 174.542969 168.753906 176.601562 170.019531 177.871094 L 176.332031 184.191406 C 177.597656 185.457031 179.652344 185.457031 180.917969 184.191406 L 184.269531 180.835938 C 184.320312 180.867188 184.371094 180.894531 184.417969 180.921875 C 184.601562 181.027344 184.789062 181.125 184.972656 181.230469 C 185.007812 181.253906 185.039062 181.269531 185.066406 181.28125 C 185.265625 181.386719 185.460938 181.492188 185.667969 181.597656 C 185.917969 181.730469 186.164062 181.851562 186.417969 181.96875 C 186.597656 182.054688 186.785156 182.144531 186.976562 182.226562 C 187.199219 182.328125 187.417969 182.425781 187.644531 182.519531 C 187.875 182.613281 188.09375 182.707031 188.324219 182.796875 C 188.550781 182.890625 188.777344 182.972656 189.007812 183.054688 C 189.203125 183.132812 189.40625 183.199219 189.605469 183.269531 C 189.675781 183.292969 189.753906 183.320312 189.824219 183.347656 C 189.96875 183.394531 190.121094 183.441406 190.265625 183.488281 C 190.4375 183.542969 190.609375 183.59375 190.777344 183.644531 C 190.996094 183.710938 191.214844 183.773438 191.4375 183.832031 C 191.464844 183.84375 191.492188 183.847656 191.515625 183.851562 C 191.550781 183.867188 191.574219 183.875 191.609375 183.882812 L 191.609375 188.625 C 191.609375 190.417969 193.0625 191.871094 194.851562 191.871094 L 203.777344 191.871094 C 205.566406 191.871094 207.019531 190.417969 207.019531 188.625 L 207.019531 183.882812 C 207.054688 183.875 207.078125 183.867188 207.113281 183.851562 C 207.132812 183.847656 207.160156 183.839844 207.191406 183.832031 C 207.410156 183.773438 207.628906 183.710938 207.851562 183.644531 C 208.019531 183.59375 208.191406 183.542969 208.363281 183.488281 C 208.511719 183.441406 208.660156 183.394531 208.800781 183.347656 C 208.875 183.320312 208.953125 183.292969 209.023438 183.269531 C 209.222656 183.199219 209.425781 183.132812 209.621094 183.054688 C 209.851562 182.972656 210.078125 182.890625 210.304688 182.796875 C 210.535156 182.707031 210.757812 182.613281 210.980469 182.519531 C 211.207031 182.425781 211.429688 182.328125 211.652344 182.226562 C 211.839844 182.140625 212.027344 182.054688 212.210938 181.96875 C 212.460938 181.851562 212.710938 181.730469 212.960938 181.597656 C 213.164062 181.492188 213.363281 181.386719 213.5625 181.28125 C 213.589844 181.269531 213.621094 181.253906 213.65625 181.230469 C 213.835938 181.125 214.023438 181.027344 214.207031 180.921875 C 214.257812 180.894531 214.308594 180.867188 214.359375 180.835938 L 217.710938 184.191406 C 218.976562 185.457031 221.03125 185.457031 222.296875 184.191406 L 228.609375 177.871094 C 229.875 176.601562 229.875 174.542969 228.609375 173.277344 L 225.257812 169.921875 C 225.292969 169.871094 225.316406 169.820312 225.34375 169.773438 C 225.449219 169.589844 225.546875 169.402344 225.652344 169.21875 C 225.675781 169.183594 225.691406 169.152344 225.703125 169.125 C 225.808594 168.925781 225.914062 168.726562 226.019531 168.519531 C 226.152344 168.269531 226.273438 168.023438 226.386719 167.769531 C 226.476562 167.589844 226.566406 167.402344 226.648438 167.210938 C 226.746094 166.988281 226.847656 166.769531 226.941406 166.539062 C 227.035156 166.316406 227.128906 166.09375 227.214844 165.863281 C 227.308594 165.636719 227.394531 165.410156 227.476562 165.175781 C 227.554688 164.984375 227.617188 164.78125 227.691406 164.578125 C 227.710938 164.507812 227.742188 164.429688 227.769531 164.355469 C 227.8125 164.214844 227.863281 164.0625 227.90625 163.917969 C 227.960938 163.746094 228.011719 163.570312 228.0625 163.40625 C 228.128906 163.183594 228.191406 162.964844 228.25 162.742188 C 228.261719 162.714844 228.265625 162.6875 228.269531 162.664062 C 228.285156 162.628906 228.292969 162.605469 228.300781 162.570312 L 233.039062 162.570312 C 234.828125 162.570312 236.28125 161.117188 236.28125 159.324219 L 236.28125 150.386719 C 236.277344 148.59375 234.824219 147.140625 233.035156 147.140625 Z M 215.238281 170.320312 C 215.109375 170.453125 214.976562 170.585938 214.84375 170.71875 C 214.550781 171.007812 214.257812 171.28125 213.953125 171.542969 C 213.835938 171.648438 213.714844 171.75 213.59375 171.851562 C 212.113281 173.101562 210.484375 174.148438 208.746094 174.964844 C 208.609375 175.03125 208.464844 175.09375 208.328125 175.152344 C 208.066406 175.273438 207.800781 175.382812 207.542969 175.484375 C 207.378906 175.554688 207.207031 175.613281 207.035156 175.683594 C 206.78125 175.777344 206.523438 175.863281 206.265625 175.949219 C 206.085938 176.007812 205.917969 176.066406 205.742188 176.113281 C 205.570312 176.171875 205.398438 176.222656 205.230469 176.265625 C 205.140625 176.292969 205.058594 176.316406 204.96875 176.335938 C 204.890625 176.359375 204.8125 176.375 204.738281 176.394531 C 206.976562 174.191406 208.792969 170.652344 209.953125 166.261719 C 212.386719 166.710938 214.800781 167.308594 217.148438 168.0625 C 217.132812 168.089844 217.109375 168.117188 217.09375 168.140625 C 217.078125 168.167969 217.054688 168.195312 217.03125 168.222656 C 216.894531 168.410156 216.75 168.59375 216.609375 168.769531 C 216.3125 169.144531 216 169.503906 215.679688 169.855469 C 215.535156 170.011719 215.382812 170.167969 215.238281 170.320312 Z M 199.3125 177.070312 C 199.226562 177.070312 199.140625 177.070312 199.054688 177.066406 C 199.007812 177.058594 198.964844 177.058594 198.921875 177.054688 C 197.105469 176.898438 195.390625 175.648438 193.925781 173.613281 C 192.53125 171.683594 191.355469 169.050781 190.515625 165.957031 C 194.285156 165.390625 198.144531 165.195312 201.984375 165.367188 C 203.644531 165.441406 205.308594 165.582031 206.953125 165.800781 C 207.339844 165.84375 207.726562 165.898438 208.113281 165.957031 C 206.359375 172.390625 203.164062 176.851562 199.570312 177.0625 C 199.484375 177.070312 199.398438 177.070312 199.3125 177.070312 Z M 183.875 170.808594 C 183.710938 170.652344 183.550781 170.488281 183.386719 170.320312 C 183.230469 170.15625 183.066406 169.992188 182.917969 169.820312 C 182.78125 169.675781 182.65625 169.53125 182.527344 169.378906 C 182.355469 169.179688 182.183594 168.976562 182.015625 168.765625 C 181.875 168.589844 181.730469 168.40625 181.59375 168.21875 C 181.554688 168.164062 181.515625 168.113281 181.476562 168.0625 C 183.828125 167.308594 186.238281 166.710938 188.671875 166.261719 C 189.453125 169.214844 190.535156 171.785156 191.835938 173.828125 C 192.46875 174.8125 193.160156 175.675781 193.886719 176.394531 C 193.808594 176.378906 193.730469 176.359375 193.65625 176.335938 C 193.566406 176.316406 193.484375 176.292969 193.394531 176.265625 C 193.222656 176.222656 193.054688 176.171875 192.882812 176.113281 C 192.707031 176.066406 192.539062 176.007812 192.359375 175.949219 C 192.105469 175.863281 191.847656 175.777344 191.589844 175.683594 C 191.417969 175.617188 191.246094 175.554688 191.082031 175.484375 C 190.824219 175.382812 190.558594 175.273438 190.296875 175.152344 C 190.160156 175.09375 190.015625 175.03125 189.878906 174.964844 C 189.160156 174.625 188.453125 174.246094 187.769531 173.824219 C 186.742188 173.199219 185.765625 172.488281 184.851562 171.695312 C 184.691406 171.558594 184.527344 171.417969 184.375 171.277344 C 184.207031 171.132812 184.042969 170.96875 183.875 170.808594 Z M 178.09375 161.347656 C 177.539062 159.546875 177.222656 157.671875 177.152344 155.769531 L 187.289062 155.769531 C 187.347656 158.878906 187.683594 161.816406 188.253906 164.496094 C 185.601562 164.984375 182.964844 165.652344 180.417969 166.492188 C 179.417969 164.875 178.640625 163.144531 178.09375 161.347656 Z M 182.917969 139.886719 C 183.074219 139.714844 183.230469 139.550781 183.386719 139.386719 C 183.546875 139.21875 183.710938 139.058594 183.875 138.898438 C 184.042969 138.738281 184.207031 138.574219 184.371094 138.429688 C 184.527344 138.285156 184.6875 138.144531 184.847656 138.007812 C 186.378906 136.6875 188.066406 135.589844 189.878906 134.738281 C 190.015625 134.675781 190.160156 134.609375 190.296875 134.550781 C 190.558594 134.429688 190.824219 134.320312 191.082031 134.222656 C 191.246094 134.148438 191.417969 134.089844 191.589844 134.019531 C 191.84375 133.925781 192.101562 133.839844 192.359375 133.753906 C 192.539062 133.695312 192.707031 133.640625 192.882812 133.589844 C 193.054688 133.53125 193.226562 133.484375 193.394531 133.4375 C 193.484375 133.410156 193.566406 133.390625 193.65625 133.367188 C 193.734375 133.34375 193.8125 133.328125 193.886719 133.3125 C 191.648438 135.511719 189.832031 139.050781 188.671875 143.441406 C 186.238281 142.996094 183.828125 142.398438 181.476562 141.644531 C 181.515625 141.585938 181.554688 141.535156 181.59375 141.484375 C 181.730469 141.296875 181.875 141.113281 182.015625 140.9375 C 182.183594 140.726562 182.355469 140.519531 182.527344 140.324219 C 182.660156 140.175781 182.789062 140.03125 182.917969 139.886719 Z M 204.96875 133.371094 C 205.058594 133.390625 205.140625 133.414062 205.230469 133.441406 C 205.398438 133.484375 205.570312 133.535156 205.742188 133.59375 C 205.917969 133.640625 206.085938 133.699219 206.265625 133.757812 C 206.554688 133.851562 206.839844 133.953125 207.128906 134.0625 C 207.265625 134.113281 207.402344 134.167969 207.542969 134.222656 C 207.800781 134.320312 208.066406 134.429688 208.328125 134.550781 C 208.464844 134.609375 208.609375 134.675781 208.746094 134.738281 C 210.484375 135.558594 212.117188 136.605469 213.59375 137.851562 C 213.714844 137.953125 213.835938 138.054688 213.953125 138.160156 C 214.253906 138.421875 214.550781 138.699219 214.84375 138.984375 C 214.972656 139.117188 215.109375 139.25 215.238281 139.382812 C 215.386719 139.539062 215.535156 139.691406 215.675781 139.851562 C 216 140.199219 216.308594 140.558594 216.605469 140.9375 C 216.75 141.113281 216.890625 141.296875 217.03125 141.484375 C 217.050781 141.511719 217.074219 141.539062 217.089844 141.566406 C 217.105469 141.589844 217.125 141.617188 217.144531 141.644531 C 214.800781 142.398438 212.382812 142.996094 209.949219 143.445312 C 209.234375 140.75 208.273438 138.375 207.125 136.433594 C 206.398438 135.210938 205.601562 134.160156 204.730469 133.3125 C 204.8125 133.328125 204.890625 133.347656 204.96875 133.371094 Z M 189.105469 153.941406 C 189.160156 150.960938 189.507812 148.113281 190.074219 145.523438 C 193.113281 145.992188 196.21875 146.230469 199.308594 146.230469 C 200.257812 146.230469 201.203125 146.207031 202.15625 146.15625 C 203.816406 146.085938 205.476562 145.941406 207.125 145.726562 C 207.597656 145.664062 208.074219 145.597656 208.542969 145.523438 C 209.109375 148.113281 209.460938 150.960938 209.515625 153.941406 Z M 209.519531 155.769531 C 209.464844 158.742188 209.117188 161.59375 208.550781 164.183594 C 208.074219 164.113281 207.59375 164.046875 207.113281 163.984375 C 205.476562 163.769531 203.820312 163.625 202.15625 163.554688 C 198.117188 163.367188 194.046875 163.574219 190.078125 164.183594 C 189.511719 161.59375 189.160156 158.742188 189.109375 155.769531 Z M 207.128906 140.742188 C 207.492188 141.683594 207.824219 142.6875 208.113281 143.75 C 207.785156 143.808594 207.457031 143.851562 207.128906 143.890625 C 205.480469 144.109375 203.820312 144.257812 202.15625 144.335938 C 198.261719 144.519531 194.34375 144.324219 190.515625 143.75 C 192.3125 137.164062 195.621094 132.648438 199.316406 132.648438 C 200.300781 132.648438 201.253906 132.96875 202.160156 133.5625 C 204.113281 134.832031 205.839844 137.382812 207.128906 140.742188 Z M 188.253906 145.214844 C 187.679688 147.890625 187.34375 150.832031 187.289062 153.941406 L 177.152344 153.941406 C 177.300781 150.132812 178.425781 146.453125 180.421875 143.21875 C 182.964844 144.058594 185.601562 144.726562 188.253906 145.214844 Z M 210.371094 164.496094 C 210.945312 161.816406 211.28125 158.878906 211.335938 155.769531 L 221.472656 155.769531 C 221.324219 159.578125 220.203125 163.257812 218.203125 166.492188 C 215.65625 165.648438 213.023438 164.980469 210.371094 164.496094 Z M 211.335938 153.941406 C 211.277344 150.832031 210.941406 147.890625 210.371094 145.214844 C 213.023438 144.726562 215.65625 144.058594 218.207031 143.21875 C 219.207031 144.839844 219.984375 146.566406 220.539062 148.367188 C 221.082031 150.167969 221.40625 152.039062 221.476562 153.941406 Z M 211.335938 153.941406 " fill-opacity="1" fill-rule="nonzero"/></g><path fill="#000000" d="M 188.839844 224.21875 C 188.417969 224.21875 188 224.0625 187.675781 223.738281 L 178.730469 214.78125 C 178.089844 214.140625 178.089844 213.097656 178.730469 212.453125 L 187.550781 203.625 C 188.1875 202.984375 189.230469 202.984375 189.871094 203.625 C 190.511719 204.265625 190.511719 205.304688 189.871094 205.949219 L 182.21875 213.617188 L 190 221.410156 C 190.640625 222.050781 190.640625 223.09375 190 223.738281 C 189.679688 224.0625 189.261719 224.21875 188.839844 224.21875 Z M 188.839844 224.21875 " fill-opacity="1" fill-rule="nonzero"/><path fill="#000000" d="M 209.785156 224.21875 C 209.363281 224.21875 208.945312 224.0625 208.625 223.738281 C 207.984375 223.097656 207.984375 222.054688 208.625 221.410156 L 216.40625 213.617188 L 208.753906 205.949219 C 208.113281 205.308594 208.113281 204.269531 208.753906 203.625 C 209.390625 202.984375 210.433594 202.984375 211.074219 203.625 L 219.894531 212.453125 C 220.203125 212.761719 220.375 213.179688 220.375 213.617188 C 220.375 214.050781 220.203125 214.472656 219.894531 214.78125 L 210.949219 223.738281 C 210.625 224.0625 210.203125 224.21875 209.785156 224.21875 Z M 209.785156 224.21875 " fill-opacity="1" fill-rule="nonzero"/><path fill="#000000" d="M 195.976562 224.78125 C 195.789062 224.78125 195.601562 224.75 195.414062 224.679688 C 194.5625 224.371094 194.121094 223.425781 194.433594 222.570312 L 201.105469 204.222656 C 201.414062 203.371094 202.359375 202.929688 203.210938 203.242188 C 204.0625 203.550781 204.503906 204.496094 204.191406 205.351562 L 197.519531 223.699219 C 197.277344 224.367188 196.648438 224.78125 195.976562 224.78125 Z M 195.976562 224.78125 " fill-opacity="1" fill-rule="nonzero"/><path fill="#000000" d="M 253.261719 210.40625 L 232.582031 210.40625 C 231.515625 210.40625 230.648438 211.269531 230.648438 212.339844 C 230.648438 213.410156 231.515625 214.277344 232.582031 214.277344 L 253.261719 214.277344 C 254.332031 214.277344 255.195312 213.410156 255.195312 212.339844 C 255.195312 211.269531 254.328125 210.40625 253.261719 210.40625 Z M 253.261719 210.40625 " fill-opacity="1" fill-rule="nonzero"/><path fill="#000000" d="M 166.042969 210.40625 L 145.363281 210.40625 C 144.292969 210.40625 143.429688 211.269531 143.429688 212.339844 C 143.429688 213.410156 144.292969 214.277344 145.363281 214.277344 L 166.042969 214.277344 C 167.109375 214.277344 167.976562 213.410156 167.976562 212.339844 C 167.976562 211.269531 167.109375 210.40625 166.042969 210.40625 Z M 166.042969 210.40625 " fill-opacity="1" fill-rule="nonzero"/><g clip-path="url(#ad56403d42)"><g clip-path="url(#39584e7d7e)"><path fill="#ffffff" d="M 194.25 154.726562 L 204.382812 154.726562 L 204.382812 164.550781 L 194.25 164.550781 Z M 194.25 154.726562 " fill-opacity="1" fill-rule="nonzero"/></g></g></svg>