<svg width="62" height="54" viewBox="0 0 62 54" fill="none" xmlns="http://www.w3.org/2000/svg">
<circle cx="39.1675" cy="30.7227" r="22.5" fill="#EEFDF7"/>
<mask id="mask0_286_915" style="mask-type:alpha" maskUnits="userSpaceOnUse" x="0" y="0" width="39" height="40">
<rect y="0.53125" width="39" height="39" fill="#D9D9D9"/>
</mask>
<g mask="url(#mask0_286_915)">
<path d="M34.0438 36.8906L29.25 32.0969V35.7125H26V26.5312H35.1813V29.7812H31.525L36.3188 34.575L34.0438 36.8906ZM19.5 36.2812C17.2521 36.2812 15.1396 35.8547 13.1625 35.0016C11.1854 34.1484 9.46563 32.9906 8.00313 31.5281C6.54063 30.0656 5.38281 28.3458 4.52969 26.3688C3.67656 24.3917 3.25 22.2792 3.25 20.0312C3.25 17.7833 3.67656 15.6708 4.52969 13.6937C5.38281 11.7167 6.54063 9.99687 8.00313 8.53437C9.46563 7.07187 11.1854 5.91406 13.1625 5.06094C15.1396 4.20781 17.2521 3.78125 19.5 3.78125C21.7479 3.78125 23.8604 4.20781 25.8375 5.06094C27.8146 5.91406 29.5344 7.07187 30.9969 8.53437C32.4594 9.99687 33.6172 11.7167 34.4703 13.6937C35.3234 15.6708 35.75 17.7833 35.75 20.0312C35.75 20.5729 35.7229 21.1146 35.6688 21.6562C35.6146 22.1979 35.5333 22.7396 35.425 23.2812H32.0938C32.2292 22.7396 32.3307 22.1979 32.3984 21.6562C32.4661 21.1146 32.5 20.5729 32.5 20.0312C32.5 19.4896 32.4661 18.9479 32.3984 18.4062C32.3307 17.8646 32.2292 17.3229 32.0938 16.7812H26.5688C26.65 17.3229 26.7109 17.8646 26.7516 18.4062C26.7922 18.9479 26.8125 19.4896 26.8125 20.0312C26.8125 20.5729 26.7922 21.1146 26.7516 21.6562C26.7109 22.1979 26.65 22.7396 26.5688 23.2812H23.3188C23.4 22.7396 23.4609 22.1979 23.5016 21.6562C23.5422 21.1146 23.5625 20.5729 23.5625 20.0312C23.5625 19.4896 23.5422 18.9479 23.5016 18.4062C23.4609 17.8646 23.4 17.3229 23.3188 16.7812H15.6813C15.6 17.3229 15.5391 17.8646 15.4984 18.4062C15.4578 18.9479 15.4375 19.4896 15.4375 20.0312C15.4375 20.5729 15.4578 21.1146 15.4984 21.6562C15.5391 22.1979 15.6 22.7396 15.6813 23.2812H21.125V26.5312H16.4125C16.7375 27.6958 17.1573 28.813 17.6719 29.8828C18.1865 30.9526 18.7958 31.975 19.5 32.95C20.0417 32.95 20.5833 32.9161 21.125 32.8484C21.6667 32.7807 22.2083 32.7198 22.75 32.6656V35.9969C22.2083 36.051 21.6667 36.112 21.125 36.1797C20.5833 36.2474 20.0417 36.2812 19.5 36.2812ZM6.90625 23.2812H12.4313C12.35 22.7396 12.2891 22.1979 12.2484 21.6562C12.2078 21.1146 12.1875 20.5729 12.1875 20.0312C12.1875 19.4896 12.2078 18.9479 12.2484 18.4062C12.2891 17.8646 12.35 17.3229 12.4313 16.7812H6.90625C6.77083 17.3229 6.66927 17.8646 6.60156 18.4062C6.53385 18.9479 6.5 19.4896 6.5 20.0312C6.5 20.5729 6.53385 21.1146 6.60156 21.6562C6.66927 22.1979 6.77083 22.7396 6.90625 23.2812ZM8.2875 13.5312H13.0813C13.325 12.5292 13.6297 11.5474 13.9953 10.5859C14.3609 9.62448 14.7875 8.68333 15.275 7.7625C13.7854 8.25 12.4448 8.98802 11.2531 9.97656C10.0615 10.9651 9.07292 12.15 8.2875 13.5312ZM15.275 32.3C14.7875 31.3792 14.3609 30.438 13.9953 29.4766C13.6297 28.5151 13.325 27.5333 13.0813 26.5312H8.2875C9.07292 27.9125 10.0615 29.0974 11.2531 30.0859C12.4448 31.0745 13.7854 31.8125 15.275 32.3ZM16.4125 13.5312H22.5875C22.2625 12.3667 21.8427 11.2495 21.3281 10.1797C20.8135 9.1099 20.2042 8.0875 19.5 7.1125C18.7958 8.0875 18.1865 9.1099 17.6719 10.1797C17.1573 11.2495 16.7375 12.3667 16.4125 13.5312ZM25.9188 13.5312H30.7125C29.9271 12.15 28.9385 10.9651 27.7469 9.97656C26.5552 8.98802 25.2146 8.25 23.725 7.7625C24.2125 8.68333 24.6391 9.62448 25.0047 10.5859C25.3703 11.5474 25.675 12.5292 25.9188 13.5312Z" fill="#4CAF50"/>
</g>
</svg>
