<svg width="62" height="54" viewBox="0 0 62 54" fill="none" xmlns="http://www.w3.org/2000/svg">
<circle cx="39.1675" cy="30.5742" r="22.5" fill="#EEFDF7"/>
<mask id="mask0_286_924" style="mask-type:alpha" maskUnits="userSpaceOnUse" x="0" y="0" width="39" height="40">
<rect y="0.382812" width="39" height="39" fill="#D9D9D9"/>
</mask>
<g mask="url(#mask0_286_924)">
<path d="M19.5 15.0484C21.8292 15.0484 24.2328 14.6964 26.7109 13.9922C29.1891 13.288 30.5771 12.5568 30.875 11.7984C30.5771 11.013 29.2161 10.2682 26.7922 9.56406C24.3682 8.8599 21.9375 8.50781 19.5 8.50781C17.0354 8.50781 14.6182 8.85313 12.2484 9.54375C9.87865 10.2344 8.50417 10.9859 8.125 11.7984C8.53125 12.5839 9.94635 13.3219 12.3703 14.0125C14.7943 14.7031 17.1708 15.0484 19.5 15.0484ZM17.0219 31.1359C17.2927 31.7589 17.6042 32.3547 17.9563 32.9234C18.3083 33.4922 18.7146 34.0203 19.175 34.5078C17.1979 34.4807 15.3359 34.2979 13.5891 33.9594C11.8422 33.6208 10.3255 33.1604 9.03906 32.5781C7.7526 31.9958 6.73698 31.312 5.99219 30.5266C5.2474 29.7411 4.875 28.9016 4.875 28.0078V11.7578C4.875 10.8641 5.26094 10.0245 6.03281 9.23906C6.80469 8.45365 7.85417 7.76302 9.18125 7.16719C10.5083 6.57135 12.0589 6.10417 13.8328 5.76562C15.6068 5.42708 17.4958 5.25781 19.5 5.25781C21.5042 5.25781 23.3932 5.42708 25.1672 5.76562C26.9411 6.10417 28.4917 6.57135 29.8188 7.16719C31.1458 7.76302 32.1953 8.45365 32.9672 9.23906C33.7391 10.0245 34.125 10.8641 34.125 11.7578C34.125 12.6516 33.7391 13.4911 32.9672 14.2766C32.1953 15.062 31.1458 15.7526 29.8188 16.3484C28.4917 16.9443 26.9411 17.4115 25.1672 17.75C23.3932 18.0885 21.5042 18.2578 19.5 18.2578C17.1979 18.2578 15.0719 18.0547 13.1219 17.6484C11.1719 17.2422 9.50625 16.6464 8.125 15.8609V19.9641C9.20833 20.9661 10.5625 21.6974 12.1875 22.1578C13.8125 22.6182 15.451 22.9161 17.1031 23.0516C16.8865 23.4578 16.7104 23.925 16.575 24.4531C16.4396 24.9813 16.3448 25.5703 16.2906 26.2203C14.6656 26.0307 13.1557 25.7599 11.7609 25.4078C10.3661 25.0557 9.15417 24.5818 8.125 23.9859V28.0078C8.50417 28.6849 9.54688 29.3214 11.2531 29.9172C12.9594 30.513 14.8823 30.9193 17.0219 31.1359ZM35.1 37.7578L30.7125 33.3703C30.1167 33.7224 29.4937 34 28.8438 34.2031C28.1938 34.4062 27.5167 34.5078 26.8125 34.5078C24.7812 34.5078 23.0547 33.7969 21.6328 32.375C20.2109 30.9531 19.5 29.2266 19.5 27.1953C19.5 25.1641 20.2109 23.4375 21.6328 22.0156C23.0547 20.5938 24.7812 19.8828 26.8125 19.8828C28.8438 19.8828 30.5703 20.5938 31.9922 22.0156C33.4141 23.4375 34.125 25.1641 34.125 27.1953C34.125 27.8995 34.0234 28.5766 33.8203 29.2266C33.6172 29.8766 33.3396 30.4995 32.9875 31.0953L37.375 35.4828L35.1 37.7578ZM26.8125 31.2578C27.95 31.2578 28.9115 30.8651 29.6969 30.0797C30.4823 29.2943 30.875 28.3328 30.875 27.1953C30.875 26.0578 30.4823 25.0964 29.6969 24.3109C28.9115 23.5255 27.95 23.1328 26.8125 23.1328C25.675 23.1328 24.7135 23.5255 23.9281 24.3109C23.1427 25.0964 22.75 26.0578 22.75 27.1953C22.75 28.3328 23.1427 29.2943 23.9281 30.0797C24.7135 30.8651 25.675 31.2578 26.8125 31.2578Z" fill="#4CAF50"/>
</g>
</svg>
