<svg width="62" height="54" viewBox="0 0 62 54" fill="none" xmlns="http://www.w3.org/2000/svg">
<circle cx="39.1675" cy="30.957" r="22.5" fill="#EEFDF7"/>
<mask id="mask0_286_891" style="mask-type:alpha" maskUnits="userSpaceOnUse" x="0" y="0" width="39" height="40">
<rect y="0.765625" width="39" height="39" fill="#D9D9D9"/>
</mask>
<g mask="url(#mask0_286_891)">
<path d="M32.5 17.0156C32.0396 17.0156 31.6536 16.8599 31.3422 16.5484C31.0307 16.237 30.875 15.851 30.875 15.3906C30.875 14.9302 31.0307 14.5443 31.3422 14.2328C31.6536 13.9214 32.0396 13.7656 32.5 13.7656C32.9604 13.7656 33.3464 13.9214 33.6578 14.2328C33.9693 14.5443 34.125 14.9302 34.125 15.3906C34.125 15.851 33.9693 16.237 33.6578 16.5484C33.3464 16.8599 32.9604 17.0156 32.5 17.0156ZM16.25 36.5156V30.6656L12.025 34.8906L9.75 32.6156L16.25 26.1156V23.5156H13.65L7.15 30.0156L4.875 27.7406L9.1 23.5156H3.25V20.2656H9.1L4.875 16.0406L7.15 13.7656L13.65 20.2656H16.25V17.6656L9.75 11.1656L12.025 8.89062L16.25 13.1156V7.26562H19.5V13.1156L23.725 8.89062L26 11.1656L19.5 17.6656V20.2656H32.5V23.5156H26.65L30.875 27.7406L28.6 30.0156L22.1 23.5156H19.5V26.1156L26 32.6156L23.725 34.8906L19.5 30.6656V36.5156H16.25ZM30.875 12.1406V4.01562H34.125V12.1406H30.875Z" fill="#4CAF50"/>
</g>
</svg>
