<svg width="62" height="53" viewBox="0 0 62 53" fill="none" xmlns="http://www.w3.org/2000/svg">
<circle cx="39.1675" cy="30.2656" r="22.5" fill="#EEFDF7"/>
<mask id="mask0_286_885" style="mask-type:alpha" maskUnits="userSpaceOnUse" x="0" y="0" width="39" height="40">
<rect y="0.0742188" width="39" height="39" fill="#D9D9D9"/>
</mask>
<g mask="url(#mask0_286_885)">
<path d="M13 18.7617V16.3242H26V18.7617H13ZM14.625 23.6367V21.1992H24.375V23.6367H14.625ZM4.875 32.5742C3.98125 32.5742 3.21615 32.256 2.57969 31.6195C1.94323 30.9831 1.625 30.218 1.625 29.3242V9.82422C1.625 8.93047 1.94323 8.16536 2.57969 7.52891C3.21615 6.89245 3.98125 6.57422 4.875 6.57422H34.125C35.0187 6.57422 35.7839 6.89245 36.4203 7.52891C37.0568 8.16536 37.375 8.93047 37.375 9.82422V29.3242C37.375 30.218 37.0568 30.9831 36.4203 31.6195C35.7839 32.256 35.0187 32.5742 34.125 32.5742H4.875ZM6.5 9.82422H4.875V29.3242H6.5V9.82422ZM9.75 29.3242H29.25V9.82422H9.75V29.3242ZM32.5 9.82422V29.3242H34.125V9.82422H32.5Z" fill="#4CAF50"/>
</g>
</svg>
