<svg width="62" height="53" viewBox="0 0 62 53" fill="none" xmlns="http://www.w3.org/2000/svg">
<circle cx="39.1675" cy="30.1914" r="22.5" fill="#EEFDF7"/>
<mask id="mask0_286_478" style="mask-type:alpha" maskUnits="userSpaceOnUse" x="0" y="0" width="39" height="39">
<rect width="39" height="39" fill="#D9D9D9"/>
</mask>
<g mask="url(#mask0_286_478)">
<path d="M3.25 14.625V9.75C3.25 8.85625 3.56823 8.09115 4.20469 7.45469C4.84115 6.81823 5.60625 6.5 6.5 6.5H32.5C33.3937 6.5 34.1589 6.81823 34.7953 7.45469C35.4318 8.09115 35.75 8.85625 35.75 9.75V18.6875H32.5V9.75H6.5V14.625H3.25ZM11.375 27.625C11.0771 27.625 10.7927 27.5505 10.5219 27.4016C10.251 27.2526 10.0479 27.0292 9.9125 26.7312L7.10938 21.125H3.25V17.875H8.125C8.42292 17.875 8.70729 17.9495 8.97813 18.0984C9.24896 18.2474 9.45208 18.4708 9.5875 18.7688L11.375 22.3438L16.4125 12.2687C16.5479 11.9979 16.751 11.7948 17.0219 11.6594C17.2927 11.524 17.5771 11.4562 17.875 11.4562C18.1729 11.4562 18.4573 11.524 18.7281 11.6594C18.999 11.7948 19.2021 11.9979 19.3375 12.2687L22.0594 17.7125C21.5719 18.0104 21.1047 18.3219 20.6578 18.6469C20.2109 18.9719 19.7979 19.3375 19.4187 19.7438L17.875 16.6562L12.8375 26.7312C12.7021 27.0292 12.499 27.2526 12.2281 27.4016C11.9573 27.5505 11.6729 27.625 11.375 27.625ZM17.3469 32.5H6.5C5.60625 32.5 4.84115 32.1818 4.20469 31.5453C3.56823 30.9089 3.25 30.1437 3.25 29.25V24.375H6.5V29.25H16.3719C16.4531 29.8188 16.575 30.374 16.7375 30.9156C16.9 31.4573 17.1031 31.9854 17.3469 32.5ZM27.625 35.75C25.3771 35.75 23.4609 34.9578 21.8766 33.3734C20.2922 31.7891 19.5 29.8729 19.5 27.625C19.5 25.3771 20.2922 23.4609 21.8766 21.8766C23.4609 20.2922 25.3771 19.5 27.625 19.5C29.8729 19.5 31.7891 20.2922 33.3734 21.8766C34.9578 23.4609 35.75 25.3771 35.75 27.625C35.75 29.8729 34.9578 31.7891 33.3734 33.3734C31.7891 34.9578 29.8729 35.75 27.625 35.75ZM27.95 28.4375L31.6469 24.7406L30.5094 23.6031L26.8125 27.3L27.95 28.4375Z" fill="#4CAF50"/>
</g>
</svg>
