<svg width="62" height="54" viewBox="0 0 62 54" fill="none" xmlns="http://www.w3.org/2000/svg">
<circle cx="39.1675" cy="30.6484" r="22.5" fill="#EEFDF7"/>
<mask id="mask0_286_897" style="mask-type:alpha" maskUnits="userSpaceOnUse" x="0" y="0" width="39" height="40">
<rect y="0.457031" width="39" height="39" fill="#D9D9D9"/>
</mask>
<g mask="url(#mask0_286_897)">
<path d="M9.75 23.207C9.75 24.6154 10.0344 25.9492 10.6031 27.2086C11.1719 28.468 11.9844 29.5716 13.0406 30.5195C13.0135 30.3841 13 30.2622 13 30.1539V29.7883C13 28.9216 13.1625 28.1091 13.4875 27.3508C13.8125 26.5924 14.2865 25.9018 14.9094 25.2789L19.5 20.7695L24.0906 25.2789C24.7135 25.9018 25.1875 26.5924 25.5125 27.3508C25.8375 28.1091 26 28.9216 26 29.7883V30.1539C26 30.2622 25.9865 30.3841 25.9594 30.5195C27.0156 29.5716 27.8281 28.468 28.3969 27.2086C28.9656 25.9492 29.25 24.6154 29.25 23.207C29.25 21.8529 28.9995 20.5732 28.4984 19.368C27.9974 18.1628 27.2729 17.0862 26.325 16.1383C25.7833 16.4904 25.2146 16.7544 24.6188 16.9305C24.0229 17.1065 23.4135 17.1945 22.7906 17.1945C21.1115 17.1945 19.6557 16.6393 18.4234 15.5289C17.1911 14.4185 16.4802 13.0508 16.2906 11.4258C15.2344 12.3195 14.3 13.2471 13.4875 14.2086C12.675 15.1701 11.9911 16.1451 11.4359 17.1336C10.8807 18.1221 10.4609 19.131 10.1766 20.1602C9.89219 21.1893 9.75 22.2049 9.75 23.207ZM19.5 25.3195L17.1844 27.5945C16.8865 27.8924 16.6562 28.231 16.4938 28.6102C16.3313 28.9893 16.25 29.382 16.25 29.7883C16.25 30.6549 16.5682 31.3997 17.2047 32.0227C17.8411 32.6456 18.6062 32.957 19.5 32.957C20.3938 32.957 21.1589 32.6456 21.7953 32.0227C22.4318 31.3997 22.75 30.6549 22.75 29.7883C22.75 29.3549 22.6688 28.9555 22.5063 28.5898C22.3438 28.2242 22.1135 27.8924 21.8156 27.5945L19.5 25.3195ZM19.5 5.33203V10.6945C19.5 11.6154 19.8182 12.3872 20.4547 13.0102C21.0911 13.6331 21.8698 13.9445 22.7906 13.9445C23.2781 13.9445 23.7318 13.843 24.1516 13.6398C24.5714 13.4367 24.9438 13.132 25.2688 12.7258L26 11.832C28.0042 12.9695 29.5885 14.5539 30.7531 16.5852C31.9177 18.6164 32.5 20.8237 32.5 23.207C32.5 26.8362 31.2406 29.9102 28.7219 32.4289C26.2031 34.9477 23.1292 36.207 19.5 36.207C15.8708 36.207 12.7969 34.9477 10.2781 32.4289C7.75937 29.9102 6.5 26.8362 6.5 23.207C6.5 19.7133 7.67135 16.3956 10.0141 13.2539C12.3568 10.1122 15.5188 7.47161 19.5 5.33203Z" fill="#4CAF50"/>
</g>
</svg>
