<svg width="62" height="54" viewBox="0 0 62 54" fill="none" xmlns="http://www.w3.org/2000/svg">
<circle cx="39.1675" cy="30.8828" r="22.5" fill="#EEFDF7"/>
<mask id="mask0_286_879" style="mask-type:alpha" maskUnits="userSpaceOnUse" x="0" y="0" width="39" height="40">
<rect y="0.691406" width="39" height="39" fill="#D9D9D9"/>
</mask>
<g mask="url(#mask0_286_879)">
<path d="M18.6063 28.3164C19.0938 28.3164 19.5745 28.2555 20.0484 28.1336C20.5224 28.0117 20.9625 27.8289 21.3688 27.5852L25.35 31.5664L27.625 29.2914L23.6438 25.3102C23.8875 24.9039 24.0703 24.4638 24.1922 23.9898C24.3141 23.5159 24.375 23.0352 24.375 22.5477C24.375 20.9768 23.8198 19.6497 22.7094 18.5664C21.599 17.4831 20.2583 16.9414 18.6875 16.9414C17.1167 16.9414 15.776 17.4966 14.6656 18.607C13.5552 19.7174 13 21.0581 13 22.6289C13 24.1997 13.5417 25.5404 14.625 26.6508C15.7083 27.7612 17.0354 28.3164 18.6063 28.3164ZM18.6875 25.0664C18.0104 25.0664 17.4349 24.8294 16.9609 24.3555C16.487 23.8815 16.25 23.306 16.25 22.6289C16.25 21.9518 16.487 21.3763 16.9609 20.9023C17.4349 20.4284 18.0104 20.1914 18.6875 20.1914C19.3646 20.1914 19.9401 20.4284 20.4141 20.9023C20.888 21.3763 21.125 21.9518 21.125 22.6289C21.125 23.306 20.888 23.8815 20.4141 24.3555C19.9401 24.8294 19.3646 25.0664 18.6875 25.0664ZM9.75 36.4414C8.85625 36.4414 8.09115 36.1232 7.45469 35.4867C6.81823 34.8503 6.5 34.0852 6.5 33.1914V7.19141C6.5 6.29766 6.81823 5.53255 7.45469 4.89609C8.09115 4.25964 8.85625 3.94141 9.75 3.94141H22.75L32.5 13.6914V33.1914C32.5 34.0852 32.1818 34.8503 31.5453 35.4867C30.9089 36.1232 30.1437 36.4414 29.25 36.4414H9.75ZM21.125 15.3164V7.19141H9.75V33.1914H29.25V15.3164H21.125Z" fill="#4CAF50"/>
</g>
</svg>
