<svg width="62" height="53" viewBox="0 0 62 53" fill="none" xmlns="http://www.w3.org/2000/svg">
<circle cx="39.1675" cy="30.3398" r="22.5" fill="#EEFDF7"/>
<mask id="mask0_286_903" style="mask-type:alpha" maskUnits="userSpaceOnUse" x="0" y="0" width="39" height="40">
<rect y="0.148438" width="39" height="39" fill="#D9D9D9"/>
</mask>
<g mask="url(#mask0_286_903)">
<path d="M17.875 34.2734L12.7156 29.6422C10.7656 27.8818 9.09323 26.3109 7.69844 24.9297C6.30365 23.5484 5.1526 22.2484 4.24531 21.0297C3.33802 19.8109 2.67448 18.6328 2.25469 17.4953C1.8349 16.3578 1.625 15.1661 1.625 13.9203C1.625 11.3745 2.47812 9.25521 4.18438 7.5625C5.89062 5.86979 8.01667 5.02344 10.5625 5.02344C11.9708 5.02344 13.3115 5.32135 14.5844 5.91719C15.8573 6.51302 16.9542 7.3526 17.875 8.43594C18.7958 7.3526 19.8927 6.51302 21.1656 5.91719C22.4385 5.32135 23.7792 5.02344 25.1875 5.02344C27.4625 5.02344 29.5344 5.8224 31.4031 7.42031C33.2719 9.01823 34.2063 11.1849 34.2063 13.9203C34.2063 14.2995 34.1792 14.699 34.125 15.1188C34.0708 15.5385 33.9896 15.9651 33.8813 16.3984H30.4281C30.5635 15.9109 30.6719 15.4505 30.7531 15.0172C30.8344 14.5839 30.875 14.1776 30.875 13.7984C30.875 11.7672 30.1979 10.3385 28.8438 9.5125C27.4896 8.68646 26.2708 8.27344 25.1875 8.27344C23.8062 8.27344 22.6146 8.64583 21.6125 9.39062C20.6104 10.1354 19.676 11.1172 18.8094 12.3359H16.9406C16.101 11.1172 15.1464 10.1354 14.0766 9.39062C13.0068 8.64583 11.8354 8.27344 10.5625 8.27344C9.01875 8.27344 7.6849 8.80833 6.56094 9.87812C5.43698 10.9479 4.875 12.2953 4.875 13.9203C4.875 14.8141 5.06458 15.7214 5.44375 16.6422C5.82292 17.563 6.5 18.626 7.475 19.8313C8.45 21.0365 9.77708 22.4448 11.4563 24.0563C13.1354 25.6677 15.275 27.6109 17.875 29.8859C18.5792 29.263 19.4052 28.5453 20.3531 27.7328C21.301 26.9203 22.0594 26.2432 22.6281 25.7016L24.9438 28.0172C24.3479 28.5589 23.5896 29.2292 22.6687 30.0281C21.7479 30.8271 20.9354 31.538 20.2312 32.1609L17.875 34.2734ZM24.375 22.8984V19.6484H37.375V22.8984H24.375Z" fill="#4CAF50"/>
</g>
</svg>
