<svg width="105" height="12" viewBox="0 0 105 12" fill="none" xmlns="http://www.w3.org/2000/svg">
<path d="M0 6C0 8.20914 1.79086 10 4 10C6.20914 10 8 8.20914 8 6C8 3.79086 6.20914 2 4 2C1.79086 2 0 3.79086 0 6ZM104.53 6.53033C104.823 6.23744 104.823 5.76256 104.53 5.46967L99.7574 0.696699C99.4645 0.403806 98.9896 0.403806 98.6967 0.696699C98.4038 0.989593 98.4038 1.46447 98.6967 1.75736L102.939 6L98.6967 10.2426C98.4038 10.5355 98.4038 11.0104 98.6967 11.3033C98.9896 11.5962 99.4645 11.5962 99.7574 11.3033L104.53 6.53033ZM4 6.75H104V5.25H4V6.75Z" fill="#4F6D56"/>
</svg>
