<svg width="60" height="54" viewBox="0 0 60 54" fill="none" xmlns="http://www.w3.org/2000/svg">
<path d="M29.6673 48.3332C29.8451 48.3332 30.0228 48.2888 30.2006 48.1999C30.3784 48.111 30.5117 48.0221 30.6006 47.9333L52.4673 26.0666C53.0006 25.5333 53.3895 24.9333 53.634 24.2666C53.8784 23.5999 54.0006 22.9333 54.0006 22.2666C54.0006 21.5555 53.8784 20.8777 53.634 20.2333C53.3895 19.5888 53.0006 19.0221 52.4673 18.5333L41.134 7.19992C40.6451 6.66658 40.0784 6.2777 39.434 6.03325C38.7895 5.78881 38.1117 5.66658 37.4006 5.66658C36.734 5.66658 36.0673 5.78881 35.4006 6.03325C34.734 6.2777 34.134 6.66658 33.6006 7.19992L32.8673 7.93325L37.8006 12.9333C38.4673 13.5555 38.9562 14.2666 39.2673 15.0666C39.5784 15.8666 39.734 16.711 39.734 17.5999C39.734 19.4666 39.1006 21.0333 37.834 22.2999C36.5673 23.5666 35.0006 24.1999 33.134 24.1999C32.2451 24.1999 31.3895 24.0444 30.5673 23.7333C29.7451 23.4221 29.0228 22.9555 28.4006 22.3333L23.4006 17.3999L11.734 29.0666C11.6006 29.1999 11.5006 29.3444 11.434 29.4999C11.3673 29.6555 11.334 29.8221 11.334 29.9999C11.334 30.3555 11.4673 30.6777 11.734 30.9666C12.0006 31.2555 12.3117 31.3999 12.6673 31.3999C12.8451 31.3999 13.0228 31.3555 13.2006 31.2666C13.3784 31.1777 13.5117 31.0888 13.6006 30.9999L22.6673 21.9333L26.4006 25.6666L17.4006 34.7332C17.2673 34.8666 17.1673 35.011 17.1006 35.1666C17.034 35.3221 17.0006 35.4888 17.0006 35.6666C17.0006 36.0221 17.134 36.3333 17.4006 36.5999C17.6673 36.8666 17.9784 36.9999 18.334 36.9999C18.5117 36.9999 18.6895 36.9555 18.8673 36.8666C19.0451 36.7777 19.1784 36.6888 19.2673 36.5999L28.334 27.5999L32.0673 31.3333L23.0673 40.3999C22.934 40.4888 22.834 40.6221 22.7673 40.7999C22.7006 40.9777 22.6673 41.1555 22.6673 41.3332C22.6673 41.6888 22.8006 41.9999 23.0673 42.2666C23.334 42.5332 23.6451 42.6666 24.0006 42.6666C24.1784 42.6666 24.3451 42.6333 24.5006 42.5666C24.6562 42.4999 24.8006 42.3999 24.934 42.2666L34.0006 33.2666L37.734 36.9999L28.6673 46.0666C28.534 46.1999 28.434 46.3444 28.3673 46.4999C28.3006 46.6555 28.2673 46.8221 28.2673 46.9999C28.2673 47.3555 28.4117 47.6666 28.7006 47.9333C28.9895 48.1999 29.3117 48.3332 29.6673 48.3332ZM29.6006 53.6666C27.9562 53.6666 26.5006 53.1221 25.234 52.0333C23.9673 50.9444 23.2228 49.5777 23.0006 47.9333C21.4895 47.711 20.2228 47.0888 19.2006 46.0666C18.1784 45.0444 17.5562 43.7777 17.334 42.2666C15.8228 42.0444 14.5673 41.411 13.5673 40.3666C12.5673 39.3221 11.9562 38.0666 11.734 36.5999C10.0451 36.3777 8.66729 35.6444 7.60063 34.3999C6.53396 33.1555 6.00062 31.6888 6.00062 29.9999C6.00062 29.111 6.16729 28.2555 6.50062 27.4333C6.83396 26.611 7.31174 25.8888 7.93396 25.2666L23.4006 9.86658L32.134 18.5999C32.2228 18.7332 32.3562 18.8333 32.534 18.8999C32.7117 18.9666 32.8895 18.9999 33.0673 18.9999C33.4673 18.9999 33.8006 18.8777 34.0673 18.6333C34.334 18.3888 34.4673 18.0666 34.4673 17.6666C34.4673 17.4888 34.434 17.311 34.3673 17.1333C34.3006 16.9555 34.2006 16.8221 34.0673 16.7333L24.534 7.19992C24.0451 6.66658 23.4784 6.2777 22.834 6.03325C22.1895 5.78881 21.5117 5.66658 20.8006 5.66658C20.134 5.66658 19.4673 5.78881 18.8006 6.03325C18.134 6.2777 17.534 6.66658 17.0006 7.19992L7.60063 16.6666C7.20062 17.0666 6.86729 17.5333 6.60063 18.0666C6.33396 18.5999 6.15618 19.1333 6.06729 19.6666C5.9784 20.1999 5.9784 20.7444 6.06729 21.2999C6.15618 21.8555 6.33396 22.3777 6.60063 22.8666L2.73396 26.7333C1.9784 25.711 1.42285 24.5888 1.06729 23.3666C0.711736 22.1444 0.578403 20.911 0.667292 19.6666C0.756181 18.4221 1.06729 17.211 1.60062 16.0333C2.13396 14.8555 2.86729 13.7999 3.80063 12.8666L13.2006 3.46659C14.2673 2.44436 15.4562 1.66659 16.7673 1.13325C18.0784 0.599919 19.4228 0.333252 20.8006 0.333252C22.1784 0.333252 23.5228 0.599919 24.834 1.13325C26.1451 1.66659 27.3117 2.44436 28.334 3.46659L29.0673 4.19992L29.8006 3.46659C30.8673 2.44436 32.0562 1.66659 33.3673 1.13325C34.6784 0.599919 36.0228 0.333252 37.4006 0.333252C38.7784 0.333252 40.1228 0.599919 41.434 1.13325C42.7451 1.66659 43.9117 2.44436 44.934 3.46659L56.2006 14.7333C57.2228 15.7555 58.0006 16.9333 58.534 18.2666C59.0673 19.5999 59.334 20.9555 59.334 22.3333C59.334 23.711 59.0673 25.0555 58.534 26.3666C58.0006 27.6777 57.2228 28.8444 56.2006 29.8666L34.334 51.6666C33.7117 52.2888 32.9895 52.7777 32.1673 53.1333C31.3451 53.4888 30.4895 53.6666 29.6006 53.6666Z" fill="#1C1B1F" fill-opacity="0.8"/>
</svg>
