<svg width="64" height="64" viewBox="0 0 64 64" fill="none" xmlns="http://www.w3.org/2000/svg">
<mask id="mask0_271_263" style="mask-type:alpha" maskUnits="userSpaceOnUse" x="0" y="0" width="64" height="64">
<rect width="64" height="64" fill="#D9D9D9"/>
</mask>
<g mask="url(#mask0_271_263)">
<path d="M38.6667 56C36.4444 56 34.5556 55.2222 33 53.6667C31.4444 52.1111 30.6667 50.2222 30.6667 48C30.6667 45.7778 31.4444 43.8889 33 42.3333C34.5556 40.7778 36.4444 40 38.6667 40C40.8889 40 42.7778 40.7778 44.3333 42.3333C45.8889 43.8889 46.6667 45.7778 46.6667 48C46.6667 50.2222 45.8889 52.1111 44.3333 53.6667C42.7778 55.2222 40.8889 56 38.6667 56ZM38.6667 50.6667C39.4222 50.6667 40.0556 50.4111 40.5667 49.9C41.0778 49.3889 41.3333 48.7556 41.3333 48C41.3333 47.2444 41.0778 46.6111 40.5667 46.1C40.0556 45.5889 39.4222 45.3333 38.6667 45.3333C37.9111 45.3333 37.2778 45.5889 36.7667 46.1C36.2556 46.6111 36 47.2444 36 48C36 48.7556 36.2556 49.3889 36.7667 49.9C37.2778 50.4111 37.9111 50.6667 38.6667 50.6667ZM44 37.3333C39.9111 37.3333 36.4444 35.9111 33.6 33.0667C30.7556 30.2222 29.3333 26.7556 29.3333 22.6667C29.3333 18.5778 30.7556 15.1111 33.6 12.2667C36.4444 9.42222 39.9111 8 44 8C48.0889 8 51.5556 9.42222 54.4 12.2667C57.2444 15.1111 58.6667 18.5778 58.6667 22.6667C58.6667 26.7556 57.2444 30.2222 54.4 33.0667C51.5556 35.9111 48.0889 37.3333 44 37.3333ZM44 32C46.6222 32 48.8333 31.1 50.6333 29.3C52.4333 27.5 53.3333 25.2889 53.3333 22.6667C53.3333 20.0444 52.4333 17.8333 50.6333 16.0333C48.8333 14.2333 46.6222 13.3333 44 13.3333C41.3778 13.3333 39.1667 14.2333 37.3667 16.0333C35.5667 17.8333 34.6667 20.0444 34.6667 22.6667C34.6667 25.2889 35.5667 27.5 37.3667 29.3C39.1667 31.1 41.3778 32 44 32ZM18.6667 48C15.7333 48 13.2222 46.9556 11.1333 44.8667C9.04444 42.7778 8 40.2667 8 37.3333C8 34.4 9.04444 31.8889 11.1333 29.8C13.2222 27.7111 15.7333 26.6667 18.6667 26.6667C21.6 26.6667 24.1111 27.7111 26.2 29.8C28.2889 31.8889 29.3333 34.4 29.3333 37.3333C29.3333 40.2667 28.2889 42.7778 26.2 44.8667C24.1111 46.9556 21.6 48 18.6667 48ZM18.6667 42.6667C20.1333 42.6667 21.3889 42.1444 22.4333 41.1C23.4778 40.0556 24 38.8 24 37.3333C24 35.8667 23.4778 34.6111 22.4333 33.5667C21.3889 32.5222 20.1333 32 18.6667 32C17.2 32 15.9444 32.5222 14.9 33.5667C13.8556 34.6111 13.3333 35.8667 13.3333 37.3333C13.3333 38.8 13.8556 40.0556 14.9 41.1C15.9444 42.1444 17.2 42.6667 18.6667 42.6667Z" fill="#1C1B1F" fill-opacity="0.8"/>
</g>
</svg>
