<svg width="64" height="64" viewBox="0 0 64 64" fill="none" xmlns="http://www.w3.org/2000/svg">
<mask id="mask0_271_241" style="mask-type:alpha" maskUnits="userSpaceOnUse" x="0" y="0" width="64" height="64">
<rect width="64" height="64" fill="#D9D9D9"/>
</mask>
<g mask="url(#mask0_271_241)">
<path d="M34.6663 46.6666L43.9997 37.3333C44.4886 36.8444 44.8774 36.2666 45.1663 35.5999C45.4552 34.9333 45.5997 34.2221 45.5997 33.4666C45.5997 31.9555 45.0663 30.6666 43.9997 29.5999C42.933 28.5333 41.6441 27.9999 40.133 27.9999C39.2886 27.9999 38.4552 28.2444 37.633 28.7333C36.8108 29.2221 35.8219 30.0444 34.6663 31.1999C33.333 29.9555 32.2886 29.111 31.533 28.6666C30.7775 28.2221 29.9997 27.9999 29.1997 27.9999C27.6886 27.9999 26.3997 28.5333 25.333 29.5999C24.2663 30.6666 23.733 31.9555 23.733 33.4666C23.733 34.2221 23.8775 34.9333 24.1663 35.5999C24.4552 36.2666 24.8441 36.8444 25.333 37.3333L34.6663 46.6666ZM57.0663 37.9999L37.9997 57.0666C37.4663 57.5999 36.8663 57.9999 36.1997 58.2666C35.533 58.5332 34.8663 58.6666 34.1997 58.6666C33.533 58.6666 32.8663 58.5332 32.1997 58.2666C31.533 57.9999 30.933 57.5999 30.3997 57.0666L6.86634 33.5332C6.37745 33.0444 5.99967 32.4777 5.73301 31.8333C5.46634 31.1888 5.33301 30.511 5.33301 29.7999V10.6666C5.33301 9.19992 5.85523 7.94436 6.89967 6.89992C7.94412 5.85547 9.19967 5.33325 10.6663 5.33325H29.7997C30.5108 5.33325 31.1997 5.4777 31.8663 5.76659C32.533 6.05547 33.1108 6.44436 33.5997 6.93325L57.0663 30.4666C57.5997 30.9999 57.9886 31.5999 58.233 32.2666C58.4774 32.9333 58.5997 33.5999 58.5997 34.2666C58.5997 34.9333 58.4774 35.5888 58.233 36.2333C57.9886 36.8777 57.5997 37.4666 57.0663 37.9999ZM34.1997 53.3332L53.2663 34.2666L29.733 10.6666H10.6663V29.7333L34.1997 53.3332ZM17.333 21.3333C18.4441 21.3333 19.3886 20.9444 20.1663 20.1666C20.9441 19.3888 21.333 18.4444 21.333 17.3333C21.333 16.2221 20.9441 15.2777 20.1663 14.4999C19.3886 13.7221 18.4441 13.3333 17.333 13.3333C16.2219 13.3333 15.2775 13.7221 14.4997 14.4999C13.7219 15.2777 13.333 16.2221 13.333 17.3333C13.333 18.4444 13.7219 19.3888 14.4997 20.1666C15.2775 20.9444 16.2219 21.3333 17.333 21.3333Z" fill="#1C1B1F" fill-opacity="0.8"/>
</g>
</svg>
