<svg width="54" height="48" viewBox="0 0 54 48" fill="none" xmlns="http://www.w3.org/2000/svg">
<path d="M26.9997 48C26.1997 48 25.433 47.8556 24.6997 47.5667C23.9663 47.2778 23.3108 46.8444 22.733 46.2667L5.86634 29.3333H13.3997L26.533 42.4667C26.6219 42.5556 26.6997 42.6111 26.7663 42.6333C26.833 42.6556 26.9108 42.6667 26.9997 42.6667C27.0886 42.6667 27.1663 42.6556 27.233 42.6333C27.2997 42.6111 27.3775 42.5556 27.4663 42.4667L45.2663 24.6C46.2886 23.5778 47.0663 22.3667 47.5997 20.9667C48.133 19.5667 48.3997 18.1333 48.3997 16.6667C48.3108 13.6 47.2886 10.9667 45.333 8.76667C43.3774 6.56667 40.933 5.46667 37.9997 5.46667C36.6219 5.46667 35.2997 5.73333 34.033 6.26667C32.7663 6.8 31.6663 7.57778 30.733 8.6L28.933 10.5333C28.7108 10.8 28.4219 11.0111 28.0663 11.1667C27.7108 11.3222 27.3552 11.4 26.9997 11.4C26.6441 11.4 26.2886 11.3222 25.933 11.1667C25.5775 11.0111 25.2663 10.8 24.9997 10.5333L23.1997 8.6C22.2663 7.57778 21.1775 6.77778 19.933 6.2C18.6886 5.62222 17.3552 5.33333 15.933 5.33333C13.533 5.33333 11.4552 6.1 9.69967 7.63333C7.94412 9.16667 6.75523 11.0667 6.13301 13.3333H0.666341C1.4219 9.55556 3.18856 6.38889 5.96634 3.83333C8.74412 1.27778 12.0663 0 15.933 0C18.0663 0 20.0775 0.422222 21.9663 1.26667C23.8552 2.11111 25.533 3.28889 26.9997 4.8C28.4219 3.28889 30.0775 2.11111 31.9663 1.26667C33.8552 0.422222 35.8663 0 37.9997 0C42.4441 0 46.1663 1.64444 49.1663 4.93333C52.1663 8.22222 53.6663 12.1333 53.6663 16.6667C53.6663 18.8444 53.2886 20.9333 52.533 22.9333C51.7775 24.9333 50.6441 26.7111 49.133 28.2667L31.1997 46.2667C30.6219 46.8444 29.9775 47.2778 29.2663 47.5667C28.5552 47.8556 27.7997 48 26.9997 48ZM26.6663 24H0.333008V18.6667H37.333C38.0886 18.6667 38.7219 18.4111 39.233 17.9C39.7441 17.3889 39.9997 16.7556 39.9997 16C39.9997 15.2444 39.7441 14.6111 39.233 14.1C38.7219 13.5889 38.0886 13.3333 37.333 13.3333C36.7108 13.3333 36.1552 13.5 35.6663 13.8333C35.1774 14.1667 34.8663 14.6444 34.733 15.2667L29.5997 13.8667C30.0886 12.1333 31.0441 10.7222 32.4663 9.63333C33.8886 8.54444 35.5108 8 37.333 8C39.5552 8 41.4441 8.77778 42.9997 10.3333C44.5552 11.8889 45.333 13.7778 45.333 16C45.333 18.2222 44.5552 20.1111 42.9997 21.6667C41.4441 23.2222 39.5552 24 37.333 24H34.1997C34.333 24.4444 34.4441 24.8778 34.533 25.3C34.6219 25.7222 34.6663 26.1778 34.6663 26.6667C34.6663 28.8889 33.8886 30.7778 32.333 32.3333C30.7775 33.8889 28.8886 34.6667 26.6663 34.6667C24.8441 34.6667 23.2219 34.1222 21.7997 33.0333C20.3775 31.9444 19.4219 30.5333 18.933 28.8L24.0663 27.4C24.1997 28.0222 24.5108 28.5 24.9997 28.8333C25.4886 29.1667 26.0441 29.3333 26.6663 29.3333C27.4219 29.3333 28.0552 29.0778 28.5663 28.5667C29.0775 28.0556 29.333 27.4222 29.333 26.6667C29.333 25.9111 29.0775 25.2778 28.5663 24.7667C28.0552 24.2556 27.4219 24 26.6663 24Z" fill="#1C1B1F" fill-opacity="0.8"/>
</svg>
