<svg width="87" height="69" viewBox="0 0 87 69" fill="none" xmlns="http://www.w3.org/2000/svg">
<path d="M5.06875 39.8083C3.51597 37.2403 2.36632 34.6573 1.61979 32.0594C0.873264 29.4615 0.5 26.9083 0.5 24.4C0.5 17.8306 2.79931 12.2465 7.39792 7.64792C11.9965 3.04931 17.5806 0.75 24.15 0.75C27.9125 0.75 31.4809 1.52639 34.8552 3.07917C38.2295 4.63194 41.1111 6.75208 43.5 9.43958C45.8889 6.75208 48.7705 4.63194 52.1448 3.07917C55.5191 1.52639 59.0875 0.75 62.85 0.75C69.4194 0.75 75.0035 3.04931 79.6021 7.64792C84.2007 12.2465 86.5 17.8306 86.5 24.4C86.5 26.9083 86.1267 29.4465 85.3802 32.0146C84.6337 34.5826 83.484 37.1507 81.9313 39.7188C81.334 39.0021 80.6622 38.3899 79.9156 37.8823C79.1691 37.3747 78.3778 36.9417 77.5417 36.5833C78.7361 34.4931 79.6319 32.4326 80.2292 30.4021C80.8264 28.3715 81.125 26.3708 81.125 24.4C81.125 19.3236 79.3483 15.0087 75.7948 11.4552C72.2413 7.90174 67.9264 6.125 62.85 6.125C59.5653 6.125 56.3253 7.09549 53.1302 9.03646C49.9351 10.9774 46.725 13.9188 43.5 17.8604C40.275 13.9188 37.0649 10.9774 33.8698 9.03646C30.6747 7.09549 27.4347 6.125 24.15 6.125C19.0736 6.125 14.7587 7.90174 11.2052 11.4552C7.65174 15.0087 5.875 19.3236 5.875 24.4C5.875 26.3708 6.17361 28.3715 6.77083 30.4021C7.36806 32.4326 8.26389 34.4931 9.45833 36.5833C8.62222 36.9417 7.8309 37.3896 7.08437 37.9271C6.33785 38.4646 5.66597 39.0917 5.06875 39.8083ZM0.5 68.8333V64.0854C0.5 61.7563 1.75417 59.875 4.2625 58.4417C6.77083 57.0083 9.99583 56.2917 13.9375 56.2917C14.7139 56.2917 15.4306 56.3066 16.0875 56.3365C16.7444 56.3663 17.4014 56.441 18.0583 56.5604C17.5806 57.5757 17.2222 58.6059 16.9833 59.651C16.7444 60.6962 16.625 61.816 16.625 63.0104V68.8333H0.5ZM22 68.8333V63.0104C22 59.1285 23.9858 55.9931 27.9573 53.6042C31.9288 51.2153 37.1097 50.0208 43.5 50.0208C49.95 50.0208 55.1458 51.2153 59.0875 53.6042C63.0292 55.9931 65 59.1285 65 63.0104V68.8333H22ZM70.375 68.8333V63.0104C70.375 61.816 70.2705 60.6962 70.0615 59.651C69.8524 58.6059 69.509 57.5757 69.0312 56.5604C69.6882 56.441 70.3451 56.3663 71.0021 56.3365C71.659 56.3066 72.3458 56.2917 73.0625 56.2917C77.0639 56.2917 80.3038 57.0083 82.7823 58.4417C85.2608 59.875 86.5 61.7563 86.5 64.0854V68.8333H70.375ZM43.5 55.3958C38.7222 55.3958 34.8403 56.1125 31.8542 57.5458C28.8681 58.9792 27.375 60.8007 27.375 63.0104V63.4583H59.625V62.9208C59.625 60.7708 58.1469 58.9792 55.1906 57.5458C52.2344 56.1125 48.3375 55.3958 43.5 55.3958ZM13.9375 53.6042C12.2056 53.6042 10.7274 52.992 9.50313 51.7677C8.27882 50.5434 7.66667 49.0653 7.66667 47.3333C7.66667 45.6014 8.27882 44.1233 9.50313 42.899C10.7274 41.6747 12.2056 41.0625 13.9375 41.0625C15.6694 41.0625 17.1476 41.6747 18.3719 42.899C19.5962 44.1233 20.2083 45.6014 20.2083 47.3333C20.2083 49.0653 19.5962 50.5434 18.3719 51.7677C17.1476 52.992 15.6694 53.6042 13.9375 53.6042ZM73.0625 53.6042C71.3306 53.6042 69.8524 52.992 68.6281 51.7677C67.4038 50.5434 66.7917 49.0653 66.7917 47.3333C66.7917 45.6014 67.4038 44.1233 68.6281 42.899C69.8524 41.6747 71.3306 41.0625 73.0625 41.0625C74.7944 41.0625 76.2726 41.6747 77.4969 42.899C78.7212 44.1233 79.3333 45.6014 79.3333 47.3333C79.3333 49.0653 78.7212 50.5434 77.4969 51.7677C76.2726 52.992 74.7944 53.6042 73.0625 53.6042ZM43.5 47.3333C40.5139 47.3333 37.9757 46.2882 35.8854 44.1979C33.7951 42.1076 32.75 39.5694 32.75 36.5833C32.75 33.5375 33.7951 30.9844 35.8854 28.924C37.9757 26.8635 40.5139 25.8333 43.5 25.8333C46.5458 25.8333 49.099 26.8635 51.1594 28.924C53.2198 30.9844 54.25 33.5375 54.25 36.5833C54.25 39.5694 53.2198 42.1076 51.1594 44.1979C49.099 46.2882 46.5458 47.3333 43.5 47.3333ZM43.5 31.2083C42.0069 31.2083 40.7378 31.716 39.6927 32.7313C38.6476 33.7465 38.125 35.0306 38.125 36.5833C38.125 38.0764 38.6476 39.3455 39.6927 40.3906C40.7378 41.4358 42.0069 41.9583 43.5 41.9583C45.0528 41.9583 46.3368 41.4358 47.3521 40.3906C48.3674 39.3455 48.875 38.0764 48.875 36.5833C48.875 35.0306 48.3674 33.7465 47.3521 32.7313C46.3368 31.716 45.0528 31.2083 43.5 31.2083Z" fill="#1C1B1F"/>
</svg>
