<svg width="69" height="70" viewBox="0 0 69 70" fill="none" xmlns="http://www.w3.org/2000/svg">
<path d="M4.31058 69.0417L0.458496 65.1896L13.6272 52.0209H2.25016V46.6459H22.8543V67.25H17.4793V55.8729L4.31058 69.0417ZM64.6898 69.0417L51.521 55.8729V67.25H46.146V46.6459H66.7502V52.0209H55.3731L68.5418 65.1896L64.6898 69.0417ZM2.25016 23.3542V17.9792H13.6272L0.458496 4.81044L4.31058 0.958358L17.4793 14.1271V2.75002H22.8543V23.3542H2.25016ZM46.146 23.3542V2.75002H51.521V14.1271L64.7793 0.868774L68.6314 4.72086L55.3731 17.9792H66.7502V23.3542H46.146ZM34.5897 41.0021C32.9145 41.0021 31.4806 40.4144 30.288 39.2391C29.0947 38.0638 28.4981 36.6507 28.4981 35C28.4981 33.3493 29.0947 31.9363 30.288 30.7609C31.4806 29.5856 32.9145 28.9979 34.5897 28.9979C36.216 28.9979 37.6078 29.5856 38.7652 30.7609C39.9232 31.9363 40.5022 33.3493 40.5022 35C40.5022 36.6507 39.9232 38.0638 38.7652 39.2391C37.6078 40.4144 36.216 41.0021 34.5897 41.0021Z" fill="#1C1B1F"/>
</svg>
