<svg width="55" height="74" viewBox="0 0 55 74" fill="none" xmlns="http://www.w3.org/2000/svg">
<path d="M27.5 73.8333C25.4694 73.8333 23.7524 73.1316 22.349 71.7281C20.9455 70.3246 20.2437 68.6076 20.2437 66.5771H34.7563C34.7563 68.6076 34.0545 70.3246 32.651 71.7281C31.2476 73.1316 29.5306 73.8333 27.5 73.8333ZM12.9875 61.0229V55.6479H42.0125V61.0229H12.9875ZM13.4354 50.1833C9.49375 47.6153 6.37326 44.4052 4.07396 40.5531C1.77465 36.701 0.625 32.3562 0.625 27.5187C0.625 20.2326 3.28264 13.9319 8.59792 8.61666C13.9132 3.30138 20.2139 0.643738 27.5 0.643738C34.7861 0.643738 41.0868 3.30138 46.4021 8.61666C51.7174 13.9319 54.375 20.2326 54.375 27.5187C54.375 32.3562 53.2403 36.701 50.9708 40.5531C48.7014 44.4052 45.566 47.6153 41.5646 50.1833H13.4354ZM15.4062 44.8083H39.6833C42.55 42.8972 44.8194 40.4187 46.4917 37.3729C48.1639 34.3271 49 31.0424 49 27.5187C49 21.6062 46.8948 16.5448 42.6844 12.3344C38.474 8.12395 33.4125 6.01874 27.5 6.01874C21.5875 6.01874 16.526 8.12395 12.3156 12.3344C8.10521 16.5448 6 21.6062 6 27.5187C6 31.0424 6.83611 34.3271 8.50833 37.3729C10.1806 40.4187 12.4799 42.8972 15.4062 44.8083Z" fill="#1C1B1F"/>
</svg>
