<svg width="87" height="86" viewBox="0 0 87 86" fill="none" xmlns="http://www.w3.org/2000/svg">
<g filter="url(#filter0_d_220_430)">
<mask id="mask0_220_430" style="mask-type:alpha" maskUnits="userSpaceOnUse" x="0" y="0" width="87" height="86">
<rect x="0.5" width="86" height="86" fill="#D9D9D9"/>
</mask>
<g mask="url(#mask0_220_430)">
<path d="M58.55 63.3354C60.018 63.3354 61.2659 62.8215 62.2937 61.7937C63.3215 60.7659 63.8354 59.518 63.8354 58.05C63.8354 56.582 63.3215 55.3341 62.2937 54.3063C61.2659 53.2785 60.018 52.7646 58.55 52.7646C57.082 52.7646 55.8341 53.2785 54.8063 54.3063C53.7785 55.3341 53.2646 56.582 53.2646 58.05C53.2646 59.518 53.7785 60.7659 54.8063 61.7937C55.8341 62.8215 57.082 63.3354 58.55 63.3354ZM43.3208 48.1063C44.7888 48.1063 46.0367 47.5923 47.0645 46.5645C48.0923 45.5367 48.6063 44.2888 48.6063 42.8208C48.6063 41.3529 48.0923 40.105 47.0645 39.0771C46.0367 38.0493 44.7888 37.5354 43.3208 37.5354C41.8529 37.5354 40.605 38.0493 39.5771 39.0771C38.5493 40.105 38.0354 41.3529 38.0354 42.8208C38.0354 44.2888 38.5493 45.5367 39.5771 46.5645C40.605 47.5923 41.8529 48.1063 43.3208 48.1063ZM28.45 33.2354C29.918 33.2354 31.1659 32.7215 32.1937 31.6937C33.2215 30.6659 33.7354 29.418 33.7354 27.95C33.7354 26.482 33.2215 25.2341 32.1937 24.2063C31.1659 23.1785 29.918 22.6646 28.45 22.6646C26.982 22.6646 25.7341 23.1785 24.7063 24.2063C23.6785 25.2341 23.1646 26.482 23.1646 27.95C23.1646 29.418 23.6785 30.6659 24.7063 31.6937C25.7341 32.7215 26.982 33.2354 28.45 33.2354ZM16.625 75.25C15.1917 75.25 13.9375 74.7125 12.8625 73.6375C11.7875 72.5625 11.25 71.3083 11.25 69.875V16.125C11.25 14.6917 11.7875 13.4375 12.8625 12.3625C13.9375 11.2875 15.1917 10.75 16.625 10.75H70.375C71.8083 10.75 73.0625 11.2875 74.1375 12.3625C75.2125 13.4375 75.75 14.6917 75.75 16.125V69.875C75.75 71.3083 75.2125 72.5625 74.1375 73.6375C73.0625 74.7125 71.8083 75.25 70.375 75.25H16.625ZM16.625 69.875H70.375V16.125H16.625V69.875Z" fill="#1C1B1F"/>
</g>
</g>
<defs>
<filter id="filter0_d_220_430" x="7.25" y="10.75" width="72.5" height="72.5" filterUnits="userSpaceOnUse" color-interpolation-filters="sRGB">
<feFlood flood-opacity="0" result="BackgroundImageFix"/>
<feColorMatrix in="SourceAlpha" type="matrix" values="0 0 0 0 0 0 0 0 0 0 0 0 0 0 0 0 0 0 127 0" result="hardAlpha"/>
<feOffset dy="4"/>
<feGaussianBlur stdDeviation="2"/>
<feComposite in2="hardAlpha" operator="out"/>
<feColorMatrix type="matrix" values="0 0 0 0 0 0 0 0 0 0 0 0 0 0 0 0 0 0 0.25 0"/>
<feBlend mode="normal" in2="BackgroundImageFix" result="effect1_dropShadow_220_430"/>
<feBlend mode="normal" in="SourceGraphic" in2="effect1_dropShadow_220_430" result="shape"/>
</filter>
</defs>
</svg>
