<svg width="76" height="76" viewBox="0 0 76 76" fill="none" xmlns="http://www.w3.org/2000/svg">
<path d="M40.0832 43.3459L43.8457 39.5834L35.604 31.3417V15.3959H30.229V33.4917L40.0832 43.3459ZM26.0186 58.3959C26.6755 55.0514 28.288 52.2743 30.8561 50.0646C33.4241 47.8549 36.4401 46.75 39.904 46.75H55.6707C56.9846 44.6597 57.9998 42.4148 58.7165 40.0151C59.4332 37.6155 59.7915 35.0827 59.7915 32.4167C59.7915 24.9299 57.184 18.579 51.9691 13.3641C46.7541 8.14916 40.4033 5.54169 32.9165 5.54169C25.4297 5.54169 19.0789 8.14916 13.8639 13.3641C8.64898 18.579 6.0415 24.9299 6.0415 32.4167C6.0415 38.6875 7.92275 44.1969 11.6853 48.9448C15.4478 53.6927 20.2255 56.8431 26.0186 58.3959ZM40.0832 75.4167C36.6193 75.4167 33.5734 74.3268 30.9457 72.1469C28.3179 69.967 26.6755 67.2347 26.0186 63.95C18.7325 62.3972 12.6856 58.6945 7.87796 52.8417C3.07032 46.9889 0.666504 40.1806 0.666504 32.4167C0.666504 23.4584 3.80192 15.8438 10.0728 9.57294C16.3436 3.3021 23.9582 0.166687 32.9165 0.166687C41.8748 0.166687 49.4894 3.3021 55.7603 9.57294C62.0311 15.8438 65.1665 23.4584 65.1665 32.4167C65.1665 34.9847 64.8828 37.4781 64.3155 39.8969C63.7481 42.3156 62.9269 44.6 61.8519 46.75C65.7936 46.75 69.1231 48.1535 71.8405 50.9604C74.5578 53.7674 75.9165 57.1417 75.9165 61.0834C75.9165 65.025 74.513 68.3993 71.7061 71.2063C68.8991 74.0132 65.5248 75.4167 61.5832 75.4167H40.0832ZM40.0832 70.0417H61.5832C64.0915 70.0417 66.2116 69.1757 67.9436 67.4438C69.6755 65.7118 70.5415 63.5917 70.5415 61.0834C70.5415 58.575 69.6755 56.4549 67.9436 54.7229C66.2116 52.991 64.0915 52.125 61.5832 52.125H40.0832C37.5748 52.125 35.4547 52.991 33.7228 54.7229C31.9908 56.4549 31.1248 58.575 31.1248 61.0834C31.1248 63.5917 31.9908 65.7118 33.7228 67.4438C35.4547 69.1757 37.5748 70.0417 40.0832 70.0417ZM40.067 63.7709C39.3014 63.7709 38.6648 63.5117 38.1571 62.9933C37.6495 62.4755 37.3957 61.8335 37.3957 61.0672C37.3957 60.3016 37.6549 59.6649 38.1733 59.1573C38.691 58.6497 39.3331 58.3959 40.0993 58.3959C40.8649 58.3959 41.5016 58.655 42.0092 59.1734C42.5169 59.6912 42.7707 60.3332 42.7707 61.0995C42.7707 61.8651 42.5115 62.5018 41.9931 63.0094C41.4753 63.517 40.8333 63.7709 40.067 63.7709ZM50.817 63.7709C50.0514 63.7709 49.4148 63.5117 48.9071 62.9933C48.3995 62.4755 48.1457 61.8335 48.1457 61.0672C48.1457 60.3016 48.4049 59.6649 48.9233 59.1573C49.441 58.6497 50.0831 58.3959 50.8493 58.3959C51.6149 58.3959 52.2516 58.655 52.7592 59.1734C53.2668 59.6912 53.5207 60.3332 53.5207 61.0995C53.5207 61.8651 53.2615 62.5018 52.7431 63.0094C52.2253 63.517 51.5833 63.7709 50.817 63.7709ZM61.567 63.7709C60.8014 63.7709 60.1648 63.5117 59.6571 62.9933C59.1495 62.4755 58.8957 61.8335 58.8957 61.0672C58.8957 60.3016 59.1549 59.6649 59.6733 59.1573C60.191 58.6497 60.8331 58.3959 61.5993 58.3959C62.3649 58.3959 63.0016 58.655 63.5092 59.1734C64.0168 59.6912 64.2707 60.3332 64.2707 61.0995C64.2707 61.8651 64.0115 62.5018 63.4931 63.0094C62.9753 63.517 62.3333 63.7709 61.567 63.7709Z" fill="#1C1B1F"/>
</svg>
