<svg width="59" height="72" viewBox="0 0 59 72" fill="none" xmlns="http://www.w3.org/2000/svg">
<path d="M7.10433 71.8334V66.4584H26.8127V50.3334H18.7502C13.7932 50.3334 9.56787 48.5865 6.07412 45.0927C2.58037 41.599 0.833496 37.3736 0.833496 32.4167C0.833496 28.8334 1.81891 25.5337 3.78975 22.5177C5.76058 19.5018 8.41822 17.307 11.7627 15.9334C12.3002 11.4542 14.2561 7.70662 17.6304 4.69065C21.0047 1.67467 24.9613 0.166687 29.5002 0.166687C34.0391 0.166687 37.9956 1.67467 41.37 4.69065C44.7443 7.70662 46.7002 11.4542 47.2377 15.9334C50.5821 17.307 53.2397 19.5018 55.2106 22.5177C57.1814 25.5337 58.1668 28.8334 58.1668 32.4167C58.1668 37.3736 56.42 41.599 52.9262 45.0927C49.4325 48.5865 45.2071 50.3334 40.2502 50.3334H32.1877V66.4584H52.7918V71.8334H7.10433ZM18.7502 44.9584H40.2502C43.7338 44.9584 46.6951 43.7391 49.1341 41.3007C51.5726 38.8616 52.7918 35.9003 52.7918 32.4167C52.7918 29.9084 52.0752 27.624 50.6418 25.5636C49.2085 23.5031 47.3571 21.9653 45.0877 20.95L42.221 19.6959L41.8627 16.5604C41.4446 13.3952 40.0656 10.7674 37.7257 8.6771C35.3852 6.58683 32.6433 5.54169 29.5002 5.54169C26.357 5.54169 23.6151 6.58683 21.2746 8.6771C18.9347 10.7674 17.5557 13.3952 17.1377 16.5604L16.7793 19.6959L13.9127 20.95C11.6432 21.9653 9.79183 23.51 8.3585 25.5842C6.92516 27.6577 6.2085 29.9388 6.2085 32.4274C6.2085 35.8842 7.42772 38.8368 9.86618 41.2854C12.3052 43.734 15.2666 44.9584 18.7502 44.9584Z" fill="#1C1B1F"/>
</svg>
