<svg width="87" height="86" viewBox="0 0 87 86" fill="none" xmlns="http://www.w3.org/2000/svg">
<mask id="mask0_220_454" style="mask-type:alpha" maskUnits="userSpaceOnUse" x="0" y="0" width="87" height="86">
<rect x="0.5" width="86" height="86" fill="#D9D9D9"/>
</mask>
<g mask="url(#mask0_220_454)">
<path d="M68.5832 30.4584C70.1061 30.4584 71.3826 29.9432 72.4129 28.913C73.4431 27.8828 73.9582 26.6063 73.9582 25.0834C73.9582 23.5604 73.4431 22.2839 72.4129 21.2537C71.3826 20.2235 70.1061 19.7084 68.5832 19.7084C67.0603 19.7084 65.7837 20.2235 64.7535 21.2537C63.7233 22.2839 63.2082 23.5604 63.2082 25.0834C63.2082 26.6063 63.7233 27.8828 64.7535 28.913C65.7837 29.9432 67.0603 30.4584 68.5832 30.4584ZM68.5832 35.8334C65.5373 35.8334 62.9842 34.8031 60.9238 32.7427C58.8634 30.6823 57.8332 28.1292 57.8332 25.0834C57.8332 22.0972 58.8634 19.559 60.9238 17.4688C62.9842 15.3785 65.5373 14.3334 68.5832 14.3334C71.5693 14.3334 74.1075 15.3785 76.1978 17.4688C78.288 19.559 79.3332 22.0972 79.3332 25.0834C79.3332 28.1292 78.288 30.6823 76.1978 32.7427C74.1075 34.8031 71.5693 35.8334 68.5832 35.8334ZM43.5142 26.875C45.4754 26.875 47.1578 26.1882 48.5613 24.8146C49.9648 23.441 50.6665 21.7341 50.6665 19.694C50.6665 17.7327 49.9698 16.0504 48.5765 14.6469C47.1826 13.2434 45.4904 12.5417 43.4998 12.5417C41.4693 12.5417 39.7672 13.2383 38.3936 14.6317C37.02 16.0256 36.3332 17.7178 36.3332 19.7084C36.3332 21.7389 37.02 23.441 38.3936 24.8146C39.7672 26.1882 41.4741 26.875 43.5142 26.875ZM43.4998 32.25C39.9762 32.25 37.005 31.0406 34.5863 28.6219C32.1675 26.2031 30.9582 23.232 30.9582 19.7084C30.9582 16.2445 32.1675 13.2882 34.5863 10.8396C37.005 8.39099 39.9762 7.16669 43.4998 7.16669C46.9637 7.16669 49.92 8.39099 52.3686 10.8396C54.8172 13.2882 56.0415 16.2445 56.0415 19.7084C56.0415 23.232 54.8172 26.2031 52.3686 28.6219C49.92 31.0406 46.9637 32.25 43.4998 32.25ZM27.3748 47.9271C27.3748 49.9959 28.4648 52.4093 30.6446 55.1672C32.8245 57.9252 37.1096 62.2007 43.4998 67.9938C49.8155 62.2407 54.082 58.0103 56.2995 55.3025C58.5164 52.5953 59.6248 50.1368 59.6248 47.9271C59.6248 46.016 59.0046 44.4184 57.7642 43.1344C56.5238 41.8504 54.994 41.2084 53.1748 41.2084C52.1243 41.2084 51.1302 41.4771 50.1926 42.0146C49.2544 42.5521 48.3672 43.1792 47.5311 43.8959L43.4998 47.6584L39.379 43.8959C38.5429 43.1792 37.662 42.5521 36.7363 42.0146C35.8106 41.4771 34.8303 41.2084 33.7953 41.2084C31.9636 41.2084 30.4356 41.8599 29.2113 43.1631C27.987 44.4662 27.3748 46.0542 27.3748 47.9271ZM21.9998 47.9271C21.9998 44.7618 23.1943 41.9549 25.5832 39.5063C27.9721 37.0577 30.7193 35.8334 33.8248 35.8334C35.6165 35.8334 37.3744 36.2514 39.0986 37.0875C40.8234 37.9236 42.2908 39.0584 43.5007 40.4917C44.7107 39.0584 46.1626 37.9236 47.8563 37.0875C49.5506 36.2514 51.3234 35.8334 53.1748 35.8334C56.2207 35.8334 58.953 37.0577 61.3717 39.5063C63.7905 41.9549 64.9998 44.7618 64.9998 47.9271C64.9998 51.0924 63.8502 54.2129 61.5509 57.2886C59.2516 60.3643 54.5485 65.157 47.4415 71.6667L43.4998 75.25L39.5582 71.6667C32.3318 65.0972 27.5988 60.2896 25.3592 57.2438C23.1196 54.1979 21.9998 51.0924 21.9998 47.9271ZM18.4165 30.4584C19.9394 30.4584 21.216 29.9432 22.2462 28.913C23.2764 27.8828 23.7915 26.6063 23.7915 25.0834C23.7915 23.5604 23.2764 22.2839 22.2462 21.2537C21.216 20.2235 19.9394 19.7084 18.4165 19.7084C16.8936 19.7084 15.617 20.2235 14.5868 21.2537C13.5566 22.2839 13.0415 23.5604 13.0415 25.0834C13.0415 26.6063 13.5566 27.8828 14.5868 28.913C15.617 29.9432 16.8936 30.4584 18.4165 30.4584ZM43.7686 78.8334V73.4584H73.9582V44.7917H61.2373V39.4167H73.9582C75.4363 39.4167 76.7018 39.9428 77.7547 40.9951C78.807 42.048 79.3332 43.3136 79.3332 44.7917V78.8334H43.7686ZM13.0415 73.4584H43.7686V78.8334H7.6665V44.7917C7.6665 43.3136 8.18161 42.048 9.21182 40.9951C10.242 39.9428 11.5186 39.4167 13.0415 39.4167H25.6728V44.7917H13.0415V73.4584ZM18.4165 35.8334C15.3707 35.8334 12.8175 34.8031 10.7571 32.7427C8.69671 30.6823 7.6665 28.1292 7.6665 25.0834C7.6665 22.0972 8.69671 19.559 10.7571 17.4688C12.8175 15.3785 15.3707 14.3334 18.4165 14.3334C21.4026 14.3334 23.9408 15.3785 26.0311 17.4688C28.1214 19.559 29.1665 22.0972 29.1665 25.0834C29.1665 28.1292 28.1214 30.6823 26.0311 32.7427C23.9408 34.8031 21.4026 35.8334 18.4165 35.8334Z" fill="#1C1B1F"/>
</g>
</svg>
