<svg width="64" height="64" viewBox="0 0 64 64" fill="none" xmlns="http://www.w3.org/2000/svg">
<mask id="mask0_180_426" style="mask-type:alpha" maskUnits="userSpaceOnUse" x="0" y="0" width="64" height="64">
<rect width="64" height="64" fill="#D9D9D9"/>
</mask>
<g mask="url(#mask0_180_426)">
<path d="M42.667 32.3333V10.6666H48.0003V27L42.667 32.3333ZM10.667 53.3333V10.6666H16.0003V53.3333H10.667ZM26.667 21.3333V10.6666H32.0003V21.3333H26.667ZM26.667 37.3333V26.6666H32.0003V37.3333H26.667ZM26.667 53.3333V42.6666H32.0003V53.3333H26.667ZM37.3337 53.3333V45.1333L52.067 30.4666C52.467 30.0666 52.9114 29.7777 53.4003 29.6C53.8892 29.4222 54.3781 29.3333 54.867 29.3333C55.4003 29.3333 55.9114 29.4333 56.4003 29.6333C56.8892 29.8333 57.3337 30.1333 57.7337 30.5333L60.2003 33C60.5559 33.4 60.8337 33.8444 61.0337 34.3333C61.2337 34.8222 61.3337 35.3111 61.3337 35.8C61.3337 36.2888 61.2448 36.7888 61.067 37.3C60.8892 37.8111 60.6003 38.2666 60.2003 38.6666L45.5337 53.3333H37.3337ZM41.3337 49.3333H43.867L51.9337 41.2L50.7337 39.9333L49.467 38.7333L41.3337 46.8V49.3333ZM50.7337 39.9333L49.467 38.7333L51.9337 41.2L50.7337 39.9333Z" fill="#4CAF50"/>
</g>
</svg>
