<svg width="54" height="54" viewBox="0 0 54 54" fill="none" xmlns="http://www.w3.org/2000/svg">
<path d="M20.9335 35.8667L43.4002 13.4C42.9113 12.8667 42.4224 12.3445 41.9335 11.8334C41.4446 11.3223 40.9113 10.8445 40.3335 10.4L19.4668 31.3334C19.6446 32.1334 19.8446 32.9 20.0668 33.6334C20.2891 34.3667 20.5779 35.1111 20.9335 35.8667ZM43.4668 40.5334C44.7557 38.9778 45.8002 37.2889 46.6002 35.4667C47.4002 33.6445 47.9113 31.7334 48.1335 29.7334L31.4668 46.4C31.8224 46.5334 32.1891 46.6889 32.5668 46.8667C32.9446 47.0445 33.3113 47.1778 33.6668 47.2667C35.6224 46.6445 37.4224 45.7556 39.0668 44.6C40.7113 43.4445 42.1779 42.0889 43.4668 40.5334ZM5.66683 27C5.66683 32.4223 7.42238 37.1223 10.9335 41.1C14.4446 45.0778 18.8224 47.4223 24.0668 48.1334C20.8668 45.6889 18.3335 42.6334 16.4668 38.9667C14.6002 35.3 13.6668 31.3111 13.6668 27C13.6668 22.6889 14.6002 18.7 16.4668 15.0334C18.3335 11.3667 20.8668 8.31115 24.0668 5.86671C18.8224 6.57782 14.4446 8.92226 10.9335 12.9C7.42238 16.8778 5.66683 21.5778 5.66683 27ZM26.8002 43.4667L47.8002 22.5334C47.6224 21.7334 47.4224 20.9556 47.2002 20.2C46.9779 19.4445 46.689 18.7112 46.3335 18L23.8002 40.4667C24.2891 41.0445 24.7557 41.5667 25.2002 42.0334C25.6446 42.5 26.1779 42.9778 26.8002 43.4667ZM27.0002 53.6667C23.3113 53.6667 19.8446 52.9667 16.6002 51.5667C13.3557 50.1667 10.5335 48.2667 8.1335 45.8667C5.7335 43.4667 3.8335 40.6445 2.4335 37.4C1.0335 34.1556 0.333496 30.6889 0.333496 27C0.333496 23.3111 1.0335 19.8445 2.4335 16.6C3.8335 13.3556 5.7335 10.5334 8.1335 8.13337C10.5335 5.73337 13.3557 3.83337 16.6002 2.43337C19.8446 1.03337 23.3113 0.333374 27.0002 0.333374C30.6891 0.333374 34.1557 1.03337 37.4002 2.43337C40.6446 3.83337 43.4668 5.73337 45.8668 8.13337C48.2668 10.5334 50.1668 13.3556 51.5668 16.6C52.9668 19.8445 53.6668 23.3111 53.6668 27C53.6668 30.6889 52.9668 34.1556 51.5668 37.4C50.1668 40.6445 48.2668 43.4667 45.8668 45.8667C43.4668 48.2667 40.6446 50.1667 37.4002 51.5667C34.1557 52.9667 30.6891 53.6667 27.0002 53.6667ZM19.2002 24L35.6668 7.53337C35.3113 7.40004 34.989 7.2556 34.7002 7.10004C34.4113 6.94449 34.0891 6.82226 33.7335 6.73337C29.9113 7.97782 26.6779 10.1445 24.0335 13.2334C21.389 16.3223 19.7779 19.9111 19.2002 24Z" fill="#4CAF50"/>
</svg>
