<svg width="54" height="48" viewBox="0 0 54 48" fill="none" xmlns="http://www.w3.org/2000/svg">
<path d="M6.4 8H41.6L39.3333 5.33333H8.66667L6.4 8ZM18.6667 26L24 23.3333L29.3333 26V13.3333H18.6667V26ZM5.33333 48C3.86667 48 2.61111 47.4778 1.56667 46.4333C0.522222 45.3889 0 44.1333 0 42.6667V9.4C0 8.77778 0.1 8.17778 0.3 7.6C0.5 7.02222 0.8 6.48889 1.2 6L4.53333 1.93333C5.02222 1.31111 5.63333 0.833333 6.36667 0.5C7.1 0.166667 7.86667 0 8.66667 0H39.3333C40.1333 0 40.9 0.166667 41.6333 0.5C42.3667 0.833333 42.9778 1.31111 43.4667 1.93333L46.8 6C47.2 6.48889 47.5 7.02222 47.7 7.6C47.9 8.17778 48 8.77778 48 9.4V18.6667C47.0667 18.6667 46.1444 18.7333 45.2333 18.8667C44.3222 19 43.4667 19.2667 42.6667 19.6667V13.3333H34.6667V27L29.5333 32.1333L24 29.3333L13.3333 34.6667V13.3333H5.33333V42.6667H24V48H5.33333ZM29.3333 48V39.8L44.0667 25.1333C44.4667 24.7333 44.9111 24.4444 45.4 24.2667C45.8889 24.0889 46.3778 24 46.8667 24C47.4 24 47.9111 24.1 48.4 24.3C48.8889 24.5 49.3333 24.8 49.7333 25.2L52.2 27.6667C52.5556 28.0667 52.8333 28.5111 53.0333 29C53.2333 29.4889 53.3333 29.9778 53.3333 30.4667C53.3333 30.9556 53.2444 31.4556 53.0667 31.9667C52.8889 32.4778 52.6 32.9333 52.2 33.3333L37.5333 48H29.3333ZM33.3333 44H35.8667L43.9333 35.8667L42.7333 34.6L41.4667 33.4L33.3333 41.4667V44ZM42.7333 34.6L41.4667 33.4L43.9333 35.8667L42.7333 34.6Z" fill="#4CAF50"/>
</svg>
