<svg width="72" height="72" viewBox="0 0 72 72" fill="none" xmlns="http://www.w3.org/2000/svg">
<rect width="72" height="72" rx="8" fill="white" fill-opacity="0.2"/>
<path d="M60 34.5C60 20.415 48.585 9 34.5 9C20.415 9 9 20.415 9 34.5C9 48.585 20.415 60 34.5 60" stroke="white" stroke-width="1.5" stroke-linecap="round" stroke-linejoin="round"/>
<path d="M57.8105 57.8101L63.0005 63.0001" stroke="white" stroke-width="1.5" stroke-linecap="round" stroke-linejoin="round"/>
<path d="M57.8033 47.1967C60.7322 50.1256 60.7322 54.8744 57.8033 57.8033C54.8744 60.7322 50.1256 60.7322 47.1967 57.8033C44.2678 54.8744 44.2678 50.1256 47.1967 47.1967C50.1256 44.2678 54.8744 44.2678 57.8033 47.1967" stroke="white" stroke-width="1.5" stroke-linecap="round" stroke-linejoin="round"/>
<path d="M11.6602 45.8429H11.8342C20.3332 45.8429 26.0002 45.3569 26.0002 37.3439C26.0002 28.8449 34.4992 28.8449 34.4992 23.1779C34.4992 16.8419 23.1652 17.5109 23.1652 11.8439V11.6399" stroke="white" stroke-width="1.5" stroke-linecap="round" stroke-linejoin="round"/>
<path d="M60.0008 34.5H50.7968C44.4818 34.5 41.1308 27.039 45.3248 22.317L51.4178 15.459" stroke="white" stroke-width="1.5" stroke-linecap="round" stroke-linejoin="round"/>
</svg>
