<svg width="72" height="72" viewBox="0 0 72 72" fill="none" xmlns="http://www.w3.org/2000/svg">
<rect width="72" height="72" rx="8" fill="white" fill-opacity="0.2"/>
<path fill-rule="evenodd" clip-rule="evenodd" d="M27.6758 19.356V19.356C27.6758 14.76 31.4018 11.031 36.0008 11.031V11.031C40.5968 11.031 44.3258 14.757 44.3258 19.356V19.356C44.3258 23.952 40.5998 27.681 36.0008 27.681V27.681C31.4018 27.675 27.6758 23.949 27.6758 19.356Z" stroke="white" stroke-width="1.5" stroke-linecap="round" stroke-linejoin="round"/>
<path fill-rule="evenodd" clip-rule="evenodd" d="M7.5 52.6441V52.6441C7.5 48.0481 11.226 44.3191 15.825 44.3191V44.3191C20.421 44.3191 24.15 48.0451 24.15 52.6441V52.6441C24.147 57.2401 20.424 60.9691 15.825 60.9691V60.9691C11.226 60.9691 7.5 57.2431 7.5 52.6441Z" stroke="white" stroke-width="1.5" stroke-linecap="round" stroke-linejoin="round"/>
<path fill-rule="evenodd" clip-rule="evenodd" d="M47.8535 52.6441V52.6441C47.8535 48.0481 51.5795 44.3191 56.1785 44.3191V44.3191C60.7745 44.3191 64.5035 48.0451 64.5035 52.6441V52.6441C64.5035 57.2401 60.7775 60.9691 56.1785 60.9691V60.9691C51.5765 60.9691 47.8535 57.2431 47.8535 52.6441H47.8535Z" stroke="white" stroke-width="1.5" stroke-linecap="round" stroke-linejoin="round"/>
<path d="M25.4695 35.76L19.4395 45.18" stroke="white" stroke-width="1.5" stroke-linecap="round" stroke-linejoin="round"/>
<path d="M40.5 26.3401L46.53 35.7601" stroke="white" stroke-width="1.5" stroke-linecap="round" stroke-linejoin="round"/>
<path d="M47.85 52.6499H36" stroke="white" stroke-width="1.5" stroke-linecap="round" stroke-linejoin="round"/>
</svg>
