<svg width="72" height="72" viewBox="0 0 72 72" fill="none" xmlns="http://www.w3.org/2000/svg">
<rect width="72" height="72" rx="8" fill="white" fill-opacity="0.2"/>
<path d="M27 21H12" stroke="white" stroke-width="1.5" stroke-linecap="round" stroke-linejoin="round"/>
<path d="M27 54H18C14.6863 54 12 51.3137 12 48V9" stroke="white" stroke-width="1.5" stroke-linecap="round" stroke-linejoin="round"/>
<path fill-rule="evenodd" clip-rule="evenodd" d="M40.318 10.842L43.842 7.31802C44.6859 6.47411 45.8305 6.00001 47.0239 6H55.5C57.9853 6 60 8.01472 60 10.5V25.5C60 27.9853 57.9853 30 55.5 30H43.5C41.0147 30 39 27.9853 39 25.5V14.0239C39 12.8305 39.4741 11.6859 40.318 10.842Z" stroke="white" stroke-width="1.5" stroke-linecap="round" stroke-linejoin="round"/>
<path fill-rule="evenodd" clip-rule="evenodd" d="M40.318 43.842L43.842 40.318C44.6859 39.4741 45.8305 39 47.0239 39H55.5C57.9853 39 60 41.0147 60 43.5V58.5C60 60.9853 57.9853 63 55.5 63H43.5C41.0147 63 39 60.9853 39 58.5V47.0239C39 45.8305 39.4741 44.6859 40.318 43.842V43.842Z" stroke="white" stroke-width="1.5" stroke-linecap="round" stroke-linejoin="round"/>
</svg>
